<svg width="1400" height="1200" viewBox="0 0 1400 1200" fill="none" xmlns="http://www.w3.org/2000/svg">
<path d="M224.254 842.652L146.206 616.81C141.73 603.851 151.348 590.352 165.054 590.343H480.273C484.046 590.343 487.387 592.775 488.531 596.377L570.811 854.611H781.921C785.892 854.611 789.116 857.835 789.116 861.806C789.116 865.777 785.892 869.001 781.921 869.001H261.248C244.561 869.001 229.711 858.42 224.254 842.652Z" fill="white"/>
<path d="M786.625 861.806C786.625 859.211 784.517 857.102 781.921 857.102H568.99L486.157 597.133L486.156 597.13C485.342 594.568 482.965 592.834 480.273 592.834H165.056L164.496 592.843C152.8 593.211 144.705 604.832 148.56 615.996L226.608 841.838L226.855 842.526C232.154 856.91 245.867 866.51 261.247 866.51H781.921C784.516 866.51 786.625 864.402 786.625 861.806ZM791.607 861.806C791.607 867.153 787.268 871.492 781.921 871.492H261.247C243.498 871.492 227.704 860.237 221.9 843.466L143.851 617.624C138.817 603.047 149.636 587.862 165.052 587.852H480.273C485.125 587.852 489.429 590.98 490.904 595.62L572.632 852.12H781.921C787.268 852.12 791.607 856.459 791.607 861.806Z" fill="black"/>
<path d="M262.193 845.371C251.954 845.371 242.831 838.869 239.491 829.198L161.442 603.356C160.74 601.312 161.532 599.736 162.073 598.979C162.613 598.223 163.838 596.953 166.008 596.953H472.771C476.688 596.953 480.155 599.484 481.344 603.221L558.501 845.38H262.202L262.193 845.371Z" fill="white"/>
<path d="M472.771 594.462C477.771 594.462 482.199 597.693 483.718 602.465L561.909 847.871H261.17L261.139 847.841C250.445 847.418 241.017 840.58 237.313 830.509L237.136 830.011L159.088 604.169L159.086 604.166C158.022 601.07 159.249 598.646 160.045 597.531C160.833 596.428 162.717 594.462 166.007 594.462H472.771ZM166.007 599.444C164.958 599.444 164.392 600.017 164.099 600.427C163.815 600.825 163.457 601.553 163.799 602.546L241.845 828.384L241.989 828.788C245.095 837.232 253.159 842.88 262.192 842.88H263.225L263.234 842.889H555.093L478.971 603.977L478.97 603.976C478.111 601.274 475.605 599.444 472.771 599.444H166.007Z" fill="black"/>
<path d="M781.912 854.611H570.802L570.775 854.521H261.094C248.298 854.521 236.915 846.407 232.737 834.313L152.563 602.32C151.798 600.105 151.338 596.809 154.742 593.198C145.503 598.682 143.477 608.912 146.205 616.801L224.254 842.643C229.702 858.411 244.56 868.992 261.247 868.992H781.921C785.892 868.992 789.116 865.768 789.116 861.797C789.116 857.826 785.892 854.602 781.921 854.602L781.912 854.611Z" fill="black"/>
<path d="M784.018 854.611H457.227C454.412 854.611 452.13 856.893 452.13 859.708V863.904C452.13 866.719 454.412 869.001 457.227 869.001H784.018C786.833 869.001 789.115 866.719 789.115 863.904V859.708C789.115 856.893 786.833 854.611 784.018 854.611Z" fill="white"/>
<path d="M485.621 958.234H884.147V869.01H485.621V958.234Z" fill="white"/>
<path d="M483.13 960.725V866.519H886.639V960.725H483.13ZM881.656 871.501H488.113V955.742H881.656V871.501Z" fill="black"/>
<path d="M485.621 897.998H884.147V869.01H485.621V897.998Z" fill="black"/>
<path d="M483.13 900.489V866.519H886.639V900.489H483.13ZM881.656 871.501H488.113V895.507H881.656V871.501Z" fill="black"/>
<path d="M97.8112 869.001V951.038V958.234V1044.36H134.76V958.234H448.664V1044.36H485.613V958.234V951.038V869.001H97.8112Z" fill="black"/>
<path d="M451.155 955.743V1041.87H483.122V871.492H100.302V1041.87H132.268V955.743H451.155ZM488.104 1046.85H446.173V960.726H137.25V1046.85H95.3201V866.51H488.104V1046.85Z" fill="black"/>
<path d="M1397.51 1041.87C1398.88 1041.87 1400 1042.98 1400 1044.36C1400 1045.74 1398.88 1046.85 1397.51 1046.85H2.4911C1.1153 1046.85 0 1045.74 0 1044.36C0 1042.98 1.1153 1041.87 2.4911 1041.87H1397.51Z" fill="black"/>
<path d="M797.121 990.32L787.945 1044.36H1194.06C1194.06 1044.36 1202.4 1018.99 1171.55 988.654L797.121 990.32Z" fill="white"/>
<path d="M1173.3 986.878C1189.07 1002.39 1194.96 1016.78 1196.83 1027.45C1197.76 1032.77 1197.68 1037.13 1197.36 1040.18C1197.2 1041.71 1196.98 1042.91 1196.79 1043.75C1196.7 1044.17 1196.61 1044.5 1196.55 1044.73C1196.52 1044.85 1196.49 1044.94 1196.47 1045.01C1196.46 1045.04 1196.45 1045.07 1196.44 1045.09C1196.44 1045.1 1196.44 1045.11 1196.43 1045.12C1196.43 1045.12 1196.43 1045.13 1196.43 1045.13C1196.43 1045.13 1196.43 1045.13 1196.43 1045.13L1194.06 1044.36L1196.43 1045.14L1195.87 1046.85H784.995L795.015 987.838L1172.56 986.158L1173.3 986.878ZM1191.69 1043.59C1191.69 1043.59 1191.69 1043.59 1191.69 1043.59C1191.69 1043.59 1191.69 1043.59 1191.69 1043.59L1191.69 1043.59ZM799.226 992.801L790.895 1041.87H1192.09C1192.2 1041.28 1192.31 1040.54 1192.41 1039.66C1192.68 1037.01 1192.76 1033.13 1191.92 1028.31C1190.27 1018.87 1185.05 1005.69 1170.53 991.149L799.226 992.801Z" fill="black"/>
<path d="M1012.27 988.644C1012.27 988.644 1168.22 1046.19 1277.46 946.95C1348.3 882.599 1283.77 764.225 1229.66 688.968C1198.53 645.671 1148.97 619.394 1095.66 618.016L852.998 611.712L700.387 526.649C700.387 526.649 612.829 299.825 568.622 303.995C524.425 308.164 441.865 328.183 449.375 351.524C452.959 362.682 484.739 432.391 516.941 502.146C562.211 600.195 641.763 678.324 740.613 721.81L787.945 742.64L797.121 990.319L1012.27 988.653V988.644Z" fill="black"/>
<path d="M568.389 301.515C574.978 300.894 581.863 304.574 588.618 310.491C595.461 316.486 602.642 325.191 609.904 335.601C624.441 356.439 639.596 384.539 653.321 412.666C667.057 440.815 679.403 469.084 688.312 490.309C692.768 500.923 696.366 509.78 698.851 515.985C700.093 519.087 701.058 521.527 701.712 523.192C701.995 523.913 702.22 524.489 702.384 524.911L853.675 609.238L1095.73 615.526C1149.82 616.924 1200.1 643.587 1231.68 687.515C1258.79 725.216 1288.65 773.892 1302.81 821.337C1316.96 868.767 1315.6 915.67 1279.13 948.794C1223.86 999.009 1156.82 1009.5 1103.81 1007.5C1077.29 1006.5 1054.22 1002.38 1037.78 998.51C1029.55 996.574 1022.98 994.699 1018.45 993.304C1016.19 992.607 1014.44 992.029 1013.25 991.625C1012.66 991.423 1012.2 991.264 1011.89 991.155C1011.89 991.153 1011.88 991.15 1011.87 991.148L794.721 992.83L785.513 744.291L739.61 724.091C640.203 680.36 560.204 601.791 514.68 503.191C498.577 468.311 482.579 433.437 470.156 405.886C457.778 378.433 448.851 358.038 447.003 352.286L447.004 352.285C444.574 344.727 449.707 338.102 457.184 332.805C464.858 327.368 476.13 322.455 488.818 318.208C514.245 309.697 546.125 303.616 568.389 301.515ZM585.336 314.239C578.841 308.551 573.319 306.054 568.856 306.475C546.923 308.544 515.423 314.557 490.399 322.933C477.861 327.13 467.139 331.859 460.064 336.871C453.02 341.861 450.576 346.361 451.633 350.375L451.747 350.761V350.763C453.484 356.17 462.24 376.208 474.697 403.837C487.111 431.369 503.103 466.227 519.204 501.102C564.218 598.599 643.322 676.289 741.616 719.53L790.377 740.989L799.52 987.809L1009.78 986.181V985.07L1013.14 986.308C1013.14 986.308 1013.14 986.308 1013.14 986.309C1013.14 986.31 1013.15 986.313 1013.16 986.316C1013.17 986.322 1013.2 986.331 1013.23 986.344C1013.31 986.369 1013.41 986.408 1013.56 986.459C1013.85 986.561 1014.28 986.714 1014.85 986.908C1016 987.298 1017.71 987.861 1019.92 988.543C1024.35 989.908 1030.82 991.753 1038.92 993.661C1055.13 997.477 1077.87 1001.54 1103.99 1002.52C1156.26 1004.49 1221.82 994.129 1275.78 945.106C1310.16 913.879 1311.96 869.42 1298.03 822.761C1284.11 776.117 1254.64 727.979 1227.64 690.423C1197.2 648.091 1148.89 622.27 1096.83 620.543L1095.6 620.507L852.935 614.203L852.321 614.187L698.388 528.387L698.063 527.547L700.388 526.65L698.063 527.544C698.062 527.542 698.061 527.54 698.06 527.537C698.057 527.531 698.053 527.52 698.048 527.507C698.038 527.48 698.021 527.439 698.001 527.385C697.959 527.278 697.897 527.116 697.814 526.903C697.648 526.476 697.399 525.842 697.074 525.014C696.424 523.359 695.464 520.929 694.226 517.837C691.75 511.654 688.162 502.823 683.719 492.238C674.83 471.063 662.524 442.886 648.844 414.851C635.154 386.794 620.131 358.969 605.817 338.451C598.654 328.183 591.741 319.851 585.336 314.239Z" fill="black"/>
<path d="M1203.56 861.899C1204.94 861.899 1206.05 863.015 1206.05 864.391C1206.05 865.766 1204.94 866.882 1203.56 866.882H1171.55C1170.17 866.882 1169.06 865.766 1169.06 864.391C1169.06 863.015 1170.17 861.899 1171.55 861.899H1203.56Z" fill="white"/>
<path d="M931.794 592.117L893.9 611.289L916.782 722.207L960.989 671.76L1018.89 722.207L1055.6 616.981L1017.69 592.117H931.794Z" fill="white"/>
<path d="M1018.44 589.626L1058.59 615.965L1020.03 726.503L961.225 675.268L915.355 727.616L891.075 609.927L931.2 589.626H1018.44ZM896.724 612.652L918.21 716.798L960.752 668.249L1017.75 717.909L1052.6 617.996L1016.95 594.608H932.388L896.724 612.652Z" fill="black"/>
<path d="M785.453 742.64V696.776C785.453 695.4 786.569 694.285 787.945 694.285C789.32 694.285 790.436 695.4 790.436 696.776V742.64C790.436 744.016 789.32 745.131 787.945 745.131C786.569 745.131 785.453 744.016 785.453 742.64Z" fill="white"/>
<path d="M529.431 353.839C544.326 347.247 555.204 333.955 558.662 318.043C561.039 307.129 563.101 294.314 563.101 282.797C563.101 255.763 511.168 175.382 511.168 175.382L396.64 220.201C396.64 220.201 461.379 279.96 459.244 320.501C458.353 337.395 466.728 347.625 476.805 353.803C490.844 362.421 508.359 363.177 523.425 356.504L529.44 353.839H529.431Z" fill="white"/>
<path d="M560.61 282.797C560.61 276.606 557.572 266.94 552.698 255.591C547.876 244.362 541.428 231.861 534.955 220.157C528.486 208.462 522.014 197.603 517.158 189.665C514.73 185.697 512.708 182.461 511.293 180.219C510.86 179.533 510.482 178.94 510.169 178.448L401.188 221.095C402.969 222.823 405.494 225.322 408.512 228.439C414.585 234.714 422.669 243.513 430.692 253.597C438.708 263.672 446.709 275.088 452.582 286.594C458.432 298.057 462.299 309.858 461.732 320.632C460.899 336.418 468.626 345.867 478.107 351.68C491.178 359.703 507.481 360.559 521.671 354.548L528.423 351.561C542.594 345.29 552.939 332.646 556.227 317.515L556.228 317.514C558.589 306.673 560.61 294.057 560.61 282.797ZM565.592 282.797C565.592 294.572 563.489 307.583 561.096 318.571C558.169 332.036 550.18 343.709 539.003 351.348H541.211L524.434 358.782C508.663 365.767 490.279 364.998 475.501 355.926C464.829 349.383 455.806 338.372 456.756 320.371L456.792 319.476C457.041 310.194 453.654 299.655 448.144 288.859C442.478 277.758 434.695 266.632 426.793 256.7C418.898 246.777 410.93 238.101 404.932 231.904C401.934 228.808 399.433 226.334 397.683 224.636C396.808 223.788 396.121 223.134 395.655 222.693C395.422 222.473 395.245 222.306 395.126 222.195C395.066 222.139 395.022 222.098 394.993 222.07C394.978 222.057 394.966 222.047 394.959 222.04C394.956 222.037 394.953 222.035 394.952 222.033L394.951 222.032L392.026 219.332L512.156 172.321L513.261 174.031L511.168 175.383C513.237 174.046 513.261 174.031 513.262 174.032L513.271 174.047C513.278 174.057 513.288 174.072 513.3 174.091C513.326 174.131 513.364 174.19 513.413 174.267C513.513 174.422 513.66 174.651 513.851 174.951C514.234 175.55 514.794 176.431 515.506 177.56C516.932 179.819 518.967 183.075 521.408 187.065C526.289 195.043 532.801 205.968 539.315 217.746C545.825 229.517 552.361 242.18 557.276 253.626C562.14 264.951 565.592 275.471 565.592 282.797Z" fill="black"/>
<path d="M798.088 329.471C799.002 328.444 800.577 328.352 801.604 329.267L820.435 346.026C821.462 346.94 821.553 348.515 820.639 349.542C819.724 350.57 818.15 350.661 817.122 349.747L798.292 332.988C797.264 332.073 797.173 330.499 798.088 329.471Z" fill="black"/>
<path d="M828.215 314.457C829.588 314.378 830.767 315.427 830.846 316.801L832.305 341.961C832.384 343.334 831.335 344.512 829.962 344.592C828.588 344.671 827.411 343.623 827.331 342.25L825.872 317.089C825.792 315.715 826.842 314.537 828.215 314.457Z" fill="black"/>
<path d="M813.158 355.872C814.532 355.793 815.71 356.841 815.79 358.215C815.87 359.588 814.822 360.767 813.448 360.847L788.279 362.314C786.905 362.394 785.726 361.346 785.646 359.972C785.566 358.599 786.615 357.421 787.989 357.341L813.158 355.872Z" fill="black"/>
<path d="M960.197 658.549L924.122 573.377C879.015 576.322 843.201 535.997 851.468 491.556L866.759 409.284L1010.53 406.745L1017.43 591.172L960.197 658.549Z" fill="white"/>
<path d="M1019.95 592.061L959.478 661.792L922.518 575.954C876.626 577.855 840.562 536.558 849.018 491.1L864.68 406.829L1012.92 404.21L1019.95 592.061ZM868.836 411.738L853.916 492.011C845.947 534.854 880.473 573.73 923.959 570.892L925.713 570.777L960.914 652.531L1014.9 590.282L1008.13 409.278L868.836 411.738Z" fill="black"/>
<path d="M860.841 441.145C860.841 441.145 862.769 415.093 884.552 416.542C906.336 417.992 933.856 410.734 933.856 410.734C933.856 410.734 968.787 399.667 960.799 441.145C960.799 441.145 984.033 446.683 986.572 474.635L1017.43 465.918C1017.43 465.918 1047.93 399.847 996.01 371.886C996.01 371.886 974.586 366.077 970.237 380.963C970.237 380.963 964.068 338.845 911.064 360.269C911.064 360.269 859.725 337.702 860.85 386.411C860.85 386.411 854.133 375.884 850.287 380.963C846.442 386.042 826.243 422.9 860.85 441.136L860.841 441.145Z" fill="black"/>
<path d="M911.079 357.581C924.151 352.427 934.6 351.016 942.959 351.99C951.56 352.992 957.798 356.504 962.253 360.786C966.675 365.037 969.274 369.979 970.766 373.813C970.835 373.991 970.901 374.168 970.965 374.341C974.568 370.109 979.981 368.675 984.582 368.357C987.77 368.136 990.776 368.418 992.964 368.747C994.064 368.912 994.972 369.092 995.612 369.231C995.932 369.301 996.186 369.362 996.364 369.406C996.453 369.428 996.523 369.445 996.573 369.458C996.598 369.465 996.618 369.47 996.632 369.474C996.64 369.476 996.646 369.477 996.651 369.479C996.653 369.479 996.655 369.48 996.657 369.481H996.66C996.661 369.481 996.659 369.489 996.1 371.551L996.662 369.482L996.938 369.556L997.191 369.693C1024.31 384.298 1029.84 408.958 1028.68 429.528C1028.09 439.796 1025.85 449.137 1023.77 455.893C1022.72 459.276 1021.71 462.025 1020.96 463.936C1020.58 464.892 1020.27 465.639 1020.05 466.152C1019.94 466.408 1019.85 466.606 1019.79 466.742C1019.76 466.81 1019.74 466.862 1019.72 466.899C1019.71 466.918 1019.71 466.933 1019.7 466.943C1019.7 466.948 1019.7 466.953 1019.7 466.956C1019.7 466.957 1019.7 466.959 1019.7 466.96L1017.43 465.918L1019.69 466.962L1019.21 468.004L984.363 477.847L984.091 474.86C982.89 461.643 976.843 453.866 971.181 449.356C968.326 447.082 965.544 445.622 963.483 444.734C962.455 444.291 961.612 443.993 961.039 443.809C960.753 443.717 960.535 443.653 960.395 443.614C960.325 443.595 960.274 443.582 960.245 443.574C960.233 443.571 960.224 443.568 960.22 443.567L957.902 443.015L958.353 440.674C960.299 430.567 959.547 424.061 957.687 419.915C955.874 415.875 952.884 413.795 949.58 412.763C946.189 411.703 942.471 411.757 939.495 412.125C938.026 412.307 936.783 412.559 935.913 412.764C935.479 412.867 935.141 412.957 934.916 413.019C934.804 413.051 934.72 413.075 934.668 413.09C934.642 413.098 934.624 413.104 934.614 413.107C934.609 413.108 934.606 413.109 934.605 413.109L934.55 413.127L934.491 413.143H934.488C934.487 413.143 934.485 413.144 934.483 413.145C934.479 413.146 934.473 413.147 934.466 413.149C934.451 413.153 934.429 413.159 934.402 413.166C934.346 413.181 934.264 413.201 934.157 413.229C933.944 413.283 933.631 413.363 933.226 413.462C932.417 413.661 931.24 413.943 929.763 414.276C926.809 414.941 922.643 415.812 917.79 416.637C908.12 418.282 895.569 419.772 884.387 419.028C879.478 418.702 875.834 419.919 873.072 421.825C870.269 423.759 868.228 426.505 866.751 429.425C865.274 432.342 864.41 435.334 863.918 437.621C863.743 438.433 863.617 439.149 863.527 439.73L865.001 440.507L862.612 442.897L862.602 442.906L857.862 447.648L858.239 442.546C850.014 437.894 844.809 432.104 841.811 425.828C838.654 419.218 838.036 412.261 838.67 405.869C839.929 393.191 846.163 382.283 848.301 379.46C849.017 378.513 849.916 377.785 851.002 377.395C852.087 377.005 853.165 377.021 854.125 377.245C855.859 377.649 857.389 378.768 858.545 379.813C859.305 370.808 862.153 364.396 866.445 360.031C871.709 354.677 878.739 352.82 885.447 352.584C892.155 352.348 898.817 353.716 903.737 355.106C906.21 355.805 908.276 356.519 909.729 357.06C910.265 357.26 910.718 357.437 911.079 357.581ZM942.382 356.938C934.878 356.064 924.982 357.33 911.996 362.578L911.022 362.972L910.062 362.549C910.061 362.549 910.06 362.549 910.059 362.548C910.055 362.547 910.047 362.544 910.037 362.54C910.018 362.531 909.986 362.517 909.943 362.499C909.856 362.462 909.722 362.405 909.545 362.333C909.191 362.189 908.664 361.98 907.99 361.729C906.64 361.226 904.704 360.557 902.382 359.901C897.711 358.582 891.607 357.352 885.622 357.563C879.636 357.774 874.042 359.409 869.997 363.523C865.97 367.619 863.069 374.589 863.341 386.353L863.546 395.267L858.75 387.751C858.748 387.749 858.745 387.744 858.741 387.738C858.732 387.723 858.717 387.7 858.695 387.668C858.653 387.604 858.588 387.506 858.502 387.381C858.329 387.129 858.075 386.77 857.757 386.353C857.113 385.505 856.252 384.473 855.32 383.612C854.332 382.699 853.522 382.221 852.994 382.098C852.785 382.049 852.706 382.076 852.688 382.083C852.671 382.089 852.518 382.143 852.273 382.466C850.565 384.722 844.778 394.782 843.628 406.362C843.058 412.099 843.638 418.093 846.307 423.682C848.612 428.508 852.545 433.175 858.927 437.161C858.965 436.97 859.004 436.773 859.048 436.572C859.597 434.019 860.577 430.589 862.305 427.175C864.032 423.762 866.557 420.267 870.242 417.724C873.968 415.154 878.734 413.658 884.718 414.057C895.319 414.762 907.42 413.348 916.955 411.726C921.705 410.918 925.782 410.065 928.668 409.415C930.111 409.09 931.255 408.816 932.035 408.624C932.425 408.528 932.725 408.452 932.925 408.401C933.025 408.376 933.101 408.357 933.15 408.344C933.16 408.341 933.169 408.338 933.177 408.336C933.196 408.33 933.218 408.324 933.243 408.316C933.322 408.293 933.434 408.261 933.575 408.221C933.859 408.142 934.264 408.034 934.769 407.915C935.779 407.677 937.202 407.389 938.883 407.181C942.206 406.77 946.722 406.65 951.066 408.008C955.496 409.393 959.742 412.325 962.232 417.875C964.504 422.94 965.196 429.926 963.633 439.435C964.166 439.629 964.779 439.867 965.455 440.159C967.83 441.183 971.015 442.855 974.286 445.459C980.421 450.346 986.771 458.457 988.698 471.446L1015.62 463.842C1015.8 463.398 1016.05 462.818 1016.32 462.113C1017.04 460.301 1018 457.67 1019.01 454.422C1021.01 447.916 1023.15 438.991 1023.7 429.247C1024.8 409.86 1019.66 387.596 995.093 374.224C994.958 374.192 994.775 374.148 994.549 374.099C994 373.979 993.201 373.821 992.224 373.675C990.259 373.379 987.637 373.139 984.926 373.327C979.428 373.708 974.363 375.72 972.627 381.662L969.426 392.619L967.773 381.329C967.773 381.328 967.772 381.325 967.771 381.319C967.769 381.308 967.766 381.286 967.761 381.256C967.751 381.195 967.733 381.096 967.707 380.964C967.657 380.699 967.574 380.299 967.449 379.788C967.198 378.766 966.781 377.31 966.123 375.62C964.802 372.226 962.546 367.978 958.801 364.378C955.088 360.809 949.845 357.808 942.382 356.938Z" fill="black"/>
<path d="M1033.41 483.487C1033.41 496.32 1023.01 506.721 1010.18 506.721C997.343 506.721 986.942 496.32 986.942 483.487C986.942 470.655 997.343 460.254 1010.18 460.254C1023.01 460.254 1033.41 470.655 1033.41 483.487Z" fill="white"/>
<path d="M1001.53 460.508C1008.2 458.066 1015.23 458.556 1021.2 461.326C1027.17 464.096 1032.09 469.143 1034.53 475.814C1036.97 482.483 1036.48 489.517 1033.71 495.487C1030.94 501.454 1025.9 506.374 1019.23 508.817C1012.56 511.259 1005.52 510.769 999.554 507.999C998.306 507.419 997.764 505.938 998.343 504.69C998.922 503.442 1000.4 502.9 1001.65 503.479C1006.47 505.716 1012.13 506.109 1017.51 504.138C1022.89 502.169 1026.96 498.209 1029.19 493.389C1031.43 488.57 1031.82 482.906 1029.85 477.526C1027.88 472.148 1023.92 468.082 1019.1 465.845C1014.29 463.609 1008.62 463.216 1003.24 465.187C997.864 467.156 993.798 471.116 991.561 475.936C990.981 477.184 989.5 477.726 988.252 477.147C987.004 476.568 986.463 475.086 987.042 473.838C989.811 467.87 994.859 462.951 1001.53 460.508Z" fill="black"/>
<path d="M926.535 572.81C934.541 570.865 960.395 564.102 972.192 555.286C973.849 554.043 976.127 555.61 975.578 557.61C971.552 572.117 962.331 602.393 937.684 604.851L925.04 575.71C924.563 574.485 925.265 573.126 926.544 572.81H926.535Z" fill="black"/>
<path d="M969.663 554.026C973.551 551.351 978.711 555.085 977.205 559.654L977.206 559.655C974.801 566.992 971.408 578.2 965.535 587.835C959.64 597.507 950.985 606.023 937.913 607.33L936.099 607.511L920.327 570.887H923.84C923.868 570.88 923.898 570.874 923.93 570.866C924.164 570.812 924.512 570.732 924.962 570.625C925.862 570.411 927.167 570.093 928.78 569.68C932.009 568.854 936.464 567.65 941.368 566.133C951.269 563.072 962.679 558.838 969.662 554.027L969.663 554.026ZM972.456 558.15C964.785 563.424 952.739 567.833 942.84 570.894C937.838 572.44 933.301 573.667 930.015 574.508C929.1 574.742 928.28 574.945 927.574 575.118L939.207 602.134C949.129 600.491 956.101 593.74 961.281 585.242C966.777 576.224 969.991 565.669 972.456 558.15Z" fill="black"/>
<path d="M873.791 467.746C876.546 467.746 878.78 464.912 878.78 461.415C878.78 457.919 876.546 455.084 873.791 455.084C871.036 455.084 868.802 457.919 868.802 461.415C868.802 464.912 871.036 467.746 873.791 467.746Z" fill="black"/>
<path d="M929.696 467.818C932.227 467.818 934.279 464.952 934.279 461.416C934.279 457.879 932.227 455.013 929.696 455.013C927.164 455.013 925.112 457.879 925.112 461.416C925.112 464.952 927.164 467.818 929.696 467.818Z" fill="black"/>
<path d="M876.156 432.168C880.105 430.683 885.689 429.785 892.055 432.175C893.343 432.659 893.995 434.095 893.512 435.383C893.028 436.671 891.592 437.323 890.304 436.84C885.325 434.971 881.016 435.663 877.91 436.831C876.349 437.419 875.1 438.125 874.25 438.678C873.827 438.954 873.508 439.189 873.302 439.348C873.199 439.427 873.125 439.487 873.081 439.523C873.059 439.541 873.045 439.553 873.039 439.559C873.037 439.56 873.036 439.561 873.035 439.562C873.035 439.561 873.036 439.561 873.037 439.56C873.038 439.559 873.039 439.559 873.04 439.558L873.041 439.557C873.041 439.557 873.041 439.557 873.04 439.556C872.008 440.464 870.436 440.365 869.527 439.333C868.617 438.301 868.716 436.727 869.748 435.817L871.257 437.53C869.823 435.903 869.753 435.821 869.75 435.816L869.752 435.814C869.753 435.813 869.755 435.812 869.757 435.811C869.76 435.808 869.764 435.804 869.768 435.8C869.777 435.792 869.788 435.783 869.802 435.772C869.828 435.749 869.862 435.72 869.905 435.685C869.99 435.614 870.109 435.519 870.259 435.403C870.559 435.172 870.987 434.859 871.532 434.504C872.619 433.796 874.19 432.908 876.156 432.168Z" fill="black"/>
<path d="M931.42 435.216C935.873 435.352 941.671 436.736 945.355 442.169C946.127 443.308 945.83 444.856 944.692 445.629C943.553 446.401 942.004 446.104 941.232 444.965C938.828 441.421 934.959 440.309 931.267 440.196C929.445 440.14 927.775 440.336 926.553 440.549C925.947 440.655 925.46 440.764 925.133 440.844C924.97 440.884 924.846 440.917 924.769 440.938C924.73 440.949 924.703 440.956 924.687 440.961C924.683 440.962 924.679 440.962 924.676 440.963L924.677 440.964C923.36 441.36 921.971 440.614 921.574 439.297C921.177 437.979 921.924 436.589 923.241 436.193L923.879 438.312C923.27 436.29 923.243 436.197 923.243 436.193L923.245 436.192C923.246 436.191 923.248 436.19 923.25 436.19C923.254 436.189 923.259 436.187 923.264 436.186C923.276 436.182 923.291 436.178 923.308 436.173C923.343 436.163 923.391 436.15 923.45 436.133C923.57 436.1 923.738 436.056 923.949 436.005C924.37 435.902 924.965 435.768 925.695 435.641C927.148 435.387 929.169 435.147 931.42 435.216Z" fill="black"/>
<path d="M903.283 462.586C903.581 461.243 904.912 460.396 906.255 460.695C907.598 460.993 908.444 462.324 908.146 463.666L900.623 497.518C900.315 499.689 902.001 501.645 904.211 501.645H923.572C924.947 501.645 926.063 502.76 926.063 504.136C926.063 505.512 924.947 506.627 923.572 506.627H904.211C898.927 506.627 894.896 501.913 895.707 496.702L895.719 496.623L895.736 496.545L903.283 462.586Z" fill="black"/>
<path d="M948.803 515.56C949.913 514.749 951.472 514.991 952.283 516.102C953.095 517.212 952.853 518.771 951.742 519.583L942.808 526.111C933.638 532.816 922.579 536.434 911.216 536.434H899.275C897.9 536.434 896.784 535.319 896.784 533.943C896.784 532.567 897.9 531.452 899.275 531.452H911.216C921.52 531.452 931.551 528.172 939.869 522.09L948.803 515.56Z" fill="black"/>
<path d="M544.398 2.5H383.177C367.158 2.5 354.172 15.4865 354.172 31.506V236.744C354.172 252.764 367.158 265.75 383.177 265.75H544.398C560.417 265.75 573.404 252.764 573.404 236.744V31.506C573.404 15.4865 560.417 2.5 544.398 2.5Z" fill="white"/>
<path d="M570.913 94.4255V31.4969C570.913 16.8525 559.043 4.98231 544.398 4.98221H383.169C368.524 4.98222 356.654 16.8524 356.654 31.4969V236.744C356.654 251.389 368.524 263.259 383.169 263.259H544.398C559.043 263.259 570.913 251.389 570.913 236.744V156.751C570.913 155.375 572.028 154.26 573.404 154.26C574.78 154.26 575.895 155.375 575.895 156.751V236.744C575.895 254.14 561.794 268.241 544.398 268.241H383.169C365.773 268.241 351.672 254.14 351.672 236.744V31.4969C351.672 14.1008 365.773 1.23244e-05 383.169 0H544.398C561.794 9.8601e-05 575.895 14.1009 575.895 31.4969V94.4255C575.895 95.8012 574.78 96.9165 573.404 96.9166C572.029 96.9166 570.913 95.8012 570.913 94.4255Z" fill="black"/>
<path d="M470.817 227.217C484.685 212.277 547.649 266.344 547.649 266.344L491.097 306.895C483.055 286.975 498.211 269.289 498.211 269.289C498.211 269.289 456.949 242.165 470.826 227.226L470.817 227.217Z" fill="white"/>
<path d="M478.142 222.117C481.6 222.172 485.504 223.165 489.557 224.697C497.678 227.766 507.036 233.25 515.818 239.105C524.631 244.98 532.991 251.316 539.14 256.175C542.217 258.607 544.746 260.673 546.507 262.132C547.387 262.862 548.076 263.44 548.546 263.837C548.781 264.036 548.961 264.19 549.083 264.294C549.144 264.346 549.191 264.385 549.223 264.412C549.238 264.426 549.25 264.436 549.259 264.444C549.263 264.447 549.266 264.449 549.268 264.451C549.269 264.452 549.271 264.453 549.271 264.453C549.272 264.454 549.272 264.454 547.649 266.344L549.272 264.454C550.316 265.351 550.435 266.923 549.539 267.967C548.642 269.011 547.07 269.13 546.026 268.234L546.024 268.233C546.022 268.231 546.02 268.229 546.016 268.226C546.009 268.22 545.998 268.211 545.984 268.199C545.955 268.174 545.911 268.136 545.853 268.086C545.736 267.986 545.561 267.838 545.331 267.644C544.872 267.256 544.195 266.688 543.328 265.968C541.592 264.53 539.093 262.488 536.051 260.084C529.962 255.272 521.716 249.025 513.055 243.251C504.364 237.456 495.381 232.224 487.795 229.358C483.995 227.922 480.704 227.141 478.063 227.099C475.45 227.058 473.738 227.73 472.642 228.91C470.053 231.698 469.862 235.059 471.548 239.141C473.278 243.332 476.86 247.845 481.077 252.096C485.256 256.308 489.88 260.088 493.48 262.825C495.276 264.191 496.807 265.289 497.885 266.044C498.424 266.422 498.85 266.714 499.139 266.909C499.283 267.007 499.393 267.081 499.466 267.129C499.502 267.154 499.53 267.171 499.547 267.183C499.556 267.188 499.562 267.193 499.566 267.195C499.568 267.197 499.569 267.198 499.57 267.198L501.934 268.752L500.095 270.898C500.095 270.898 500.094 270.9 500.092 270.902C500.088 270.906 500.081 270.915 500.071 270.927C500.05 270.953 500.015 270.995 499.968 271.053C499.874 271.169 499.73 271.349 499.546 271.59C499.179 272.071 498.652 272.793 498.04 273.724C496.813 275.59 495.256 278.275 493.94 281.544C491.302 288.092 489.698 296.791 493.398 305.953C493.912 307.229 493.295 308.681 492.02 309.196C490.744 309.711 489.292 309.094 488.777 307.818C484.435 297.061 486.388 286.957 489.318 279.682C490.786 276.039 492.515 273.058 493.878 270.986C494.149 270.573 494.407 270.196 494.646 269.856C493.558 269.088 492.118 268.049 490.465 266.792C486.763 263.977 481.941 260.041 477.54 255.605C473.178 251.208 469.047 246.139 466.942 241.042C464.793 235.837 464.646 230.203 468.992 225.521C471.364 222.966 474.657 222.062 478.142 222.117Z" fill="black"/>
<path d="M952.677 102.966C954.052 102.966 955.168 104.081 955.168 105.457C955.168 106.833 954.052 107.948 952.677 107.948H555.393C554.017 107.948 552.902 106.833 552.902 105.457C552.902 104.081 554.017 102.966 555.393 102.966H952.677Z" fill="black"/>
<path d="M789.241 143.912C790.617 143.912 791.732 145.027 791.732 146.403C791.732 147.779 790.617 148.894 789.241 148.894H555.393C554.017 148.894 552.902 147.779 552.902 146.403C552.902 145.027 554.017 143.912 555.393 143.912H789.241Z" fill="black"/>
<path d="M518.367 126.114C518.367 96.2622 494.167 72.0624 464.315 72.0623C434.463 72.0623 410.262 96.2621 410.262 126.114C410.262 155.967 434.463 180.167 464.315 180.167C494.168 180.167 518.367 155.967 518.367 126.114ZM523.35 126.114C523.35 158.718 496.919 185.149 464.315 185.15C431.711 185.15 405.28 158.718 405.28 126.114C405.28 93.5105 431.711 67.0801 464.315 67.0801C496.919 67.0802 523.349 93.5106 523.35 126.114Z" fill="black"/>
<path d="M489.218 103.191C490.191 102.218 491.769 102.218 492.742 103.191C493.714 104.164 493.714 105.741 492.742 106.714L451.69 147.765L435.899 131.973C434.926 131 434.926 129.423 435.899 128.45C436.872 127.478 438.449 127.478 439.421 128.45L451.69 140.719L489.218 103.191Z" fill="black"/>
<path d="M920.249 1043.06H721.963C706.699 1043.06 693.56 1032.31 690.526 1017.35L661.097 871.937C658.251 857.889 668.994 844.759 683.322 844.759H881.608C896.872 844.759 910.01 855.511 913.045 870.469L942.474 1015.89C945.32 1029.93 934.577 1043.06 920.249 1043.06Z" fill="white"/>
<path d="M881.608 842.268C898.058 842.268 912.216 853.856 915.486 869.973V869.974L944.915 1015.39C948.073 1030.98 936.15 1045.55 920.249 1045.55H721.963C705.513 1045.55 691.355 1033.97 688.084 1017.85V1017.85L658.655 872.431L658.518 871.702C655.87 856.388 667.668 842.268 683.321 842.268H881.608ZM683.321 847.25C670.767 847.25 661.305 858.575 663.428 870.857L663.538 871.442V871.443L692.967 1016.86L693.105 1017.5C696.146 1030.96 708.105 1040.57 721.963 1040.57H920.249C933.003 1040.57 942.565 1028.88 940.032 1016.38L910.603 870.964C907.804 857.166 895.686 847.25 881.608 847.25H683.321Z" fill="black"/>
<path d="M997.388 890.307C997.388 890.307 939.241 862.814 913.802 867.812L919.223 904.923C919.223 904.923 826.424 919.259 825.406 944.114C824.992 954.326 896.71 944.114 896.71 944.114C896.71 944.114 815.618 960.566 812.691 972.885C809.764 985.204 905.22 972.885 905.22 972.885C905.22 972.885 837.086 981.846 830.827 994.363C824.569 1006.88 913.802 992.814 913.802 992.814C913.802 992.814 870.856 1005 866.272 1017.51C861.688 1030.01 947.995 1000.83 947.995 1000.83L1003.93 970.985C1003.93 970.985 986.411 933.334 997.379 890.307H997.388Z" fill="white"/>
<path d="M913.322 865.368C920.183 864.02 928.987 864.887 938.101 866.78C947.28 868.686 957.049 871.692 965.964 874.836C974.887 877.983 983.003 881.286 988.885 883.799C991.827 885.057 994.214 886.118 995.868 886.866C996.694 887.241 997.339 887.536 997.777 887.739C997.996 887.841 998.163 887.92 998.277 887.973C998.334 887.999 998.378 888.019 998.407 888.033C998.422 888.04 998.433 888.046 998.44 888.05C998.444 888.051 998.448 888.053 998.45 888.054L998.452 888.055C998.453 888.055 998.453 888.055 997.389 890.307L998.453 888.055L1008.48 892.798H999.333C994.525 913.138 996.111 932.169 998.982 946.285C1000.46 953.552 1002.27 959.493 1003.71 963.607C1004.43 965.663 1005.06 967.261 1005.5 968.337C1005.72 968.875 1005.9 969.283 1006.01 969.552C1006.07 969.686 1006.12 969.785 1006.15 969.849C1006.16 969.881 1006.17 969.905 1006.18 969.919C1006.18 969.926 1006.18 969.931 1006.18 969.934L1006.19 969.935L1007.18 972.073L949.168 1003.03L948.987 1003.12L948.794 1003.19L947.995 1000.83C948.793 1003.19 948.792 1003.19 948.792 1003.19C948.791 1003.19 948.79 1003.19 948.789 1003.19C948.786 1003.19 948.781 1003.19 948.776 1003.19C948.765 1003.2 948.749 1003.2 948.728 1003.21C948.686 1003.22 948.624 1003.25 948.542 1003.27C948.377 1003.33 948.133 1003.41 947.816 1003.52C947.181 1003.73 946.253 1004.04 945.074 1004.43C942.716 1005.2 939.354 1006.29 935.334 1007.57C927.297 1010.11 916.618 1013.38 906.071 1016.26C895.556 1019.13 885.059 1021.65 877.432 1022.65C873.688 1023.14 870.328 1023.31 867.961 1022.82C866.809 1022.58 865.418 1022.09 864.493 1020.94C863.408 1019.59 863.445 1017.98 863.934 1016.65C864.69 1014.59 866.158 1012.72 867.916 1011.05C869.693 1009.36 871.897 1007.76 874.318 1006.26C878.814 1003.46 884.26 1000.89 889.588 998.668C883.496 999.415 876.81 1000.16 870.193 1000.76C859.415 1001.74 848.69 1002.34 841.006 1001.89C837.232 1001.67 833.871 1001.18 831.59 1000.17C830.456 999.668 829.218 998.88 828.527 997.574C827.749 996.107 827.946 994.558 828.6 993.249C829.715 991.018 831.99 989.204 834.562 987.697C837.211 986.144 840.546 984.707 844.253 983.381C847.376 982.264 850.82 981.206 854.427 980.213C843.882 980.831 833.57 981.097 825.747 980.568C821.431 980.276 817.653 979.731 814.98 978.765C813.66 978.287 812.347 977.618 811.413 976.601C810.364 975.458 809.878 973.951 810.268 972.309L810.334 972.058C810.69 970.812 811.445 969.732 812.308 968.82C813.243 967.833 814.436 966.903 815.781 966.026C818.471 964.272 822.044 962.548 826.112 960.886C834.266 957.554 844.791 954.312 855.141 951.477C856.21 951.185 857.277 950.895 858.341 950.611C850.292 951.125 842.347 951.348 836.195 950.906C832.8 950.662 829.754 950.206 827.501 949.387C826.378 948.979 825.263 948.416 824.407 947.587C823.488 946.698 822.858 945.481 822.918 944.013C823.078 940.097 825.042 936.609 827.925 933.577C830.806 930.548 834.759 927.804 839.299 925.32C848.383 920.348 860.287 916.166 872.01 912.803C883.763 909.432 895.467 906.848 904.222 905.108C908.603 904.237 912.252 903.577 914.808 903.133C915.4 903.031 915.934 902.942 916.404 902.863L910.994 865.825L913.322 865.368ZM937.088 871.658C929.286 870.038 922.197 869.302 916.625 869.905L922.045 907.007L919.604 907.385H919.601C919.599 907.385 919.594 907.386 919.589 907.387C919.579 907.388 919.563 907.391 919.542 907.395C919.499 907.401 919.434 907.411 919.348 907.425C919.176 907.452 918.919 907.493 918.583 907.548C917.911 907.658 916.921 907.823 915.66 908.042C913.137 908.479 909.529 909.133 905.193 909.995C896.517 911.719 884.958 914.273 873.383 917.593C861.78 920.921 850.292 924.983 841.691 929.69C837.388 932.045 833.924 934.499 831.536 937.011C829.211 939.455 828.054 941.793 827.908 944.036C828.078 944.185 828.46 944.435 829.202 944.705C830.792 945.282 833.281 945.703 836.552 945.938C843.032 946.403 851.813 946.095 860.726 945.459C869.612 944.824 878.521 943.871 885.217 943.076C888.563 942.678 891.352 942.321 893.303 942.063C894.279 941.934 895.045 941.83 895.566 941.758C895.826 941.722 896.026 941.694 896.159 941.675C896.226 941.666 896.277 941.659 896.31 941.654C896.326 941.652 896.339 941.65 896.347 941.649C896.351 941.649 896.355 941.649 896.357 941.648L896.359 941.647L897.205 946.556C897.205 946.556 897.204 946.555 897.202 946.556C897.2 946.556 897.197 946.557 897.193 946.557L896.979 946.601C896.827 946.632 896.601 946.679 896.305 946.74C895.715 946.863 894.846 947.045 893.739 947.281C891.525 947.753 888.357 948.442 884.545 949.306C876.918 951.037 866.728 953.469 856.456 956.283C846.167 959.101 835.87 962.281 827.996 965.499C824.05 967.111 820.808 968.695 818.503 970.199C817.351 970.95 816.501 971.638 815.926 972.245C815.466 972.731 815.257 973.087 815.166 973.309C815.367 973.482 815.812 973.768 816.674 974.079C818.661 974.798 821.861 975.312 826.082 975.597C834.446 976.163 845.966 975.788 857.695 975.019C869.396 974.253 881.199 973.101 890.083 972.141C894.524 971.661 898.231 971.23 900.827 970.918C902.125 970.762 903.145 970.636 903.84 970.549C904.187 970.506 904.454 970.471 904.633 970.449C904.722 970.437 904.789 970.429 904.834 970.423C904.857 970.421 904.874 970.418 904.885 970.417C904.89 970.416 904.895 970.416 904.898 970.416C904.899 970.415 904.9 970.415 904.901 970.415L905.545 975.355L905.543 975.356L905.499 975.361C905.467 975.365 905.419 975.372 905.356 975.38C905.229 975.397 905.04 975.423 904.792 975.457C904.297 975.525 903.567 975.627 902.635 975.761C900.771 976.029 898.097 976.426 894.869 976.941C888.41 977.973 879.743 979.476 870.891 981.367C862.023 983.261 853.045 985.527 845.931 988.072C842.37 989.346 839.356 990.663 837.081 991.996C834.831 993.315 833.614 994.474 833.12 995.359C833.227 995.427 833.382 995.514 833.603 995.612C835.005 996.231 837.587 996.696 841.299 996.915C848.586 997.345 858.996 996.776 869.743 995.802C880.455 994.83 891.374 993.469 899.622 992.348C903.745 991.788 907.196 991.289 909.615 990.93C910.825 990.751 911.776 990.606 912.424 990.507C912.748 990.457 912.997 990.418 913.164 990.392C913.247 990.379 913.31 990.37 913.352 990.363C913.373 990.36 913.389 990.358 913.399 990.356C913.405 990.355 913.409 990.355 913.411 990.354C913.412 990.354 913.413 990.353 913.414 990.353L914.482 995.211C914.482 995.211 914.479 995.211 914.477 995.212C914.472 995.213 914.465 995.215 914.455 995.218C914.436 995.223 914.407 995.232 914.368 995.243C914.29 995.265 914.172 995.3 914.018 995.345C913.709 995.435 913.253 995.571 912.669 995.747C911.5 996.1 909.823 996.619 907.793 997.282C903.731 998.608 898.279 1000.5 892.697 1002.78C887.099 1005.06 881.447 1007.69 876.948 1010.49C874.699 1011.88 872.795 1013.29 871.346 1014.66C870.085 1015.86 869.26 1016.95 868.806 1017.9C868.857 1017.91 868.914 1017.93 868.975 1017.94C870.451 1018.25 873.082 1018.19 876.784 1017.71C884.051 1016.75 894.271 1014.32 904.759 1011.45C915.216 1008.6 925.827 1005.35 933.829 1002.82C937.829 1001.55 941.173 1000.46 943.517 999.692C944.688 999.306 945.61 999 946.238 998.791C946.552 998.686 946.793 998.605 946.954 998.55C946.973 998.544 946.99 998.538 947.006 998.533L1000.74 969.861C1000.28 968.731 999.684 967.18 999.01 965.253C997.508 960.963 995.629 954.801 994.099 947.278C991.135 932.704 989.466 912.929 994.471 891.707C994.267 891.614 994.048 891.512 993.813 891.406C992.188 890.67 989.833 889.622 986.927 888.38C981.112 885.895 973.1 882.637 964.307 879.535C955.505 876.431 945.967 873.501 937.088 871.658Z" fill="black"/>
<path d="M1116.98 764.633C1118.19 763.973 1119.7 764.416 1120.36 765.622L1175.75 866.881H1034.36C1016.52 866.881 1001.25 879.668 998.092 897.231C993.674 921.833 997.741 944.371 1002.95 960.805C1005.55 969.015 1008.43 975.675 1010.65 980.274C1011.76 982.572 1012.7 984.353 1013.37 985.552C1013.7 986.151 1013.96 986.605 1014.14 986.905C1014.22 987.055 1014.29 987.167 1014.34 987.239C1014.36 987.275 1014.37 987.302 1014.38 987.318C1014.39 987.326 1014.39 987.332 1014.39 987.335L1014.39 987.336C1015.12 988.507 1014.75 990.043 1013.58 990.765C1012.41 991.487 1010.87 991.122 1010.15 989.951L1012.27 988.644C1010.26 989.883 1010.16 989.947 1010.15 989.949C1010.15 989.949 1010.15 989.948 1010.15 989.947C1010.15 989.945 1010.15 989.942 1010.14 989.938C1010.14 989.931 1010.13 989.921 1010.13 989.909C1010.11 989.885 1010.09 989.851 1010.07 989.807C1010.01 989.719 1009.94 989.591 1009.84 989.424C1009.64 989.09 1009.36 988.6 1009.01 987.964C1008.3 986.691 1007.32 984.829 1006.16 982.441C1003.86 977.667 1000.88 970.783 998.198 962.31C992.833 945.377 988.584 921.989 993.189 896.351C996.77 876.416 1014.11 861.899 1034.36 861.899H1167.35L1115.99 768.014C1115.33 766.807 1115.77 765.293 1116.98 764.633Z" fill="white"/>
<path d="M957.706 707.33V691.067C957.706 689.691 958.821 688.576 960.197 688.576C961.572 688.576 962.688 689.691 962.688 691.067V707.33C962.688 708.706 961.572 709.821 960.197 709.821C958.821 709.821 957.706 708.706 957.706 707.33Z" fill="white"/>
<path d="M957.706 749.331V733.076C957.706 731.7 958.821 730.585 960.197 730.585C961.572 730.585 962.688 731.7 962.688 733.076V749.331C962.688 750.706 961.572 751.822 960.197 751.822C958.821 751.822 957.706 750.706 957.706 749.331Z" fill="white"/>
<path d="M957.706 791.331V775.077C957.706 773.701 958.821 772.585 960.197 772.585C961.572 772.585 962.688 773.701 962.688 775.077V791.331C962.688 792.707 961.572 793.822 960.197 793.822C958.821 793.822 957.706 792.707 957.706 791.331Z" fill="white"/>
<path d="M957.706 833.34V817.077C957.706 815.701 958.821 814.586 960.197 814.586C961.572 814.586 962.688 815.701 962.688 817.077V833.34C962.688 834.716 961.572 835.831 960.197 835.831C958.821 835.831 957.706 834.716 957.706 833.34Z" fill="white"/>
<path d="M957.706 875.341V859.078C957.706 857.702 958.821 856.586 960.197 856.586C961.572 856.586 962.688 857.702 962.688 859.078V875.341C962.688 876.717 961.572 877.832 960.197 877.832C958.821 877.832 957.706 876.717 957.706 875.341Z" fill="white"/>
</svg>
