<svg width="1400" height="1200" viewBox="0 0 1400 1200" fill="none" xmlns="http://www.w3.org/2000/svg">
<path d="M229.729 51.1924H788.854C839.166 51.1924 880.014 92.0402 880.014 142.352V1018.61H138.56V142.352C138.56 92.0402 179.408 51.1924 229.72 51.1924H229.729Z" fill="white"/>
<path d="M877.523 142.352C877.523 93.4158 837.791 53.6835 788.855 53.6834H229.72C180.783 53.6834 141.051 93.4158 141.051 142.352V1016.12H877.523V142.352ZM882.505 1021.1H136.069V142.352C136.069 90.6642 178.032 48.7012 229.72 48.7012H788.855C840.542 48.7013 882.505 90.6642 882.505 142.352V1021.1Z" fill="black"/>
<path d="M1397.51 1016.1C1398.88 1016.1 1400 1017.22 1400 1018.59C1400 1019.97 1398.88 1021.08 1397.51 1021.08H2.4911C1.1153 1021.08 0 1019.97 0 1018.59C0 1017.22 1.1153 1016.1 2.4911 1016.1H1397.51Z" fill="black"/>
<path d="M994.373 1.86763C994.718 0.535724 996.077 -0.264674 997.409 0.0800688C998.741 0.424834 999.541 1.78343 999.197 3.11513L992.136 30.3927C991.791 31.7243 990.433 32.5246 989.101 32.1803C987.769 31.8355 986.969 30.4761 987.313 29.1442L994.373 1.86763Z" fill="black"/>
<path d="M960.32 4.83827C961.506 4.14087 963.034 4.53707 963.731 5.72281L978.013 30.0004C978.711 31.1862 978.314 32.7134 977.129 33.411C975.943 34.1084 974.417 33.7129 973.719 32.5275L959.436 8.24895C958.739 7.06315 959.135 5.53582 960.32 4.83827Z" fill="black"/>
<path d="M1024.34 19.6524C1025.52 18.9545 1027.05 19.3495 1027.75 20.535C1028.45 21.7206 1028.05 23.2478 1026.86 23.9457L1002.59 38.2374C1001.4 38.9353 999.874 38.5395 999.176 37.3539C998.479 36.1683 998.874 34.6411 1000.06 33.9432L1024.34 19.6524Z" fill="black"/>
<path d="M1069.97 108.637C1069.97 108.637 1079.54 139.93 1027.28 179.175L896.268 176.527C896.268 176.527 1000.94 85.8807 1033.99 88.5102C1067.04 91.1398 1069.96 108.637 1069.96 108.637H1069.97Z" fill="black"/>
<path d="M1017.72 89.2C1023.87 86.93 1029.52 85.6552 1034.19 86.0267C1051.16 87.3767 1060.74 92.5792 1066.1 97.769C1068.77 100.35 1070.34 102.875 1071.24 104.802C1071.47 105.292 1071.66 105.743 1071.81 106.145L1071.82 106.16C1071.96 106.542 1072.07 106.88 1072.16 107.167C1072.25 107.463 1072.31 107.705 1072.35 107.884C1072.35 107.898 1072.35 107.911 1072.36 107.924C1072.36 107.926 1072.36 107.928 1072.36 107.931C1072.36 107.941 1072.37 107.952 1072.37 107.966C1072.38 107.993 1072.39 108.028 1072.4 108.07C1072.42 108.155 1072.45 108.271 1072.49 108.416C1072.56 108.706 1072.64 109.115 1072.73 109.637C1072.91 110.681 1073.1 112.18 1073.14 114.083C1073.23 117.893 1072.75 123.312 1070.59 129.959C1066.26 143.274 1055.23 161.305 1028.78 181.166L1028.09 181.682L889.738 178.887L894.637 174.644L896.268 176.527C894.637 174.644 894.638 174.643 894.639 174.642C894.64 174.641 894.641 174.64 894.643 174.639L894.716 174.576C894.767 174.531 894.843 174.466 894.944 174.379C895.144 174.206 895.442 173.95 895.831 173.617C896.61 172.951 897.755 171.974 899.222 170.734C902.158 168.253 906.386 164.714 911.562 160.477C921.912 152.003 936.064 140.726 951.259 129.527C966.443 118.335 982.721 107.183 997.311 98.9815C1004.61 94.8818 1011.53 91.489 1017.72 89.2ZM1033.8 90.9934C1030.2 90.7076 1025.36 91.6899 1019.45 93.8737C1013.59 96.0386 1006.92 99.2957 999.752 103.324C985.42 111.38 969.332 122.396 954.215 133.538C939.11 144.671 925.027 155.892 914.718 164.332C909.817 168.344 905.773 171.726 902.878 174.169L1026.47 176.666C1051.78 157.492 1061.94 140.453 1065.85 128.418C1067.83 122.336 1068.23 117.479 1068.16 114.196C1068.13 112.938 1068.03 111.909 1067.92 111.128H1067.85L1067.5 109.054C1067.5 109.041 1067.5 109.021 1067.49 108.995C1067.47 108.916 1067.44 108.779 1067.38 108.592C1067.27 108.217 1067.07 107.64 1066.73 106.921C1066.06 105.486 1064.83 103.471 1062.64 101.349C1058.28 97.1329 1049.88 92.273 1033.8 90.9934ZM1067.51 109.068V109.067C1067.51 109.065 1067.51 109.063 1067.51 109.061L1067.51 109.068Z" fill="black"/>
<path d="M1143.16 857.552C1143.16 857.552 1149.79 914.852 1096.72 918.472C1096.72 918.472 1131.96 970.343 1120.07 989.65C1108.17 1008.95 1038.2 957.078 1029.76 919.679C1028.85 915.672 1028 911.484 1027.17 907.198C1018.54 862.163 1040.77 816.839 1081.63 796.028L1143.16 857.552Z" fill="white"/>
<path d="M1145.53 856.403L1145.63 857.266L1143.16 857.552C1145.63 857.265 1145.63 857.267 1145.63 857.268C1145.63 857.269 1145.63 857.271 1145.63 857.272C1145.63 857.276 1145.63 857.28 1145.63 857.285C1145.63 857.295 1145.64 857.308 1145.64 857.325C1145.64 857.359 1145.65 857.406 1145.65 857.467C1145.66 857.588 1145.68 857.762 1145.7 857.986C1145.74 858.433 1145.79 859.08 1145.83 859.898C1145.91 861.533 1145.96 863.86 1145.85 866.657C1145.64 872.237 1144.79 879.766 1142.2 887.45C1139.61 895.14 1135.26 903.068 1127.99 909.315C1121.45 914.933 1112.69 919.076 1101.05 920.551C1101.91 921.902 1102.97 923.606 1104.17 925.591C1107.31 930.799 1111.39 937.962 1115.1 945.749C1118.8 953.517 1122.18 962.01 1123.87 969.859C1125.54 977.598 1125.69 985.279 1122.19 990.956L1122.19 990.957C1120.22 994.154 1117.06 995.769 1113.4 996.192C1109.84 996.606 1105.71 995.908 1101.35 994.485C1092.62 991.632 1082.24 985.612 1072.11 977.909C1061.95 970.186 1051.89 960.661 1043.82 950.668C1035.78 940.713 1029.56 930.109 1027.33 920.227C1026.41 916.186 1025.55 911.971 1024.72 907.67L1024.72 907.667C1015.89 861.541 1038.65 815.122 1080.5 793.809L1082.11 792.987L1145.53 856.403ZM1081.16 799.081C1042.31 819.746 1021.31 863.373 1029.61 906.725C1030.34 910.462 1031.08 914.113 1031.86 917.629L1032.19 919.128L1032.19 919.131C1034.18 927.948 1039.87 937.852 1047.7 947.538C1055.49 957.186 1065.25 966.436 1075.13 973.943C1085.03 981.469 1094.9 987.136 1102.9 989.749C1106.91 991.06 1110.26 991.541 1112.83 991.243C1115.16 990.973 1116.74 990.09 1117.75 988.64L1117.95 988.342C1120.4 984.366 1120.6 978.323 1119 970.908C1117.43 963.6 1114.23 955.505 1110.6 947.892C1106.99 940.299 1103 933.287 1099.9 928.167C1098.36 925.609 1097.04 923.529 1096.11 922.091C1095.65 921.372 1095.28 920.814 1095.03 920.437C1094.91 920.249 1094.81 920.106 1094.75 920.011C1094.72 919.964 1094.69 919.928 1094.68 919.905C1094.67 919.894 1094.66 919.884 1094.66 919.879C1094.66 919.877 1094.66 919.875 1094.66 919.874L1094.66 919.872L1092.22 916.282L1096.55 915.987C1109.34 915.115 1118.35 911.031 1124.74 905.537C1131.16 900.023 1135.09 892.947 1137.48 885.86C1139.87 878.766 1140.67 871.743 1140.87 866.467C1140.98 863.836 1140.92 861.656 1140.85 860.144C1140.82 859.543 1140.78 859.049 1140.76 858.674L1081.16 799.081Z" fill="black"/>
<path d="M1060.51 870.816L1103.05 1018.59H656.991L685.348 870.816H1060.51Z" fill="black"/>
<path d="M1062.39 868.325L1106.36 1021.08H653.976L683.289 868.325H1062.39ZM660.005 1016.1H1099.74L1058.64 873.307H687.406L660.005 1016.1Z" fill="black"/>
<path d="M624.22 887.305L681.439 891.177C681.439 891.177 778.335 887.305 793.617 907.008C808.899 926.712 701.431 915.455 701.431 915.455C701.431 915.455 799.984 924.55 802.397 941.84C804.811 959.13 704.24 944.704 704.24 944.704C704.24 944.704 778.831 957.167 784.864 970.036C790.898 982.904 699.512 972.899 699.512 972.899C699.512 972.899 754.399 986.921 756.813 998.384C759.226 1009.85 743.242 1012.26 726.051 1006.23C708.86 1000.19 640.096 1023.42 610.244 1004.42C580.382 985.417 580.382 975.466 580.382 975.466L624.211 887.305H624.22Z" fill="white"/>
<path d="M624.304 884.814L624.388 884.82L681.473 888.682C681.515 888.681 681.566 888.68 681.626 888.678C681.813 888.671 682.089 888.661 682.448 888.649C683.168 888.626 684.224 888.594 685.57 888.56C688.263 888.492 692.124 888.417 696.803 888.39C706.159 888.334 718.804 888.466 731.94 889.218C745.059 889.968 758.749 891.34 770.165 893.787C775.871 895.01 781.082 896.518 785.399 898.386C789.676 900.237 793.303 902.54 795.585 905.483C796.716 906.94 797.5 908.529 797.588 910.221C797.681 912.004 796.985 913.532 795.863 914.731C794.794 915.874 793.338 916.731 791.754 917.4C790.149 918.079 788.262 918.627 786.187 919.076C779.257 920.576 769.473 921.116 759.099 921.145C769.011 923.097 778.641 925.404 786.411 928.068C791.281 929.738 795.549 931.59 798.725 933.656C801.791 935.651 804.406 938.213 804.865 941.497C805.105 943.22 804.688 944.818 803.719 946.172C802.796 947.462 801.456 948.421 799.987 949.156C797.073 950.614 792.994 951.508 788.372 952.057C779.055 953.163 766.528 952.968 754.079 952.244C752.819 952.17 751.558 952.09 750.3 952.006C757.559 953.927 764.645 956.057 770.605 958.32C774.592 959.835 778.154 961.438 780.95 963.118C783.65 964.74 786.034 966.663 787.12 968.979C787.769 970.365 787.868 971.919 787.098 973.361C786.41 974.652 785.208 975.502 784.041 976.084C781.702 977.25 778.253 977.948 774.353 978.388C766.433 979.283 755.414 979.231 744.35 978.784C737.39 978.502 730.359 978.061 723.989 977.59C725.342 978.044 726.713 978.51 728.085 978.994C735.138 981.477 742.364 984.354 748.014 987.369C750.834 988.874 753.351 990.459 755.276 992.105C757.137 993.696 758.776 995.621 759.25 997.872C759.982 1001.35 759.352 1004.45 757.369 1006.87C755.46 1009.21 752.553 1010.59 749.317 1011.3C742.86 1012.72 734.069 1011.68 725.226 1008.58C723.488 1007.97 720.879 1007.67 717.377 1007.69C713.922 1007.71 709.809 1008.04 705.175 1008.55C700.546 1009.06 695.461 1009.75 690.061 1010.48C684.672 1011.21 678.978 1011.99 673.183 1012.66C661.605 1014 649.506 1014.96 638.38 1014.36C627.29 1013.76 616.895 1011.61 608.906 1006.52C593.83 996.927 586.108 989.505 582.139 984.334C580.149 981.741 579.085 979.693 578.52 978.203C578.237 977.457 578.079 976.853 577.992 976.394C577.949 976.164 577.924 975.971 577.91 975.817C577.902 975.739 577.898 975.671 577.895 975.613C577.894 975.584 577.893 975.557 577.892 975.532C577.892 975.52 577.891 975.508 577.891 975.497V975.474C577.892 975.47 577.934 975.467 580.382 975.467H577.891V974.881L622.667 884.814H624.304ZM582.978 975.839C583.023 975.998 583.088 976.197 583.178 976.434C583.546 977.403 584.349 979.031 586.091 981.301C589.587 985.855 596.797 992.91 611.58 1002.32C618.518 1006.73 627.914 1008.8 638.649 1009.38C649.349 1009.96 661.115 1009.04 672.609 1007.71C678.348 1007.05 683.994 1006.28 689.39 1005.55C694.776 1004.82 699.926 1004.12 704.628 1003.6C709.324 1003.08 713.637 1002.73 717.349 1002.71C721.016 1002.69 724.316 1002.98 726.876 1003.88C735.223 1006.81 743.02 1007.58 748.25 1006.43C750.857 1005.86 752.568 1004.87 753.514 1003.72C754.387 1002.65 754.85 1001.15 754.375 998.898C754.246 998.283 753.641 997.262 752.039 995.892C750.5 994.577 748.334 993.186 745.669 991.765C740.349 988.926 733.4 986.148 726.43 983.694C719.479 981.246 712.592 979.149 707.436 977.664C704.861 976.921 702.721 976.333 701.227 975.93C700.48 975.729 699.895 975.574 699.498 975.47C699.299 975.418 699.148 975.379 699.046 975.352C698.996 975.339 698.958 975.33 698.933 975.323C698.92 975.32 698.91 975.318 698.904 975.316C698.901 975.316 698.899 975.315 698.898 975.314L698.896 975.313L699.783 970.424L699.513 972.9C699.78 970.456 699.782 970.424 699.783 970.424C699.784 970.424 699.786 970.425 699.787 970.425C699.789 970.425 699.793 970.425 699.799 970.426C699.809 970.427 699.826 970.428 699.847 970.431C699.89 970.435 699.955 970.443 700.04 970.452C700.211 970.47 700.465 970.497 700.797 970.532C701.461 970.601 702.436 970.703 703.675 970.827C706.154 971.074 709.689 971.414 713.913 971.781C722.366 972.516 733.558 973.361 744.551 973.805C755.579 974.251 766.277 974.286 773.794 973.437C777.612 973.006 780.313 972.375 781.817 971.625C782.274 971.398 782.504 971.211 782.613 971.107C782.611 971.103 782.61 971.098 782.608 971.094C782.186 970.193 780.918 968.911 778.384 967.389C775.946 965.924 772.69 964.442 768.836 962.979C761.138 960.055 751.365 957.319 741.7 954.965C732.051 952.616 722.58 950.664 715.517 949.299C711.987 948.617 709.061 948.082 707.02 947.718C705.999 947.536 705.2 947.397 704.656 947.303C704.385 947.256 704.177 947.221 704.037 947.197C703.968 947.185 703.916 947.177 703.881 947.171C703.863 947.168 703.85 947.165 703.842 947.164C703.838 947.163 703.834 947.162 703.832 947.162H703.83L704.24 944.705C704.594 942.239 704.594 942.239 704.595 942.239C704.596 942.239 704.597 942.239 704.598 942.239C704.601 942.24 704.605 942.24 704.611 942.241C704.622 942.243 704.64 942.246 704.663 942.249C704.71 942.256 704.782 942.266 704.876 942.279C705.064 942.306 705.344 942.345 705.709 942.395C706.44 942.496 707.514 942.642 708.881 942.821C711.616 943.18 715.521 943.674 720.201 944.214C729.567 945.293 742.012 946.551 754.368 947.27C766.76 947.991 778.923 948.161 787.784 947.11C792.251 946.579 795.633 945.763 797.757 944.7C798.807 944.175 799.381 943.671 799.667 943.273C799.905 942.939 799.991 942.623 799.93 942.186C799.785 941.147 798.793 939.643 796.008 937.831C793.332 936.09 789.504 934.395 784.795 932.781C775.4 929.56 763.005 926.829 750.572 924.618C738.164 922.411 725.818 920.739 716.568 919.62C711.945 919.06 708.099 918.639 705.41 918.358C704.594 918.272 703.885 918.202 703.293 918.143C702.953 918.11 702.65 918.082 702.388 918.056C701.994 918.017 701.691 917.987 701.486 917.966C701.384 917.955 701.305 917.948 701.252 917.942C701.226 917.94 701.206 917.937 701.192 917.935C701.185 917.935 701.18 917.935 701.177 917.934C701.175 917.934 701.173 917.934 701.173 917.933C701.172 917.93 701.181 917.842 701.43 915.456C701.432 915.444 701.433 915.431 701.434 915.419C701.66 912.975 701.66 912.976 701.661 912.976C701.662 912.976 701.663 912.975 701.665 912.976C701.668 912.976 701.673 912.977 701.679 912.978C701.682 912.978 701.686 912.978 701.69 912.979H701.694C701.696 912.979 701.698 912.979 701.701 912.979C701.71 912.98 701.721 912.981 701.734 912.982C701.783 912.987 701.855 912.994 701.949 913.003C702.138 913.021 702.417 913.047 702.781 913.083C703.067 913.111 703.406 913.146 703.794 913.185C704.467 913.25 705.291 913.332 706.248 913.42C709.146 913.689 713.27 914.05 718.172 914.423C727.983 915.168 740.883 915.956 753.289 916.13C765.759 916.306 777.509 915.856 785.133 914.207C787.021 913.798 788.587 913.33 789.814 912.811C791.063 912.283 791.817 911.762 792.224 911.327C792.578 910.949 792.624 910.698 792.613 910.482C792.597 910.173 792.428 909.541 791.648 908.535C790.11 906.553 787.367 904.666 783.42 902.958C779.513 901.267 774.647 899.843 769.12 898.659C758.07 896.29 744.67 894.937 731.655 894.192C718.657 893.449 706.123 893.317 696.833 893.372C692.189 893.399 688.36 893.473 685.695 893.54C684.362 893.574 683.32 893.605 682.613 893.629C682.259 893.64 681.989 893.65 681.808 893.657C681.718 893.66 681.65 893.663 681.605 893.665C681.582 893.666 681.565 893.666 681.554 893.667H681.539L681.404 893.672L681.271 893.664L625.701 889.902L582.978 975.839ZM704.24 944.705L703.83 947.162L704.595 942.239L704.24 944.705ZM701.43 915.456L701.171 917.933L701.659 912.976L701.43 915.456Z" fill="black"/>
<path d="M685.348 870.83H1060.52C1060.52 870.83 1087.06 845.498 1060.52 815.34L1043.64 792.422C1043.64 792.422 1125.67 894.964 1164.27 886.517C1202.88 878.07 1266.82 726.071 1259.58 679.028C1252.34 631.984 1059.32 425.692 1019.51 408.808C979.702 391.923 801.164 401.568 801.164 401.568L690.355 450.547C652.182 467.423 617.494 491.269 588.065 520.869C512.997 596.36 371.318 747.269 347.58 833.44C320.042 933.407 496.058 979.892 551.08 991.869C563.192 994.508 575.835 992.355 586.399 985.872C606.165 973.742 634.892 947.753 641.06 897.269C643.267 879.196 634.919 861.437 619.673 851.478L582.824 827.416L688.986 726.08L693.813 816.556C693.813 816.556 662.448 833.44 685.366 870.839L685.348 870.83Z" fill="white"/>
<path d="M895.395 396.366C920.227 396.215 946.343 396.592 968.765 398.068C991.052 399.535 1010.09 402.105 1020.49 406.515C1025.81 408.775 1033.42 414.05 1042.52 421.399C1051.69 428.802 1062.58 438.477 1074.51 449.726C1098.37 472.228 1126.5 501.114 1153.6 530.933C1180.7 560.749 1206.8 591.536 1226.6 617.836C1236.49 630.984 1244.84 643.046 1250.96 653.33C1257.02 663.526 1261.05 672.254 1262.04 678.65C1263.93 690.959 1261.16 709.712 1255.58 730.747C1249.96 751.889 1241.39 775.687 1231.39 798.256C1221.4 820.816 1209.94 842.231 1198.51 858.577C1192.8 866.748 1187.05 873.713 1181.45 878.929C1175.88 884.11 1170.27 887.756 1164.81 888.951C1159.38 890.137 1153.4 889.339 1147.21 887.261C1141.01 885.178 1134.45 881.753 1127.79 877.475C1114.47 868.919 1100.46 856.763 1087.74 844.426C1082.1 838.947 1076.69 833.416 1071.7 828.129C1076 838.361 1075.3 847.693 1072.84 855.171C1071.08 860.535 1068.45 864.876 1066.27 867.868C1065.18 869.368 1064.19 870.541 1063.47 871.346C1063.11 871.749 1062.81 872.061 1062.6 872.276C1062.49 872.384 1062.41 872.469 1062.35 872.528C1062.32 872.558 1062.3 872.581 1062.28 872.598C1062.27 872.607 1062.26 872.614 1062.26 872.62C1062.25 872.623 1062.25 872.626 1062.25 872.628C1062.25 872.629 1062.25 872.63 1062.25 872.631L1060.52 870.83L1062.24 872.632L1061.52 873.321H689.809L692.033 876.951L684.254 873.068L684.235 873.059L674.78 868.339H681.055C671.639 850.834 673.727 837.562 678.821 828.457C681.496 823.676 684.926 820.172 687.669 817.87C689.044 816.716 690.26 815.854 691.141 815.274C691.176 815.251 691.211 815.228 691.245 815.206L686.786 731.623L586.815 827.048L621.035 849.392C636.818 859.703 645.579 877.965 643.634 896.68L643.533 897.572C637.248 949.008 607.922 975.586 587.702 987.995C576.592 994.815 563.291 997.079 550.549 994.303C522.983 988.303 464.944 973.629 417.187 947.843C393.314 934.954 371.806 919.181 358.005 900.147C344.134 881.017 338.066 858.598 345.178 832.78C351.214 810.87 364.683 785.027 382.524 757.508C400.387 729.956 422.732 700.575 446.652 671.565C494.493 613.545 548.74 556.882 586.298 519.113L587.691 517.719C617.038 488.544 651.492 465.005 689.348 448.269L800.574 399.105L801.03 399.081L801.164 401.568C801.036 399.188 801.031 399.085 801.032 399.081C801.033 399.081 801.036 399.08 801.039 399.08C801.044 399.079 801.052 399.079 801.063 399.079C801.085 399.077 801.118 399.076 801.161 399.074C801.248 399.069 801.377 399.062 801.548 399.053C801.888 399.036 802.393 399.009 803.053 398.975C804.373 398.909 806.315 398.814 808.798 398.698C813.765 398.467 820.902 398.156 829.591 397.835C846.967 397.194 870.556 396.516 895.395 396.366ZM968.438 403.039C946.187 401.575 920.204 401.197 895.425 401.347C870.653 401.497 847.118 402.175 829.775 402.814C821.104 403.134 813.982 403.444 809.03 403.675C806.553 403.79 804.619 403.886 803.305 403.952C802.648 403.985 802.145 404.011 801.807 404.029C801.789 404.03 801.771 404.03 801.753 404.031L691.362 452.826C654.064 469.315 620.118 492.507 591.204 521.253L589.831 522.626C552.321 560.347 498.195 616.885 450.496 674.735C426.645 703.66 404.428 732.882 386.704 760.22C368.958 787.591 355.815 812.927 349.982 834.102C343.325 858.267 348.931 879.146 362.038 897.222C375.214 915.394 395.986 930.735 419.553 943.46C465.202 968.107 520.572 982.539 548.95 988.85L551.61 989.436L552.688 989.657C563.84 991.805 575.392 989.705 585.095 983.749C604.408 971.898 632.535 946.497 638.588 896.967C640.678 879.845 632.769 863.009 618.31 853.564L578.83 827.784L691.185 720.538L696.385 818L694.995 818.748C694.995 818.748 694.994 818.75 694.993 818.751C694.985 818.755 694.97 818.763 694.948 818.775C694.904 818.8 694.832 818.84 694.736 818.898C694.543 819.012 694.251 819.191 693.879 819.436C693.135 819.925 692.078 820.674 690.872 821.686C688.45 823.719 685.471 826.774 683.17 830.889C678.773 838.748 676.559 850.974 686.772 868.339H1059.47C1059.55 868.242 1059.65 868.136 1059.76 868.02C1060.38 867.322 1061.26 866.28 1062.24 864.934C1064.21 862.234 1066.55 858.357 1068.11 853.617C1071.17 844.293 1071.3 831.356 1058.65 816.986L1058.58 816.905L1058.52 816.818L1041.63 793.9L1045.58 790.866L1043.64 792.422C1045.58 790.866 1045.58 790.866 1045.59 790.867C1045.59 790.868 1045.59 790.869 1045.59 790.87C1045.59 790.873 1045.59 790.877 1045.6 790.882C1045.61 790.894 1045.62 790.912 1045.64 790.936C1045.68 790.984 1045.74 791.056 1045.81 791.151C1045.97 791.342 1046.2 791.626 1046.5 791.998C1047.11 792.741 1048 793.832 1049.15 795.219C1051.46 797.992 1054.8 801.949 1058.93 806.672C1067.2 816.122 1078.61 828.622 1091.21 840.85C1103.83 853.092 1117.57 864.987 1130.48 873.283C1136.94 877.43 1143.12 880.63 1148.8 882.539C1154.49 884.451 1159.51 885.009 1163.74 884.084C1167.93 883.167 1172.76 880.215 1178.05 875.283C1183.31 870.387 1188.83 863.723 1194.43 855.721C1205.62 839.721 1216.93 818.613 1226.84 796.237C1236.75 773.87 1245.22 750.319 1250.76 729.467C1256.33 708.507 1258.84 690.619 1257.11 679.407C1256.29 674.041 1252.71 666.031 1246.67 655.875C1240.69 645.807 1232.46 633.904 1222.62 620.833C1202.94 594.695 1176.95 564.032 1149.91 534.284C1122.88 504.539 1094.84 475.747 1071.09 453.351C1059.21 442.151 1048.43 432.569 1039.4 425.275C1030.29 417.927 1023.16 413.062 1018.54 411.101C1009.03 407.069 990.823 404.513 968.438 403.039Z" fill="black"/>
<path d="M587.327 819.638C588.355 818.724 589.931 818.817 590.845 819.845C591.759 820.873 591.667 822.447 590.639 823.361L560.939 849.774C559.911 850.688 558.337 850.595 557.422 849.568C556.508 848.54 556.601 846.965 557.629 846.051L587.327 819.638Z" fill="black"/>
<path d="M1054.5 564.328C1055.88 564.333 1056.99 565.453 1056.98 566.829L1056.42 718.525C1056.52 718.333 1056.63 718.138 1056.74 717.943C1059.79 712.567 1063.9 705.735 1068.1 700.072C1070.19 697.244 1072.36 694.642 1074.47 692.645C1076.5 690.724 1078.8 689.049 1081.18 688.616C1082.45 688.383 1083.79 688.501 1085.04 689.165C1086.27 689.814 1087.19 690.868 1087.88 692.118C1089.21 694.538 1089.92 698.178 1090.15 703.022C1090.63 713.016 1087.98 723.72 1083.86 734.042C1079.74 744.387 1074.1 754.503 1068.43 763.367C1062.75 772.239 1057.03 779.904 1052.72 785.35C1050.57 788.075 1048.76 790.248 1047.5 791.742C1046.86 792.49 1046.37 793.068 1046.02 793.461C1045.85 793.657 1045.72 793.807 1045.63 793.91C1045.58 793.96 1045.55 794 1045.53 794.026C1045.51 794.04 1045.5 794.05 1045.5 794.057C1045.49 794.061 1045.49 794.064 1045.49 794.066C1045.49 794.067 1045.49 794.068 1045.49 794.068C1045.48 794.063 1045.38 793.971 1043.63 792.409L1045.49 794.07C1044.57 795.095 1043 795.183 1041.97 794.266C1040.94 793.349 1040.86 791.775 1041.77 790.749L1041.77 790.748C1041.78 790.747 1041.78 790.745 1041.78 790.742C1041.78 790.737 1041.79 790.728 1041.8 790.717C1041.82 790.694 1041.85 790.659 1041.89 790.612C1041.98 790.518 1042.1 790.376 1042.27 790.188C1042.6 789.811 1043.08 789.251 1043.7 788.523C1044.93 787.065 1046.7 784.935 1048.81 782.26C1053.04 776.906 1058.67 769.379 1064.23 760.684C1069.79 751.981 1075.27 742.155 1079.23 732.199C1083.21 722.221 1085.61 712.266 1085.18 703.259C1084.96 698.603 1084.28 695.909 1083.51 694.518C1083.15 693.864 1082.85 693.642 1082.71 693.568C1082.6 693.508 1082.42 693.453 1082.07 693.517C1081.19 693.677 1079.79 694.476 1077.89 696.265C1076.08 697.98 1074.11 700.325 1072.1 703.039C1068.08 708.459 1064.09 715.086 1061.08 720.398C1059.58 723.045 1058.33 725.349 1057.47 726.99C1057.03 727.811 1056.69 728.465 1056.46 728.912C1056.35 729.136 1056.26 729.309 1056.2 729.424C1056.17 729.482 1056.15 729.525 1056.13 729.553C1056.12 729.568 1056.12 729.579 1056.12 729.586C1056.11 729.589 1056.11 729.591 1056.11 729.592L1056.11 729.594L1051.36 739.014L1052 566.81C1052.01 565.434 1053.12 564.323 1054.5 564.328Z" fill="black"/>
<path d="M1025.2 179.904C1032.48 206.154 1040.83 246.192 1043.12 297.152C1045.45 349.13 999.316 390.617 948.04 381.765C941.259 380.595 936.018 378.776 933.325 376.083V457.319L822.156 401.415L842.588 200.103C846.281 163.722 877.988 136.697 914.495 138.822L978.928 142.568C1000.75 143.838 1019.34 158.841 1025.2 179.904Z" fill="white"/>
<path d="M840.11 199.851C843.937 162.143 876.801 134.133 914.64 136.335L979.072 140.082C1001.6 141.393 1020.85 156.659 1027.3 178.206L1027.6 179.237C1034.93 205.642 1043.31 245.867 1045.61 297.04C1048.01 350.572 1000.49 393.348 947.616 384.22C944.131 383.618 940.962 382.837 938.273 381.827C937.418 381.505 936.595 381.153 935.816 380.769V461.36L819.504 402.87L840.11 199.851ZM914.351 141.309C879.176 139.261 848.625 165.3 845.067 200.354L824.807 399.959L930.834 453.278V370.069L935.086 374.321C936.083 375.318 937.702 376.289 940.026 377.163C942.326 378.027 945.167 378.741 948.463 379.31C997.749 387.819 1042.19 348.313 1040.67 298.444L1040.63 297.264C1038.35 246.516 1030.04 206.666 1022.8 180.571L1022.53 179.636C1016.68 160.091 999.215 146.244 978.783 145.055L914.351 141.309Z" fill="black"/>
<path d="M1027.01 177.194C1027.01 177.194 1038.94 255.557 1013.48 291.353C1013.48 291.353 995.181 297.72 990.409 276.233C985.636 254.756 927.561 262.311 923.581 275.035C919.6 287.76 893.746 298.107 875.844 265.49C857.942 232.873 881.013 219.194 881.013 219.194C881.013 219.194 860.328 209.405 866.695 172.016C873.061 134.626 830.098 179.175 828.909 216.564L840.309 222.517C840.309 222.517 829.287 331.12 915.62 375.678C915.62 375.678 1004.16 411.005 1036.5 334.56C1044.44 315.784 1046.58 295.063 1043.24 274.963L1027.01 177.185V177.194Z" fill="black"/>
<path d="M882.29 221.332C882.287 221.334 882.279 221.34 882.265 221.349C882.238 221.365 882.191 221.395 882.126 221.437C881.995 221.523 881.792 221.662 881.531 221.854C881.009 222.237 880.261 222.832 879.405 223.646C877.691 225.278 875.574 227.763 873.969 231.172C870.823 237.851 869.407 248.583 878.028 264.291C886.676 280.046 896.882 284.862 904.906 284.774C913.176 284.684 919.578 279.487 921.203 274.291C921.938 271.941 923.796 270.032 925.972 268.511C928.193 266.959 931.028 265.614 934.196 264.488C940.539 262.231 948.565 260.728 956.571 260.321C964.559 259.914 972.735 260.587 979.319 262.839C985.865 265.078 991.374 269.095 992.84 275.693C993.954 280.706 995.807 283.886 997.803 285.913C999.792 287.934 1002.06 288.95 1004.25 289.413C1006.46 289.881 1008.59 289.781 1010.19 289.547C1010.91 289.442 1011.51 289.309 1011.94 289.201C1017.74 280.743 1021.53 269.796 1023.89 257.929C1026.31 245.751 1027.2 232.766 1027.3 220.829C1027.4 208.9 1026.71 198.071 1025.99 190.223C1025.63 186.302 1025.27 183.129 1025 180.94C1024.86 179.846 1024.75 178.997 1024.67 178.426C1024.63 178.14 1024.6 177.924 1024.57 177.78C1024.56 177.708 1024.56 177.653 1024.55 177.618C1024.55 177.6 1024.55 177.587 1024.55 177.579C1024.54 177.575 1024.54 177.572 1024.54 177.57V177.568L1024.51 177.383V177.185L1029.46 176.776L1045.7 274.555L1045.86 275.518C1049.04 295.757 1046.8 316.597 1038.79 335.531C1030.51 355.114 1018.56 367.668 1005.22 375.391C991.911 383.094 977.375 385.906 964.001 386.276C950.627 386.646 938.321 384.576 929.377 382.426C924.899 381.349 921.249 380.248 918.71 379.413C917.44 378.996 916.447 378.644 915.767 378.395C915.426 378.271 915.164 378.172 914.984 378.103C914.895 378.069 914.825 378.042 914.777 378.023C914.753 378.014 914.735 378.006 914.722 378.001C914.715 377.998 914.709 377.997 914.705 377.995C914.703 377.994 914.701 377.994 914.7 377.993C914.698 377.993 914.698 377.992 915.621 375.678L914.697 377.991L914.585 377.947L914.477 377.892C870.452 355.17 851.309 316.12 843.17 282.982C839.1 266.41 837.765 251.26 837.446 240.255C837.286 234.749 837.381 230.272 837.516 227.163C837.573 225.841 837.64 224.765 837.696 223.962L826.369 218.049L826.419 216.485C827.037 197.037 838.424 176.012 848.789 164.575C851.4 161.694 854.028 159.328 856.497 157.73C858.869 156.195 861.523 155.088 864.032 155.484C866.925 155.941 868.649 158.172 869.366 161.061C870.057 163.845 869.967 167.64 869.151 172.433C866.054 190.618 869.573 201.785 873.589 208.322C875.612 211.615 877.803 213.802 879.456 215.151C880.283 215.826 880.975 216.291 881.443 216.58C881.677 216.724 881.855 216.823 881.964 216.882C882.019 216.912 882.057 216.932 882.076 216.942C882.078 216.942 882.08 216.943 882.081 216.943L886.314 218.947L882.29 221.332ZM863.256 160.405C862.614 160.304 861.286 160.565 859.204 161.912C857.218 163.198 854.916 165.233 852.481 167.92C842.941 178.446 832.583 197.564 831.473 215.093L842.958 221.09L842.788 222.768C842.788 222.77 842.788 222.775 842.787 222.78C842.786 222.79 842.784 222.808 842.782 222.832C842.778 222.878 842.77 222.951 842.762 223.049C842.744 223.244 842.72 223.54 842.691 223.931C842.633 224.714 842.558 225.877 842.493 227.379C842.363 230.383 842.27 234.738 842.426 240.11C842.738 250.86 844.044 265.646 848.01 281.794C855.936 314.068 874.422 351.561 916.649 373.405C916.681 373.418 916.72 373.433 916.766 373.451C916.923 373.511 917.162 373.601 917.478 373.717C918.111 373.948 919.052 374.281 920.266 374.68C922.695 375.479 926.214 376.541 930.542 377.582C939.21 379.666 951.06 381.65 963.863 381.296C976.666 380.942 990.328 378.253 1002.72 371.079C1015.08 363.926 1026.32 352.228 1034.2 333.589C1041.83 315.558 1043.99 295.664 1040.93 276.294L1040.78 275.371L1032.24 223.892C1032.02 235.189 1031.07 247.354 1028.78 258.9C1026.28 271.46 1022.16 283.45 1015.51 292.797L1015.05 293.445L1014.3 293.705L1013.48 291.353L1014.3 293.706C1014.3 293.707 1014.29 293.707 1014.29 293.707C1014.29 293.708 1014.29 293.709 1014.28 293.71L1014.2 293.738C1014.15 293.754 1014.09 293.775 1014 293.801C1013.84 293.852 1013.6 293.921 1013.31 293.996C1012.73 294.148 1011.9 294.332 1010.91 294.477C1008.92 294.766 1006.18 294.913 1003.22 294.287C1000.23 293.656 997.035 292.235 994.252 289.407C991.474 286.585 989.249 282.504 987.976 276.774C987.056 272.633 983.516 269.54 977.707 267.553C971.934 265.578 964.449 264.908 956.824 265.296C949.218 265.683 941.68 267.114 935.866 269.182C932.955 270.217 930.562 271.382 928.826 272.594C927.047 273.838 926.219 274.948 925.959 275.779C923.604 283.308 915.088 289.646 904.96 289.757C894.587 289.87 882.915 283.55 873.66 266.689C864.38 249.78 865.546 237.364 869.461 229.05C871.386 224.962 873.919 221.989 875.97 220.037C876.229 219.79 876.481 219.559 876.723 219.344C876.587 219.237 876.447 219.126 876.305 219.01C874.278 217.356 871.696 214.758 869.344 210.93C864.609 203.225 860.969 190.802 864.239 171.598C865.014 167.043 864.974 164.052 864.53 162.262C864.112 160.577 863.514 160.446 863.256 160.405ZM1012.67 288.998C1012.67 288.998 1012.67 288.998 1012.67 288.999L1012.66 289C1012.67 288.999 1012.67 288.998 1012.67 288.998ZM882.092 216.948C882.092 216.948 882.09 216.948 882.089 216.947C882.088 216.947 882.087 216.946 882.085 216.945L882.084 216.944C882.089 216.947 882.091 216.948 882.092 216.948Z" fill="black"/>
<path d="M992.002 299.304C992.002 299.304 974.496 276.494 934.189 290.821C893.881 305.139 928.885 318.404 939.754 319.196C947.931 319.791 974.973 320.097 987.905 320.205C993.128 320.25 997.234 315.747 996.721 310.551C996.397 307.282 995.136 303.419 991.984 299.313L992.002 299.304Z" fill="white"/>
<path d="M934.32 288.135C954.529 281.181 969.308 283.293 979.167 287.389C984.145 289.457 987.808 292.006 990.243 294.059C991.46 295.085 992.373 295.989 992.991 296.65C993.299 296.98 993.535 297.25 993.699 297.444C993.781 297.541 993.845 297.62 993.892 297.678C993.915 297.706 993.934 297.73 993.948 297.749C993.955 297.758 993.962 297.766 993.967 297.772C993.969 297.775 993.972 297.778 993.974 297.781C993.975 297.782 993.976 297.784 993.976 297.785C993.976 297.785 993.973 297.786 993.96 297.796C993.961 297.797 993.961 297.798 993.962 297.799L993.978 297.787L995.817 300.182L995.665 300.257C997.716 303.565 998.736 306.735 999.118 309.599L999.2 310.305V310.306C999.859 316.973 994.591 322.752 987.884 322.695V322.696C975.405 322.591 949.536 322.301 940.404 321.736L939.573 321.681C936.55 321.46 932.082 320.408 927.75 318.772C923.453 317.149 918.912 314.812 915.996 311.819C914.521 310.305 913.313 308.472 912.92 306.333C912.513 304.118 913.038 301.889 914.464 299.786C917.165 295.802 923.226 292.072 933.354 288.474L934.32 288.135ZM977.255 291.99C968.578 288.385 955.056 286.267 935.938 292.848L935.023 293.168C924.998 296.729 920.319 300.027 918.587 302.582C917.796 303.748 917.68 304.667 917.821 305.432C917.975 306.274 918.505 307.255 919.564 308.343C921.719 310.554 925.448 312.578 929.51 314.112C933.539 315.633 937.524 316.536 939.935 316.712H939.934C948.009 317.299 974.944 317.606 987.926 317.714H987.927C991.665 317.746 994.609 314.522 994.242 310.798L994.18 310.264C993.821 307.566 992.7 304.337 990.008 300.829L989.753 300.498C989.649 300.378 989.516 300.229 989.352 300.054C988.856 299.523 988.085 298.756 987.032 297.868C984.924 296.092 981.692 293.833 977.255 291.99Z" fill="black"/>
<path d="M941.912 294.437C943.281 294.31 944.495 295.317 944.622 296.687C944.928 300.001 946.7 302.157 949.497 303.648C952.413 305.202 956.354 305.957 960.519 306.197C964.64 306.435 968.75 306.159 971.853 305.816C973.399 305.645 974.681 305.459 975.572 305.317C976.017 305.246 976.364 305.185 976.596 305.143C976.712 305.123 976.8 305.106 976.857 305.096C976.885 305.09 976.906 305.087 976.919 305.084C976.925 305.083 976.929 305.082 976.932 305.081H976.934C978.284 304.816 979.593 305.694 979.859 307.044C980.125 308.394 979.245 309.703 977.895 309.969L977.415 307.526C977.889 309.938 977.895 309.969 977.894 309.97H977.891C977.89 309.97 977.887 309.971 977.885 309.972C977.879 309.973 977.871 309.974 977.861 309.976C977.842 309.979 977.815 309.985 977.78 309.991C977.709 310.005 977.607 310.023 977.476 310.047C977.214 310.094 976.836 310.16 976.357 310.237C975.4 310.389 974.038 310.587 972.401 310.768C969.14 311.129 964.73 311.431 960.232 311.172C955.778 310.915 951 310.094 947.154 308.044C943.187 305.93 940.151 302.451 939.661 297.147C939.534 295.777 940.542 294.563 941.912 294.437Z" fill="black"/>
<path d="M957.979 209.018C958.928 208.023 960.505 207.985 961.5 208.934L959.781 210.737C961.461 208.975 961.5 208.935 961.501 208.935L961.509 208.943C961.514 208.947 961.52 208.953 961.529 208.961C961.546 208.978 961.571 209.002 961.603 209.032C961.666 209.093 961.757 209.183 961.875 209.298C962.112 209.53 962.455 209.869 962.885 210.304C963.746 211.174 964.96 212.429 966.386 213.984C969.235 217.09 972.955 221.416 976.399 226.268C979.828 231.098 983.068 236.566 984.857 241.947C986.635 247.297 987.11 252.98 984.353 257.84C981.715 262.489 977.916 264.774 973.741 265.409C969.711 266.022 965.519 265.075 961.886 263.713C958.22 262.339 954.893 260.453 952.507 258.934C951.308 258.171 950.331 257.49 949.649 256.997C949.308 256.75 949.04 256.549 948.854 256.408C948.762 256.338 948.69 256.282 948.639 256.243C948.614 256.223 948.593 256.207 948.579 256.196C948.572 256.19 948.566 256.186 948.561 256.182C948.559 256.181 948.558 256.18 948.556 256.178L948.555 256.177C948.554 256.176 948.553 256.175 950.101 254.224L948.553 256.176C947.475 255.321 947.294 253.753 948.149 252.675C949.004 251.598 950.57 251.417 951.648 252.272C951.649 252.273 951.652 252.274 951.656 252.277C951.664 252.284 951.677 252.294 951.696 252.309C951.733 252.337 951.792 252.382 951.87 252.442C952.027 252.561 952.263 252.738 952.569 252.96C953.184 253.405 954.08 254.029 955.183 254.732C957.403 256.145 960.407 257.838 963.634 259.048C966.895 260.271 970.16 260.914 972.992 260.483C975.679 260.075 978.146 258.683 980.019 255.381C981.774 252.288 981.705 248.261 980.128 243.519C978.562 238.808 975.636 233.802 972.336 229.152C969.051 224.524 965.477 220.363 962.715 217.352C961.337 215.85 960.166 214.64 959.343 213.808C958.932 213.393 958.608 213.072 958.389 212.857C958.279 212.749 958.196 212.669 958.14 212.615C958.113 212.589 958.092 212.569 958.079 212.556C958.073 212.55 958.068 212.545 958.065 212.542C958.064 212.541 958.063 212.541 958.063 212.54C957.067 211.591 957.029 210.013 957.979 209.018Z" fill="black"/>
<path d="M978.775 178.237C987.723 174.195 995.342 175.334 1000.71 177.538C1003.36 178.629 1005.45 179.974 1006.88 181.049C1007.6 181.588 1008.16 182.064 1008.54 182.414C1008.74 182.589 1008.89 182.733 1009 182.838C1009.05 182.89 1009.09 182.933 1009.12 182.965C1009.14 182.981 1009.15 182.995 1009.16 183.005C1009.17 183.01 1009.17 183.015 1009.18 183.019C1009.18 183.021 1009.18 183.022 1009.18 183.024C1009.18 183.025 1009.18 183.026 1009.18 183.027C1009.18 183.03 1009.12 183.094 1007.57 184.567L1009.19 183.029C1010.14 184.024 1010.1 185.601 1009.1 186.55C1008.17 187.441 1006.73 187.464 1005.77 186.644L1005.59 186.473C1005.59 186.475 1005.59 186.476 1005.59 186.475C1005.59 186.475 1005.58 186.471 1005.58 186.466C1005.57 186.454 1005.55 186.432 1005.51 186.4C1005.45 186.338 1005.35 186.238 1005.2 186.109C1004.92 185.849 1004.47 185.471 1003.89 185.032C1002.72 184.152 1001 183.043 998.812 182.146C994.495 180.372 988.322 179.39 980.826 182.777C979.573 183.343 978.097 182.787 977.53 181.533C976.964 180.279 977.521 178.804 978.775 178.237Z" fill="black"/>
<path d="M921.054 180.567C924.439 180.477 927.415 180.934 929.542 181.41C930.609 181.648 931.472 181.894 932.078 182.084C932.381 182.179 932.62 182.26 932.789 182.32C932.874 182.349 932.941 182.373 932.989 182.392C933.014 182.4 933.034 182.407 933.049 182.413C933.056 182.416 933.063 182.419 933.068 182.421C933.071 182.422 933.073 182.423 933.075 182.424C933.076 182.424 933.078 182.424 933.078 182.425C933.078 182.428 933.05 182.503 932.304 184.431L933.08 182.426C934.363 182.922 935.001 184.364 934.505 185.647C934.008 186.931 932.566 187.568 931.283 187.072V187.071C931.278 187.069 931.271 187.068 931.262 187.064C931.238 187.055 931.195 187.04 931.137 187.02C931.019 186.978 930.834 186.915 930.589 186.839C930.098 186.685 929.37 186.477 928.454 186.272C926.615 185.861 924.06 185.471 921.186 185.547C915.484 185.698 908.594 187.657 903.333 194.958C902.528 196.074 900.971 196.327 899.855 195.522C898.739 194.718 898.486 193.162 899.29 192.046C905.691 183.164 914.236 180.747 921.054 180.567Z" fill="black"/>
<path d="M923.212 228.506C926.783 228.506 929.678 224.172 929.678 218.825C929.678 213.479 926.783 209.145 923.212 209.145C919.641 209.145 916.746 213.479 916.746 218.825C916.746 224.172 919.641 228.506 923.212 228.506Z" fill="black"/>
<path d="M998.631 221.805C1002.2 221.805 1005.1 217.47 1005.1 212.124C1005.1 206.778 1002.2 202.443 998.631 202.443C995.06 202.443 992.166 206.778 992.166 212.124C992.166 217.47 995.06 221.805 998.631 221.805Z" fill="black"/>
<path d="M838.275 270.856C853.872 270.856 866.516 258.212 866.516 242.615C866.516 227.019 853.872 214.375 838.275 214.375C822.678 214.375 810.035 227.019 810.035 242.615C810.035 258.212 822.678 270.856 838.275 270.856Z" fill="white"/>
<path d="M864.025 242.616C864.024 228.395 852.496 216.867 838.275 216.867C824.054 216.867 812.526 228.395 812.526 242.616C812.526 256.837 824.054 268.365 838.275 268.366C852.496 268.366 864.025 256.837 864.025 242.616ZM869.007 242.616C869.007 259.588 855.247 273.348 838.275 273.348C821.302 273.348 807.544 259.588 807.544 242.616C807.544 225.644 821.303 211.885 838.275 211.885C855.247 211.885 869.007 225.643 869.007 242.616Z" fill="black"/>
<path d="M1069.97 108.636C1069.97 108.636 1041.33 41.5474 964.689 148.944C964.689 148.944 946.859 171.574 891.882 170.781C876.069 170.556 860.481 175.212 847.621 184.415C840.759 189.323 834.447 195.663 830.818 203.651C830.818 203.651 813.798 82.9085 897.069 63.5562C980.34 44.195 989.355 83.1786 989.355 83.1786C989.355 83.1786 1054.33 66.2037 1069.97 108.636Z" fill="white"/>
<path d="M896.505 61.1302C938.476 51.3717 962.269 56.1889 975.687 63.9512C982.392 67.8304 986.402 72.3897 988.743 76.0467C989.79 77.6807 990.498 79.1283 990.966 80.2456C991.184 80.198 991.416 80.1468 991.663 80.0947C993.513 79.7043 996.164 79.1974 999.39 78.7246C1005.83 77.7807 1014.62 76.9652 1023.94 77.5083C1042.46 78.5871 1063.96 85.1301 1072.31 107.775L1067.79 109.57C1067.69 109.61 1067.68 109.615 1067.68 109.616L1067.67 109.595C1067.66 109.573 1067.64 109.535 1067.62 109.483C1067.57 109.379 1067.5 109.218 1067.39 109.007C1067.19 108.585 1066.87 107.965 1066.43 107.204C1065.55 105.678 1064.22 103.605 1062.39 101.436C1058.73 97.0824 1053.21 92.4846 1045.58 90.9592C1038.01 89.4444 1027.9 90.8704 1014.84 99.4222C1001.73 108 985.785 123.673 966.718 150.392L966.683 150.439L966.647 150.486L964.69 148.944L966.644 150.489C966.643 150.49 966.642 150.491 966.641 150.493C966.639 150.495 966.636 150.498 966.634 150.501C966.629 150.508 966.622 150.516 966.614 150.525C966.599 150.543 966.58 150.568 966.556 150.597C966.508 150.655 966.441 150.735 966.356 150.833C966.184 151.03 965.937 151.304 965.609 151.644C964.954 152.324 963.977 153.267 962.639 154.381C959.963 156.612 955.85 159.526 950 162.396C938.287 168.143 919.692 173.674 891.846 173.273C876.541 173.055 861.479 177.562 849.071 186.441H849.07C842.422 191.197 836.473 197.225 833.085 204.681L829.545 212.473L828.351 203.999L830.818 203.651L828.35 203.995C828.35 203.994 828.35 203.991 828.349 203.989C828.349 203.984 828.349 203.978 828.348 203.97C828.345 203.953 828.341 203.928 828.337 203.897C828.328 203.834 828.316 203.742 828.301 203.623C828.27 203.385 828.227 203.035 828.173 202.58C828.067 201.671 827.922 200.343 827.769 198.65C827.462 195.265 827.118 190.418 826.97 184.546C826.672 172.812 827.15 156.928 830.269 140.399C836.493 107.427 853.426 71.1418 896.505 61.1302ZM973.192 68.263C961.47 61.4814 939.629 56.5364 899.555 65.5432L897.633 65.983C857.441 75.3236 841.25 109.085 835.165 141.322C832.131 157.398 831.658 172.909 831.95 184.419C832.062 188.862 832.288 192.7 832.523 195.734C836.289 190.411 841.129 185.996 846.172 182.39C859.483 172.863 875.597 168.058 891.917 168.29H891.918C919.05 168.682 936.858 163.294 947.805 157.923C953.284 155.235 957.065 152.542 959.45 150.554C960.642 149.56 961.488 148.741 962.022 148.186C962.29 147.909 962.48 147.697 962.597 147.563C962.65 147.501 962.688 147.455 962.711 147.427C981.944 120.489 998.299 104.294 1012.11 95.2535C1023.34 87.9028 1032.97 85.2354 1041.09 85.4613C1035.47 83.7172 1029.51 82.8241 1023.65 82.4827C1014.77 81.9654 1006.34 82.7414 1000.11 83.6543C997.003 84.1099 994.455 84.5977 992.691 84.9699C991.81 85.1559 991.125 85.313 990.664 85.4224C990.434 85.477 990.26 85.5193 990.146 85.5479C990.089 85.5622 990.046 85.5731 990.019 85.58C990.006 85.5835 989.996 85.5863 989.99 85.5878H989.984L989.985 85.5888L987.506 86.2368L986.928 83.7399H986.927C986.925 83.733 986.923 83.7232 986.92 83.7117C986.908 83.667 986.887 83.5881 986.853 83.4781C986.785 83.2572 986.669 82.9106 986.491 82.4622C986.134 81.5653 985.526 80.262 984.547 78.7334C982.596 75.686 979.149 71.7094 973.192 68.263ZM986.93 83.7506C986.929 83.749 986.928 83.7472 986.928 83.7448H986.929C986.929 83.7454 986.929 83.7476 986.93 83.7487V83.7506Z" fill="black"/>
<path d="M989.073 80.7017C990.441 80.551 991.671 81.5375 991.822 82.9048C991.973 84.2723 990.987 85.5027 989.619 85.6538L989.617 85.6548C989.613 85.6552 989.606 85.6555 989.596 85.6567C989.576 85.659 989.544 85.6631 989.501 85.6684C989.413 85.6789 989.279 85.6954 989.101 85.719C988.744 85.7661 988.209 85.8414 987.514 85.9496C986.126 86.166 984.1 86.5157 981.583 87.0482C976.547 88.1138 969.559 89.9059 961.775 92.804C946.168 98.6152 927.586 108.791 914.994 126.266C914.19 127.382 912.633 127.634 911.516 126.83C910.401 126.026 910.148 124.469 910.952 123.353C924.349 104.761 943.954 94.1221 960.036 88.1342C968.097 85.1328 975.33 83.279 980.552 82.174C983.164 81.6213 985.278 81.2556 986.747 81.0268C987.481 80.9123 988.055 80.8316 988.449 80.7796C988.645 80.7536 988.797 80.7349 988.902 80.7222C988.954 80.7158 988.995 80.7109 989.024 80.7076C989.038 80.7059 989.05 80.7046 989.058 80.7037C989.062 80.7032 989.065 80.703 989.068 80.7027C989.069 80.7026 989.07 80.7028 989.07 80.7027C989.072 80.7026 989.073 80.7022 989.288 82.6528L989.073 80.7017Z" fill="black"/>
<path d="M825.721 366.33L914.675 398.821L914.17 489.134L769.979 415.345L825.721 366.33Z" fill="black"/>
<path d="M917.177 397.082L916.68 486.626L916.679 486.625C916.67 489.674 913.448 491.558 910.799 490.21L910.794 490.207L765.592 415.902L822.091 366.222L815.996 360.125L917.177 397.082ZM774.384 414.805L911.706 485.077L912.175 400.559L826.27 369.182L774.384 414.805Z" fill="black"/>
<path d="M914.675 398.821L980.629 385.719L983.159 428.71L915.737 487.775C915.134 488.306 914.188 487.874 914.188 487.073L914.675 398.83V398.821Z" fill="black"/>
<path d="M985.718 429.78L916.884 490.081L916.877 490.087C914.841 491.857 911.697 490.394 911.697 487.729V487.716L912.192 398.808L914.429 398.819L914.189 396.378L982.948 382.719L985.718 429.78ZM917.163 400.867L916.702 483.615L980.6 427.638L978.31 388.719L917.163 400.867Z" fill="black"/>
<path d="M912.184 847.911V503.452C912.184 502.076 913.299 500.961 914.675 500.961C916.051 500.961 917.166 502.076 917.166 503.452V847.911C917.166 849.287 916.05 850.402 914.675 850.402C913.299 850.402 912.184 849.287 912.184 847.911Z" fill="black"/>
<path d="M784.364 609.264V575.054C784.364 573.678 785.479 572.562 786.855 572.562C788.231 572.562 789.346 573.678 789.346 575.054V609.264C789.346 610.64 788.231 611.756 786.855 611.756C785.479 611.756 784.364 610.64 784.364 609.264Z" fill="black"/>
<path d="M801.528 609.263V575.053C801.528 573.677 802.643 572.562 804.019 572.562C805.395 572.562 806.51 573.677 806.51 575.053V609.263C806.51 610.639 805.395 611.755 804.019 611.755C802.643 611.755 801.528 610.639 801.528 609.263Z" fill="black"/>
<path d="M819.665 609.264V575.054C819.665 573.678 820.78 572.562 822.156 572.562C823.531 572.562 824.647 573.678 824.647 575.054V609.264C824.647 610.64 823.531 611.756 822.156 611.756C820.78 611.756 819.665 610.64 819.665 609.264Z" fill="black"/>
<path d="M808.423 167.776C809.799 167.776 810.914 168.892 810.914 170.267C810.914 171.643 809.799 172.759 808.423 172.759H138.57C137.194 172.759 136.078 171.643 136.078 170.267C136.078 168.892 137.194 167.776 138.57 167.776H808.423Z" fill="black"/>
<path d="M231.146 117.768C231.146 113.872 227.988 110.713 224.092 110.713C220.196 110.713 217.037 113.871 217.037 117.768C217.038 121.663 220.196 124.821 224.092 124.821C227.988 124.821 231.146 121.663 231.146 117.768ZM236.128 117.768C236.128 124.415 230.74 129.803 224.092 129.804C217.445 129.804 212.055 124.415 212.055 117.768C212.055 111.12 217.445 105.73 224.092 105.73C230.74 105.731 236.128 111.12 236.128 117.768Z" fill="black"/>
<path d="M265.231 117.768C265.231 113.872 262.073 110.713 258.178 110.713C254.281 110.713 251.123 113.871 251.123 117.768C251.123 121.663 254.282 124.821 258.178 124.821C262.073 124.821 265.231 121.663 265.231 117.768ZM270.214 117.768C270.213 124.415 264.825 129.803 258.178 129.804C251.53 129.804 246.141 124.415 246.14 117.768C246.14 111.12 251.53 105.73 258.178 105.73C264.825 105.731 270.214 111.12 270.214 117.768Z" fill="black"/>
<path d="M299.307 117.768C299.307 113.872 296.149 110.713 292.253 110.713C288.357 110.713 285.198 113.872 285.198 117.768C285.198 121.663 288.357 124.821 292.253 124.821C296.149 124.821 299.307 121.663 299.307 117.768ZM304.289 117.768C304.289 124.415 298.9 129.803 292.253 129.804C285.606 129.804 280.216 124.415 280.216 117.768C280.216 111.12 285.605 105.73 292.253 105.73C298.901 105.731 304.289 111.12 304.289 117.768Z" fill="black"/>
<path d="M760.194 404.161V274.882C760.194 253.628 742.966 236.399 721.712 236.399H255.52C234.266 236.399 217.037 253.628 217.037 274.882V518.834C217.038 540.088 234.266 557.317 255.52 557.317H531.971C533.347 557.317 534.462 558.432 534.462 559.808C534.462 561.183 533.347 562.299 531.971 562.299H255.52C231.514 562.299 212.055 542.84 212.055 518.834V274.882C212.055 250.876 231.514 231.417 255.52 231.417H721.712C745.718 231.417 765.176 250.876 765.176 274.882V404.161C765.176 405.537 764.061 406.652 762.685 406.652C761.31 406.652 760.194 405.537 760.194 404.161Z" fill="black"/>
<path d="M405.475 621.231C406.851 621.231 407.966 622.347 407.966 623.723C407.966 625.098 406.851 626.214 405.475 626.214H239.202C237.827 626.214 236.711 625.098 236.711 623.723C236.711 622.347 237.827 621.231 239.202 621.231H405.475Z" fill="black"/>
<path d="M313.189 663.929C314.565 663.929 315.68 665.044 315.68 666.42C315.68 667.796 314.565 668.911 313.189 668.911H239.202C237.827 668.911 236.711 667.796 236.711 666.42C236.711 665.044 237.827 663.929 239.202 663.929H313.189Z" fill="black"/>
</svg>
