<svg width="1400" height="1200" viewBox="0 0 1400 1200" fill="none" xmlns="http://www.w3.org/2000/svg">
<path d="M1397.51 951.805C1398.88 951.805 1400 952.92 1400 954.296C1400 955.672 1398.88 956.787 1397.51 956.787H2.4911C1.1153 956.787 0 955.672 0 954.296C0 952.92 1.1153 951.805 2.4911 951.805H1397.51Z" fill="black"/>
<path d="M792.619 391.848C788.63 388.336 785.109 384.338 782.281 379.799C775.464 368.822 772.564 352.171 780.336 340.923C787.189 331.008 791.52 317.726 803.515 312.467C810.818 309.27 818.941 308.568 826.884 307.91C872.045 304.173 917.197 300.436 962.358 296.699C978.352 295.375 994.345 294.051 1010.37 293.232C1017.85 292.853 1025.57 292.61 1032.58 295.231C1039.6 297.842 1045.82 304.02 1046.19 311.503C1046.56 318.96 1041.04 325.704 1034.37 329.072C1027.71 332.44 1020.05 333.116 1012.62 333.737C1020.67 345.075 1039.78 347.767 1042.44 361.41C1043.89 368.812 1039.15 376.323 1032.82 380.429C1026.49 384.536 1018.85 385.976 1011.43 387.327C1022.3 391.136 1033.76 395.351 1040.96 404.338C1048.16 413.334 1048.66 428.688 1038.97 434.902C1031.93 439.413 1021.18 438.45 1016.88 445.609C1017.88 443.934 1027.18 449.661 1028.2 450.463C1031.46 453.047 1034.05 456.496 1035.5 460.404C1038.27 467.861 1035.92 477.893 1029.85 483.242C1026.19 486.475 1021.34 488.069 1016.53 488.879C1001.36 491.437 985.754 486.952 972.084 479.892C958.414 472.832 946.221 463.286 933.407 454.767C909.345 438.783 882.914 426.374 855.25 418.071C841.77 414.028 827.947 410.939 814.979 405.446C806.938 402.042 799.139 397.584 792.61 391.839L792.619 391.848Z" fill="black"/>
<path d="M1010.24 290.744C1017.67 290.368 1025.88 290.072 1033.45 292.897C1041.03 295.72 1048.24 302.564 1048.68 311.38L1048.69 311.79C1048.91 320.393 1042.58 327.718 1035.5 331.296C1029.9 334.123 1023.71 335.159 1017.77 335.771C1018.96 336.861 1020.29 337.885 1021.72 338.879C1024.62 340.892 1027.68 342.62 1030.86 344.592C1036.95 348.369 1043.33 352.949 1044.89 360.932H1044.89C1046.6 369.681 1041.01 378.08 1034.17 382.517C1029.97 385.246 1025.26 386.862 1020.54 388.013C1028.85 391.29 1037.13 395.57 1042.9 402.781H1042.9C1046.89 407.764 1048.99 414.439 1048.79 420.744C1048.58 427.064 1046.03 433.335 1040.31 437L1040.31 436.999C1036.4 439.506 1031.38 440.532 1027.61 441.651C1025.32 442.328 1023.4 443.046 1021.87 444.024C1022.48 444.295 1023.09 444.591 1023.67 444.891C1025.97 446.072 1028.36 447.535 1029.38 448.248L1029.74 448.506L1029.74 448.511C1033.34 451.359 1036.21 455.174 1037.83 459.536L1037.98 459.931C1040.87 468.277 1038.26 479.154 1031.5 485.111C1027.33 488.784 1021.96 490.49 1016.95 491.336C1001.04 494.017 984.866 489.296 970.941 482.105C957.113 474.963 944.623 465.216 932.028 456.843L929.785 455.367C906.531 440.228 881.106 428.432 854.534 420.457V420.456C841.699 416.606 828.023 413.502 815.241 408.255L814.008 407.74C805.794 404.263 797.751 399.679 790.973 393.717V393.718C786.825 390.067 783.139 385.886 780.167 381.116L780.165 381.113C776.558 375.306 773.997 368.024 773.356 360.678C772.715 353.334 773.984 345.734 778.287 339.507L778.897 338.604C780.308 336.475 781.633 334.184 782.999 331.796C784.544 329.097 786.145 326.267 787.917 323.578C791.469 318.189 795.879 313.094 802.514 310.185H802.515C810.261 306.794 818.805 306.079 826.678 305.427C849.259 303.559 871.837 301.69 894.416 299.821C916.994 297.953 939.572 296.084 962.152 294.216C978.139 292.892 994.172 291.565 1010.24 290.744H1010.24ZM1031.71 297.564C1025.25 295.149 1018.03 295.337 1010.49 295.718L1010.49 295.719C994.518 296.536 978.564 297.857 962.564 299.181L827.089 310.393C819.077 311.056 811.375 311.745 804.514 314.748C799.155 317.097 795.402 321.274 792.077 326.32C790.41 328.849 788.894 331.527 787.324 334.271C785.771 336.985 784.167 339.762 782.385 342.34C778.917 347.36 777.749 353.709 778.32 360.245C778.89 366.78 781.186 373.312 784.396 378.482L784.906 379.284C787.497 383.26 790.667 386.809 794.254 389.968H794.255C800.532 395.492 808.083 399.822 815.95 403.152H815.951C827.953 408.236 840.569 411.188 853.397 414.926L855.966 415.685L858.578 416.482C884.659 424.574 909.615 436.291 932.503 451.192L934.785 452.693C947.819 461.357 959.716 470.7 973.227 477.678C986.643 484.607 1001.68 488.856 1016.12 486.423C1020.72 485.647 1025.04 484.166 1028.2 481.373H1028.21C1033.48 476.726 1035.59 467.791 1033.16 461.273L1033.16 461.271C1031.88 457.82 1029.58 454.74 1026.65 452.42L1026.62 452.393C1026.59 452.372 1026.55 452.344 1026.5 452.309C1026.4 452.239 1026.26 452.15 1026.1 452.043C1025.77 451.831 1025.34 451.562 1024.85 451.262C1023.86 450.661 1022.62 449.952 1021.39 449.324C1020.14 448.681 1019.01 448.178 1018.2 447.93C1017.82 447.814 1017.64 447.797 1017.63 447.795C1017.64 447.795 1017.83 447.794 1018.09 447.689C1018.38 447.57 1018.75 447.324 1019.01 446.894L1014.74 444.325C1017.42 439.865 1022.04 438.104 1026.19 436.874C1030.63 435.557 1034.5 434.808 1037.62 432.805H1037.62C1041.6 430.256 1043.64 425.742 1043.81 420.583C1043.98 415.409 1042.23 409.908 1039.01 405.895C1032.33 397.555 1021.59 393.529 1010.6 389.678L1001.72 386.563L1010.98 384.876C1018.49 383.51 1025.62 382.13 1031.46 378.34L1031.46 378.339C1037.28 374.563 1041.18 367.944 1040 361.889V361.888C1038.89 356.229 1034.38 352.641 1028.23 348.826C1025.3 347.003 1021.91 345.078 1018.88 342.971C1015.8 340.833 1012.83 338.347 1010.58 335.18L1008.06 331.618L1012.41 331.254C1019.93 330.626 1027.09 329.962 1033.25 326.849C1039.19 323.845 1043.71 318.131 1043.71 312.201L1043.7 311.626C1043.4 305.476 1038.16 299.965 1031.71 297.565L1031.71 297.564Z" fill="black"/>
<path d="M626.458 252.952C627.372 251.925 628.947 251.833 629.974 252.748L649.389 270.029C650.417 270.944 650.509 272.518 649.595 273.546C648.68 274.573 647.105 274.665 646.077 273.75L626.662 256.469C625.634 255.554 625.543 253.98 626.458 252.952Z" fill="#111C3A"/>
<path d="M657.469 237.497C658.842 237.417 660.02 238.466 660.1 239.84L661.603 265.783C661.683 267.157 660.634 268.335 659.261 268.415C657.888 268.494 656.71 267.446 656.63 266.072L655.125 240.128C655.046 238.754 656.095 237.576 657.469 237.497Z" fill="#111C3A"/>
<path d="M641.935 280.208C643.308 280.129 644.485 281.178 644.565 282.552C644.644 283.925 643.596 285.103 642.223 285.183L616.278 286.686C614.905 286.766 613.727 285.717 613.647 284.344C613.567 282.97 614.617 281.792 615.99 281.713L641.935 280.208Z" fill="#111C3A"/>
<path d="M477.562 841.839C477.562 841.839 460.614 820.028 477.562 803.071L485.595 691.56C485.595 691.56 223.308 624.651 180.488 456.929C150.906 341.076 186.459 248.638 211.268 202.54C222.759 181.198 242.814 165.816 266.362 160.08C303.068 151.138 356.063 144.825 360.692 181.26C367.833 237.462 359.8 400.727 359.8 400.727L600.672 549.709L788.017 529.186L1012.83 371.28C1012.83 371.28 1008.37 172.336 1029.78 137.54C1051.19 102.744 1142.18 81.3385 1170.74 124.158C1199.29 166.978 1217.13 389.398 1187.69 470.887C1158.25 552.375 908.453 679.06 908.453 679.06L915.594 802.036C915.594 802.036 942.358 816.849 925.41 841.83H477.562V841.839Z" fill="white"/>
<path d="M1097.21 99.2796C1126.49 94.8881 1157.7 100.123 1172.81 122.776C1176.58 128.431 1180.07 136.865 1183.25 147.28C1186.45 157.736 1189.39 170.352 1192.02 184.485C1197.27 212.753 1201.26 247.22 1203.44 282.87C1205.62 318.521 1205.99 355.405 1203.96 388.506C1201.93 421.56 1197.51 451.023 1190.03 471.733C1182.43 492.778 1160.82 516.342 1133.25 539.693C1105.57 563.135 1071.47 586.68 1038.36 607.637C1005.24 628.601 973.052 647.009 949.145 660.175C937.191 666.758 927.303 672.033 920.403 675.662C916.953 677.477 914.25 678.881 912.408 679.831C911.878 680.105 911.418 680.339 911.034 680.537L918.006 800.592C918.026 800.606 918.047 800.619 918.068 800.632C918.822 801.122 919.867 801.843 921.059 802.789C923.432 804.67 926.454 807.485 928.928 811.179C931.409 814.883 933.376 819.529 933.517 825.01C933.658 830.509 931.953 836.621 927.471 843.228L926.73 844.321H480.053V849.105L475.595 843.367L477.562 841.839L475.594 843.365C475.593 843.365 475.592 843.364 475.592 843.363C475.59 843.362 475.589 843.359 475.587 843.357C475.583 843.352 475.578 843.346 475.572 843.338C475.561 843.323 475.545 843.302 475.525 843.277C475.487 843.226 475.433 843.154 475.366 843.062C475.231 842.878 475.041 842.613 474.81 842.274C474.348 841.598 473.716 840.624 473.017 839.405C471.624 836.975 469.938 833.525 468.807 829.485C466.588 821.554 466.494 811.142 475.141 801.989L482.961 693.435C482.665 693.355 482.336 693.268 481.978 693.169C480.031 692.634 477.176 691.829 473.531 690.745C466.241 688.578 455.788 685.296 443.116 680.834C417.776 671.912 383.532 658.26 347.93 639.34C276.871 601.576 199.759 542.479 178.075 457.545C148.284 340.876 184.092 247.779 209.075 201.359L209.635 200.334C221.549 178.896 241.923 163.47 265.773 157.66C284.188 153.173 306.953 149.273 325.806 151.175C335.241 152.127 343.924 154.553 350.603 159.291C357.373 164.092 361.919 171.157 363.163 180.946C366.762 209.268 366.529 264.334 365.415 312.127C364.857 336.065 364.075 358.244 363.433 374.438C363.112 382.534 362.826 389.135 362.62 393.713C362.517 396.002 362.434 397.786 362.377 398.997C362.37 399.132 362.364 399.259 362.358 399.38L601.254 547.139L787.109 526.779L1010.31 370.003C1010.31 369.735 1010.3 369.428 1010.3 369.084C1010.27 367.615 1010.23 365.457 1010.19 362.699C1010.11 357.184 1010.02 349.269 1009.98 339.662C1009.9 320.45 1010.01 294.465 1010.79 267.386C1011.57 240.317 1013.02 212.11 1015.63 188.469C1016.93 176.65 1018.52 165.928 1020.47 157.039C1022.41 148.214 1024.75 140.957 1027.66 136.235L1028.2 135.372C1033.97 126.502 1043.85 118.684 1055.68 112.538C1067.92 106.173 1082.46 101.492 1097.21 99.2796ZM1168.67 125.54C1155.22 105.374 1126.66 99.901 1097.95 104.206C1083.71 106.342 1069.7 110.861 1057.97 116.959C1046.2 123.075 1036.93 130.673 1031.9 138.845C1029.46 142.822 1027.25 149.393 1025.34 158.109C1023.44 166.759 1021.87 177.289 1020.58 189.014C1018 212.461 1016.55 240.515 1015.77 267.53C1014.99 294.536 1014.88 320.462 1014.96 339.64C1015 349.228 1015.09 357.127 1015.17 362.627C1015.21 365.377 1015.25 367.528 1015.28 368.99C1015.29 369.721 1015.3 370.28 1015.31 370.656C1015.32 370.844 1015.32 370.986 1015.32 371.081C1015.32 371.129 1015.32 371.165 1015.32 371.188C1015.32 371.2 1015.32 371.21 1015.32 371.216C1015.32 371.218 1015.32 371.22 1015.32 371.221C1015.32 371.223 1015.32 371.224 1012.83 371.28L1015.32 371.223L1015.35 372.554L788.925 531.593L600.091 552.279L357.24 402.072L357.312 400.605L359.8 400.727C357.332 400.606 357.312 400.604 357.312 400.603C357.312 400.602 357.313 400.599 357.313 400.597C357.313 400.592 357.313 400.585 357.314 400.576C357.315 400.556 357.316 400.526 357.318 400.487C357.322 400.409 357.328 400.292 357.335 400.137C357.35 399.827 357.372 399.366 357.4 398.762C357.457 397.554 357.54 395.774 357.643 393.49C357.848 388.919 358.134 382.327 358.454 374.24C359.095 358.065 359.876 335.914 360.434 312.011C361.55 264.122 361.763 209.454 358.221 181.575C357.15 173.147 353.337 167.337 347.721 163.354C342.015 159.308 334.287 157.039 325.306 156.132C307.328 154.318 285.242 158.044 266.952 162.5C244.083 168.071 224.614 183.007 213.461 203.721C188.825 249.497 153.529 341.277 182.903 456.312C204.039 539.1 279.479 597.319 350.268 634.94C385.59 653.712 419.594 667.27 444.771 676.134C457.357 680.566 467.73 683.823 474.951 685.969C478.561 687.043 481.384 687.838 483.299 688.365C484.257 688.628 484.988 688.825 485.478 688.955C485.723 689.02 485.908 689.068 486.031 689.1C486.092 689.116 486.138 689.127 486.168 689.135C486.183 689.139 486.194 689.142 486.201 689.144C486.205 689.145 486.207 689.145 486.209 689.146C486.21 689.149 486.19 689.229 485.595 691.56L486.211 689.146L488.229 689.661L479.979 804.176L479.323 804.832C471.685 812.475 471.643 821.126 473.606 828.142C474.594 831.674 476.084 834.738 477.339 836.927C477.922 837.943 478.448 838.76 478.84 839.339H924.065C927.498 833.914 928.639 829.173 928.535 825.137C928.425 820.815 926.879 817.073 924.788 813.952C922.69 810.819 920.079 808.37 917.964 806.693C916.912 805.859 915.997 805.229 915.354 804.811C915.033 804.602 914.78 804.447 914.614 804.347C914.53 804.298 914.468 804.261 914.43 804.239C914.411 804.229 914.398 804.221 914.391 804.217C914.39 804.216 914.388 804.216 914.388 804.215L914.386 804.214L914.385 804.213L913.187 803.55L905.871 677.577L907.326 676.839L908.453 679.061C907.326 676.839 907.327 676.838 907.329 676.837L907.37 676.817C907.4 676.802 907.445 676.779 907.504 676.748C907.623 676.688 907.801 676.597 908.036 676.477C908.507 676.236 909.208 675.876 910.124 675.404C911.955 674.459 914.647 673.062 918.085 671.253C924.96 667.637 934.819 662.377 946.742 655.811C970.592 642.676 1002.69 624.32 1035.7 603.426C1068.72 582.526 1102.59 559.121 1130.03 535.89C1157.57 512.57 1178.23 489.739 1185.34 470.04C1192.58 450.006 1196.97 421.108 1198.99 388.202C1201 355.343 1200.64 318.666 1198.47 283.174C1196.3 247.68 1192.33 213.42 1187.12 185.395C1184.52 171.381 1181.61 158.958 1178.49 148.737C1175.45 138.794 1172.24 131.085 1168.98 126.022L1168.67 125.54Z" fill="black"/>
<path d="M490.215 619.49C491.587 619.58 492.627 620.765 492.538 622.138L487.36 701.61C487.271 702.983 486.085 704.023 484.713 703.934C483.34 703.844 482.299 702.659 482.388 701.286L487.567 621.815C487.656 620.442 488.842 619.401 490.215 619.49Z" fill="black"/>
<path d="M907.385 676.82C908.627 676.229 910.113 676.758 910.703 678.001C911.293 679.244 910.764 680.729 909.521 681.319L908.453 679.069C909.522 681.32 909.521 681.32 909.521 681.32L909.52 681.321C909.518 681.322 909.516 681.322 909.514 681.323C909.509 681.325 909.502 681.329 909.493 681.333C909.475 681.341 909.449 681.354 909.413 681.371C909.343 681.404 909.239 681.453 909.103 681.517C908.83 681.645 908.427 681.833 907.903 682.076C906.856 682.562 905.324 683.266 903.385 684.141C899.507 685.891 893.994 688.325 887.446 691.068C874.361 696.547 857.095 703.276 840.471 708.22C839.153 708.612 837.765 707.861 837.373 706.543C836.981 705.224 837.732 703.837 839.051 703.445C855.43 698.574 872.511 691.921 885.521 686.473C892.021 683.751 897.492 681.334 901.337 679.6C903.259 678.733 904.774 678.036 905.807 677.557C906.324 677.318 906.72 677.132 906.986 677.007C907.118 676.945 907.218 676.897 907.285 676.865C907.319 676.85 907.345 676.838 907.361 676.83C907.369 676.827 907.375 676.823 907.379 676.822C907.381 676.821 907.383 676.82 907.384 676.82H907.385Z" fill="black"/>
<path d="M787.423 530.132C787.423 530.132 711.13 650.505 686.834 664.742C662.547 678.98 647.464 594.384 647.464 594.384C647.464 594.384 614.378 640.032 602.653 642.968C590.929 645.904 605.211 548.116 605.211 548.116L653.749 516.48L750.078 520.254L787.423 530.132Z" fill="black"/>
<path d="M750.176 517.765L750.415 517.773L791.994 527.573L790.121 530.53L788.017 529.196L790.12 530.531C790.119 530.532 790.118 530.534 790.117 530.536C790.115 530.539 790.111 530.545 790.106 530.552C790.097 530.567 790.083 530.59 790.065 530.619C790.027 530.678 789.971 530.766 789.897 530.881C789.75 531.112 789.532 531.455 789.247 531.902C788.677 532.796 787.837 534.109 786.761 535.783C784.608 539.133 781.506 543.933 777.708 549.736C770.113 561.343 759.73 576.972 748.584 593.05C737.442 609.121 725.518 625.67 714.844 639.107C709.508 645.823 704.463 651.791 699.967 656.543C695.793 660.955 691.963 664.46 688.732 666.503L688.094 666.891C684.474 669.013 680.825 669.367 677.352 668.16C674.003 666.997 671.066 664.473 668.505 661.328C663.39 655.049 659.113 645.466 655.691 635.728C652.246 625.925 649.578 615.7 647.774 607.945C647.097 605.037 646.541 602.471 646.109 600.397C645.504 601.204 644.831 602.101 644.095 603.069C640.797 607.412 636.273 613.238 631.375 619.162C626.486 625.078 621.189 631.132 616.352 635.91C613.935 638.298 611.593 640.405 609.445 642.026C607.352 643.605 605.225 644.892 603.258 645.384C601.571 645.806 600.052 645.243 598.964 644.123C598.015 643.147 597.423 641.799 597.015 640.463C596.183 637.743 595.774 633.892 595.617 629.474C595.302 620.559 596 608.484 597.054 596.426C598.11 584.342 599.533 572.175 600.691 563.036C601.27 558.465 601.783 554.647 602.152 551.972C602.336 550.634 602.484 549.581 602.587 548.863C602.638 548.503 602.678 548.227 602.704 548.04C602.718 547.948 602.729 547.877 602.736 547.829L602.745 547.761C602.746 547.76 602.745 547.758 602.745 547.757C602.745 547.756 602.746 547.755 605.211 548.115L602.745 547.755L602.908 546.643L653.054 513.96L750.176 517.765ZM607.515 549.586C607.414 550.297 607.269 551.335 607.087 552.652C606.721 555.313 606.21 559.112 605.633 563.662C604.48 572.767 603.065 584.863 602.016 596.859C600.966 608.881 600.292 620.704 600.596 629.298C600.749 633.634 601.148 636.941 601.779 639.007C602.01 639.761 602.232 640.207 602.386 640.45C603.344 640.127 604.701 639.364 606.445 638.049C608.35 636.612 610.517 634.671 612.851 632.366C617.515 627.76 622.689 621.852 627.536 615.988C632.375 610.134 636.855 604.364 640.127 600.056C641.762 597.903 643.094 596.117 644.016 594.87C644.477 594.247 644.836 593.759 645.079 593.427C645.2 593.261 645.293 593.134 645.355 593.05C645.386 593.007 645.409 592.974 645.424 592.953C645.432 592.943 645.438 592.935 645.441 592.93C645.443 592.927 645.444 592.925 645.445 592.924L645.446 592.923L648.887 588.176L649.916 593.947L649.917 593.95C649.917 593.952 649.918 593.955 649.919 593.959C649.92 593.969 649.923 593.983 649.926 594.002C649.933 594.041 649.943 594.1 649.958 594.177C649.986 594.333 650.03 594.565 650.087 594.868C650.202 595.475 650.374 596.368 650.602 597.5C651.058 599.766 651.736 602.99 652.626 606.816C654.408 614.478 657.029 624.511 660.391 634.077C663.776 643.708 667.824 652.604 672.368 658.182C674.636 660.966 676.862 662.715 678.987 663.453C680.987 664.148 683.123 664.03 685.575 662.593L686.095 662.276C688.749 660.593 692.221 657.48 696.348 653.118C700.707 648.511 705.654 642.665 710.943 636.007C721.519 622.694 733.372 606.247 744.489 590.211C755.602 574.182 765.959 558.593 773.54 547.009C777.329 541.218 780.423 536.429 782.57 533.089C783.12 532.233 783.605 531.472 784.027 530.814L749.743 522.733L654.444 519L607.515 549.586Z" fill="black"/>
<path d="M927.118 839.348L972.512 956.788H432.501L475.826 839.348H927.118ZM439.649 951.805H965.245L923.703 844.33H479.298L439.649 951.805Z" fill="black"/>
<path d="M477.562 841.839L436.075 954.296H968.878L925.41 841.839H477.562Z" fill="black"/>
<path d="M702.197 273.663C702.197 273.663 659.251 329.649 631.65 381.078C613.874 414.208 631.848 455.236 668.265 464.619L658.324 557.517L766.468 538.084L772.105 469.158L815.771 334.278L749.853 273.789L702.197 273.663Z" fill="white"/>
<path d="M750.825 271.301L818.634 333.524L774.563 469.649L768.794 540.197L655.493 560.557L665.562 466.455C628.983 455.668 611.257 413.816 629.455 379.9C643.321 354.064 661.019 327.121 675.228 306.664C682.337 296.429 688.582 287.804 693.05 281.737C695.284 278.704 697.075 276.309 698.308 274.671C698.924 273.853 699.401 273.223 699.725 272.797C699.886 272.584 700.01 272.422 700.093 272.314C700.135 272.259 700.167 272.218 700.188 272.19C700.198 272.176 700.207 272.165 700.212 272.158C700.215 272.155 700.217 272.152 700.218 272.15C700.219 272.149 700.22 272.149 700.22 272.148C700.22 272.148 700.221 272.147 702.197 273.663L700.221 272.147L700.971 271.169L750.825 271.301ZM702.288 277.667C701.064 279.292 699.284 281.674 697.061 284.692C692.615 290.73 686.398 299.316 679.32 309.506C665.156 329.899 647.581 356.663 633.846 382.256C616.833 413.962 634.035 453.226 668.887 462.207L670.972 462.744L661.153 554.477L764.14 535.971L769.621 468.955L769.646 468.666L769.734 468.391L812.908 335.032L748.879 276.277L703.429 276.157C703.132 276.549 702.749 277.054 702.288 277.667Z" fill="black"/>
<path d="M668.257 464.619C668.257 464.619 689.005 470.319 704.377 463.971C704.377 463.971 692.895 493.994 665.186 493.373L668.266 464.619H668.257Z" fill="black"/>
<path d="M706.704 464.86L704.377 463.971L706.703 464.863C706.702 464.864 706.702 464.865 706.702 464.866C706.701 464.868 706.7 464.871 706.699 464.874C706.696 464.88 706.693 464.887 706.689 464.897C706.681 464.917 706.671 464.943 706.658 464.977C706.631 465.044 706.593 465.139 706.543 465.26C706.443 465.501 706.296 465.846 706.101 466.28C705.712 467.147 705.129 468.372 704.343 469.833C702.774 472.749 700.378 476.639 697.068 480.521C690.456 488.275 680.004 496.197 665.13 495.864L662.42 495.802L665.562 466.462L649.787 462.128H671.038L670.976 462.706C671.348 462.787 671.766 462.876 672.225 462.967C674.343 463.389 677.327 463.888 680.773 464.195C687.73 464.813 696.287 464.617 703.425 461.668L708.768 459.461L706.704 464.86ZM667.962 490.835C679.38 490.188 687.658 483.878 693.277 477.288C696.071 474.012 698.163 470.708 699.609 468.1C692.926 469.691 685.956 469.657 680.332 469.157C676.67 468.832 673.505 468.302 671.252 467.853C670.967 467.797 670.697 467.742 670.441 467.688L667.962 490.835Z" fill="black"/>
<path d="M784.965 431.696C721.379 363.328 758.129 293.925 758.129 293.925C725.719 324.191 669.346 300.769 669.346 300.769C669.346 300.769 705.98 216.246 775.419 277.418C775.419 277.418 852.612 277.256 811.647 375.494L784.973 431.705L784.965 431.696Z" fill="black"/>
<path d="M694.84 264.167C704.098 257.169 715.751 252.056 729.679 252.772C743.414 253.478 759.008 259.835 776.382 274.952C776.976 274.976 777.826 275.025 778.885 275.123C781.005 275.319 783.973 275.711 787.399 276.5C794.227 278.073 803.021 281.255 810.523 287.731C818.083 294.258 824.201 304.024 825.746 318.46C827.282 332.819 824.282 351.666 813.946 376.454L813.923 376.508L813.897 376.563L785.689 436.007L783.19 433.443L783.161 433.414L783.14 433.393C750.838 398.661 743.947 363.538 745.214 337.053C745.846 323.842 748.505 312.81 751.01 305.071C751.394 303.882 751.777 302.771 752.147 301.741C736.277 312.018 717.066 312.972 701.301 311.172C692.047 310.115 683.84 308.096 677.95 306.344C675.003 305.467 672.628 304.655 670.983 304.059C670.161 303.761 669.52 303.517 669.082 303.345C668.862 303.26 668.694 303.193 668.578 303.146C668.52 303.123 668.475 303.104 668.443 303.092C668.428 303.085 668.415 303.08 668.406 303.076C668.402 303.074 668.398 303.073 668.396 303.072C668.394 303.072 668.393 303.07 668.393 303.07C668.393 303.066 668.429 302.975 669.346 300.769C667.061 299.778 667.062 299.777 667.062 299.775C667.063 299.774 667.064 299.772 667.064 299.77C667.066 299.766 667.068 299.761 667.071 299.755C667.077 299.742 667.084 299.723 667.095 299.7C667.115 299.654 667.145 299.588 667.183 299.503C667.26 299.333 667.373 299.086 667.522 298.771C667.819 298.141 668.261 297.235 668.845 296.11C670.013 293.859 671.754 290.725 674.065 287.162C678.673 280.057 685.607 271.147 694.84 264.167ZM729.423 257.748C716.952 257.107 706.425 261.655 697.845 268.141C689.241 274.645 682.676 283.041 678.245 289.873C676.036 293.279 674.374 296.271 673.267 298.404C673.081 298.762 672.912 299.095 672.758 299.402C674.32 299.966 676.574 300.736 679.371 301.569C685.064 303.262 692.977 305.207 701.867 306.222C719.744 308.264 741.021 306.494 756.429 292.104L767.275 281.975L760.33 295.091C760.33 295.091 760.33 295.093 760.329 295.094C760.326 295.099 760.321 295.108 760.314 295.122C760.3 295.149 760.278 295.193 760.247 295.252C760.187 295.372 760.094 295.557 759.975 295.805C759.735 296.301 759.385 297.049 758.959 298.031C758.106 299.998 756.948 302.901 755.75 306.604C753.351 314.015 750.797 324.607 750.19 337.292C749.012 361.918 755.161 394.548 784.316 427.279L809.367 374.487C819.496 350.18 822.207 332.223 820.792 318.991C819.384 305.828 813.884 297.215 807.267 291.503C800.591 285.74 792.647 282.822 786.281 281.356C783.111 280.625 780.368 280.263 778.426 280.084C777.457 279.994 776.69 279.95 776.174 279.929C775.915 279.919 775.72 279.914 775.593 279.912C775.529 279.91 775.483 279.91 775.455 279.91H775.424L774.481 279.912L773.772 279.288C756.702 264.25 741.906 258.389 729.423 257.748ZM669.346 300.769L668.391 303.069L666.055 302.099L667.06 299.778L669.346 300.769Z" fill="black"/>
<path d="M764.117 415.072C775.238 415.072 784.253 406.057 784.253 394.937C784.253 383.816 775.238 374.801 764.117 374.801C752.996 374.801 743.982 383.816 743.982 394.937C743.982 406.057 752.996 415.072 764.117 415.072Z" fill="white"/>
<path d="M762.422 373.459C768.655 373.024 774.478 375.162 778.846 378.964C783.215 382.766 786.132 388.234 786.567 394.466C787.002 400.7 784.864 406.522 781.062 410.89C777.26 415.258 771.792 418.175 765.561 418.611C759.327 419.046 753.504 416.908 749.136 413.106C748.098 412.203 747.99 410.63 748.893 409.592C749.796 408.554 751.369 408.445 752.407 409.348C755.819 412.318 760.353 413.98 765.213 413.641C770.076 413.302 774.334 411.032 777.304 407.62C780.274 404.207 781.937 399.673 781.597 394.813C781.258 389.95 778.987 385.692 775.575 382.722C772.163 379.752 767.629 378.091 762.769 378.43C757.906 378.769 753.648 381.039 750.678 384.451C749.775 385.489 748.201 385.598 747.164 384.695C746.126 383.791 746.017 382.218 746.92 381.18C750.722 376.812 756.19 373.894 762.422 373.459Z" fill="black"/>
<path d="M692.968 344.893C693.424 343.716 694.706 343.051 695.95 343.393C697.277 343.757 698.057 345.128 697.693 346.455L695.29 345.795C697.672 346.449 697.693 346.455 697.693 346.456L697.692 346.458C697.691 346.459 697.691 346.461 697.691 346.463C697.69 346.467 697.688 346.472 697.686 346.478C697.682 346.492 697.677 346.511 697.67 346.536C697.657 346.585 697.636 346.655 697.61 346.746C697.558 346.927 697.482 347.19 697.38 347.523C697.178 348.191 696.877 349.145 696.482 350.307C695.693 352.629 694.52 355.801 692.98 359.193C691.444 362.577 689.52 366.23 687.22 369.49C684.936 372.729 682.181 375.722 678.933 377.619C678.035 378.143 677.602 378.541 677.405 378.767C677.581 378.953 677.915 379.235 678.5 379.581C679.269 380.035 680.273 380.486 681.438 380.917C683.767 381.776 686.477 382.459 688.649 382.932C689.725 383.166 690.65 383.346 691.304 383.465C691.631 383.525 691.89 383.57 692.064 383.6C692.152 383.614 692.218 383.626 692.262 383.633C692.283 383.636 692.3 383.639 692.31 383.641C692.314 383.641 692.318 383.642 692.32 383.642H692.322L692.571 383.695C693.792 384.018 694.594 385.22 694.392 386.494C694.176 387.852 692.9 388.779 691.541 388.563L691.932 386.102C691.561 388.441 691.541 388.557 691.54 388.562H691.538C691.537 388.562 691.535 388.562 691.533 388.561C691.529 388.561 691.524 388.56 691.517 388.558C691.502 388.556 691.481 388.553 691.455 388.549C691.403 388.54 691.327 388.528 691.23 388.512C691.037 388.479 690.757 388.43 690.408 388.366C689.71 388.238 688.73 388.049 687.589 387.8C685.326 387.308 682.358 386.567 679.713 385.591C678.393 385.103 677.086 384.533 675.965 383.87C674.889 383.234 673.746 382.376 673.029 381.218C672.207 379.889 672.021 378.261 672.836 376.675C673.539 375.308 674.86 374.227 676.42 373.316C678.809 371.921 681.074 369.56 683.149 366.618C685.209 363.698 686.986 360.344 688.444 357.133C689.898 353.929 691.013 350.918 691.765 348.705C692.14 347.6 692.424 346.698 692.612 346.077C692.706 345.767 692.776 345.526 692.822 345.366C692.845 345.286 692.863 345.226 692.874 345.187C692.879 345.168 692.883 345.154 692.886 345.145C692.887 345.141 692.888 345.138 692.889 345.136V345.135L692.968 344.893Z" fill="black"/>
<path d="M678.504 323.94C681.494 323.185 685.82 323.119 691.721 325.191C693.019 325.647 693.702 327.068 693.246 328.366C692.791 329.664 691.369 330.348 690.071 329.892C684.941 328.091 681.621 328.291 679.723 328.77C678.763 329.012 678.12 329.338 677.75 329.566C677.564 329.68 677.445 329.772 677.387 329.819C677.361 329.84 677.347 329.853 677.346 329.854C677.347 329.853 677.351 329.849 677.36 329.84C677.364 329.836 677.369 329.832 677.375 329.826C677.378 329.823 677.382 329.82 677.385 329.816C677.387 329.814 677.388 329.812 677.39 329.81L677.21 329.979C676.245 330.793 674.8 330.76 673.873 329.863C672.884 328.906 672.858 327.329 673.815 326.34L675.605 328.072C673.815 326.341 673.816 326.339 673.818 326.337L673.876 326.279C673.901 326.255 673.931 326.226 673.966 326.194C674.035 326.13 674.124 326.052 674.233 325.963C674.452 325.784 674.751 325.562 675.136 325.324C675.91 324.848 677.02 324.314 678.504 323.94Z" fill="black"/>
<path d="M710.905 329.661C711.513 329.661 714.847 329.954 718.704 331.563C722.61 333.192 727.261 336.262 730.038 341.956C730.641 343.193 730.128 344.685 728.892 345.288C727.655 345.891 726.163 345.377 725.56 344.141C723.475 339.866 719.966 337.488 716.786 336.161C713.555 334.814 710.874 334.643 710.905 334.643C709.53 334.643 708.414 333.528 708.414 332.152C708.414 330.776 709.53 329.661 710.905 329.661Z" fill="black"/>
<path d="M678.395 350.539C679.323 347.604 678.749 344.805 677.113 344.288C675.477 343.771 673.398 345.731 672.47 348.666C671.543 351.602 672.117 354.401 673.753 354.918C675.389 355.435 677.467 353.475 678.395 350.539Z" fill="black"/>
<path d="M712.922 361.449C713.85 358.513 713.276 355.715 711.64 355.198C710.004 354.68 707.925 356.641 706.997 359.576C706.07 362.512 706.644 365.311 708.28 365.828C709.916 366.345 711.994 364.384 712.922 361.449Z" fill="black"/>
<path d="M805.427 287.76C805.927 286.479 807.372 285.845 808.654 286.345C810.866 287.208 812.828 288.795 814.476 290.5C816.142 292.226 817.616 294.21 818.827 296.052C820.044 297.9 821.027 299.653 821.706 300.94C822.046 301.586 822.312 302.119 822.495 302.494C822.586 302.682 822.656 302.831 822.705 302.934C822.711 302.947 822.716 302.959 822.722 302.97C822.765 303.044 822.82 303.142 822.886 303.262C823.028 303.523 823.219 303.893 823.44 304.374C823.882 305.339 824.448 306.749 825 308.628C826.105 312.389 827.15 318.005 827.052 325.643C826.856 340.921 822.095 364.194 804.261 396.833C803.602 398.041 802.088 398.484 800.881 397.825C799.673 397.165 799.229 395.652 799.888 394.444C817.427 362.345 821.887 339.867 822.07 325.579C822.161 318.434 821.184 313.314 820.22 310.033C819.737 308.391 819.257 307.204 818.912 306.452C818.739 306.076 818.6 305.808 818.511 305.645C818.467 305.564 818.435 305.508 818.418 305.479C818.416 305.475 818.414 305.472 818.412 305.469L818.32 305.324L818.249 305.169V305.168L818.248 305.166C818.247 305.162 818.244 305.155 818.24 305.145C818.231 305.126 818.216 305.095 818.196 305.053C818.156 304.968 818.096 304.84 818.015 304.673C817.853 304.341 817.611 303.856 817.299 303.264C816.672 302.076 815.77 300.47 814.665 298.791C813.556 297.105 812.273 295.391 810.892 293.961C809.491 292.511 808.114 291.483 806.842 290.987C805.56 290.487 804.927 289.042 805.427 287.76Z" fill="white"/>
<path d="M659.864 416.549C674.092 421.979 691.219 426.986 705.132 417.873C707.546 416.288 705.295 412.389 702.864 413.983C690.022 422.394 674.119 417.189 661.07 412.2C659.935 411.767 658.603 412.677 658.296 413.776C657.945 415.045 658.729 416.108 659.872 416.549H659.864Z" fill="black"/>
<path d="M1055.18 127.04C1055.08 126.878 1054.97 126.707 1054.86 126.545C1054.86 126.545 965.979 76.3766 1017.51 47.2087C1017.51 47.2087 1009.6 25.3981 1023.5 19.1304C1037.41 12.8628 1048.04 23.4888 1048.04 23.4888C1048.04 23.4888 1054.59 8.62115 1080.22 17.1491C1080.22 17.1491 1098.48 6.85613 1107.49 19.4004C1107.49 19.4004 1128.75 8.49511 1139.93 27.307C1151.11 46.1189 1157.65 96.8275 1142.38 114.28C1138.48 118.737 1135.46 122.745 1133.11 126.248C1126.15 136.631 1114.96 143.402 1102.53 144.663L1094.25 145.501C1078.81 147.068 1063.76 139.971 1055.18 127.04Z" fill="white"/>
<path d="M1090.04 11.1182C1095.68 10.123 1102.96 10.4732 1108.23 16.3514C1108.78 16.1305 1109.44 15.8819 1110.19 15.6294C1112.5 14.8536 1115.73 14.0161 1119.38 13.8126C1126.76 13.4002 1135.89 15.6338 1142.07 26.0346C1147.94 35.9147 1152.42 53.7361 1153.56 71.1411C1154.13 79.8877 1153.87 88.6625 1152.47 96.417C1151.07 104.128 1148.5 111.075 1144.26 115.92C1140.43 120.301 1137.46 124.225 1135.18 127.636C1127.81 138.629 1115.96 145.806 1102.79 147.142L1094.5 147.978L1094.5 147.979C1078.15 149.639 1062.19 142.122 1053.11 128.417C1053.11 128.414 1053.1 128.41 1053.1 128.406C1052.96 128.327 1052.8 128.233 1052.61 128.123C1051.96 127.741 1051.02 127.18 1049.84 126.456C1047.48 125.01 1044.17 122.913 1040.37 120.305C1032.78 115.103 1023.13 107.814 1015.08 99.5533C1007.1 91.3737 1000.32 81.8685 999.132 72.2154C998.526 67.2996 999.376 62.382 1002.18 57.7096C1004.72 53.4884 1008.78 49.5907 1014.54 46.0656C1014.39 45.5558 1014.23 44.9603 1014.07 44.2946C1013.52 42.0503 1012.93 38.9538 1012.8 35.6156C1012.55 29.0855 1014.09 20.6426 1022.48 16.8594C1030.22 13.3705 1037.1 14.5959 1041.96 16.6677C1044.28 17.6547 1046.15 18.8371 1047.48 19.801C1047.49 19.7802 1047.51 19.7588 1047.53 19.7378C1048.71 18.266 1050.57 16.4436 1053.32 14.9366C1058.76 11.9585 1067.25 10.436 1079.99 14.4597C1080.55 14.1858 1081.32 13.8254 1082.26 13.4361C1084.22 12.6222 1086.96 11.6619 1090.04 11.1182ZM1105.46 20.8529C1101.78 15.7159 1096.18 15.0927 1090.91 16.0245C1088.3 16.4859 1085.91 17.3138 1084.17 18.0378C1083.3 18.3977 1082.6 18.7267 1082.13 18.9622C1081.89 19.0796 1081.71 19.1734 1081.6 19.2357C1081.54 19.2668 1081.49 19.2905 1081.47 19.3047C1081.46 19.3118 1081.45 19.3168 1081.44 19.3193C1081.44 19.3206 1081.44 19.3212 1081.44 19.3213L1081.44 19.3203C1081.44 19.3203 1081.44 19.3203 1081.44 19.3193L1080.48 19.8613L1079.43 19.513C1067.12 15.4152 1059.82 17.06 1055.72 19.3057C1053.63 20.4495 1052.25 21.8111 1051.41 22.8604C1050.98 23.3854 1050.7 23.8312 1050.52 24.1283C1050.44 24.2765 1050.38 24.3875 1050.34 24.4514C1050.34 24.4706 1050.33 24.4857 1050.32 24.4962L1048.86 27.8231L1046.28 25.2474C1046.27 25.2365 1046.25 25.2164 1046.22 25.188C1046.15 25.1304 1046.05 25.0386 1045.92 24.9195C1045.65 24.6809 1045.23 24.334 1044.68 23.9298C1043.59 23.1185 1041.99 22.0942 1040.01 21.2509C1036.08 19.5767 1030.69 18.6232 1024.53 21.4017C1019.02 23.8862 1017.55 29.4828 1017.78 35.4249C1017.89 38.3226 1018.41 41.0704 1018.91 43.1113C1019.16 44.1263 1019.4 44.9534 1019.57 45.5207C1019.66 45.804 1019.73 46.0218 1019.78 46.1649C1019.81 46.2361 1019.82 46.2886 1019.84 46.3215L1019.85 46.3595L1020.57 48.3397L1018.73 49.377C1012.55 52.8794 1008.67 56.5826 1006.45 60.2746C1004.26 63.9286 1003.6 67.7161 1004.08 71.6053C1005.06 79.5621 1010.84 88.0681 1018.64 96.0765C1026.37 104.004 1035.72 111.08 1043.19 116.195C1046.91 118.747 1050.14 120.798 1052.44 122.209C1053.59 122.914 1054.51 123.459 1055.14 123.826C1055.45 124.009 1055.69 124.148 1055.85 124.241C1055.93 124.287 1055.99 124.321 1056.03 124.344C1056.05 124.355 1056.06 124.364 1056.07 124.369C1056.08 124.371 1056.08 124.374 1056.08 124.375L1056.09 124.376L1056.6 124.668L1056.93 125.163C1057 125.26 1057.06 125.357 1057.11 125.437L1057.26 125.658L1057.26 125.664C1065.32 137.821 1079.48 144.496 1094 143.022L1102.28 142.185L1102.83 142.126C1114.29 140.8 1124.6 134.48 1131.04 124.861L1131.04 124.859C1133.45 121.265 1136.54 117.173 1140.51 112.639L1140.82 112.27C1144.05 108.386 1146.28 102.593 1147.56 95.5286C1148.88 88.2792 1149.14 79.9293 1148.59 71.4661C1147.48 54.4509 1143.1 37.5111 1137.79 28.5792C1132.79 20.1684 1125.69 18.4499 1119.65 18.7871C1116.58 18.9585 1113.8 19.6707 1111.78 20.3518C1110.77 20.6905 1109.96 21.0174 1109.41 21.2548C1109.14 21.3734 1108.93 21.4693 1108.8 21.5331C1108.73 21.5649 1108.68 21.5887 1108.65 21.6032C1108.64 21.6103 1108.63 21.6154 1108.62 21.6178C1108.62 21.6187 1108.62 21.6196 1108.62 21.6197L1108.62 21.6178L1106.71 22.5967L1105.46 20.8529Z" fill="black"/>
<path d="M1104.66 19.566C1105.21 18.3051 1106.68 17.7295 1107.94 18.2796C1109.2 18.8298 1109.78 20.2979 1109.23 21.5589L1104.45 32.5178C1101 40.4301 1101.51 49.515 1105.87 56.9442C1108.34 61.1537 1111.38 65.393 1114.89 68.5454C1118.4 71.6976 1122.19 73.5965 1126.21 73.5704C1130 73.5459 1132.06 72.1284 1133.3 70.2317C1134.66 68.1578 1135.25 65.1906 1135.29 61.8573C1135.33 58.576 1134.84 55.2451 1134.32 52.6977C1134.07 51.4331 1133.81 50.3809 1133.61 49.65C1133.52 49.2848 1133.44 49.0004 1133.38 48.8112C1133.36 48.7166 1133.34 48.6454 1133.32 48.6C1133.31 48.5774 1133.31 48.561 1133.31 48.5513C1133.3 48.5471 1133.3 48.5442 1133.3 48.5426L1133.24 48.2954C1132.99 47.058 1133.71 45.8075 1134.94 45.4248C1136.26 45.0168 1137.65 45.7507 1138.06 47.0645L1135.69 47.8021C1137.94 47.1008 1138.06 47.0664 1138.06 47.0654L1138.06 47.0684C1138.06 47.0701 1138.06 47.0726 1138.06 47.0752C1138.07 47.0804 1138.07 47.0871 1138.07 47.0956C1138.08 47.1129 1138.08 47.1371 1138.09 47.1676C1138.11 47.2287 1138.14 47.3159 1138.17 47.4274C1138.23 47.6504 1138.32 47.9716 1138.43 48.3762C1138.64 49.1846 1138.93 50.3321 1139.21 51.7071C1139.76 54.4397 1140.32 58.1513 1140.27 61.9196C1140.22 65.6362 1139.59 69.7267 1137.47 72.9622C1135.23 76.3747 1131.55 78.5183 1126.24 78.5526C1120.54 78.5896 1115.61 75.8828 1111.56 72.2519C1107.52 68.621 1104.17 63.8999 1101.57 59.4645C1096.4 50.6486 1095.8 39.8863 1099.88 30.5268V30.5259L1104.66 19.566Z" fill="black"/>
<path d="M1077.94 16.1335C1078.51 14.8774 1079.98 14.314 1081.23 14.8753C1082.49 15.4365 1083.05 16.9092 1082.49 18.1653L1075.31 34.2494C1072.2 41.194 1072.03 49.0902 1074.88 56.0962L1075.17 56.7715V56.7725C1077.51 62.1171 1080.54 67.9573 1084.02 72.3108C1087.6 76.7933 1091.08 78.9957 1094.29 78.6796C1101.21 77.9917 1104.88 75.2283 1106.83 72.8557C1107.83 71.6403 1108.43 70.4722 1108.77 69.626C1108.94 69.2038 1109.05 68.8653 1109.11 68.6481C1109.14 68.5402 1109.15 68.4626 1109.16 68.4204C1109.17 68.4 1109.17 68.3876 1109.17 68.3844C1109.17 68.385 1109.17 68.386 1109.17 68.3873C1109.17 68.389 1109.17 68.3912 1109.17 68.3941V68.397C1109.42 67.0478 1110.71 66.1531 1112.06 66.3973C1113.42 66.6421 1114.32 67.9376 1114.07 69.2913L1111.62 68.8485L1114.07 69.2952C1114.07 69.2959 1114.07 69.2979 1114.07 69.2991C1114.07 69.3014 1114.07 69.3042 1114.07 69.3069C1114.07 69.3124 1114.07 69.3185 1114.06 69.3253C1114.06 69.3392 1114.06 69.3558 1114.06 69.375C1114.05 69.4132 1114.04 69.4617 1114.02 69.52C1114 69.6367 1113.96 69.7931 1113.91 69.9832C1113.8 70.3628 1113.64 70.8811 1113.39 71.4953C1112.89 72.7223 1112.05 74.3492 1110.67 76.0231C1107.87 79.4295 1102.99 82.8215 1094.78 83.6375H1094.78C1088.87 84.2209 1083.9 80.1474 1080.13 75.4208C1076.25 70.5641 1073.01 64.2599 1070.61 58.7712V58.7703C1066.89 50.2906 1066.99 40.6442 1070.76 32.2167L1077.94 16.1335Z" fill="black"/>
<path d="M1050.71 34.3083C1055.46 34.3428 1060.23 35.6484 1062.85 39.9094C1065.22 43.7755 1065.45 48.2214 1064.71 52.4399C1063.96 56.6548 1062.2 60.8721 1060.25 64.5548C1058.3 68.255 1056.1 71.5255 1054.4 73.8634C1054.33 73.9609 1054.26 74.056 1054.19 74.1504C1056.67 74.6357 1059.97 75.5326 1063.41 77.201C1070.66 80.7071 1078.54 87.6089 1081.03 100.87C1081.28 102.223 1080.39 103.524 1079.04 103.778C1077.69 104.031 1076.38 103.141 1076.13 101.789C1073.99 90.3768 1067.36 84.6446 1061.24 81.685C1058.15 80.1884 1055.18 79.4004 1052.97 78.9886C1051.88 78.7834 1050.98 78.6732 1050.37 78.6149C1050.06 78.5858 1049.83 78.5701 1049.68 78.5614C1049.6 78.5571 1049.55 78.554 1049.52 78.5527C1049.5 78.552 1049.49 78.5519 1049.48 78.5517C1049.48 78.5517 1049.48 78.5518 1049.48 78.5507L1044.25 78.4242L1047.65 74.4433L1047.65 74.4423C1047.65 74.4409 1047.66 74.4383 1047.66 74.4346C1047.67 74.4263 1047.68 74.4123 1047.69 74.3937C1047.73 74.3565 1047.77 74.2987 1047.84 74.2215C1047.97 74.0669 1048.16 73.8344 1048.4 73.5315C1048.88 72.9253 1049.57 72.0389 1050.37 70.9344C1051.98 68.7191 1054.04 65.6543 1055.85 62.2272C1057.67 58.7824 1059.18 55.0799 1059.8 51.5719C1060.42 48.0673 1060.11 44.986 1058.6 42.5124C1057.32 40.4341 1054.75 39.3202 1050.67 39.2905C1046.64 39.2613 1041.77 40.3187 1036.95 41.8322C1032.16 43.3345 1027.58 45.231 1024.19 46.76C1022.5 47.5226 1021.11 48.1893 1020.15 48.6643C1019.67 48.9017 1019.29 49.0912 1019.04 49.2199C1018.91 49.2841 1018.82 49.3333 1018.76 49.3659C1018.73 49.3822 1018.7 49.3951 1018.69 49.4029L1018.67 49.4126C1017.45 50.0537 1015.94 49.5873 1015.3 48.3704C1014.66 47.1533 1015.13 45.6459 1016.35 45.0045L1017.51 47.2086C1016.4 45.1151 1016.35 45.0101 1016.35 45.0045L1016.35 45.0035C1016.35 45.0027 1016.35 45.0011 1016.36 44.9996C1016.36 44.9968 1016.37 44.9929 1016.38 44.988C1016.4 44.9779 1016.42 44.9637 1016.46 44.9452C1016.53 44.9078 1016.64 44.853 1016.77 44.7836C1017.04 44.645 1017.44 44.4452 1017.94 44.1968C1018.95 43.7001 1020.39 43.0076 1022.14 42.2176C1025.64 40.6409 1030.41 38.6608 1035.45 37.0787C1040.46 35.508 1045.91 34.2735 1050.71 34.3083Z" fill="black"/>
<path d="M1046.12 21.8999C1047 20.8404 1048.57 20.6932 1049.63 21.571C1050.69 22.4481 1050.84 24.0157 1049.96 25.0751C1049.96 25.0759 1049.96 25.0761 1049.96 25.076L1049.97 25.0721C1049.97 25.0703 1049.97 25.0685 1049.97 25.0673L1049.96 25.076C1049.95 25.0936 1049.92 25.1295 1049.88 25.1831C1049.81 25.2907 1049.68 25.4701 1049.53 25.7183C1049.22 26.215 1048.8 26.9847 1048.39 28.0099C1047.58 30.0534 1046.83 33.1253 1047.18 37.117C1047.31 38.4873 1046.29 39.6976 1044.92 39.8203C1043.55 39.9428 1042.34 38.9311 1042.22 37.5607C1041.79 32.6918 1042.7 28.8389 1043.76 26.1727C1044.29 24.8433 1044.85 23.8114 1045.29 23.0958C1045.51 22.7378 1045.71 22.4578 1045.85 22.258C1045.92 22.1583 1045.98 22.0783 1046.03 22.0186C1046.05 21.9887 1046.07 21.9635 1046.09 21.9437C1046.1 21.934 1046.1 21.9256 1046.11 21.9184C1046.11 21.9147 1046.12 21.9107 1046.12 21.9077C1046.12 21.9064 1046.12 21.905 1046.12 21.9038L1046.12 21.9018C1046.12 21.9009 1046.12 21.8997 1048.04 23.4889L1046.12 21.8999Z" fill="black"/>
<path d="M341.808 177.01C341.88 176.83 341.943 176.641 342.015 176.452C342.015 176.452 417.488 107.751 360.764 90.7852C360.764 90.7852 363.619 67.7589 348.661 64.7421C333.712 61.7254 325.716 74.4588 325.716 74.4588C325.716 74.4588 316.026 61.4281 292.936 75.4402C292.936 75.4402 272.837 69.4789 266.857 83.7072C266.857 83.7072 243.696 77.8086 236.987 98.6377C230.278 119.467 235.195 170.364 253.962 183.971C258.753 187.447 262.598 190.68 265.669 193.571C274.764 202.144 287.173 206.25 299.573 204.719L307.84 203.693C323.239 201.784 336.332 191.518 341.808 176.992V177.01Z" fill="white"/>
<path d="M330.12 66.4524C334.399 63.348 340.832 60.6208 349.154 62.3002L349.573 62.3897C358.286 64.367 361.578 72.1102 362.77 78.433C363.389 81.7166 363.502 84.8676 363.467 87.1781C363.456 87.8636 363.431 88.4799 363.403 89.0095C369.805 91.1635 374.629 94.0596 378.041 97.6106C381.817 101.541 383.74 106.147 384.243 111.074C385.231 120.751 380.739 131.528 374.788 141.278C368.778 151.124 360.993 160.379 354.752 167.142C351.624 170.531 348.867 173.311 346.889 175.246C345.9 176.214 345.106 176.972 344.556 177.489C344.398 177.638 344.259 177.766 344.142 177.875C344.134 177.898 344.128 177.918 344.121 177.935L343.91 178.462C343.863 178.581 343.815 178.7 343.767 178.819L339.317 189.945V187.152C332.24 197.542 320.944 204.578 308.148 206.164L299.88 207.191H299.878C286.737 208.813 273.591 204.461 263.961 195.384C260.971 192.57 257.208 189.404 252.499 185.987V185.986C247.289 182.208 243.237 176.01 240.158 168.805C237.062 161.558 234.852 153.062 233.461 144.407C230.694 127.186 231.092 108.813 234.615 97.8734C238.325 86.3567 246.726 82.1479 254.02 80.9056C257.617 80.293 260.957 80.3899 263.381 80.6322C264.169 80.711 264.867 80.807 265.453 80.8998C269.278 73.9982 276.301 72.0352 282.015 71.7499C285.137 71.594 288.027 71.9191 290.12 72.2753C291.122 72.4457 291.953 72.6254 292.555 72.7687C304.091 66.0103 312.701 65.606 318.665 67.298C321.683 68.1542 323.903 69.5156 325.385 70.6863C325.406 70.7027 325.426 70.7205 325.446 70.7369C326.522 69.5018 328.082 67.9312 330.12 66.4524ZM348.168 67.1841C341.542 65.847 336.502 67.9768 333.045 70.4848C331.304 71.7482 329.978 73.1021 329.09 74.1378C328.647 74.6535 328.319 75.0851 328.107 75.3785C328.001 75.525 327.923 75.6365 327.876 75.7064C327.853 75.741 327.837 75.7653 327.828 75.7784C327.824 75.7849 327.822 75.7893 327.822 75.7901L325.889 78.866L323.721 75.9507C323.722 75.9524 323.724 75.9541 323.725 75.9555C323.727 75.9583 323.729 75.9601 323.73 75.9614C323.732 75.9639 323.731 75.9636 323.729 75.9604C323.724 75.954 323.71 75.937 323.687 75.9098C323.641 75.8548 323.56 75.7595 323.442 75.6344C323.206 75.3838 322.825 75.0139 322.296 74.5961C321.24 73.7616 319.595 72.7413 317.305 72.0914C312.807 70.8153 305.324 70.8366 294.229 77.5699L293.286 78.1421L292.23 77.8278C292.229 77.8276 292.228 77.828 292.227 77.8278C292.222 77.8263 292.213 77.8239 292.199 77.82C292.17 77.8119 292.123 77.7983 292.059 77.781C291.931 77.7464 291.734 77.6949 291.478 77.6331C290.963 77.5092 290.21 77.344 289.284 77.1865C287.422 76.8696 284.914 76.5939 282.264 76.7262C276.912 76.9934 271.602 78.8468 269.154 84.6724L268.322 86.6507L266.243 86.1214C266.237 86.1201 266.227 86.1173 266.212 86.1136C266.18 86.106 266.127 86.0937 266.054 86.0776C265.909 86.0453 265.685 85.9979 265.392 85.9433C264.805 85.8337 263.944 85.6949 262.886 85.5891C260.758 85.3764 257.888 85.3006 254.857 85.8168C248.893 86.8326 242.358 90.0888 239.358 99.4011C236.173 109.29 235.675 126.781 238.38 143.617C239.726 151.992 241.845 160.073 244.739 166.848C247.651 173.662 251.251 178.928 255.424 181.954L255.425 181.955C259.688 185.048 263.228 187.961 266.158 190.629L267.376 191.757L267.377 191.758C275.937 199.826 287.609 203.685 299.266 202.247L307.534 201.22C322.018 199.424 334.329 189.769 339.476 176.113L344.299 163.32V170.8C346.129 168.986 348.479 166.592 351.091 163.762C357.228 157.113 364.767 148.132 370.534 138.683C376.361 129.137 380.101 119.558 379.286 111.581C378.888 107.682 377.401 104.137 374.448 101.063C371.464 97.9573 366.861 95.2086 360.05 93.1714L358.033 92.5681L358.292 90.4779C358.292 90.4771 358.292 90.4761 358.292 90.475C358.293 90.4682 358.295 90.4553 358.297 90.438C358.301 90.4033 358.307 90.3474 358.314 90.2726C358.33 90.1223 358.351 89.8938 358.374 89.5982C358.419 89.0059 358.47 88.1459 358.486 87.1013C358.518 85.0003 358.411 82.2063 357.874 79.3565C356.772 73.5126 354.099 68.3803 348.169 67.1841H348.168Z" fill="black"/>
<path d="M266.152 82.73C267.258 81.9125 268.818 82.147 269.635 83.2535L276.741 92.8705L276.742 92.8725C282.802 101.09 284.613 111.714 281.544 121.458V121.459C279.996 126.366 277.785 131.714 274.652 136.153C271.518 140.594 267.311 144.329 261.742 145.564L261.741 145.565C256.557 146.713 252.496 145.441 249.556 142.613C246.768 139.931 245.235 136.086 244.36 132.474C243.474 128.812 243.191 125.07 243.122 122.283C243.087 120.881 243.106 119.699 243.134 118.864C243.148 118.446 243.165 118.113 243.178 117.881C243.185 117.765 243.19 117.674 243.195 117.61C243.197 117.578 243.199 117.553 243.2 117.535C243.201 117.527 243.201 117.519 243.201 117.514C243.202 117.511 243.202 117.508 243.202 117.506V117.504C243.203 117.503 243.203 117.503 245.687 117.693L243.202 117.502C243.308 116.131 244.505 115.104 245.876 115.209C247.248 115.314 248.275 116.511 248.17 117.883L248.169 117.892C248.168 117.903 248.168 117.92 248.166 117.943C248.163 117.99 248.158 118.065 248.153 118.163C248.141 118.36 248.126 118.654 248.114 119.031C248.088 119.786 248.071 120.87 248.103 122.159C248.167 124.757 248.431 128.113 249.202 131.303C249.986 134.542 251.222 137.303 253.009 139.022C254.644 140.595 256.963 141.52 260.663 140.701L261.029 140.613C264.798 139.659 267.946 137.014 270.581 133.281C273.301 129.427 275.323 124.617 276.791 119.961L277.022 119.189C279.279 111.19 277.696 102.56 272.732 95.8297V95.8287L265.628 86.2136C264.811 85.1071 265.045 83.5474 266.152 82.73Z" fill="black"/>
<path d="M291.439 73.4671C292.538 72.6403 294.101 72.8611 294.927 73.9605L305.518 88.0449C311.065 95.4223 313.312 104.805 311.585 113.898L311.584 113.9C310.462 119.785 308.713 126.65 306.014 132.248C303.387 137.697 299.449 142.777 293.556 143.524H293.555C285.371 144.559 279.86 142.34 276.366 139.643C274.649 138.318 273.469 136.917 272.712 135.831C272.333 135.288 272.057 134.819 271.869 134.473C271.775 134.299 271.703 134.156 271.651 134.048C271.625 133.994 271.605 133.949 271.589 133.913C271.581 133.896 271.574 133.88 271.569 133.867C271.566 133.86 271.563 133.854 271.561 133.849C271.56 133.847 271.558 133.845 271.557 133.842C271.556 133.841 271.556 133.839 271.556 133.838L273.846 132.858L271.555 133.835C271.015 132.57 271.602 131.106 272.868 130.566C274.132 130.026 275.594 130.613 276.135 131.877L276.134 131.874C276.134 131.872 276.133 131.87 276.132 131.869C276.131 131.866 276.13 131.864 276.129 131.862L276.144 131.893C276.163 131.932 276.199 132.004 276.252 132.102C276.359 132.301 276.537 132.607 276.798 132.981C277.32 133.73 278.163 134.737 279.41 135.699C281.843 137.577 286.031 139.454 292.93 138.581L293.229 138.536C296.313 137.99 299.112 135.092 301.526 130.085C303.946 125.067 305.596 118.7 306.689 112.969L306.817 112.247C307.99 105.021 306.227 97.6121 301.97 91.6327L301.536 91.0391L290.946 76.9556C290.119 75.8561 290.34 74.294 291.439 73.4671Z" fill="black"/>
<path d="M325.525 85.6114C330.194 84.5095 335.781 84.4995 341.012 84.9157C346.28 85.3348 351.373 86.203 355.133 86.9611C357.017 87.3409 358.577 87.6955 359.669 87.9556C360.215 88.0857 360.644 88.1922 360.939 88.267C361.087 88.3043 361.202 88.3342 361.28 88.3545C361.319 88.3647 361.35 88.3724 361.371 88.3779C361.381 88.3806 361.389 88.3822 361.395 88.3837C361.398 88.3845 361.4 88.3852 361.402 88.3857L361.404 88.3867C361.404 88.3869 361.405 88.387 360.764 90.7941L361.406 88.3867C362.735 88.7408 363.526 90.106 363.172 91.4353C362.818 92.7648 361.452 93.5555 360.123 93.2015C360.122 93.2013 360.121 93.201 360.119 93.2005C360.116 93.1996 360.11 93.1977 360.102 93.1957C360.085 93.1914 360.06 93.185 360.026 93.1762C359.957 93.1584 359.854 93.131 359.717 93.0964C359.443 93.027 359.035 92.9259 358.514 92.8016C357.47 92.5528 355.967 92.2117 354.148 91.845C350.502 91.1099 345.619 90.2803 340.617 89.8823C335.576 89.4812 330.593 89.5343 326.669 90.4603C322.697 91.3976 320.443 93.0553 319.665 95.3627C318.739 98.1097 319.127 101.18 320.513 104.458C321.9 107.74 324.202 111.012 326.743 113.965C329.271 116.903 331.956 119.434 334.019 121.235C335.048 122.133 335.915 122.844 336.521 123.327C336.824 123.569 337.061 123.754 337.22 123.876C337.3 123.937 337.36 123.982 337.399 124.011C337.418 124.026 337.432 124.037 337.44 124.043L337.449 124.05L341.652 127.174L336.577 128.464L336.576 128.463C336.571 128.465 336.562 128.469 336.549 128.472C336.518 128.481 336.465 128.495 336.392 128.516C336.247 128.558 336.023 128.626 335.732 128.722C335.149 128.915 334.299 129.222 333.275 129.667C331.219 130.559 328.496 131.99 325.814 134.137C320.511 138.384 315.319 145.449 315.769 157.049C315.822 158.423 314.751 159.581 313.376 159.634C312.001 159.687 310.844 158.616 310.79 157.241C310.268 143.762 316.418 135.278 322.7 130.248C325.689 127.854 328.698 126.248 331.013 125.221C330.924 125.144 330.834 125.067 330.743 124.987C328.566 123.086 325.696 120.387 322.967 117.215C320.25 114.059 317.59 110.34 315.923 106.399C314.256 102.453 313.496 98.0668 314.944 93.7717C316.539 89.0371 320.903 86.702 325.525 85.6114Z" fill="black"/>
<path d="M324.185 76.4391L324.189 76.443C324.189 76.443 324.189 76.4428 324.19 76.442C323.099 75.6043 322.893 74.0426 323.73 72.9515C324.568 71.8599 326.131 71.6539 327.223 72.4912L325.862 74.2652C327.196 72.5263 327.223 72.4922 327.225 72.4922L327.227 72.4942C327.228 72.4952 327.23 72.4959 327.231 72.4971C327.235 72.4995 327.237 72.5029 327.241 72.5058C327.249 72.5117 327.258 72.5184 327.267 72.5263C327.287 72.542 327.312 72.5617 327.341 72.5856C327.4 72.6336 327.477 72.6981 327.57 72.7793C327.756 72.9418 328.006 73.1723 328.302 73.4721C328.893 74.0713 329.67 74.9517 330.481 76.1306C332.106 78.4948 333.857 82.0482 334.515 86.8929C334.7 88.256 333.745 89.5111 332.382 89.6964C331.019 89.8816 329.763 88.9266 329.578 87.5634C329.038 83.5921 327.62 80.7644 326.374 78.9525C325.749 78.0436 325.166 77.3872 324.756 76.9713C324.551 76.7636 324.39 76.6162 324.29 76.5286C324.24 76.4849 324.205 76.4561 324.188 76.442L324.185 76.4391Z" fill="black"/>
<path d="M357.309 429.354V400.727C357.309 399.351 358.425 398.236 359.8 398.236C361.176 398.236 362.292 399.351 362.292 400.727V429.354C362.292 430.73 361.176 431.845 359.8 431.845C358.425 431.845 357.309 430.73 357.309 429.354Z" fill="black"/>
<path d="M1013.07 368.809C1014.44 368.94 1015.44 370.157 1015.31 371.526L1012.94 396.273C1012.81 397.642 1011.6 398.646 1010.23 398.515C1008.86 398.384 1007.85 397.167 1007.98 395.798L1010.35 371.051C1010.48 369.682 1011.7 368.678 1013.07 368.809Z" fill="black"/>
<path d="M508.54 130.435L521.516 161.611C523.182 165.61 526.938 168.338 531.251 168.689L564.913 171.4C575.152 172.228 579.303 184.998 571.505 191.689L545.867 213.67C542.58 216.489 541.148 220.911 542.148 225.116L549.973 257.967C552.35 267.963 541.481 275.852 532.719 270.502L503.893 252.906C500.201 250.655 495.554 250.655 491.853 252.906L463.028 270.502C454.257 275.852 443.387 267.954 445.774 257.967L453.599 225.116C454.599 220.902 453.167 216.489 449.88 213.67L424.242 191.689C416.443 185.007 420.595 172.228 430.834 171.4L464.496 168.689C468.809 168.338 472.573 165.61 474.23 161.611L487.206 130.435C491.151 120.953 504.587 120.953 508.54 130.435Z" fill="white"/>
<path d="M485.14 128.947C490.21 117.951 506.109 118.133 510.839 129.476L510.84 129.478L523.816 160.653L523.943 160.945C525.308 163.923 528.175 165.939 531.453 166.206H531.452L565.113 168.917H565.114C577.559 169.925 582.605 185.446 573.126 193.579V193.58L547.488 215.561C544.911 217.771 543.787 221.24 544.571 224.539L552.397 257.39V257.391C555.286 269.542 542.073 279.132 531.421 272.629L502.596 255.033C499.701 253.268 496.055 253.267 493.148 255.035L464.325 272.629H464.324C453.666 279.129 440.448 269.535 443.35 257.388L451.175 224.541C451.96 221.232 450.836 217.772 448.259 215.561L422.621 193.58C413.139 185.455 418.189 169.924 430.633 168.917H430.634L464.293 166.206L464.609 166.175C467.864 165.796 470.672 163.69 471.929 160.658L471.93 160.654L484.906 129.478L485.14 128.947ZM506.24 131.391C503.185 124.068 492.926 123.96 489.657 131.049L489.506 131.392L476.531 162.564L476.532 162.565C474.515 167.431 469.937 170.745 464.697 171.172L464.695 171.173L431.034 173.882C423.001 174.533 419.749 184.558 425.863 189.797V189.798L451.501 211.779V211.78C455.497 215.207 457.237 220.571 456.023 225.691L456.022 225.693L448.196 258.544V258.546C446.326 266.374 454.847 272.573 461.73 268.376L490.555 250.78L490.559 250.778C494.914 248.129 500.349 248.045 504.766 250.531L505.19 250.779L505.191 250.78L534.017 268.376C540.888 272.571 549.414 266.385 547.55 258.544L539.724 225.693V225.692C538.509 220.581 540.249 215.207 544.245 211.78V211.779L569.883 189.798L570.162 189.549C575.897 184.239 572.619 174.523 564.712 173.883V173.882L531.051 171.173L531.049 171.172C525.806 170.745 521.242 167.429 519.217 162.57L519.216 162.569L506.24 131.392V131.391Z" fill="black"/>
<path d="M918.296 130.435L929.616 157.622C931.282 161.62 935.037 164.349 939.35 164.7L968.698 167.059C978.937 167.888 983.088 180.657 975.29 187.348L952.939 206.511C949.652 209.33 948.22 213.751 949.22 217.957L956.046 246.603C958.423 256.598 947.554 264.487 938.792 259.138L913.658 243.802C909.966 241.551 905.32 241.551 901.618 243.802L876.485 259.138C867.714 264.487 856.844 256.589 859.231 246.603L866.057 217.957C867.056 213.742 865.624 209.33 862.338 206.511L839.986 187.348C832.188 180.666 836.339 167.888 846.578 167.059L875.926 164.7C880.24 164.349 884.004 161.62 885.661 157.622L896.98 130.435C900.925 120.953 914.361 120.953 918.314 130.435H918.296Z" fill="white"/>
<path d="M894.913 128.947C899.984 117.951 915.884 118.133 920.614 129.476L922.052 132.927H922.032L931.915 156.664L932.042 156.955C933.406 159.932 936.272 161.948 939.549 162.217L968.898 164.576C981.149 165.568 986.231 180.624 977.345 188.852L976.911 189.239L954.561 208.402C951.983 210.612 950.86 214.081 951.643 217.38L958.47 246.025V246.027C961.359 258.177 948.146 267.767 937.494 261.264L912.361 245.928C909.466 244.164 905.82 244.162 902.913 245.93L877.782 261.264C867.124 267.764 853.905 258.17 856.807 246.024L863.632 217.382C864.393 214.176 863.362 210.829 860.954 208.613L860.716 208.402L838.365 189.239C828.883 181.114 833.934 165.583 846.378 164.576L875.727 162.217C879.113 161.94 882.063 159.798 883.36 156.668L883.361 156.664L894.681 129.478L894.913 128.947ZM915.792 130.903C912.439 123.957 902.303 124.125 899.281 131.392L887.962 158.574L887.963 158.575C885.946 163.441 881.368 166.756 876.129 167.183H876.126L846.779 169.541L846.78 169.542C838.871 170.182 835.595 179.907 841.327 185.208L841.608 185.457L863.959 204.62C867.956 208.047 869.695 213.412 868.48 218.532L868.479 218.534L861.654 247.18L861.653 247.182C859.783 255.009 868.303 261.208 875.187 257.011L900.321 241.676L900.324 241.674C904.819 238.94 910.465 238.937 914.955 241.675L914.956 241.676L940.09 257.011C946.961 261.206 955.487 255.02 953.623 247.18L946.796 218.534C945.581 213.422 947.321 208.047 951.317 204.62L973.668 185.457C979.785 180.208 976.529 170.192 968.497 169.542L939.151 167.183H939.148C933.905 166.756 929.341 163.439 927.316 158.58L915.792 130.903Z" fill="black"/>
<path d="M726.683 9.60309L744.9 53.3684C746.566 57.3667 750.321 60.0954 754.635 60.4466L801.885 64.2467C812.124 65.0752 816.276 77.8447 808.477 84.5355L772.483 115.387C769.196 118.206 767.764 122.628 768.764 126.833L779.75 172.949C782.128 182.945 771.258 190.833 762.496 185.484L722.036 160.792C718.344 158.54 713.697 158.54 709.996 160.792L669.535 185.484C660.764 190.833 649.895 182.936 652.281 172.949L663.268 126.833C664.267 122.619 662.836 118.206 659.549 115.387L623.555 84.5355C615.756 77.8537 619.908 65.0752 630.147 64.2467L677.397 60.4466C681.71 60.0954 685.475 57.3667 687.132 53.3684L705.349 9.60309C709.293 0.120585 722.729 0.120585 726.683 9.60309Z" fill="white"/>
<path d="M703.283 8.1145C708.273 -2.70677 723.751 -2.70224 728.748 8.11255L728.982 8.64386V8.6458L747.2 52.4104H747.199C748.506 55.5469 751.451 57.6863 754.834 57.9628L802.085 61.7637H802.086C814.531 62.7707 819.578 78.2929 810.099 86.4256L810.099 86.4266L774.104 117.277C771.527 119.488 770.404 122.957 771.188 126.256L782.174 172.372V172.373C785.063 184.523 771.85 194.113 761.198 187.61V187.609L720.738 162.918V162.917C717.844 161.153 714.199 161.151 711.293 162.917L670.833 187.61L670.832 187.611C660.174 194.111 646.956 184.516 649.858 172.37L660.843 126.258C661.604 123.053 660.573 119.705 658.165 117.49L657.927 117.278L621.934 86.4266C612.452 78.3019 617.502 62.7706 629.946 61.7637H629.947L677.197 57.9628C680.584 57.6862 683.533 55.5442 684.83 52.4143L684.832 52.4104L703.049 8.6458L703.283 8.1145ZM724.383 10.5608C721.329 3.23631 711.069 3.12718 707.8 10.2164L707.649 10.5599L689.432 54.3254L689.431 54.3245C687.414 59.1888 682.838 62.503 677.599 62.9295H677.597L630.347 66.7284L630.348 66.7294C622.314 67.3794 619.061 77.4041 625.176 82.6432V82.6442L661.169 113.496H661.17C665.167 116.923 666.906 122.288 665.691 127.408V127.41L654.704 173.526V173.528C652.834 181.355 661.354 187.555 668.238 183.357L708.698 158.665L708.702 158.664C713.197 155.929 718.843 155.927 723.332 158.665H723.333L763.794 183.358C770.666 187.553 779.191 181.367 777.327 173.526L766.341 127.41V127.409C765.126 122.298 766.865 116.923 770.862 113.496L806.856 82.6442C812.973 77.3949 809.716 67.3793 801.684 66.7294V66.7284L754.435 62.9295H754.433C749.19 62.5026 744.625 59.1855 742.6 54.3264V54.3254L724.383 10.5608Z" fill="black"/>
<path d="M91.4685 585.226C92.379 584.194 93.9529 584.096 94.9843 585.007L411.843 864.754C412.874 865.664 412.972 867.239 412.062 868.27C411.151 869.302 409.576 869.399 408.545 868.488L91.6875 588.741C90.6561 587.831 90.5581 586.257 91.4685 585.226Z" fill="black"/>
<path d="M1309.07 585.007C1310.1 584.096 1311.67 584.194 1312.58 585.226C1313.49 586.257 1313.4 587.831 1312.37 588.741L995.507 868.488C994.476 869.399 992.902 869.302 991.991 868.27C991.081 867.239 991.179 865.664 992.21 864.754L1309.07 585.007Z" fill="black"/>
</svg>
