<svg width="1400" height="1200" viewBox="0 0 1400 1200" fill="none" xmlns="http://www.w3.org/2000/svg">
<path fill-rule="evenodd" clip-rule="evenodd" d="M386.501 204.503V209.76C386.501 211.233 387.083 212.646 388.119 213.687C389.156 214.729 390.561 215.314 392.027 215.314C393.492 215.314 394.898 214.729 395.934 213.687C396.971 212.646 397.553 211.233 397.553 209.76V204.207C397.477 202.747 396.846 201.371 395.79 200.365C394.735 199.359 393.334 198.799 391.879 198.801C391.151 198.811 390.431 198.967 389.763 199.26C389.096 199.554 388.493 199.979 387.992 200.511C387.49 201.042 387.1 201.669 386.844 202.355C386.588 203.041 386.471 203.771 386.501 204.503ZM384.364 189.027C392.469 187.102 399.1 181.622 387.311 182.363C384.391 182.772 381.508 183.416 378.69 184.288C367.638 188.879 377.217 190.73 384.364 189.027ZM1060.39 240.564C1057 247.724 1051.32 253.536 1044.26 257.077C1043.98 257.175 1043.75 257.366 1043.6 257.616C1043.45 257.867 1043.39 258.162 1043.44 258.451C1043.48 258.74 1043.62 259.005 1043.84 259.2C1044.06 259.395 1044.33 259.508 1044.62 259.52C1047.01 259.942 1049.46 259.767 1051.76 259.011C1054.06 258.254 1056.14 256.939 1057.82 255.182C1059.49 253.425 1060.71 251.28 1061.37 248.937C1062.02 246.594 1062.09 244.126 1061.57 241.749C1061.57 241.435 1061.45 241.133 1061.23 240.911C1061.01 240.689 1060.71 240.564 1060.39 240.564ZM1031.07 181.844C1029.65 181.48 1028.15 181.687 1026.88 182.42C1025.62 183.153 1024.69 184.355 1024.29 185.769C1023.62 188.179 1023.5 190.709 1023.92 193.174C1023.92 194.647 1024.5 196.059 1025.54 197.101C1026.57 198.142 1027.98 198.727 1029.45 198.727C1030.91 198.727 1032.32 198.142 1033.35 197.101C1034.39 196.059 1034.97 194.647 1034.97 193.174C1034.97 187.842 1036.15 183.251 1031.07 181.844ZM777.676 909.363C771.708 906.327 657.575 913.805 654.702 926.69C654.112 929.504 655.954 940.315 659.196 942.092C665.606 945.498 775.392 939.278 781.434 927.282C783.152 924.364 783.719 920.905 783.023 917.588C782.327 914.271 780.42 911.336 777.676 909.363ZM660.596 938.982C658.324 935.394 657.099 931.238 657.059 926.986C658.533 920.322 719.32 916.693 726.025 916.249C725.865 922.232 727.398 928.138 730.446 933.28C722.047 934.613 664.575 941.129 660.596 939.204V938.982ZM776.055 924.172C770.234 928.319 740.688 932.095 733.615 932.984C734.234 927.122 732.996 921.214 730.078 916.101C738.846 915.508 766.919 913.954 775.245 914.694C777.455 916.323 777.529 921.358 776.055 924.32V924.172ZM584.041 926.912C583.842 926.787 583.612 926.721 583.378 926.721C583.143 926.721 582.914 926.787 582.715 926.912C582.715 926.171 441.983 1005.85 437.709 1014.29C437.519 1014.69 437.42 1015.14 437.42 1015.58C437.42 1016.03 437.519 1016.47 437.709 1016.88C442.204 1029.84 589.051 1163.27 595.167 1166.31C596.935 1167.2 599.146 1165.64 606.072 1161.94C620.808 1154.02 746.583 1086.48 759.55 1075.6C763.161 1071.9 765.371 1038.58 763.382 1034.8C761.393 1031.02 584.041 927.652 584.041 926.912ZM596.788 1160.16C581.094 1147.65 456.793 1035.1 443.014 1015.99C455.835 1003.85 579.841 931.651 583.599 929.429C602.609 941.055 739.435 1024.73 756.972 1036.58C747.703 1039.27 738.887 1043.34 730.815 1048.65C726.615 1052.72 737.078 1060.27 751.593 1074.41C729.415 1088.78 619.408 1148.02 596.788 1160.16ZM755.793 1070.19C755.056 1069.45 737.299 1052.05 736.488 1051.39C743.646 1046.9 751.024 1042.77 758.593 1039.02C758.616 1049.48 757.629 1059.92 755.645 1070.19H755.793Z" fill="black"/>
<path fill-rule="evenodd" clip-rule="evenodd" d="M694.564 1056.57C689.406 1058.79 626.482 1079.75 608.725 1087C603.506 1089.62 597.819 1091.15 591.999 1091.52C590.968 1091.52 596.936 1079.97 642.103 1044.57C646.818 1040.87 655.881 1033.84 656.839 1028.06C661.186 1008.96 609.683 1037.54 563.632 1055.61C558.869 1058.18 553.672 1059.83 548.306 1060.49C547.79 1057.46 558.179 1047.91 558.842 1047.16C586.326 1016.66 621.177 1004.07 618.819 992.814C615.209 975.191 551.253 1009.47 537.769 1015.03C526.423 1019.84 508.297 1025.62 509.402 1025.62C506.971 1026.58 509.402 1028.28 509.844 1028.06C510.286 1027.84 533.643 1020.66 539.317 1018.14C547.79 1014.88 604.451 987.408 613.883 993.851C617.64 996.516 577.558 1018.21 554.937 1043.31C550.959 1047.61 540.201 1056.35 543.517 1063.46C544.125 1064.55 545.046 1065.44 546.163 1066.01C547.279 1066.58 548.539 1066.8 549.78 1066.64C560.758 1066.64 635.619 1028.95 651.018 1027.76C647.484 1032.45 643.26 1036.57 638.492 1039.98C627.514 1048.72 595.683 1074.78 588.315 1086.78C584.484 1093 587.652 1096.7 592.662 1096.78C599.294 1096.78 607.399 1092.26 627.366 1084.71C695.08 1058.49 697.217 1059.68 696.111 1057.24C696.055 1057.09 695.969 1056.95 695.86 1056.84C695.751 1056.73 695.621 1056.64 695.477 1056.58C695.333 1056.51 695.178 1056.48 695.021 1056.48C694.864 1056.48 694.709 1056.51 694.564 1056.57Z" fill="black"/>
<path fill-rule="evenodd" clip-rule="evenodd" d="M1399.92 774.225C1398.96 696.771 1392.03 538.679 1376.78 462.04C1368.75 421.388 1351.36 365.778 1319.02 338.898C1305.31 327.569 1285.12 316.684 1248.5 296.321C1248.94 295.358 1190.66 271.663 1187.94 279.512C1185.67 266.007 1182.5 252.672 1178.43 239.601C1183.88 237.823 1181.45 221.829 1183.74 212.795C1186.02 203.762 1194.64 197.319 1199.06 189.915C1209.01 173.402 1210.7 144.597 1208.86 125.419C1207.09 107.574 1181.16 67.736 1164.06 61.2198C1146.97 54.7036 1129.43 54.9257 1111.38 51.2974C1096.64 48.2614 1085.74 40.0421 1069.24 37.9688C1052.73 35.8955 1042.86 45.3736 1028.71 45.3736C1014.56 45.3736 998.648 34.3405 983.838 33.4519C975.792 33.3264 967.974 36.1396 961.835 41.3689C955.697 46.5983 951.655 53.8886 950.46 61.8862C948.673 73.8067 950.079 85.9906 954.534 97.1835C958.989 108.376 966.332 118.174 975.807 125.567C987.343 132.901 1000.31 137.673 1013.83 139.562C1012.94 177.401 1016.92 167.256 1012.5 170.588C1008.08 173.92 1009.48 197.245 1011.03 203.687C1011.69 206.279 1012.35 207.242 1015.52 208.278C1013.75 215.683 1001.3 231.677 1012.5 235.602C1013.97 236.12 1019.87 237.157 1020.46 237.379C1021.97 244.401 1024.19 251.249 1027.09 257.816C1029.95 264.418 1034.12 270.361 1039.36 275.277C1044.59 280.194 1050.77 283.979 1057.52 286.399C1068.13 290.545 1076.53 291.656 1082.72 293.803C1083.57 296.866 1084.02 300.028 1084.05 303.207C1057.73 310.158 1032.94 321.986 1010.95 338.084C971.091 370.591 914.43 505.432 899.62 520.241C893.873 525.943 758.52 552.304 738.552 565.929C734.647 568.594 734.5 570.89 735.015 575.629C730.152 576.517 709.669 580.368 707.385 584.737C706.71 587.91 706.888 591.207 707.901 594.289C689.669 590.867 671.273 588.396 652.787 586.884C649.404 586.963 646.075 587.756 643.016 589.21C639.957 590.664 637.236 592.748 635.03 595.326C628.84 602.73 633.851 601.471 627.293 600.435C613.367 598.436 563.485 615.244 557.222 618.206C557.222 615.54 557.222 613.689 554.422 612.208C546.198 609.813 537.606 608.96 529.075 609.691C523.918 613.171 543.812 611.986 552.064 616.281C552.064 621.983 552.801 680.48 552.064 691.958C552.064 694.031 552.064 693.735 550.517 693.957C543.149 694.994 532.538 693.957 529.296 696.326C530.475 670.558 529.296 607.469 525.76 603.767C523.623 601.545 484.277 596.806 441.468 591.623C441.62 560.496 439.897 529.389 436.31 498.471C428.426 429.755 411.922 348.747 360.345 307.65C363.333 308.877 366.623 309.161 369.776 308.465C373.987 306.785 378.519 306.077 383.039 306.392C390.407 308.391 391.365 313.796 409.785 301.356C410.964 300.542 414.058 300.764 416.49 298.32C424.816 289.953 420.616 278.624 420.616 270.182C421.836 264.443 422.233 258.559 421.795 252.707C421.569 251.835 421.146 251.027 420.558 250.346C419.97 249.665 419.233 249.13 418.406 248.782C418.406 246.339 420.985 241.97 417.3 237.231C422.606 234.417 428.353 231.159 425.405 225.383C419.775 216.334 415.131 206.702 411.553 196.653C409.269 188.063 412.364 177.104 412.216 167.848C412.216 161.48 412.88 153.853 412.216 146.893C417.899 142.905 422.242 137.275 424.669 130.751C425.206 128.113 425.091 125.383 424.333 122.801C423.575 120.219 422.197 117.863 420.321 115.941C417.89 114.386 417.374 115.941 417.448 111.35C417.714 109.739 417.642 108.09 417.236 106.508C416.83 104.927 416.099 103.448 415.09 102.168C411.995 99.1322 404.922 95.8 402.711 92.69C398.954 87.1364 396.743 81.5829 389.67 79.3614C384.659 77.7324 379.944 80.9164 376.555 79.8057C371.913 78.3248 367.123 73.2895 361.818 78.621C360.634 79.2664 359.334 79.6705 357.994 79.8103C356.654 79.9501 355.299 79.8227 354.008 79.4355C349.587 75.6591 348.482 69.1429 340.966 67.736C336.693 66.9955 328.293 69.0688 325.051 67.736C319.74 63.8071 313.88 60.6881 307.662 58.48C300.711 57.8147 293.696 58.4167 286.958 60.2572C282.242 61.2198 276.2 60.7014 271.264 61.4419C261.022 63.071 258.075 71.9567 251.296 76.2514C244.517 80.5462 233.096 80.6203 226.612 90.2464C221.16 98.3917 222.339 107.203 220.202 115.349C219.318 118.829 214.602 122.753 212.834 126.308C208.708 134.527 211.876 142.82 211.802 149.929C211.729 157.037 206.792 163.554 208.192 172.143C209.329 176.433 211.199 180.492 213.718 184.139C213.749 185.339 213.6 186.537 213.276 187.693C211.028 193.52 210.566 199.89 211.95 205.983C213.156 211.824 215.963 217.211 220.055 221.533C225.213 226.05 227.865 224.865 231.623 231.307C233.203 234.714 235.579 237.686 238.549 239.971C244.001 243.673 250.706 240.489 253.948 242.118C255.965 243.189 258.165 243.867 260.432 244.117C258.618 245.039 257.052 246.385 255.864 248.042C215.781 253.151 162.878 282.548 130.605 322.756C117.858 339.269 96.4171 363.112 88.3858 382.216C45.2084 480.255 66.2814 633.978 48.8925 681.443L5.86245 794.217C3.79937 799.623 -1.50571 826.502 0.410013 835.758C3.50464 849.531 17.8726 832.278 26.6407 822.504C21.1882 841.978 21.2619 847.088 18.3883 923.727C17.5041 947.718 16.6936 973.857 16.3252 995.849C16.3041 996.007 16.317 996.168 16.363 996.32C16.409 996.472 16.487 996.613 16.5918 996.732C16.6967 996.852 16.8258 996.947 16.9705 997.012C17.1152 997.077 17.272 997.109 17.4305 997.108C19.4935 997.108 18.1673 999.477 21.1882 938.314C23.325 895.292 25.7565 855.159 25.9775 851.901C27.0682 839.244 29.8438 826.792 34.2299 814.877C54.8068 799.427 77.9619 787.792 102.606 780.519C130.034 773.145 158.998 773.89 186.014 782.666C193.382 785.11 213.202 790.071 220.276 786.739C235.012 779.334 272.958 754.824 279.221 739.941C282.316 732.536 284.821 726.538 287.252 720.984C298.526 722.021 312.378 724.909 324.683 725.057C338.461 725.057 347.303 722.836 362.555 709.285C418.627 710.544 480.446 708.841 509.918 707.73C529.591 715.135 590.01 736.831 604.673 751.418C610.42 757.046 613.809 772.744 615.872 790.219C618.589 811.107 619.305 832.208 618.009 853.234C577.632 861.008 526.202 873.3 486.414 883.223C484.186 882.599 481.857 882.423 479.561 882.704C469.025 883.815 473.962 888.11 470.499 877.373C470.664 877.412 470.837 877.409 471.002 877.365C471.166 877.321 471.317 877.236 471.441 877.119C471.566 877.001 471.659 876.855 471.713 876.693C471.767 876.53 471.78 876.357 471.751 876.188C471.643 861.956 469.987 847.778 466.814 833.907C466.299 831.834 462.688 830.797 460.478 830.131C436.605 823.17 344.429 813.84 324.167 819.098C310.978 822.578 219.686 869.968 215.56 880.039C211.434 890.109 200.234 950.68 198.171 961.861C150.426 975.856 112.774 987.408 94.354 993.702C94.2014 993.751 94.0604 993.832 93.9397 993.938C93.819 994.044 93.7212 994.174 93.6523 994.32C93.5833 994.465 93.5446 994.624 93.5386 994.785C93.5325 994.946 93.5593 995.106 93.6172 995.257C94.5014 997.997 118.669 985.409 366.239 920.024C368.727 926.408 371.915 932.493 375.744 938.166C368.376 939.943 360.05 943.201 357.618 950.014C357.186 951.452 357.115 952.976 357.41 954.448C357.706 955.921 358.36 957.298 359.313 958.455C365.358 965.258 373.416 969.93 382.302 971.784C397.882 975.709 414.07 976.563 429.974 974.301C445.245 972.963 460.292 969.729 474.772 964.675C490.54 958.011 489.508 948.089 483.466 943.572C477.24 939.891 470.399 937.382 463.278 936.167C469.983 923.949 463.72 929.354 473.741 926.911C479.411 925.551 484.591 922.628 488.698 918.469C495.182 911.805 499.529 895.367 493.34 887.443C524.433 880.039 649.471 848.939 680.049 851.234C735.531 855.307 1138.94 1021.99 1234.43 1054.12C1234.58 1054.17 1234.74 1054.19 1234.89 1054.18C1235.05 1054.17 1235.2 1054.12 1235.34 1054.05C1235.48 1053.98 1235.61 1053.88 1235.71 1053.76C1235.81 1053.64 1235.89 1053.5 1235.94 1053.35C1235.99 1053.2 1236.01 1053.04 1235.99 1052.88C1235.98 1052.72 1235.94 1052.57 1235.87 1052.43C1235.79 1052.29 1235.7 1052.16 1235.58 1052.06C1235.46 1051.96 1235.32 1051.88 1235.17 1051.83C1210.19 1043.09 1154.48 1020.8 1087.8 993.998C1091.04 986.149 1099.59 960.825 1106.22 952.087C1108.95 948.533 1108.8 948.237 1133.12 949.644C1196.85 953.346 1253 951.643 1314.15 932.02C1351.51 919.95 1369.86 892.109 1380.47 854.863C1382.6 855.529 1388.42 857.454 1390.49 857.899C1391.08 858.042 1391.69 858.042 1392.28 857.901C1392.87 857.759 1393.42 857.479 1393.88 857.084C1401.17 849.605 1399.92 788.812 1399.92 774.225ZM392.101 265.073C390.107 265.803 387.954 265.982 385.868 265.591C383.781 265.201 381.837 264.254 380.239 262.852C378.648 261.572 377.403 259.912 376.618 258.023C375.832 256.134 375.532 254.077 375.744 252.041C375.646 251.736 375.673 251.405 375.818 251.121C375.963 250.836 376.215 250.621 376.518 250.523C376.821 250.424 377.15 250.451 377.433 250.597C377.716 250.743 377.93 250.996 378.028 251.3C381.666 256.559 386.804 260.586 392.764 262.852C392.954 263.009 393.094 263.22 393.165 263.457C393.236 263.693 393.237 263.946 393.166 264.183C393.095 264.42 392.956 264.631 392.767 264.789C392.578 264.948 392.346 265.046 392.101 265.073ZM322.914 200.207C323.166 198.032 324.036 195.975 325.419 194.283C327.04 192.654 331.977 193.691 335.44 191.321C338.03 189.264 339.995 186.52 341.114 183.398C345.24 175.179 351.798 181.547 360.934 167.996C363.266 164.186 365.075 160.076 366.313 155.779C371.471 153.335 378.176 156.889 384.659 146.152C386.796 142.524 388.196 138.748 392.028 137.711C394.901 140.821 397.775 152.521 409.417 148.004C409.417 152.002 408.532 172.217 408.311 173.846C407.356 178.726 406.838 183.683 406.764 188.656C406.764 203.465 413.543 211.611 421.058 227.087C422.237 229.53 416.048 231.9 412.953 233.603C408.588 231.987 404.07 230.821 399.47 230.122C385.175 226.642 373.755 234.121 361.45 237.527C359.364 237.54 357.285 237.292 355.261 236.787C350.619 236.342 345.756 241.082 339.198 241.97C337.488 242.307 335.717 242.121 334.114 241.434C332.511 240.747 331.151 239.593 330.209 238.12C329.414 235.408 328.847 232.633 328.514 229.826C327.851 227.161 327.04 224.495 326.451 221.903C325.272 216.572 328.735 214.498 324.683 207.094C321.883 202.058 321.956 204.28 322.914 200.207ZM325.714 351.264C330.676 341.803 334.722 331.884 337.798 321.645C341.924 347.414 344.135 360.446 345.166 366.962C339.787 362.446 339.272 360.742 325.714 350.968V351.264ZM347.819 381.402C351.429 403.616 350.619 398.581 351.282 403.172C349.522 399.84 347.369 396.732 344.871 393.916C345.696 389.025 346.066 384.067 345.977 379.106L347.819 381.402ZM321.146 394.73C316.746 390.133 312.729 385.18 309.136 379.921C312.779 371.358 316.887 363.003 321.441 354.893C336.914 366.814 335.735 366.666 339.566 371.479C340.129 377.785 340.129 384.13 339.566 390.436L321.146 394.73ZM322.104 399.543C330.872 419.166 334.409 451.377 336.251 472.851C327.053 445.803 314.686 419.952 299.41 395.841C302.397 391.739 305.058 387.406 307.368 382.883C310.402 388.563 314.033 393.9 318.199 398.803C318.731 399.139 319.33 399.354 319.955 399.43C320.579 399.507 321.212 399.445 321.809 399.247L322.104 399.543ZM278.337 241.082C278.937 241.269 279.554 241.393 280.179 241.452C281.895 241.374 283.539 240.741 284.867 239.647C286.195 238.552 287.135 237.055 287.547 235.38C288.726 234.639 289.61 233.825 289.537 232.418C289.463 231.011 273.621 209.241 293.81 198.06C295.59 197.866 297.38 198.33 298.845 199.366C300.309 200.401 301.348 201.938 301.768 203.687C302.721 207.637 304.734 211.249 307.589 214.128C307.812 218.861 308.428 223.567 309.431 228.197C310.02 230.937 307.957 234.491 307.515 238.268C306.483 245.672 313.63 253.818 316.209 260.482C319.672 269.442 317.315 279.068 325.567 286.991C333.819 294.914 332.272 288.398 335.145 306.169C331.708 320.136 326.971 333.746 320.999 346.822C312.673 334.974 270.527 265.813 262.053 250.041C265.222 248.116 275.095 242.488 278.042 240.785L278.337 241.082ZM256.232 250.93C261.611 263.518 315.178 348.821 315.178 349.561C312.599 357.781 297.789 391.842 290.789 395.545C275.39 384.512 233.17 268.479 230.149 257.964C238.462 254.386 247.207 251.921 256.159 250.634L256.232 250.93ZM332.272 577.85C324.167 575.259 298.01 486.031 274.653 436.641C260.653 407.022 233.17 358.077 203.182 345.044C170.762 331.049 110.49 364.593 104.08 408.133C100.166 436.848 102.478 466.074 110.859 493.806C145.636 599.472 192.719 683.738 293.294 707.878C295.652 703.139 287.326 707.063 353.492 708.841C350.249 711.375 346.798 713.63 343.177 715.579C330.798 722.317 307.294 716.912 289.905 714.986L292.115 710.173C188.519 686.922 140.037 599.102 105.333 495.435C96.568 466.867 94.0545 436.732 97.9644 407.096C104.596 360.002 167.004 326.236 201.561 337.936C210.372 341.235 218.438 346.27 225.286 352.745C222 323.074 221.187 293.178 222.855 263.37C224.209 262.161 225.663 261.071 227.202 260.112C233.539 282.326 269.643 388.51 287.989 400.284C289.153 400.975 290.515 401.249 291.854 401.061C293.192 400.872 294.428 400.233 295.357 399.247C311.936 427.904 327.409 457.227 333.598 488.104C337.1 505.146 337.994 522.625 336.251 539.938C325.788 496.398 296.831 433.457 263.895 403.32C297.568 461.743 322.104 555.192 333.082 573.63C337.474 574.846 341.96 575.688 346.492 576.147C344.577 531.719 343.103 439.085 324.388 398.877C326.672 398.877 342.808 395.397 342.808 395.397C345.718 398.908 348.193 402.762 350.177 406.874C353.197 412.724 352.166 408.281 356.734 439.381C378.839 582.96 377.586 582.219 380.46 583.774C366.018 581.923 340.598 580.368 332.272 577.85ZM381.196 548.231C352.461 384.29 352.166 379.699 340.082 311.279C341.04 308.021 341.777 305.355 342.293 303.43C346.861 309.279 371.765 341.342 374.491 348.377C370.439 352.005 355.85 358.225 360.271 363.186C362.26 365.482 378.691 379.773 383.849 384.956C386.649 396.878 382.228 527.498 381.196 548.231ZM201.119 960.899C203.182 951.495 216.665 890.331 220.423 881.742C223.149 875.374 312.009 827.983 326.009 824.429C346.198 819.097 456.131 830.057 463.794 835.018C467.253 847.934 469.279 861.195 469.835 874.559C457.457 859.75 361.671 863.674 360.639 884.556C360.619 885.241 360.762 885.921 361.057 886.54C361.352 887.158 361.79 887.696 362.334 888.11C362.286 897.06 363.3 905.984 365.355 914.693C308.767 930.021 252.18 946.015 201.119 960.899ZM482.067 949.347C485.824 961.565 441.689 966.823 428.942 968.303C413.806 970.47 398.397 969.691 383.554 966.008C377.07 964.231 365.06 959.492 362.776 953.568C361.671 950.754 365.281 948.089 367.934 946.682C371.294 944.918 374.858 943.575 378.544 942.683C382.558 948.242 387.941 952.656 394.164 955.493C401.533 958.751 432.995 956.456 443.9 954.086C448.689 953.05 453.773 951.643 460.994 940.017C465.415 940.684 480.814 945.275 482.067 949.347ZM446.847 946.756C441.321 950.088 402.269 952.753 396.301 950.31C376.555 942.387 365.797 911.435 364.987 889.591C381.039 893.14 397.514 894.361 413.911 893.219C426.216 891.59 455.32 886.555 466.004 881.149C472.414 905.437 458.857 939.721 446.847 946.756ZM488.035 908.547C486.04 912.512 483.238 916.011 479.811 918.818C476.384 921.624 472.408 923.675 468.141 924.838C471.996 914.45 473.822 903.413 473.519 892.331C474.101 891.106 474.945 890.027 475.992 889.17C477.038 888.312 478.261 887.699 479.571 887.373C480.882 887.048 482.247 887.018 483.571 887.286C484.894 887.554 486.142 888.114 487.224 888.924C492.75 892.553 490.319 902.253 488.035 908.547ZM1246.96 298.468C1296.76 326.088 1318.87 337.64 1334.78 361.853C1324.77 353.202 1312.03 348.4 1298.83 348.302C1251.6 346.673 1228.39 416.945 1216.3 462.41C1196.26 538.235 1208.57 634.201 1207.46 648.27C1194.71 660.191 1129.43 694.253 1100.26 710.173C1104.31 692.994 1118.75 626.722 1128.18 600.583C1140.85 565.484 1177.33 483.736 1179.76 465.964C1180.42 460.707 1179.39 460.04 1163.92 449.97C1169.88 449.97 1186.02 448.341 1191.03 447.378C1193.17 447.378 1194.27 446.416 1195.08 441.899C1197.81 426.201 1203.11 296.839 1203.56 283.067C1203.04 282.77 1240.62 294.84 1247.18 298.468H1246.96ZM1190.15 280.771C1193.5 280.528 1196.87 280.904 1200.09 281.882C1196.41 335.566 1192.73 429.977 1189.26 442.047C1185.36 442.787 1171.51 443.75 1166.13 444.12C1154.63 444.787 1154.34 444.12 1153.16 445.749C1151.98 447.378 1153.6 449.6 1155.74 451.081C1159.5 453.746 1172.02 461.669 1173.79 463.743C1172.09 472.559 1169.47 481.171 1165.98 489.437C1124.35 600.509 1126.85 566.373 1098.86 688.181C1100.73 629.832 1106.09 571.649 1114.92 513.947C1120.81 482.181 1127.96 452.339 1151.76 384.364C1161.12 358.077 1180.49 307.724 1181.23 308.021C1184.93 299.171 1187.98 290.064 1190.37 280.771H1190.15ZM1062.16 735.201C1063.56 740.681 1063.56 739.941 1063.12 740.015L1060.84 739.57C1060.84 738.83 1056.86 664.486 1058.77 633.756C1062.24 579.331 1066.66 520.315 1070.78 463.447C1072.77 435.901 1080.29 376.737 1080.07 378.958L1087.43 373.479C1090.49 379.609 1093.96 385.522 1097.82 391.176C1099.3 393.175 1101.29 395.693 1103.64 395.915C1102.02 409.318 1077.49 574.666 1070.27 680.332C1066.29 737.867 1070.27 725.649 1064.45 730.907C1063.76 731.375 1063.2 732.02 1062.84 732.774C1062.48 733.529 1062.32 734.366 1062.38 735.201H1062.16ZM1105.93 395.989C1111.53 395.989 1117.57 384.142 1124.94 379.106C1127.81 382.142 1136.51 396.656 1142.25 398.581C1117.87 465.816 1091.78 559.56 1091.86 714.32C1085.59 717.726 1077.12 722.613 1070.86 726.242C1074.54 663.227 1101.21 456.412 1106.15 395.989H1105.93ZM1183.29 296.469C1180.94 303.874 1145.94 388.807 1143.51 392.731C1139.71 388.987 1136.32 384.841 1133.41 380.365C1127.22 371.998 1125.09 369.258 1114.55 381.18C1130.17 351.561 1160.67 321.497 1173.49 306.54C1185.73 292.471 1184.1 293.655 1183.29 296.469ZM1018.25 140.969C1023.74 142.671 1029.62 142.671 1035.12 140.969C1039.33 139.091 1043.97 138.424 1048.53 139.044C1054.97 142.027 1061.59 144.599 1068.35 146.745C1076.71 146.671 1085.06 146.003 1093.33 144.746C1097.12 146.525 1100.33 149.348 1102.58 152.887C1104.84 156.426 1106.05 160.535 1106.08 164.738C1092.34 166.742 1079.09 171.233 1066.95 177.993C1066.21 175.562 1064.73 173.423 1062.72 171.871C1060.72 170.319 1058.28 169.431 1055.75 169.329C1043.67 167.868 1031.47 167.719 1019.35 168.885C1018.28 159.423 1017.91 149.894 1018.25 140.377V140.969ZM1015.37 204.132C1013.53 200.874 1009.92 175.623 1013.61 172.884C1014.2 173.624 1011.62 171.329 1025.62 171.477C1035.48 171.79 1045.32 172.68 1055.09 174.142C1061.72 175.327 1062.82 178.363 1062.46 184.805C1062.46 196.727 1062.82 195.542 1062.46 199.245C1062.46 200.281 1062.01 203.021 1061.2 203.613C1046.05 206.37 1030.52 206.345 1015.37 203.539V204.132ZM1083.09 287.583C1062.9 281.808 1044.4 281.067 1031.95 255.299C1023.92 238.712 1028.34 233.899 1021.05 231.752C1018.34 231.427 1015.68 230.832 1013.09 229.974C1013.09 225.013 1019.28 214.647 1020.46 209.389C1032.69 210.859 1045.06 210.859 1057.3 209.389C1064.67 208.278 1068.57 207.02 1067.39 191.988V180.511C1078.96 176.956 1103.5 171.106 1106.44 170.292C1106.46 174.32 1107.01 178.328 1108.07 182.214C1109.22 184.657 1111.2 186.602 1113.67 187.693C1114.06 187.869 1114.49 187.951 1114.92 187.933C1115.35 187.915 1115.77 187.798 1116.15 187.59C1116.52 187.383 1116.85 187.09 1117.1 186.735C1117.34 186.381 1117.51 185.974 1117.57 185.546C1119.26 178.659 1120.59 172.513 1121.11 169.551C1121.11 171.181 1121.77 164.368 1126.63 161.702C1134 157.852 1145.42 166.441 1146.23 178.585C1146.67 184.509 1140.78 195.246 1136.36 207.612C1133.71 215.017 1149.77 218.201 1155.37 220.941C1157.43 225.754 1156.18 231.159 1158.98 234.047C1163.18 236.65 1167.79 238.527 1172.61 239.601C1177.69 255.968 1181.39 272.738 1183.66 289.731C1164.95 309.502 1160.75 314.241 1155.74 319.35C1136.16 338.041 1119.56 359.644 1106.52 383.401C1101.29 352.523 1091.34 325.274 1090.23 316.314C1089.35 309.353 1090.82 297.062 1087.58 290.471C1087.09 289.687 1086.43 289.022 1085.66 288.522C1084.88 288.023 1084 287.703 1083.09 287.583ZM1085.22 312.686C1088.76 325.866 1098.19 368.666 1100.92 385.845C1096.42 379.032 1090.9 367.777 1090.9 367.777C1090.71 367.375 1090.43 367.022 1090.08 366.744C1089.73 366.466 1089.33 366.27 1088.9 366.17C1088.47 366.07 1088.02 366.07 1087.59 366.169C1087.15 366.267 1086.75 366.463 1086.4 366.74L1081.02 370.887C1083.09 351.635 1085.15 332.012 1085.45 312.686H1085.22ZM1083.09 306.095C1082.42 360.594 1071.59 409.17 1067.17 463.447C1052.44 645.9 1052.44 636.94 1053.91 701.51C1045.95 643.16 1034.83 529.645 1028.71 468.112C1033.06 464.779 1054.06 448.711 1056.41 443.824C1057.52 441.454 1056.41 439.011 1051.11 439.011C1041.89 439.71 1032.63 439.71 1023.41 439.011C1029.01 416.056 1061.06 332.308 1069.6 310.094C1073.95 308.835 1077.56 307.576 1083.09 306.095ZM740.542 571.482C751.962 559.412 895.273 531.274 903.083 523.647C914.062 512.54 944.271 443.602 975.07 391.324C1001.23 346.896 1015.45 330.457 1066.36 311.575C1054.13 342.008 1030.26 401.543 1019.5 436.197C1018.84 438.344 1017.88 440.714 1019.5 442.121C1023.55 446.119 1040.5 443.75 1050.23 443.898C1043.37 450.784 1024.51 464.779 1024.51 464.779C1024.15 465.049 1023.86 465.41 1023.68 465.826C1023.5 466.241 1023.43 466.698 1023.48 467.149C1026.57 501.507 1045.58 706.545 1053.84 736.312L1040.57 732.906C1032 728.676 1022.69 726.161 1013.16 725.501C1029.96 641.531 1023.92 618.058 1025.98 572.297C1025.98 567.558 1006.09 472.332 1005.94 471.592C1005.94 471.278 1005.82 470.976 1005.6 470.754C1005.38 470.532 1005.08 470.407 1004.76 470.407C1004.45 470.407 1004.15 470.532 1003.93 470.754C1003.71 470.976 1003.58 471.278 1003.58 471.592C1004.84 504.025 1013.97 534.903 1020.24 570.297C996.659 592.512 971.975 623.242 931.819 633.238C906.988 639.532 790.719 665.004 775.246 666.115C762.572 651.898 738.552 580.96 740.542 571.482ZM726.542 581.331C726.542 581.331 735.384 579.183 735.236 577.776C742.117 603.795 750.783 629.304 761.172 654.119C754.474 656.202 747.626 657.761 740.689 658.784C736.489 658.784 739.436 662.487 729.195 638.051C722.884 622.86 717.471 607.307 712.985 591.475C711.732 586.366 709.595 586.884 726.542 581.331ZM640.261 596.955C646.082 590.512 650.282 589.55 708.49 596.955C713.667 614.611 719.942 631.923 727.279 648.788C715.301 658.172 701.57 665.046 686.901 669.003C686.459 665.819 685.428 666.781 687.933 667.004C690.049 667.064 692.151 666.646 694.085 665.781C696.019 664.916 697.735 663.626 699.107 662.005C700.478 660.385 701.471 658.476 702.011 656.419C702.551 654.363 702.625 652.21 702.227 650.121C701.638 642.716 680.565 627.314 674.596 623.093C678.139 623.826 681.816 623.544 685.207 622.279C685.51 622.181 685.761 621.966 685.906 621.681C686.051 621.396 686.078 621.065 685.98 620.761C685.883 620.456 685.669 620.204 685.385 620.058C685.102 619.912 684.773 619.885 684.47 619.983C672.091 623.242 659.565 608.432 657.945 607.988C652.271 606.581 655.808 619.835 643.208 627.758C641.366 628.943 634.293 626.277 633.851 622.649C632.923 618.158 633.018 613.514 634.128 609.064C635.238 604.615 637.335 600.475 640.261 596.955ZM557.885 620.28C567.316 616.873 615.357 601.916 629.209 605.47C627.65 611.385 627.299 617.557 628.177 623.612C628.645 625.535 629.521 627.335 630.744 628.887C631.966 630.44 633.508 631.709 635.263 632.609C637.019 633.508 638.946 634.017 640.915 634.1C642.884 634.183 644.847 633.839 646.671 633.09C651.806 629.648 655.666 624.598 657.65 618.724C664.207 622.723 696.775 644.419 696.333 652.12C696.333 657.303 693.606 661.672 688.449 661.228C684.095 659.66 679.978 657.492 676.218 654.786C672.433 651.749 668.445 648.977 664.281 646.492C663.619 646.147 662.853 646.06 662.131 646.248C661.409 646.436 660.782 646.886 660.37 647.512C659.958 648.137 659.791 648.893 659.901 649.634C660.011 650.376 660.39 651.05 660.965 651.528C660.965 651.528 666.492 655.674 672.607 659.673C681.817 667.078 684.986 673.89 673.565 677.37C671.777 677.904 669.899 678.061 668.048 677.831C666.197 677.602 664.413 676.991 662.807 676.037C660.93 672.312 658.439 668.932 655.439 666.041C654.101 662.582 651.701 659.64 648.588 657.643C645.475 655.646 641.81 654.697 638.124 654.934C634.293 655.378 633.998 657.303 634.366 655.526C636.135 646.715 624.935 641.383 617.125 642.864C604.525 645.382 597.526 662.116 593.399 674.334C590.894 679.666 600.768 673.742 557.664 689.144C558.878 667.638 558.878 646.08 557.664 624.574C557.295 619.465 557.148 620.65 557.885 620.28ZM595.463 675.149C599.515 666.411 608.43 650.047 617.935 648.566C621.62 647.899 629.061 650.417 628.251 654.193C626.655 664.221 622.054 673.52 615.062 680.851C615.946 682.331 592.884 682.776 595.463 675.149ZM637.166 661.006C638.935 659.229 649.25 662.857 649.545 668.411C650.061 677.667 641.292 688.7 633.703 693.809C631.272 695.512 621.693 687.663 619.483 684.479C624.745 676.193 630.659 668.344 637.166 661.006ZM649.618 685.664C650.134 684.923 657.502 668.485 658.755 682.109C659.271 687.441 651.387 690.255 646.229 689.514C647.428 688.294 648.559 687.008 649.618 685.664ZM813.486 781.926C782.466 806.139 778.045 837.98 783.13 875.966C733.321 858.195 695.301 846.347 680.491 845.088C660.446 845.503 640.497 847.984 620.956 852.493C622.946 832.574 622.062 762.673 607.988 748.308C593.915 733.943 542.854 714.32 523.623 706.915H527.97C529.665 706.027 526.865 698.252 533.275 697.807C541.012 697.363 551.843 700.325 555.38 697.215C556.436 695.603 557.046 693.737 557.148 691.81C565.253 689.218 584.337 683.368 593.989 680.851C597.234 683.439 601.033 685.234 605.086 686.095C609.139 686.956 613.336 686.859 617.346 685.812C619.556 690.773 629.872 701.658 636.282 698.104C638.06 697.072 639.76 695.908 641.366 694.623C646.027 695.922 650.976 695.714 655.513 694.031C657.914 693.373 660.056 691.991 661.65 690.071C663.245 688.151 664.214 685.786 664.428 683.294C668.286 684.408 672.4 684.23 676.148 682.787C679.896 681.344 683.076 678.715 685.207 675.297C701.361 671.649 716.479 664.356 729.416 653.971C730.816 657.007 732.142 659.599 733.247 661.376C733.613 662.001 734.128 662.524 734.745 662.899C735.363 663.274 736.063 663.488 736.784 663.523C744.152 664.264 761.541 656.119 762.278 656.119C764.802 661.41 767.943 666.382 771.635 670.928C772.961 672.261 775.172 671.891 777.235 671.669C798.603 669.077 904.704 646.122 933.072 639.014C969.912 629.758 993.933 603.767 1019.21 579.035C1017.81 621.538 1023.33 642.272 1006.61 725.723C971.827 730.069 937.369 736.698 903.452 745.568C873.758 754.084 838.391 762.525 813.486 782V781.926ZM920.988 928.022L918.409 926.985C917.819 889.369 927.103 854.714 954.513 829.02C956.938 829.64 959.399 830.11 961.881 830.427C933.661 854.714 922.535 890.109 920.988 928.022ZM1037.33 804.584C1015.23 817.617 1021.71 824.651 1001.45 826.798C985.215 827.919 968.906 826.647 953.039 823.022C940.219 818.875 946.997 813.914 960.408 812.433C962.692 812.803 980.67 812.951 989.143 812.433C989.836 812.322 990.466 811.967 990.921 811.431C991.376 810.895 991.626 810.213 991.626 809.508C991.626 808.804 991.376 808.122 990.921 807.586C990.466 807.05 989.836 806.694 989.143 806.583C979.587 805.757 969.985 805.608 960.408 806.139C954.308 806.051 948.234 805.331 942.282 803.992C941.689 803.021 941.345 801.918 941.281 800.78C941.216 799.643 941.434 798.508 941.913 797.476C949.65 792.811 986.122 794.588 992.164 794.366C992.875 794.253 993.523 793.889 993.99 793.339C994.458 792.789 994.715 792.09 994.715 791.367C994.715 790.643 994.458 789.944 993.99 789.394C993.523 788.844 992.875 788.48 992.164 788.368C980.074 788.625 967.982 787.981 955.987 786.442C950.829 785.554 938.819 782.962 939.703 777.705C941.324 768.227 960.702 776.372 974.333 775.409C983.95 775.265 993.47 773.461 1002.48 770.078C1003.15 769.872 1003.72 769.405 1004.05 768.78C1004.38 768.155 1004.45 767.423 1004.25 766.746C1004.04 766.068 1003.58 765.5 1002.96 765.167C1002.33 764.834 1001.61 764.762 1000.93 764.969C991.713 767.196 982.36 768.828 972.933 769.856C972.335 769.731 971.803 769.392 971.437 768.901C971.071 768.41 970.895 767.802 970.944 767.19C971.049 765.806 971.398 764.452 971.975 763.191C975.775 758.212 980.877 754.392 986.712 752.158C1007.64 743.421 1023.55 752.158 1047.5 753.713C1050.5 767.406 1054.32 780.906 1058.92 794.143C1051.58 797.094 1044.46 800.583 1037.63 804.584H1037.33ZM1065.48 795.55C1062.9 786.813 1053.32 755.12 1052.36 747.716C1056.16 745.849 1060.17 744.432 1064.3 743.495C1067.69 756.157 1073.95 778.149 1078 790.441C1074.05 792.428 1069.96 794.135 1065.77 795.55H1065.48ZM1086.33 795.55C1082.42 786.665 1070.86 745.272 1068.2 734.905C1080.88 724.465 1194.64 668.262 1211.59 651.157C1216.89 645.826 1198.99 545.491 1219.99 462.928C1231.19 418.5 1253.14 348.673 1298.46 350.228C1329.55 351.264 1347.31 375.108 1357.4 404.875C1375.9 459.67 1368.53 535.717 1368.53 534.977C1368.53 597.103 1346.43 690.477 1302.22 734.905C1268.84 768.523 1107.11 799.327 1086.62 795.772L1086.33 795.55ZM1390.12 851.827C1381.5 849.531 1341.93 834.87 1325.2 833.463C1238.33 826.058 1243.71 809.471 1190 785.776C1219.47 778.371 1284.97 761.192 1306.71 739.57C1352.61 693.809 1373.83 599.472 1373.61 535.643C1375.32 513.289 1375.32 490.836 1373.61 468.482C1389.9 561.338 1399.92 823.688 1390.12 851.827Z" fill="black"/>
<path fill-rule="evenodd" clip-rule="evenodd" d="M250.854 351.265L226.686 354.079C234.054 361.042 240.763 368.677 246.728 376.885L253.433 354.671C253.637 354.273 253.725 353.825 253.687 353.378C253.648 352.932 253.484 352.506 253.214 352.149C252.944 351.792 252.579 351.52 252.161 351.364C251.744 351.207 251.29 351.173 250.854 351.265ZM949.798 1027.02C943.72 1023.16 937.01 1020.4 929.977 1018.88C946.703 991.555 943.682 959.64 939.261 956.826C935.1 952.565 929.56 949.938 923.641 949.422C901.536 944.757 847.969 944.386 833.823 956.234C830.728 958.826 828.886 963.046 831.907 965.86C830.469 983.412 834.129 1001.01 842.443 1016.51C835.075 1017.92 826.528 1020.73 823.728 1027.39C823.245 1028.83 823.114 1030.36 823.345 1031.85C823.576 1033.35 824.162 1034.76 825.055 1035.98C830.711 1043.03 838.453 1048.09 847.159 1050.42C862.537 1055.13 878.672 1056.81 894.684 1055.38C909.982 1054.76 925.148 1052.27 939.85 1047.98C956.134 1041.91 955.987 1031.91 949.798 1027.02ZM834.486 967.193C850.324 971.541 866.7 973.585 883.116 973.265C901.014 972.034 918.688 968.551 935.724 962.898C937.2 973.085 936.658 983.464 934.129 993.44C931.6 1003.42 927.134 1012.79 920.988 1021.03C919.503 1023.64 917.359 1025.82 914.773 1027.34C912.187 1028.86 909.248 1029.67 906.252 1029.69C895.936 1031.02 867.79 1031.76 862.043 1029.17C843.401 1020.51 834.191 989.037 834.486 967.193ZM894.389 1048.65C879.179 1050.09 863.835 1048.53 849.222 1044.05C842.606 1042.24 836.517 1038.87 831.465 1034.21C830.286 1032.95 828.37 1030.43 828.96 1028.87C830.875 1023.99 840.233 1021.47 845.391 1020.58C849.083 1026.24 854.156 1030.85 860.127 1033.98C867.495 1037.76 908.315 1037.32 915.904 1033.39C920.635 1030.49 924.642 1026.54 927.619 1021.84C931.967 1023.1 947.145 1028.28 948.177 1032.43C951.492 1045.17 907.652 1048.2 894.389 1049.02V1048.65Z" fill="black"/>
</svg>
