<svg width="1400" height="1200" viewBox="0 0 1400 1200" fill="none" xmlns="http://www.w3.org/2000/svg">
<path d="M1397.51 911.023C1398.88 911.023 1400 912.138 1400 913.514C1400 914.89 1398.88 916.005 1397.51 916.005H2.4911C1.1153 916.005 0 914.89 0 913.514C0 912.138 1.1153 911.023 2.4911 911.023H1397.51Z" fill="black"/>
<path d="M585.903 380.396L729.123 385.97L721.171 911.92H568.397L585.903 380.396Z" fill="white"/>
<path d="M731.65 383.576L723.624 914.411H565.823L583.496 377.809L731.65 383.576ZM570.972 909.429H718.717L726.595 388.363L588.311 382.982L570.972 909.429Z" fill="black"/>
<path d="M855.916 32.6446C856.944 31.7298 858.519 31.8213 859.434 32.849C860.348 33.8765 860.257 35.451 859.23 36.3657L835.942 57.0963C834.914 58.0107 833.34 57.9192 832.425 56.892C831.51 55.8644 831.602 54.2891 832.629 53.3743L855.916 32.6446Z" fill="black"/>
<path d="M822.58 14.4755C823.953 14.5554 825.002 15.7342 824.922 17.1077L823.112 48.2299C823.032 49.6032 821.853 50.652 820.48 50.5721C819.106 50.4921 818.058 49.3133 818.138 47.9399L819.948 16.8177C820.029 15.4444 821.206 14.3956 822.58 14.4755Z" fill="black"/>
<path d="M841.203 65.7059L872.324 67.5159C873.697 67.5958 874.746 68.7746 874.666 70.1481C874.586 71.5214 873.408 72.57 872.035 72.4903L840.913 70.6804C839.539 70.6003 838.491 69.4215 838.57 68.0482C838.65 66.6748 839.829 65.6261 841.203 65.7059Z" fill="black"/>
<path d="M585.903 415.408L568.397 911.92H384.592C384.592 911.92 360.719 880.888 384.592 855.431L402.098 722.549L292.315 913.514L106.628 910.335L208.747 701.864C208.747 701.864 401.306 429.735 460.983 409.05C520.661 388.365 585.903 380.405 585.903 380.405V415.417V415.408Z" fill="black"/>
<path d="M585.6 377.932C585.601 377.932 585.601 377.932 585.903 380.405L585.6 377.932L588.394 377.591V415.417H586.179L588.393 415.495L570.802 914.411H383.366L382.617 913.439L384.592 911.92L382.615 913.437C382.615 913.437 382.614 913.435 382.614 913.434C382.612 913.432 382.61 913.43 382.608 913.427C382.603 913.421 382.597 913.412 382.589 913.402C382.574 913.383 382.554 913.356 382.528 913.322C382.476 913.252 382.404 913.153 382.312 913.026C382.128 912.771 381.867 912.403 381.548 911.93C380.91 910.984 380.034 909.616 379.065 907.898C377.13 904.468 374.797 899.6 373.236 893.877C370.147 882.554 370.07 867.716 382.224 854.321L397.983 734.704L293.742 916.03L102.666 912.759L206.51 700.768L206.598 700.588L206.713 700.425L208.747 701.864C206.726 700.434 206.714 700.424 206.715 700.422C206.717 700.42 206.719 700.416 206.722 700.412C206.728 700.404 206.737 700.391 206.748 700.375C206.772 700.342 206.808 700.292 206.855 700.226C206.948 700.095 207.087 699.899 207.27 699.64C207.637 699.124 208.182 698.357 208.895 697.357C210.322 695.356 212.422 692.419 215.115 688.676C220.501 681.188 228.261 670.471 237.759 657.546C256.754 631.697 282.706 597.011 310.528 561.673C338.344 526.343 368.058 490.326 394.571 461.831C407.825 447.586 420.313 435.185 431.389 425.68C442.4 416.23 452.236 409.446 460.168 406.696C490.162 396.3 521.519 389.112 545.352 384.525C557.274 382.229 567.327 380.582 574.403 379.508C577.941 378.971 580.736 378.578 582.648 378.318C583.604 378.188 584.341 378.092 584.839 378.028C585.087 377.996 585.277 377.972 585.405 377.956C585.469 377.948 585.517 377.942 585.55 377.938C585.566 377.936 585.579 377.935 585.588 377.934C585.592 377.933 585.595 377.932 585.598 377.932C585.599 377.932 585.6 377.932 585.6 377.932ZM583.319 383.256C581.43 383.512 578.661 383.901 575.151 384.434C568.129 385.499 558.141 387.136 546.294 389.416C522.586 393.98 491.483 401.115 461.799 411.404C454.812 413.826 445.575 420.07 434.634 429.461C423.756 438.797 411.409 451.05 398.219 465.226C371.843 493.573 342.226 529.467 314.443 564.755C286.666 600.035 260.749 634.674 241.774 660.496C232.287 673.406 224.537 684.11 219.159 691.585C216.47 695.323 214.375 698.254 212.952 700.25C212.24 701.247 211.697 702.011 211.332 702.526C211.149 702.783 211.011 702.977 210.919 703.107C210.911 703.119 210.902 703.13 210.895 703.141L110.588 907.91L290.888 910.998L406.212 710.395L386.957 856.55L386.409 857.135C375.241 869.043 375.209 882.177 378.043 892.567C379.466 897.784 381.609 902.266 383.405 905.45C384.3 907.038 385.104 908.293 385.678 909.143C385.746 909.245 385.813 909.339 385.874 909.429H565.993L583.412 415.374V383.243C583.381 383.247 583.35 383.251 583.319 383.256Z" fill="black"/>
<path d="M463.204 658.712C464.183 657.745 465.76 657.756 466.726 658.734C467.693 659.713 467.683 661.291 466.704 662.258L403.848 724.321C402.869 725.288 401.291 725.278 400.325 724.299C399.358 723.32 399.369 721.743 400.347 720.776L463.204 658.712Z" fill="white"/>
<path d="M721.171 911.92H885.084C885.084 911.92 899.403 886.462 878.718 857.817L877.124 691.517C877.124 691.517 965.447 770.295 1016.37 765.513C1063.34 761.11 1154.3 614.567 1160.66 497.553C1161.67 478.949 1153.53 461.019 1138.89 449.511C1128.66 441.469 1115.47 432.491 1100.84 425.899C1072.92 413.31 1040.12 426.466 1028.26 454.698L976.587 577.736C976.587 577.736 869.964 409.843 819.832 394.723C769.7 379.603 729.123 385.97 729.123 385.97L721.162 911.92H721.171Z" fill="black"/>
<path d="M736.051 382.728C740.709 382.362 747.429 382.035 755.723 382.186C772.308 382.488 795.22 384.698 820.551 392.338C827.252 394.359 834.688 398.854 842.496 404.966C850.337 411.104 858.706 418.994 867.277 427.978C884.42 445.946 902.515 468.438 919.002 490.404C935.495 512.379 950.414 533.875 961.208 549.873C966.606 557.874 970.974 564.502 973.994 569.132C974.802 570.371 975.513 571.466 976.122 572.407L1025.96 453.733C1038.36 424.228 1072.65 410.455 1101.87 423.628C1116.73 430.33 1130.1 439.435 1140.43 447.552C1155.71 459.562 1164.2 478.272 1163.15 497.689C1159.94 556.701 1135.44 622.968 1105.91 674.992C1091.14 701.019 1075.06 723.581 1059.65 739.949C1051.95 748.133 1044.38 754.815 1037.18 759.608C1030.23 764.235 1023.48 767.2 1017.21 767.93L1016.6 767.994C1003.25 769.248 987.712 765.024 972.137 758.253C956.506 751.458 940.553 741.97 926.263 732.377C911.963 722.777 899.271 713.033 890.157 705.692C885.756 702.146 882.186 699.157 879.667 697.013L881.201 857.009C891.532 871.652 893.167 885.545 892.137 895.858C891.616 901.07 890.417 905.349 889.343 908.337C888.805 909.833 888.296 911.01 887.916 911.824C887.726 912.231 887.568 912.549 887.454 912.77C887.397 912.88 887.35 912.967 887.317 913.03C887.3 913.06 887.286 913.086 887.276 913.104C887.271 913.114 887.267 913.122 887.263 913.128C887.262 913.131 887.26 913.133 887.258 913.136C887.258 913.137 887.257 913.138 887.257 913.138L885.085 911.92L887.256 913.141L886.541 914.411H718.633L726.664 383.835L728.737 383.509L729.123 385.969C728.737 383.509 728.738 383.509 728.739 383.509H728.741C728.743 383.508 728.746 383.507 728.749 383.507C728.756 383.506 728.765 383.504 728.777 383.503C728.8 383.499 728.833 383.494 728.876 383.488C728.961 383.475 729.086 383.457 729.249 383.435C729.573 383.39 730.049 383.327 730.668 383.253C731.907 383.104 733.722 382.911 736.051 382.728ZM755.633 387.167C747.517 387.02 740.959 387.34 736.442 387.695C734.38 387.857 732.744 388.026 731.58 388.162L723.691 909.429H883.533C883.84 908.751 884.236 907.816 884.655 906.652C885.618 903.972 886.706 900.096 887.179 895.363C888.121 885.939 886.637 873.039 876.699 859.275L876.234 858.633L874.579 685.909L878.782 689.658L878.785 689.661C878.787 689.663 878.791 689.667 878.796 689.671C878.805 689.68 878.821 689.693 878.841 689.711C878.882 689.747 878.945 689.802 879.027 689.875C879.193 690.021 879.441 690.24 879.767 690.524C880.419 691.094 881.386 691.932 882.635 692.998C885.134 695.129 888.766 698.172 893.283 701.811C902.321 709.091 914.893 718.743 929.039 728.24C943.195 737.743 958.871 747.054 974.123 753.685C989.431 760.339 1004.03 764.17 1016.14 763.033L1016.64 762.98C1021.83 762.375 1027.81 759.856 1034.42 755.46C1041.21 750.94 1048.49 744.537 1056.02 736.535C1071.09 720.531 1086.95 698.318 1101.58 672.533C1130.87 620.932 1155.02 555.42 1158.17 497.418C1159.14 479.626 1151.35 462.477 1137.35 451.469C1127.53 443.752 1115.01 435.204 1101.16 428.784L1099.82 428.17C1073.2 416.165 1041.88 428.705 1030.56 455.663L977.038 583.095L974.484 579.072L976.587 577.736L974.483 579.07C974.482 579.069 974.481 579.067 974.479 579.065C974.476 579.06 974.472 579.052 974.466 579.043C974.453 579.023 974.434 578.993 974.408 578.953C974.357 578.873 974.281 578.753 974.18 578.595C973.979 578.279 973.677 577.809 973.281 577.195C972.491 575.966 971.325 574.159 969.821 571.853C966.814 567.242 962.46 560.636 957.078 552.66C946.314 536.706 931.445 515.282 915.017 493.394C898.581 471.497 880.62 449.181 863.672 431.417C855.197 422.534 847.011 414.828 839.425 408.89C831.808 402.927 824.945 398.867 819.113 397.108C794.313 389.629 771.87 387.462 755.633 387.167Z" fill="black"/>
<path d="M874.632 691.518V551.468C874.632 550.092 875.747 548.977 877.123 548.977C878.499 548.977 879.614 550.092 879.614 551.468V691.518C879.614 692.893 878.499 694.009 877.123 694.009C875.747 694.009 874.632 692.893 874.632 691.518Z" fill="white"/>
<path d="M974.328 576.677C974.908 575.43 976.39 574.889 977.637 575.469C978.885 576.049 979.426 577.53 978.846 578.777L962.933 612.998C962.353 614.245 960.872 614.786 959.624 614.206C958.377 613.626 957.836 612.144 958.416 610.897L974.328 576.677Z" fill="white"/>
<path d="M571.269 368.347L535.375 425.35L620.51 510.89L695.226 452.474L744.737 506.91L770.492 410.23L731.598 366.978C726.97 361.836 720.414 358.846 713.489 358.729L592.747 356.712C584.039 356.568 575.889 360.98 571.251 368.347H571.269Z" fill="white"/>
<path d="M592.789 354.221L713.53 356.238C720.909 356.363 727.908 359.453 732.967 364.788L733.449 365.311L733.45 365.312L773.238 409.559L745.958 515.121L694.89 455.897L620.304 514.214L532.209 425.701L566.757 370.837H566.739L569.144 367.019C574.245 358.916 583.21 354.063 592.789 354.221ZM592.705 359.202C585.137 359.077 578.039 362.776 573.802 368.999L538.539 424.999L620.716 507.565L695.562 449.048L743.516 504.659L767.745 410.9L729.746 368.643C725.579 364.016 719.679 361.325 713.447 361.219L592.705 359.202Z" fill="black"/>
<path d="M660.857 525.218V506.91C660.857 505.534 661.972 504.419 663.348 504.419C664.724 504.419 665.839 505.534 665.839 506.91V525.218C665.839 526.593 664.724 527.709 663.348 527.709C661.972 527.709 660.857 526.593 660.857 525.218Z" fill="black"/>
<path d="M660.857 600.177V578.7C660.857 577.324 661.972 576.208 663.348 576.208C664.724 576.208 665.839 577.324 665.839 578.7V600.177C665.839 601.552 664.724 602.668 663.348 602.668C661.972 602.668 660.857 601.552 660.857 600.177Z" fill="black"/>
<path d="M660.857 667.986V650.48C660.857 649.105 661.972 647.989 663.348 647.989C664.724 647.989 665.839 649.105 665.839 650.48V667.986C665.839 669.362 664.724 670.477 663.348 670.477C661.972 670.477 660.857 669.362 660.857 667.986Z" fill="black"/>
<path d="M660.857 739.767V722.261C660.857 720.885 661.972 719.77 663.348 719.77C664.724 719.77 665.839 720.885 665.839 722.261V739.767C665.839 741.143 664.724 742.258 663.348 742.258C661.972 742.258 660.857 741.143 660.857 739.767Z" fill="black"/>
<path d="M660.857 811.548V794.041C660.857 792.666 661.972 791.55 663.348 791.55C664.724 791.55 665.839 792.666 665.839 794.041V811.548C665.839 812.924 664.724 814.039 663.348 814.039C661.973 814.039 660.857 812.924 660.857 811.548Z" fill="black"/>
<path d="M660.857 883.338V865.831C660.857 864.455 661.972 863.34 663.348 863.34C664.724 863.34 665.839 864.455 665.839 865.831V883.338C665.839 884.713 664.724 885.829 663.348 885.829C661.973 885.829 660.857 884.713 660.857 883.338Z" fill="black"/>
<path d="M1068.31 460.074C1068.31 460.074 1055.58 421.883 1055.58 391.643C1055.58 361.403 1113.66 271.495 1113.66 271.495L1241.77 321.627C1241.77 321.627 1169.36 388.464 1171.75 433.823C1174.13 479.174 1116.84 481.569 1116.84 481.569L1068.3 460.083L1068.31 460.074Z" fill="white"/>
<path d="M1246.39 320.758L1243.46 323.458C1243.46 323.459 1243.46 323.459 1243.46 323.46C1243.46 323.462 1243.46 323.464 1243.45 323.468C1243.44 323.475 1243.43 323.487 1243.42 323.502C1243.38 323.533 1243.33 323.579 1243.26 323.641C1243.13 323.766 1242.93 323.953 1242.67 324.2C1242.15 324.693 1241.38 325.426 1240.4 326.377C1238.44 328.277 1235.64 331.046 1232.29 334.513C1225.57 341.448 1216.65 351.158 1207.81 362.267C1198.97 373.385 1190.25 385.848 1183.9 398.29C1177.53 410.775 1173.67 422.991 1174.24 433.693C1174.86 445.604 1171.56 454.842 1166.16 461.927C1160.79 468.963 1153.46 473.736 1146.21 476.977C1138.95 480.221 1131.65 481.985 1126.19 482.94C1123.45 483.419 1121.16 483.698 1119.54 483.857C1118.74 483.937 1118.1 483.986 1117.66 484.017C1117.43 484.032 1117.26 484.042 1117.14 484.049C1117.08 484.052 1117.04 484.054 1117 484.056C1116.99 484.056 1116.97 484.057 1116.97 484.058C1116.96 484.058 1116.96 484.057 1116.95 484.058C1116.95 484.058 1116.95 484.059 1116.95 484.059C1116.95 484.059 1116.95 484.058 1116.84 481.569L1116.95 484.059L1116.37 484.083L1063.93 460.872L1065.47 459.369C1065.44 459.29 1065.42 459.208 1065.39 459.123C1065.04 458.006 1064.54 456.38 1063.93 454.338C1062.73 450.252 1061.13 444.491 1059.52 437.778C1056.33 424.387 1053.09 407.055 1053.09 391.643C1053.09 383.516 1056.93 371.799 1062.37 359.13C1067.86 346.34 1075.16 332.186 1082.44 319.024C1089.73 305.854 1097.01 293.637 1102.46 284.716C1105.19 280.254 1107.47 276.614 1109.06 274.089C1109.86 272.826 1110.48 271.841 1110.91 271.171C1111.13 270.837 1111.29 270.58 1111.4 270.408C1111.46 270.321 1111.5 270.256 1111.53 270.212C1111.54 270.19 1111.55 270.173 1111.56 270.161C1111.56 270.156 1111.57 270.152 1111.57 270.149C1111.57 270.147 1111.57 270.146 1111.57 270.145C1111.57 270.145 1111.62 270.175 1113.66 271.495L1111.57 270.144L1112.68 268.434L1246.39 320.758ZM1058.07 391.643C1058.07 406.471 1061.2 423.355 1064.37 436.62C1065.95 443.233 1067.53 448.91 1068.71 452.93C1069.31 454.94 1069.8 456.535 1070.14 457.625C1070.22 457.861 1070.29 458.074 1070.35 458.262L1117.3 479.047C1117.3 479.047 1117.31 479.047 1117.32 479.046C1117.71 479.019 1118.3 478.974 1119.06 478.899C1120.57 478.75 1122.73 478.487 1125.33 478.032C1130.54 477.121 1137.41 475.452 1144.17 472.428C1150.95 469.402 1157.49 465.072 1162.19 458.905C1166.86 452.786 1169.83 444.718 1169.26 433.954C1168.63 421.976 1172.93 408.828 1179.46 396.024C1186.02 383.177 1194.96 370.426 1203.92 359.165C1212.88 347.894 1221.92 338.061 1228.71 331.047C1232.1 327.539 1234.94 324.732 1236.93 322.8C1237.03 322.705 1237.13 322.612 1237.22 322.521L1114.66 274.561C1114.29 275.149 1113.82 275.882 1113.27 276.747C1111.69 279.256 1109.43 282.876 1106.71 287.316C1101.28 296.197 1094.04 308.348 1086.8 321.435C1079.56 334.53 1072.34 348.522 1066.94 361.095C1061.49 373.788 1058.07 384.651 1058.07 391.643Z" fill="black"/>
<path d="M695.912 431.545L703.99 334.109C759.777 337.756 804.065 287.876 793.844 232.908L774.933 131.158L597.124 128.015L588.597 356.109L695.912 431.536V431.545Z" fill="white"/>
<path d="M777.011 128.703L796.293 232.452C806.661 288.212 762.523 338.883 706.273 336.72L698.395 431.751L695.835 431.644L694.479 433.574L586.057 357.368L594.726 125.481L777.011 128.703ZM591.135 354.847L693.788 426.999L701.709 331.463L704.153 331.623C758.318 335.163 801.319 286.734 791.395 233.363L772.855 133.612L599.522 130.549L591.135 354.847Z" fill="black"/>
<path d="M782.263 170.564C782.263 170.564 779.876 138.344 752.933 140.145C725.989 141.937 691.958 132.959 691.958 132.959C691.958 132.959 648.76 119.271 658.639 170.564C658.639 170.564 629.904 177.408 626.761 211.979L588.597 201.2C588.597 201.2 550.883 119.478 615.09 84.9066C615.09 84.9066 641.583 77.7204 646.968 96.1361C646.968 96.1361 654.605 44.0499 720.154 70.5433C720.154 70.5433 783.641 42.636 782.254 102.872C782.254 102.872 790.566 89.8504 795.321 96.1361C800.075 102.422 825.056 147.997 782.254 170.564H782.263Z" fill="black"/>
<path d="M659.216 172.987C659.209 172.989 659.196 172.993 659.177 172.998C659.137 173.008 659.072 173.026 658.982 173.051C658.801 173.101 658.523 173.181 658.161 173.298C657.437 173.531 656.377 173.905 655.086 174.462C652.501 175.575 649.011 177.405 645.43 180.256C638.318 185.919 630.745 195.678 629.242 212.205L628.971 215.192L586.817 203.285L586.336 202.244L588.597 201.2C586.335 202.244 586.335 202.243 586.334 202.241C586.333 202.24 586.333 202.238 586.332 202.236C586.33 202.233 586.328 202.228 586.325 202.222C586.319 202.209 586.312 202.192 586.302 202.17C586.282 202.126 586.253 202.062 586.216 201.979C586.142 201.814 586.035 201.571 585.9 201.256C585.63 200.628 585.246 199.71 584.784 198.534C583.858 196.182 582.615 192.795 581.327 188.626C578.756 180.299 575.995 168.797 575.279 156.159C573.844 130.85 580.645 100.624 613.909 82.713L614.162 82.5777L614.439 82.5028L615.091 84.9063C614.438 82.5024 614.439 82.5021 614.441 82.5018L614.443 82.5009C614.445 82.5004 614.448 82.4996 614.45 82.4989C614.456 82.4975 614.462 82.4962 614.471 82.4941C614.488 82.4895 614.512 82.4833 614.542 82.4756C614.601 82.4601 614.686 82.4379 614.794 82.4114C615.009 82.3583 615.317 82.2854 615.707 82.2002C616.488 82.0298 617.598 81.8108 618.944 81.6086C621.623 81.2059 625.296 80.8615 629.183 81.1308C635.09 81.54 641.968 83.4396 646.263 89.1393C646.446 88.616 646.646 88.0704 646.865 87.5074C648.69 82.8186 651.865 76.7891 657.254 71.6091C662.677 66.3976 670.275 62.1143 680.778 60.8906C691.039 59.695 703.93 61.4366 720.134 67.8549C720.606 67.6646 721.238 67.4148 722.01 67.1271C723.795 66.4626 726.335 65.5855 729.376 64.7265C735.43 63.0163 743.601 61.341 751.812 61.6301C760.022 61.9191 768.546 64.1884 774.912 70.6623C780.291 76.1323 783.838 84.3064 784.609 95.9986C784.839 95.7686 785.074 95.54 785.315 95.3174C786.743 93.9974 788.619 92.5965 790.709 92.1101C791.808 91.8546 793.022 91.8392 794.238 92.2765C795.455 92.7143 796.478 93.5362 797.308 94.6333C799.899 98.0589 807.557 111.448 809.101 126.998C809.878 134.826 809.117 143.317 805.27 151.372C801.581 159.097 795.136 166.243 784.866 171.978L784.946 173.055H772.189L779.587 169.154C779.473 168.361 779.299 167.31 779.034 166.083C778.418 163.224 777.336 159.471 775.48 155.805C773.622 152.136 771.04 148.651 767.469 146.188C763.938 143.753 759.298 142.216 753.1 142.63L753.099 142.631C739.337 143.546 723.868 141.712 711.924 139.679C705.935 138.66 700.795 137.585 697.15 136.764C695.327 136.353 693.876 136.005 692.878 135.76C692.38 135.637 691.994 135.54 691.732 135.473C691.601 135.439 691.5 135.414 691.431 135.396C691.397 135.387 691.371 135.38 691.353 135.376C691.344 135.373 691.337 135.371 691.332 135.37C691.33 135.369 691.327 135.368 691.326 135.368H691.324L691.265 135.352L691.206 135.334C691.204 135.333 691.2 135.331 691.195 135.33C691.181 135.325 691.156 135.317 691.123 135.307C691.055 135.287 690.948 135.257 690.806 135.217C690.522 135.137 690.095 135.023 689.55 134.895C688.458 134.637 686.9 134.322 685.058 134.094C681.337 133.634 676.644 133.559 672.338 134.905C668.119 136.223 664.273 138.894 661.952 144.069C659.582 149.35 658.666 157.533 661.085 170.093L661.537 172.436L659.217 172.988L659.216 172.987ZM719.221 72.8527C703.099 66.3368 690.76 64.7437 681.354 65.8397C671.989 66.9308 665.387 70.7024 660.707 75.2008C655.994 79.7304 653.162 85.0661 651.507 89.3154C650.683 91.4329 650.16 93.2587 649.844 94.5438C649.687 95.1854 649.582 95.6902 649.517 96.0268C649.485 96.195 649.463 96.3216 649.449 96.4014C649.443 96.4408 649.438 96.4689 649.436 96.4851C649.434 96.4931 649.434 96.4986 649.434 96.5007L647.779 107.783L644.578 96.8354C642.324 89.1281 635.733 86.5779 628.838 86.1003C625.429 85.8642 622.141 86.166 619.684 86.5353C618.462 86.719 617.461 86.9169 616.771 87.0676C616.439 87.1401 616.181 87.2016 616.005 87.2447C585.292 103.922 578.886 131.751 580.253 155.877C580.939 167.99 583.594 179.08 586.088 187.156C587.333 191.189 588.534 194.457 589.421 196.709C589.823 197.732 590.161 198.544 590.407 199.122L624.619 208.785C626.858 192.496 634.737 182.402 642.327 176.359C646.323 173.178 650.214 171.136 653.115 169.886C654.143 169.443 655.049 169.1 655.796 168.838C653.77 156.895 654.621 148.235 657.405 142.029C660.405 135.344 665.506 131.82 670.851 130.149C676.11 128.505 681.6 128.645 685.67 129.149C687.723 129.403 689.463 129.755 690.695 130.046C691.311 130.191 691.803 130.323 692.146 130.419C692.318 130.467 692.453 130.506 692.548 130.534C692.579 130.544 692.606 130.551 692.628 130.558C692.642 130.561 692.661 130.567 692.684 130.573C692.745 130.589 692.839 130.614 692.964 130.645C693.213 130.709 693.585 130.803 694.069 130.922C695.038 131.16 696.457 131.501 698.245 131.904C701.822 132.71 706.874 133.767 712.76 134.768C724.568 136.777 739.586 138.536 752.768 137.659L753.445 137.62C760.4 137.288 765.944 139.084 770.298 142.087C774.752 145.159 777.818 149.392 779.925 153.554C782.033 157.717 783.231 161.908 783.905 165.033C784.024 165.587 784.125 166.111 784.214 166.596C792.624 161.515 797.782 155.49 800.774 149.225C804.133 142.192 804.855 134.664 804.143 127.491C802.708 113.04 795.498 100.5 793.335 97.6392C792.976 97.165 792.699 97.018 792.551 96.9648C792.403 96.9113 792.187 96.8817 791.838 96.9629C791.033 97.1502 789.94 97.8268 788.696 98.9762C787.508 100.074 786.418 101.381 785.61 102.443C785.212 102.968 784.892 103.42 784.673 103.737C784.564 103.895 784.481 104.019 784.427 104.101C784.4 104.142 784.38 104.172 784.368 104.191C784.362 104.2 784.357 104.208 784.355 104.211C784.354 104.213 784.353 104.214 784.353 104.214L779.559 111.725L779.764 102.815C780.101 88.1699 776.49 79.3719 771.361 74.1557C766.213 68.9208 759.125 66.8721 751.637 66.6084C744.15 66.3448 736.536 67.8808 730.73 69.5209C727.842 70.3368 725.431 71.1696 723.749 71.7959C722.909 72.1089 722.252 72.3703 721.809 72.5511C721.588 72.6414 721.42 72.7117 721.31 72.7583C721.255 72.7815 721.215 72.7988 721.189 72.8099C721.177 72.8153 721.167 72.8192 721.162 72.8216L721.156 72.8245L721.155 72.8235L720.196 73.2468L719.221 72.8527ZM659.218 172.986L659.219 172.987H659.221L659.222 172.986C659.222 172.986 659.22 172.986 659.218 172.986Z" fill="black"/>
<path d="M597.574 251.675C613.444 251.675 626.309 238.809 626.309 222.939C626.309 207.069 613.444 194.204 597.574 194.204C581.703 194.204 568.838 207.069 568.838 222.939C568.838 238.809 581.703 251.675 597.574 251.675Z" fill="white"/>
<path d="M584.191 196.058C591.438 192.704 599.974 192.105 608.067 195.07C616.159 198.035 622.298 204.008 625.654 211.258C626.231 212.506 625.688 213.986 624.439 214.564C623.191 215.142 621.711 214.598 621.133 213.35C618.311 207.254 613.156 202.24 606.353 199.748C599.552 197.256 592.384 197.756 586.284 200.579C580.189 203.401 575.174 208.555 572.682 215.358C570.19 222.16 570.69 229.328 573.513 235.427C576.334 241.523 581.489 246.537 588.292 249.03C595.094 251.522 602.262 251.021 608.361 248.198C609.609 247.62 611.09 248.164 611.668 249.412C612.246 250.661 611.703 252.142 610.454 252.72C603.208 256.074 594.671 256.672 586.578 253.707C578.487 250.743 572.348 244.77 568.992 237.52C565.637 230.274 565.039 221.737 568.004 213.645C570.969 205.553 576.942 199.414 584.191 196.058Z" fill="black"/>
<path d="M703.999 334.118C703.999 334.118 645.627 321.096 637.999 304.481C637.999 304.481 660.476 362.331 701.324 366.41L703.999 334.118Z" fill="black"/>
<path d="M640.264 303.442C641.004 305.054 642.449 306.794 644.624 308.614C646.782 310.42 649.535 312.203 652.719 313.933C659.089 317.395 666.952 320.528 674.667 323.174C682.367 325.814 689.842 327.944 695.397 329.415C698.172 330.15 700.464 330.72 702.06 331.104C702.857 331.297 703.481 331.442 703.904 331.54C704.115 331.589 704.276 331.626 704.383 331.65C704.437 331.662 704.477 331.673 704.503 331.678C704.516 331.681 704.527 331.683 704.533 331.684C704.536 331.685 704.539 331.686 704.54 331.686L706.66 332.159L703.597 369.141L701.077 368.889C679.543 366.739 663.151 350.49 652.318 335.367C646.859 327.747 642.708 320.267 639.922 314.699C638.528 311.912 637.472 309.597 636.762 307.972C636.408 307.16 636.139 306.52 635.958 306.079C635.867 305.859 635.798 305.689 635.751 305.571C635.728 305.513 635.71 305.468 635.698 305.436C635.692 305.421 635.687 305.409 635.683 305.4C635.682 305.396 635.68 305.392 635.679 305.39C635.679 305.388 635.679 305.386 635.678 305.386C635.685 305.382 635.805 305.334 637.999 304.482L635.677 305.384L640.264 303.442ZM646.108 315.826C648.696 320.701 652.129 326.547 656.369 332.466C666.521 346.638 680.929 360.711 699.057 363.604L701.338 336.052C701.196 336.019 701.047 335.985 700.892 335.947C699.265 335.555 696.937 334.977 694.121 334.232C688.493 332.742 680.898 330.578 673.051 327.886C665.219 325.2 657.06 321.963 650.34 318.31C648.863 317.508 647.445 316.679 646.108 315.826Z" fill="black"/>
<path d="M734.207 225.542C734.208 231.308 738.882 235.982 744.648 235.982H786.811C792.576 235.982 797.251 231.308 797.251 225.542V183.379C797.251 177.613 792.577 172.939 786.811 172.939H744.648C738.882 172.939 734.207 177.613 734.207 183.379V225.542ZM729.225 183.379C729.225 174.861 736.13 167.957 744.648 167.957H786.811C795.328 167.957 802.233 174.861 802.233 183.379V225.542C802.233 234.059 795.328 240.964 786.811 240.964H744.648C736.13 240.964 729.225 234.059 729.225 225.542V183.379Z" fill="black"/>
<path d="M645.317 225.542C645.317 231.308 649.991 235.982 655.757 235.982H697.92C703.686 235.982 708.36 231.308 708.36 225.542V183.379C708.36 177.613 703.686 172.939 697.92 172.939H655.757C649.991 172.939 645.317 177.613 645.317 183.379V225.542ZM640.335 183.379C640.335 174.861 647.24 167.957 655.757 167.957H697.92C706.438 167.957 713.342 174.861 713.343 183.379V225.542C713.342 234.059 706.438 240.964 697.92 240.964H655.757C647.24 240.964 640.335 234.059 640.335 225.542V183.379Z" fill="black"/>
<path d="M706.485 178.189C714.933 174.957 722.336 174.946 727.65 175.763C730.303 176.171 732.435 176.785 733.921 177.305C734.664 177.566 735.247 177.803 735.655 177.981C735.859 178.07 736.02 178.144 736.135 178.199C736.192 178.226 736.238 178.249 736.273 178.266C736.29 178.274 736.304 178.282 736.316 178.287C736.321 178.29 736.326 178.293 736.33 178.295L736.338 178.299C736.339 178.3 736.341 178.3 735.273 180.378L736.341 178.3C737.564 178.929 738.046 180.432 737.416 181.655C736.787 182.878 735.287 183.358 734.064 182.73V182.731C734.063 182.731 734.062 182.731 734.061 182.73C734.05 182.725 734.027 182.713 733.994 182.697C733.927 182.666 733.817 182.615 733.665 182.548C733.362 182.416 732.892 182.224 732.273 182.007C731.035 181.574 729.202 181.043 726.893 180.688C722.284 179.979 715.774 179.969 708.265 182.842C706.981 183.334 705.54 182.69 705.048 181.405C704.557 180.12 705.2 178.681 706.485 178.189Z" fill="black"/>
<path d="M763.246 202.029C763.246 198.502 761.079 196.695 759.56 196.695C758.041 196.695 755.873 198.502 755.873 202.029C755.873 205.556 758.041 207.364 759.56 207.364C761.079 207.363 763.246 205.556 763.246 202.029ZM768.228 202.029C768.228 207.145 764.865 212.346 759.56 212.346C754.256 212.346 750.891 207.146 750.891 202.029C750.891 196.912 754.256 191.712 759.56 191.712C764.865 191.713 768.228 196.913 768.228 202.029Z" fill="black"/>
<path d="M687.018 201.038C687.018 199.313 686.513 197.854 685.824 196.891C685.131 195.923 684.397 195.614 683.844 195.614C683.292 195.614 682.558 195.923 681.865 196.891C681.176 197.854 680.671 199.313 680.671 201.038C680.671 202.764 681.176 204.223 681.865 205.186C682.558 206.154 683.292 206.463 683.844 206.463C684.397 206.463 685.131 206.154 685.824 205.186C686.513 204.223 687.018 202.764 687.018 201.038ZM692 201.038C692 203.684 691.236 206.184 689.876 208.085C688.518 209.982 686.42 211.445 683.844 211.445C681.269 211.445 679.171 209.982 677.813 208.085C676.453 206.184 675.689 203.684 675.689 201.038C675.689 198.392 676.453 195.893 677.813 193.992C679.171 192.095 681.269 190.632 683.844 190.632C686.42 190.632 688.518 192.095 689.876 193.992C691.236 195.893 692 198.392 692 201.038Z" fill="black"/>
<path d="M743.87 160.039C751.578 157.139 758.333 158.223 763.118 160.023C765.502 160.92 767.407 161.996 768.723 162.854C769.383 163.284 769.9 163.661 770.26 163.939C770.44 164.078 770.581 164.192 770.681 164.276C770.731 164.317 770.772 164.351 770.802 164.377C770.817 164.39 770.83 164.4 770.84 164.409C770.845 164.413 770.849 164.418 770.853 164.421C770.854 164.422 770.856 164.423 770.857 164.425L770.859 164.427C770.86 164.427 770.861 164.428 769.352 166.14L770.861 164.428C771.893 165.338 771.992 166.912 771.082 167.944C770.229 168.912 768.792 169.059 767.766 168.324L767.569 168.168L767.572 168.171C767.572 168.171 767.569 168.168 767.564 168.164C767.554 168.155 767.534 168.138 767.504 168.114C767.445 168.065 767.349 167.986 767.216 167.884C766.95 167.679 766.542 167.379 766.004 167.029C764.925 166.326 763.343 165.431 761.364 164.686C757.423 163.204 751.945 162.324 745.623 164.702C744.336 165.186 742.899 164.535 742.415 163.247C741.931 161.959 742.582 160.523 743.87 160.039Z" fill="black"/>
<path d="M680.307 156.559C683.04 156.475 685.499 156.767 687.269 157.076C688.157 157.231 688.882 157.393 689.392 157.518C689.647 157.58 689.849 157.633 689.991 157.672C690.063 157.692 690.12 157.708 690.161 157.72L690.227 157.74C690.229 157.74 690.231 157.74 690.233 157.74L690.235 157.741C690.236 157.742 690.237 157.742 689.525 160.104L690.237 157.742C691.554 158.139 692.3 159.528 691.904 160.846C691.507 162.163 690.118 162.909 688.801 162.512C688.798 162.511 688.791 162.51 688.782 162.508C688.761 162.501 688.724 162.491 688.674 162.477C688.573 162.45 688.415 162.408 688.208 162.357C687.792 162.255 687.177 162.118 686.411 161.984C684.873 161.715 682.765 161.468 680.461 161.539C675.804 161.683 670.792 163.091 667.673 167.701C666.902 168.84 665.353 169.14 664.213 168.369C663.074 167.597 662.776 166.049 663.547 164.909C667.947 158.407 674.89 156.726 680.307 156.559Z" fill="black"/>
<path d="M734.693 230.689C736.053 230.478 737.326 231.41 737.536 232.769L738.564 239.387C739.51 245.482 734.793 250.978 728.637 250.978H704.692C703.316 250.978 702.201 249.863 702.201 248.487C702.201 247.111 703.316 245.996 704.692 245.996H728.637C731.738 245.996 734.117 243.224 733.64 240.151L732.614 233.532C732.403 232.173 733.334 230.9 734.693 230.689Z" fill="black"/>
<path d="M646.093 260.802C646.905 259.692 648.464 259.451 649.574 260.263L661.326 268.863H661.325C672.408 276.962 685.779 281.332 699.504 281.332H715.219C716.595 281.332 717.71 282.448 717.71 283.824C717.71 285.199 716.595 286.315 715.219 286.315H699.504C684.72 286.315 670.32 281.607 658.385 272.885L658.384 272.884L646.632 264.284C645.522 263.471 645.28 261.913 646.093 260.802Z" fill="black"/>
<path d="M1242.02 2.49121H1019.36C995.738 2.49121 976.587 21.6422 976.587 45.266V329.804C976.587 353.428 995.738 372.579 1019.36 372.579H1242.02C1265.64 372.579 1284.79 353.428 1284.79 329.804V45.266C1284.79 21.6422 1265.64 2.49121 1242.02 2.49121Z" fill="white"/>
<path d="M1282.3 45.2661C1282.3 23.018 1264.26 4.98221 1242.02 4.98221H1019.36C997.114 4.98221 979.078 23.018 979.078 45.2661V329.804C979.078 352.052 997.114 370.087 1019.36 370.087H1242.02C1264.26 370.087 1282.3 352.052 1282.3 329.804V45.2661ZM1287.28 329.804C1287.28 354.803 1267.02 375.07 1242.02 375.07H1019.36C994.362 375.07 974.096 354.803 974.096 329.804V45.2661C974.096 20.2664 994.362 0 1019.36 0H1242.02C1267.02 0 1287.28 20.2664 1287.28 45.2661V329.804Z" fill="black"/>
<path d="M1158.8 329.471C1143.28 312.758 1072.86 373.237 1072.86 373.237L1136.12 418.587C1145.12 396.308 1128.16 376.524 1128.16 376.524C1128.16 376.524 1174.31 346.185 1158.8 329.471Z" fill="white"/>
<path d="M1150.61 324.065C1154.34 324.005 1157.82 324.939 1160.38 327.52L1160.62 327.775V327.776C1165.38 332.901 1165.24 339.068 1162.86 344.825C1160.53 350.473 1155.94 356.11 1151.07 361.02C1146.16 365.968 1140.77 370.36 1136.64 373.504C1134.67 375.004 1132.97 376.225 1131.73 377.096C1132.04 377.535 1132.39 378.035 1132.75 378.594C1134.27 380.9 1136.19 384.216 1137.83 388.269C1141.09 396.363 1143.25 407.583 1138.43 419.52C1137.92 420.795 1136.47 421.412 1135.19 420.897C1133.91 420.381 1133.3 418.929 1133.81 417.653C1137.99 407.311 1136.17 397.499 1133.21 390.131C1131.72 386.453 1129.97 383.431 1128.59 381.332C1127.9 380.284 1127.31 379.472 1126.89 378.928C1126.69 378.657 1126.52 378.452 1126.42 378.32C1126.36 378.254 1126.32 378.207 1126.3 378.177C1126.29 378.162 1126.28 378.151 1126.27 378.146L1126.27 378.143L1124.43 375.995L1126.79 374.441H1126.79C1126.8 374.441 1126.8 374.44 1126.8 374.439C1126.8 374.436 1126.81 374.43 1126.82 374.424C1126.84 374.411 1126.87 374.39 1126.91 374.363C1126.99 374.308 1127.12 374.225 1127.28 374.115C1127.6 373.896 1128.08 373.569 1128.69 373.146C1129.9 372.3 1131.61 371.069 1133.62 369.539C1137.66 366.472 1142.84 362.235 1147.53 357.51C1152.26 352.746 1156.3 347.664 1158.25 342.923C1160.17 338.29 1159.97 334.397 1156.97 331.165C1155.67 329.765 1153.66 328.998 1150.69 329.046C1147.69 329.094 1143.97 329.98 1139.71 331.593C1131.19 334.811 1121.12 340.678 1111.39 347.162C1101.7 353.626 1092.47 360.619 1085.65 366.004C1082.25 368.694 1079.45 370.978 1077.51 372.589C1076.54 373.394 1075.78 374.031 1075.26 374.465C1075.01 374.682 1074.81 374.848 1074.68 374.96C1074.61 375.016 1074.56 375.058 1074.53 375.086C1074.51 375.099 1074.5 375.11 1074.5 375.117C1074.49 375.12 1074.49 375.123 1074.49 375.125L1074.48 375.126C1074.48 375.121 1074.4 375.025 1072.86 373.237C1071.24 371.347 1071.24 371.346 1071.24 371.345C1071.24 371.345 1071.24 371.344 1071.24 371.343C1071.24 371.341 1071.25 371.337 1071.25 371.333C1071.26 371.326 1071.28 371.314 1071.29 371.299C1071.33 371.269 1071.38 371.225 1071.45 371.167C1071.58 371.051 1071.79 370.88 1072.05 370.658C1072.57 370.215 1073.34 369.568 1074.33 368.753C1076.3 367.122 1079.12 364.812 1082.56 362.094C1089.44 356.662 1098.78 349.581 1108.63 343.017C1118.45 336.471 1128.89 330.353 1137.94 326.931C1142.46 325.224 1146.79 324.126 1150.61 324.065ZM1072.86 373.237L1074.48 375.126C1073.44 376.023 1071.87 375.903 1070.97 374.859C1070.08 373.815 1070.19 372.242 1071.24 371.346L1072.86 373.237Z" fill="black"/>
<path d="M1256.75 63.0098C1258.12 63.0099 1259.24 64.1251 1259.24 65.5009C1259.24 66.8766 1258.12 67.9919 1256.75 67.992H1100.23C1098.85 67.992 1097.74 66.8767 1097.74 65.5009C1097.74 64.1251 1098.85 63.0098 1100.23 63.0098H1256.75Z" fill="black"/>
<path d="M1182.96 89.0439C1184.33 89.0439 1185.45 90.1593 1185.45 91.535C1185.45 92.9108 1184.33 94.0262 1182.96 94.0262H1100.23C1098.85 94.0262 1097.74 92.9108 1097.74 91.535C1097.74 90.1593 1098.85 89.0439 1100.23 89.0439H1182.96Z" fill="black"/>
<path d="M1074.96 79.1167C1074.96 59.8976 1059.38 44.3173 1040.16 44.3172C1020.94 44.3172 1005.36 59.8974 1005.36 79.1167C1005.36 98.336 1020.94 113.916 1040.16 113.916C1059.38 113.916 1074.96 98.3358 1074.96 79.1167ZM1079.95 79.1167C1079.95 101.087 1062.13 118.898 1040.16 118.898C1018.19 118.898 1000.38 101.088 1000.38 79.1167C1000.38 57.1459 1018.19 39.335 1040.16 39.335C1062.13 39.3351 1079.95 57.1459 1079.95 79.1167Z" fill="black"/>
<path d="M1055.98 63.4063C1056.95 62.4336 1058.53 62.4335 1059.5 63.4063C1060.48 64.3791 1060.48 65.9561 1059.5 66.9289L1031.83 94.5986L1020.81 83.5794C1019.84 82.6066 1019.84 81.0296 1020.81 80.0568C1021.79 79.0841 1023.36 79.0841 1024.34 80.0568L1031.83 87.5525L1055.98 63.4063Z" fill="black"/>
<path d="M1257.63 161.689C1259.01 161.689 1260.12 162.804 1260.12 164.18C1260.12 165.556 1259.01 166.671 1257.63 166.671H1101.1C1099.73 166.671 1098.61 165.556 1098.61 164.18C1098.61 162.804 1099.73 161.689 1101.1 161.689H1257.63Z" fill="black"/>
<path d="M1183.84 187.723C1185.22 187.723 1186.33 188.838 1186.33 190.214C1186.33 191.59 1185.22 192.705 1183.84 192.705H1101.1C1099.73 192.705 1098.61 191.59 1098.61 190.214C1098.61 188.838 1099.73 187.723 1101.1 187.723H1183.84Z" fill="black"/>
<path d="M1075.84 177.796C1075.84 158.577 1060.26 142.996 1041.04 142.996C1021.82 142.996 1006.24 158.577 1006.24 177.796C1006.24 197.015 1021.82 212.595 1041.04 212.595C1060.26 212.595 1075.84 197.015 1075.84 177.796ZM1080.82 177.796C1080.82 199.767 1063.01 217.578 1041.04 217.578C1019.07 217.578 1001.26 199.767 1001.26 177.796C1001.26 155.825 1019.07 138.014 1041.04 138.014C1063.01 138.014 1080.82 155.825 1080.82 177.796Z" fill="black"/>
<path d="M1056.86 162.086C1057.84 161.113 1059.41 161.113 1060.39 162.086C1061.36 163.058 1061.36 164.635 1060.39 165.608L1032.72 193.277L1021.7 182.268C1020.72 181.296 1020.72 179.719 1021.7 178.746C1022.67 177.773 1024.25 177.772 1025.22 178.744L1032.71 186.232L1056.86 162.086Z" fill="black"/>
<path d="M1258.51 260.368C1259.89 260.368 1261 261.484 1261 262.859C1261 264.235 1259.89 265.35 1258.51 265.35H1101.98C1100.61 265.35 1099.49 264.235 1099.49 262.859C1099.49 261.483 1100.61 260.368 1101.98 260.368H1258.51Z" fill="black"/>
<path d="M1184.72 286.402C1186.1 286.402 1187.22 287.518 1187.22 288.893C1187.22 290.269 1186.1 291.385 1184.72 291.385H1101.98C1100.61 291.385 1099.49 290.269 1099.49 288.893C1099.49 287.518 1100.61 286.402 1101.98 286.402H1184.72Z" fill="black"/>
<path d="M1076.72 276.475C1076.72 257.256 1061.14 241.676 1041.92 241.676C1022.7 241.676 1007.12 257.256 1007.12 276.475C1007.12 295.694 1022.7 311.275 1041.92 311.275C1061.14 311.275 1076.72 295.694 1076.72 276.475ZM1081.7 276.475C1081.7 298.446 1063.89 316.257 1041.92 316.257C1019.95 316.257 1002.14 298.446 1002.14 276.475C1002.14 254.504 1019.95 236.693 1041.92 236.693C1063.89 236.693 1081.7 254.504 1081.7 276.475Z" fill="black"/>
<path d="M1057.75 260.764C1058.72 259.791 1060.3 259.792 1061.27 260.765C1062.24 261.738 1062.24 263.315 1061.27 264.288L1033.59 291.957L1022.58 280.947C1021.61 279.975 1021.61 278.397 1022.58 277.424C1023.55 276.451 1025.13 276.451 1026.1 277.424L1033.59 284.911L1057.75 260.764Z" fill="black"/>
</svg>
