<svg width="1400" height="1200" viewBox="0 0 1400 1200" fill="none" xmlns="http://www.w3.org/2000/svg">
<path d="M1291.74 730.23H680.732C638.108 730.23 603.555 764.783 603.555 807.407V917.425C603.555 960.049 638.108 994.602 680.732 994.602H1291.74C1334.37 994.602 1368.92 960.049 1368.92 917.425V807.407C1368.92 764.783 1334.37 730.23 1291.74 730.23Z" fill="white"/>
<path d="M602.556 917.425V807.407C602.556 764.233 637.558 729.231 680.733 729.231H1175.77C1176.32 729.231 1176.77 729.678 1176.77 730.23C1176.77 730.781 1176.32 731.228 1175.77 731.228H680.733C638.661 731.228 604.553 765.336 604.553 807.407V917.425C604.554 959.496 638.662 993.603 680.733 993.603H1291.74C1333.82 993.603 1367.92 959.496 1367.92 917.425V807.407C1367.92 765.336 1333.82 731.228 1291.74 731.228H1201.28C1200.73 731.228 1200.28 730.781 1200.28 730.23C1200.28 729.678 1200.73 729.231 1201.28 729.231H1291.74C1334.92 729.231 1369.92 764.233 1369.92 807.407V917.425C1369.92 960.599 1334.92 995.6 1291.74 995.6H680.733C637.559 995.6 602.556 960.599 602.556 917.425Z" fill="black"/>
<path d="M1138.94 796.437C1139.49 796.437 1139.94 796.884 1139.94 797.435C1139.94 797.987 1139.49 798.434 1138.94 798.434H719.186C718.634 798.434 718.187 797.987 718.187 797.435C718.187 796.884 718.634 796.437 719.186 796.437H1138.94Z" fill="black"/>
<path d="M1138.94 846.062C1139.49 846.062 1139.94 846.509 1139.94 847.06C1139.94 847.612 1139.49 848.059 1138.94 848.059H719.186C718.634 848.059 718.187 847.612 718.187 847.06C718.187 846.509 718.634 846.062 719.186 846.062H1138.94Z" fill="black"/>
<path d="M884.569 895.697C885.12 895.697 885.567 896.144 885.567 896.696C885.567 897.247 885.12 897.694 884.569 897.694H719.186C718.634 897.694 718.187 897.247 718.187 896.696C718.187 896.144 718.634 895.697 719.186 895.697H884.569Z" fill="black"/>
<path d="M1399 1071.54C1399.55 1071.54 1400 1071.99 1400 1072.54C1400 1073.09 1399.55 1073.54 1399 1073.54H0.998573C0.447077 1073.54 0 1073.09 0 1072.54C0 1071.99 0.447077 1071.54 0.998573 1071.54H1399Z" fill="black"/>
<path d="M1210.33 349.812C1210.33 345.653 1206.96 342.282 1202.8 342.282H1173.13C1168.97 342.283 1165.6 345.653 1165.6 349.812V368.033C1165.6 371.498 1163.37 374.429 1160.19 375.627C1158.43 376.286 1156.68 377.017 1154.97 377.802L1154.97 377.801C1151.88 379.222 1148.21 378.742 1145.76 376.294L1132.83 363.444C1129.88 360.511 1125.12 360.519 1122.19 363.466L1101.26 384.511C1098.33 387.459 1098.34 392.232 1101.29 395.165L1114.31 408.115C1116.65 410.445 1117.32 413.949 1116.04 416.982C1115.26 418.818 1114.47 420.811 1113.8 422.53C1112.64 425.53 1109.82 427.508 1106.64 427.638L1106.33 427.645L1087.93 427.69H1087.93C1083.77 427.69 1080.41 431.074 1080.42 435.236L1080.49 464.917C1080.5 469.074 1083.88 472.437 1088.04 472.429L1106.26 472.386H1106.27C1109.73 472.386 1112.68 474.615 1113.88 477.787C1114.51 479.46 1115.2 481.118 1115.94 482.752L1116.07 483.043C1117.32 486.068 1116.8 489.583 1114.43 491.966L1101.57 504.87L1101.57 504.871C1098.63 507.82 1098.64 512.593 1101.59 515.524L1122.63 536.462C1125.57 539.401 1130.34 539.387 1133.27 536.439L1133.27 536.438L1146.23 523.433C1148.56 521.093 1152.06 520.426 1155.1 521.72C1156.94 522.5 1158.93 523.3 1160.65 523.965L1160.93 524.082C1163.77 525.307 1165.63 528.052 1165.75 531.127L1165.76 531.436V531.438L1165.79 549.838C1165.79 553.996 1169.16 557.369 1173.33 557.361L1203.01 557.315C1207.16 557.315 1210.54 553.93 1210.53 549.77L1210.5 531.558V531.556C1210.5 528.094 1212.73 525.144 1215.9 523.944C1217.58 523.31 1219.24 522.624 1220.87 521.876C1223.95 520.464 1227.63 520.955 1230.08 523.404L1242.98 536.273L1243.26 536.54C1246.22 539.21 1250.78 539.113 1253.63 536.256L1274.6 515.247C1277.54 512.299 1277.53 507.535 1274.58 504.594L1261.58 491.635C1259.24 489.303 1258.59 485.799 1259.87 482.768L1259.87 482.766C1260.81 480.562 1261.77 478.142 1262.5 476.233C1262.86 475.279 1263.17 474.453 1263.4 473.848C1263.51 473.546 1263.6 473.3 1263.67 473.12C1263.7 473.03 1263.73 472.957 1263.75 472.903C1263.75 472.877 1263.76 472.855 1263.77 472.839C1263.77 472.824 1263.78 472.817 1263.78 472.816L1264 472.125L1288 472.106C1292.16 472.106 1295.53 468.728 1295.52 464.57L1295.49 436.501L1295.48 436.511V434.895C1295.48 430.737 1292.1 427.367 1287.94 427.375H1269.73C1266.26 427.393 1263.31 425.151 1262.12 421.972C1261.49 420.3 1260.8 418.642 1260.05 417L1259.93 416.708C1258.67 413.681 1259.21 410.165 1261.59 407.784L1274.47 394.897L1274.74 394.615C1277.32 391.746 1277.32 387.383 1274.74 384.524L1274.47 384.243L1253.47 363.261C1250.53 360.321 1245.76 360.32 1242.82 363.26L1229.84 376.247C1227.5 378.586 1224 379.244 1220.97 377.948L1220.97 377.947C1219.13 377.159 1217.14 376.361 1215.42 375.696L1215.42 375.695C1212.34 374.488 1210.33 371.518 1210.33 368.213V349.812ZM1145.6 442.065C1150.66 415.214 1178.48 400.043 1203.49 409.678C1208.25 411.509 1212.53 414.171 1216.24 417.441C1216.93 418.052 1217.61 418.688 1218.26 419.341L1218.9 419.999L1218.9 420C1224 425.339 1227.69 431.94 1229.58 439.06C1231.16 445 1231.49 451.315 1230.3 457.579C1225.34 483.944 1198.42 499.047 1173.77 490.461V490.496L1172.42 489.974C1170.04 489.059 1167.78 487.94 1165.65 486.636C1161.39 484.029 1157.66 480.702 1154.58 476.881C1153.04 474.969 1151.66 472.928 1150.46 470.786C1149.26 468.644 1148.25 466.409 1147.42 464.102C1146.58 461.791 1145.96 459.407 1145.53 456.979C1144.68 452.119 1144.66 447.078 1145.6 442.065ZM1202.77 411.542C1178.91 402.352 1152.39 416.817 1147.57 442.434C1146.67 447.203 1146.69 452.001 1147.5 456.635C1147.9 458.953 1148.5 461.225 1149.29 463.426C1150.09 465.631 1151.06 467.765 1152.2 469.81C1153.35 471.856 1154.66 473.803 1156.14 475.627C1158.9 479.05 1162.19 482.051 1165.93 484.458L1166.69 484.932L1166.69 484.933C1168.51 486.05 1170.44 487.023 1172.46 487.842L1173.13 488.101C1196.98 497.291 1223.52 482.825 1228.34 457.208L1228.34 457.207C1229.47 451.252 1229.16 445.239 1227.65 439.573C1225.85 432.777 1222.32 426.474 1217.46 421.38C1216.64 420.532 1215.8 419.713 1214.92 418.94L1214.92 418.939C1211.38 415.82 1207.3 413.284 1202.77 411.542ZM1212.33 368.213C1212.33 370.701 1213.84 372.927 1216.15 373.833C1217.88 374.503 1219.89 375.311 1221.75 376.111C1224.05 377.089 1226.67 376.592 1228.43 374.834L1241.4 361.849C1245.12 358.129 1251.16 358.128 1254.88 361.848L1275.88 382.83C1279.6 386.55 1279.6 392.58 1275.88 396.308L1263 409.195C1261.24 410.957 1260.8 413.601 1261.77 415.943L1261.87 416.169L1261.87 416.174C1262.44 417.431 1262.98 418.701 1263.49 419.982L1263.99 421.267L1263.99 421.27C1264.91 423.738 1267.16 425.393 1269.72 425.378H1287.94C1292.67 425.369 1296.6 428.819 1297.34 433.343L1297.49 433.271L1297.52 464.566L1297.51 465.056C1297.26 470.091 1293.1 474.102 1288 474.102L1288 474.103L1265.42 474.12C1264.82 475.757 1263.25 479.937 1261.71 483.55C1260.77 485.771 1261.21 488.309 1262.83 490.054L1262.99 490.22L1262.99 490.221L1275.99 503.18C1279.6 506.783 1279.73 512.554 1276.35 516.302L1276.01 516.658L1255.04 537.666C1251.44 541.279 1245.67 541.403 1241.92 538.025L1241.57 537.687L1228.67 524.818L1228.67 524.817C1226.86 523.008 1224.09 522.595 1221.7 523.691L1221.7 523.692C1220.02 524.461 1218.32 525.163 1216.61 525.811C1214.15 526.741 1212.5 528.99 1212.5 531.556L1212.52 549.766L1212.51 550.256C1212.27 555.29 1208.11 559.311 1203.01 559.311L1203.01 559.312L1173.34 559.358C1168.07 559.368 1163.79 555.105 1163.79 549.841L1163.76 531.442L1163.76 531.209C1163.66 528.89 1162.27 526.833 1160.14 525.916L1159.92 525.828C1158.19 525.157 1156.18 524.35 1154.32 523.56L1154.32 523.559C1152.1 522.611 1149.56 523.056 1147.81 524.682L1147.65 524.843L1134.69 537.848L1134.69 537.847C1130.98 541.576 1124.95 541.597 1121.22 537.877L1100.18 516.94C1096.45 513.229 1096.44 507.191 1100.15 503.462L1113.01 490.557C1114.82 488.739 1115.22 485.981 1114.13 483.582L1114.13 483.58C1113.56 482.328 1113.02 481.059 1112.51 479.778L1112.01 478.493C1111.08 476.034 1108.83 474.383 1106.27 474.383L1088.05 474.428C1082.95 474.437 1078.77 470.447 1078.5 465.412L1078.49 464.922L1078.42 435.24C1078.41 429.981 1082.66 425.694 1087.92 425.692L1106.32 425.648L1106.56 425.643C1108.95 425.545 1111.07 424.055 1111.94 421.809C1112.61 420.082 1113.41 418.067 1114.2 416.203L1114.29 415.988C1115.11 413.821 1114.64 411.388 1113.07 409.698L1112.91 409.531L1099.88 396.581C1096.15 392.871 1096.13 386.833 1099.84 383.103L1120.77 362.058C1124.48 358.327 1130.51 358.318 1134.24 362.027L1147.16 374.877C1148.98 376.688 1151.74 377.091 1154.14 375.987L1154.14 375.986C1155.89 375.183 1157.68 374.434 1159.48 373.758L1159.71 373.667C1162.05 372.687 1163.6 370.515 1163.6 368.033V349.812C1163.6 344.55 1167.86 340.285 1173.13 340.285H1202.8C1208.06 340.285 1212.33 344.549 1212.33 349.812V368.213Z" fill="black"/>
<path d="M302.778 980.984C302.778 980.984 271.941 960.905 302.778 910.341L270.714 740.129L222.613 796.867C222.613 796.867 242.35 800.566 236.177 824.003C230.013 847.44 212.74 883.204 194.24 886.904C175.74 890.604 45.0021 873.34 32.6656 830.167C20.3291 787.003 51.1661 743.829 68.43 740.129L102.967 729.029C102.967 729.029 148.603 531.691 253.441 492.218C358.279 452.753 523.553 391.08 598.791 404.644C674.028 418.208 770.229 509.481 770.229 509.481C770.229 509.481 802.293 473.717 829.429 490.981C856.566 508.245 907.13 603.219 894.803 662.419C882.466 721.62 789.965 716.007 772.702 692.3L754.201 667.356L659.227 657.492L683.079 906.595C683.079 906.595 720.54 925.853 711.028 980.984H302.778Z" fill="white"/>
<path d="M663.316 429.077C663.868 429.078 664.315 429.525 664.315 430.076C664.315 430.627 663.868 431.074 663.316 431.074H432.623C432.071 431.074 431.624 430.627 431.624 430.076C431.624 429.524 432.071 429.077 432.623 429.077H663.316Z" fill="black"/>
<path d="M707.779 457.901C708.331 457.901 708.778 458.348 708.778 458.899C708.778 459.451 708.331 459.898 707.779 459.898H437.405C436.853 459.898 436.406 459.451 436.406 458.899C436.406 458.348 436.853 457.901 437.405 457.901H707.779Z" fill="black"/>
<path d="M745.052 486.724C745.603 486.724 746.05 487.172 746.05 487.723C746.05 488.275 745.603 488.722 745.052 488.722H442.189C441.638 488.722 441.191 488.275 441.191 487.723C441.191 487.172 441.638 486.724 442.189 486.724H745.052Z" fill="black"/>
<path d="M442.188 486.724C442.74 486.724 443.187 487.172 443.187 487.723C443.187 488.275 442.74 488.722 442.188 488.722H266.897C266.345 488.722 265.898 488.275 265.898 487.723C265.898 487.172 266.345 486.724 266.897 486.724H442.188Z" fill="black"/>
<path d="M765.862 515.55C766.413 515.55 766.86 515.997 766.86 516.548C766.86 517.1 766.413 517.547 765.862 517.547H215.277C214.726 517.547 214.279 517.1 214.279 516.548C214.279 515.997 214.726 515.55 215.277 515.55H765.862Z" fill="black"/>
<path d="M754.021 544.365C754.573 544.365 755.02 544.812 755.02 545.363C755.02 545.915 754.573 546.362 754.021 546.362H186.778C186.226 546.362 185.779 545.915 185.779 545.363C185.779 544.812 186.226 544.365 186.778 544.365H754.021Z" fill="black"/>
<path d="M753.579 573.188C754.13 573.189 754.577 573.636 754.577 574.187C754.577 574.738 754.13 575.185 753.579 575.186H165.957C165.406 575.186 164.958 574.738 164.958 574.187C164.958 573.635 165.406 573.188 165.957 573.188H753.579Z" fill="black"/>
<path d="M759.399 602.014C759.951 602.014 760.398 602.461 760.398 603.012C760.398 603.564 759.951 604.011 759.399 604.011H149.984C149.432 604.011 148.985 603.564 148.985 603.012C148.985 602.461 149.432 602.014 149.984 602.014H759.399Z" fill="black"/>
<path d="M766.375 630.837C766.926 630.837 767.373 631.284 767.373 631.836C767.373 632.387 766.926 632.834 766.375 632.834H136.718C136.166 632.834 135.719 632.387 135.719 631.836C135.719 631.284 136.166 630.837 136.718 630.837H766.375Z" fill="black"/>
<path d="M659.012 659.661C659.563 659.661 660.011 660.108 660.011 660.659C660.011 661.211 659.563 661.658 659.012 661.658H125.258C124.706 661.658 124.259 661.211 124.259 660.659C124.259 660.108 124.706 659.661 125.258 659.661H659.012Z" fill="black"/>
<path d="M767.675 659.661C768.227 659.661 768.674 660.108 768.674 660.659C768.674 661.211 768.227 661.658 767.675 661.658H693.431C692.879 661.658 692.432 661.211 692.432 660.659C692.432 660.108 692.879 659.661 693.431 659.661H767.675Z" fill="black"/>
<path d="M662.033 688.486C662.585 688.486 663.032 688.933 663.032 689.485C663.032 690.036 662.585 690.483 662.033 690.483H114.698C114.146 690.483 113.699 690.036 113.699 689.485C113.699 688.933 114.146 688.486 114.698 688.486H662.033Z" fill="black"/>
<path d="M664.932 717.301C665.484 717.301 665.931 717.748 665.931 718.3C665.931 718.851 665.484 719.298 664.932 719.298H105.946C105.394 719.298 104.947 718.851 104.947 718.3C104.947 717.748 105.394 717.301 105.946 717.301H664.932Z" fill="black"/>
<path d="M667.223 746.125C667.775 746.125 668.222 746.572 668.222 747.123C668.222 747.675 667.775 748.122 667.223 748.122H272.266C271.715 748.122 271.268 747.675 271.268 747.123C271.268 746.572 271.715 746.125 272.266 746.125H667.223Z" fill="black"/>
<path d="M263.414 746.125C263.966 746.125 264.413 746.572 264.413 747.123C264.413 747.675 263.966 748.122 263.414 748.122H162.728C162.176 748.122 161.729 747.675 161.729 747.123C161.729 746.572 162.176 746.125 162.728 746.125H263.414Z" fill="black"/>
<path d="M669.714 774.948C670.266 774.948 670.713 775.395 670.713 775.947C670.713 776.498 670.266 776.945 669.714 776.945H277.952C277.4 776.945 276.953 776.498 276.953 775.947C276.953 775.395 277.4 774.948 277.952 774.948H669.714Z" fill="black"/>
<path d="M673.198 803.774C673.749 803.774 674.196 804.221 674.196 804.772C674.196 805.324 673.749 805.771 673.198 805.771H283.637C283.086 805.771 282.639 805.324 282.639 804.772C282.639 804.221 283.086 803.774 283.637 803.774H673.198Z" fill="black"/>
<path d="M675.787 832.597C676.338 832.597 676.785 833.044 676.785 833.596C676.785 834.147 676.338 834.594 675.787 834.594H289.322C288.771 834.594 288.324 834.147 288.324 833.596C288.324 833.044 288.771 832.597 289.322 832.597H675.787Z" fill="black"/>
<path d="M678.785 861.423C679.336 861.423 679.784 861.87 679.784 862.421C679.784 862.973 679.336 863.42 678.785 863.42H294.107C293.556 863.42 293.108 862.973 293.108 862.421C293.108 861.87 293.556 861.423 294.107 861.423H678.785Z" fill="black"/>
<path d="M681.175 890.237C681.727 890.238 682.174 890.685 682.174 891.236C682.174 891.787 681.727 892.234 681.175 892.235H299.79C299.239 892.235 298.792 891.788 298.792 891.236C298.792 890.685 299.239 890.237 299.79 890.237H681.175Z" fill="black"/>
<path d="M698.214 919.061C698.765 919.061 699.212 919.508 699.212 920.06C699.212 920.611 698.765 921.058 698.214 921.058H297.355C296.803 921.058 296.356 920.611 296.356 920.06C296.356 919.508 296.803 919.061 297.355 919.061H698.214Z" fill="black"/>
<path d="M711.074 947.885C711.626 947.885 712.073 948.332 712.073 948.883C712.073 949.435 711.626 949.882 711.074 949.882H289.504C288.952 949.882 288.505 949.435 288.505 948.883C288.505 948.332 288.952 947.885 289.504 947.885H711.074Z" fill="black"/>
<path d="M527.672 406.069C555.423 401.572 579.992 400.24 598.967 403.661C636.828 410.486 679.847 436.822 713.314 461.344C730.067 473.62 744.464 485.47 754.672 494.251C759.777 498.642 763.836 502.266 766.619 504.794C768.011 506.057 769.083 507.047 769.809 507.721C769.945 507.848 770.07 507.964 770.182 508.068C770.392 507.848 770.648 507.582 770.948 507.277C771.89 506.321 773.263 504.977 774.995 503.421C778.456 500.309 783.365 496.333 789.142 492.898C800.649 486.057 815.906 481.195 829.965 490.139C836.927 494.567 845.268 503.881 853.65 516.164C862.053 528.477 870.562 543.873 877.83 560.575C892.347 593.933 902.008 632.714 895.78 662.623C889.484 692.836 862.733 706.387 835.712 709.443C822.18 710.973 808.49 709.89 797.077 706.924C785.714 703.97 776.422 699.099 771.899 692.894L753.66 668.303L660.337 658.611L684.022 905.975C684.306 906.137 684.705 906.373 685.202 906.686C686.235 907.338 687.692 908.325 689.404 909.683C692.829 912.398 697.285 916.597 701.439 922.543C709.762 934.46 716.813 953.323 712.012 981.154L711.868 981.983H302.482L302.233 981.821L302.778 980.984L302.231 981.82C302.23 981.82 302.23 981.819 302.229 981.818C302.227 981.817 302.225 981.816 302.222 981.814C302.217 981.811 302.209 981.806 302.2 981.8C302.181 981.787 302.156 981.769 302.124 981.747C302.059 981.702 301.966 981.638 301.85 981.553C301.616 981.382 301.284 981.13 300.876 980.792C300.061 980.117 298.94 979.102 297.699 977.725C295.217 974.972 292.247 970.766 290.269 964.945C286.314 953.309 286.392 935.445 301.725 910.15L270.12 742.372L224.391 796.313C224.847 796.458 225.384 796.645 225.977 796.886C227.807 797.63 230.195 798.882 232.388 800.914C234.589 802.952 236.589 805.77 237.626 809.616C238.63 813.338 238.716 817.965 237.286 823.699L237.142 824.257C234.039 836.058 228.145 850.947 220.691 863.368C216.964 869.58 212.827 875.205 208.43 879.523C204.042 883.832 199.326 886.905 194.436 887.883C191.997 888.371 187.827 888.499 182.454 888.297C177.052 888.093 170.352 887.551 162.807 886.662C147.718 884.885 129.212 881.718 110.896 877.081C92.588 872.446 74.4246 866.332 60.0437 858.646C45.7106 850.986 34.9066 841.645 31.7053 830.442C25.4512 808.559 30.1485 786.714 38.5539 769.902C42.7583 761.493 47.9043 754.314 53.1093 748.991C58.2658 743.717 63.5741 740.171 68.1581 739.167L102.123 728.251C102.125 728.244 102.127 728.237 102.129 728.23C102.219 727.853 102.355 727.294 102.536 726.564C102.897 725.104 103.439 722.959 104.167 720.216C105.623 714.732 107.819 706.856 110.782 697.283C116.707 678.139 125.701 652.197 137.979 625.014C150.256 597.836 165.829 569.39 184.918 545.252C204.003 521.12 226.649 501.238 253.089 491.283C305.504 471.552 373.066 446.255 436.936 427.587C468.871 418.252 499.903 410.57 527.672 406.069ZM598.613 405.627C579.97 402.266 555.665 403.556 527.991 408.041C500.334 412.523 469.388 420.182 437.496 429.504C373.709 448.147 306.215 473.418 253.792 493.152C227.814 502.934 205.441 522.521 186.484 546.492C167.531 570.457 152.037 598.746 139.8 625.836C127.565 652.923 118.597 678.783 112.689 697.873C109.735 707.417 107.547 715.268 106.097 720.729C105.372 723.46 104.833 725.594 104.474 727.043C104.295 727.768 104.161 728.322 104.072 728.694C104.027 728.88 103.994 729.021 103.972 729.115C103.961 729.162 103.953 729.197 103.948 729.22C103.945 729.232 103.942 729.241 103.941 729.246C103.94 729.249 103.94 729.251 103.94 729.252L102.967 729.029L103.939 729.254L103.811 729.806L68.7354 741.08L68.6876 741.096L68.6389 741.105C64.6052 741.97 59.6098 745.2 54.5379 750.387C49.4911 755.548 44.4612 762.553 40.3404 770.795C32.0954 787.286 27.543 808.611 33.6254 829.893C36.5925 840.276 46.7571 849.282 60.9848 856.885C75.1649 864.464 93.1553 870.529 111.386 875.144C129.609 879.758 148.029 882.91 163.041 884.679C170.547 885.563 177.192 886.1 182.529 886.301C187.894 886.503 191.857 886.362 194.044 885.925C198.403 885.053 202.785 882.268 207.031 878.098C211.268 873.937 215.305 868.462 218.979 862.34C226.327 850.096 232.151 835.384 235.211 823.749L235.476 822.69C236.704 817.472 236.568 813.363 235.698 810.136C234.771 806.697 232.993 804.196 231.031 802.379C229.062 800.556 226.902 799.418 225.225 798.736C224.388 798.396 223.677 798.171 223.181 798.033C222.933 797.964 222.738 797.917 222.609 797.888C222.545 797.873 222.497 797.862 222.466 797.855C222.451 797.852 222.44 797.85 222.434 797.849L222.428 797.848L220.74 797.532L271.307 737.885L303.83 910.533L303.63 910.861C288.327 935.955 288.422 953.307 292.159 964.302C294.035 969.821 296.846 973.797 299.183 976.388C300.351 977.684 301.399 978.633 302.149 979.253C302.524 979.564 302.825 979.792 303.028 979.94C303.05 979.956 303.072 979.971 303.092 979.986H710.181C714.611 953.143 707.749 935.066 699.802 923.687C695.779 917.928 691.465 913.867 688.163 911.248C686.512 909.939 685.116 908.992 684.137 908.375C683.648 908.067 683.264 907.841 683.004 907.694C682.875 907.62 682.776 907.566 682.712 907.531C682.68 907.513 682.655 907.501 682.641 907.493C682.633 907.489 682.628 907.487 682.625 907.485L682.622 907.483L682.137 907.233L682.085 906.69L658.117 656.373L754.742 666.408L773.503 691.705L773.509 691.712C777.62 697.357 786.361 702.075 797.579 704.991C808.75 707.895 822.194 708.961 835.488 707.458C862.117 704.447 887.785 691.203 893.825 662.216C899.925 632.925 890.467 594.617 875.999 561.372C868.776 544.773 860.326 529.489 852.001 517.289C843.656 505.06 835.501 496.027 828.894 491.824C815.816 483.504 801.472 487.891 790.163 494.616C784.532 497.964 779.729 501.851 776.33 504.906C774.632 506.432 773.288 507.747 772.371 508.679C771.912 509.145 771.56 509.515 771.323 509.767C771.206 509.893 771.116 509.989 771.057 510.054C771.028 510.086 771.006 510.11 770.992 510.126C770.985 510.134 770.98 510.14 770.976 510.143L770.971 510.148L770.286 510.913L769.541 510.206L770.228 509.481C769.541 510.206 769.54 510.205 769.54 510.205C769.539 510.204 769.538 510.203 769.537 510.202C769.534 510.199 769.53 510.195 769.524 510.19C769.513 510.179 769.496 510.163 769.473 510.141C769.427 510.098 769.358 510.033 769.267 509.947C769.084 509.775 768.81 509.519 768.45 509.185C767.729 508.515 766.662 507.53 765.276 506.272C762.505 503.755 758.46 500.142 753.371 495.765C743.19 487.008 728.834 475.193 712.133 462.955C678.689 438.45 635.989 412.365 598.613 405.627Z" fill="black"/>
<path d="M651.763 544.267C652.313 544.231 652.788 544.648 652.825 545.198L660.224 657.435C660.261 657.985 659.844 658.46 659.294 658.497C658.744 658.533 658.267 658.117 658.231 657.567L650.832 545.329C650.795 544.778 651.213 544.303 651.763 544.267Z" fill="black"/>
<path d="M288.436 715.026C288.768 714.586 289.394 714.499 289.834 714.831C290.274 715.163 290.362 715.789 290.03 716.23L270.14 742.59C269.807 743.03 269.181 743.117 268.741 742.785C268.301 742.453 268.214 741.827 268.546 741.387L288.436 715.026Z" fill="black"/>
<path d="M769.433 508.885C769.767 508.447 770.394 508.362 770.833 508.696C771.271 509.03 771.356 509.658 771.022 510.096L771.019 510.1C771.016 510.104 771.011 510.11 771.005 510.118C770.993 510.135 770.974 510.161 770.948 510.196C770.896 510.267 770.816 510.375 770.714 510.52C770.508 510.809 770.207 511.244 769.829 511.82C769.072 512.972 768.007 514.687 766.788 516.926C764.349 521.403 761.296 527.966 758.853 536.29C753.968 552.929 751.518 576.61 761.307 604.75C761.488 605.271 761.213 605.841 760.692 606.022C760.171 606.203 759.602 605.927 759.421 605.407C749.474 576.81 751.955 552.697 756.936 535.727C759.426 527.246 762.54 520.55 765.034 515.97C766.282 513.68 767.375 511.917 768.16 510.723C768.552 510.126 768.867 509.671 769.086 509.363C769.195 509.209 769.281 509.092 769.34 509.012C769.369 508.972 769.391 508.941 769.407 508.92C769.415 508.91 769.421 508.902 769.425 508.896C769.428 508.893 769.429 508.891 769.43 508.889L769.432 508.887C769.433 508.887 769.434 508.885 770.178 509.453L769.433 508.885Z" fill="black"/>
<path d="M781.133 578.86C781.258 578.323 781.796 577.989 782.333 578.115C782.87 578.24 783.203 578.777 783.077 579.314C777.329 603.884 784.068 626.327 792.295 642.679C796.406 650.849 800.879 657.478 804.323 662.063C806.045 664.355 807.508 666.134 808.538 667.338C809.053 667.94 809.461 668.398 809.737 668.704C809.876 668.857 809.982 668.972 810.052 669.048C810.088 669.086 810.114 669.115 810.131 669.133C810.14 669.142 810.146 669.148 810.15 669.153C810.152 669.155 810.154 669.157 810.155 669.157V669.158L810.222 669.235C810.532 669.636 810.495 670.214 810.12 670.57C809.72 670.95 809.088 670.934 808.708 670.534L809.431 669.846C808.723 670.519 808.708 670.534 808.707 670.533C808.706 670.533 808.706 670.532 808.705 670.531C808.703 670.53 808.702 670.527 808.699 670.525C808.694 670.519 808.685 670.511 808.676 670.5C808.655 670.479 808.626 670.448 808.588 670.407C808.512 670.325 808.4 670.203 808.256 670.044C807.968 669.725 807.549 669.253 807.022 668.637C805.967 667.404 804.476 665.592 802.726 663.263C799.228 658.605 794.687 651.875 790.511 643.576C782.165 626.988 775.24 604.05 781.133 578.86Z" fill="black"/>
<path d="M141.348 740.992C168.612 744.974 189.141 758.827 202.837 771.652C209.686 778.067 214.837 784.233 218.277 788.799C219.997 791.082 221.291 792.967 222.156 794.284C222.589 794.942 222.915 795.459 223.133 795.812C223.242 795.989 223.325 796.125 223.381 796.218C223.409 796.264 223.43 796.3 223.444 796.324C223.451 796.336 223.457 796.346 223.461 796.352C223.463 796.355 223.464 796.358 223.465 796.36C223.465 796.361 223.466 796.363 223.467 796.363C223.465 796.365 223.43 796.386 222.605 796.867L223.467 796.364C223.744 796.84 223.584 797.451 223.108 797.729C222.661 797.99 222.095 797.865 221.797 797.455L221.742 797.37C221.741 797.369 221.74 797.366 221.739 797.364C221.736 797.359 221.731 797.352 221.725 797.341C221.713 797.32 221.693 797.288 221.667 797.246C221.616 797.16 221.539 797.031 221.434 796.862C221.225 796.524 220.909 796.022 220.487 795.38C219.643 794.096 218.374 792.247 216.682 790.001C213.297 785.508 208.223 779.431 201.473 773.11C187.968 760.464 167.797 746.873 141.059 742.968C140.513 742.888 140.136 742.381 140.215 741.836C140.295 741.29 140.802 740.912 141.348 740.992Z" fill="black"/>
<path d="M76.9677 759.117C111.034 755.713 135.238 760.665 150.955 766.501C158.811 769.417 164.539 772.553 168.315 774.969C170.202 776.177 171.601 777.204 172.533 777.934C172.999 778.3 173.348 778.591 173.584 778.793C173.701 778.894 173.791 778.973 173.852 779.028C173.882 779.055 173.906 779.076 173.922 779.091C173.93 779.098 173.937 779.104 173.941 779.109L173.949 779.116C173.948 779.118 173.921 779.148 173.389 779.718L173.95 779.117C174.353 779.494 174.374 780.125 173.998 780.528C173.621 780.931 172.99 780.953 172.587 780.576L172.585 780.575C172.583 780.573 172.579 780.57 172.573 780.564C172.562 780.554 172.544 780.537 172.519 780.515C172.468 780.469 172.389 780.4 172.283 780.308C172.069 780.125 171.743 779.853 171.301 779.506C170.417 778.813 169.069 777.823 167.238 776.651C163.575 774.307 157.974 771.237 150.259 768.373C134.835 762.646 110.938 757.73 77.1666 761.104C76.618 761.159 76.1285 760.758 76.0734 760.21C76.0186 759.661 76.419 759.172 76.9677 759.117Z" fill="black"/>
<path d="M191.154 847.385C207.489 904.213 240.97 1022.73 255.021 1072.54H113.39C83.8442 1013.49 25.0675 882.725 46.8436 815.989C64.9648 760.462 114.104 775.108 147.828 793.41C168.927 804.862 184.513 824.319 191.146 847.385H191.154Z" fill="white"/>
<path d="M91.4324 776.017C110.483 775.01 131.402 783.36 148.304 792.532C169.419 803.992 185.07 823.381 191.892 846.387H191.907L192.115 847.109C208.45 903.94 241.932 1022.46 255.982 1072.27L256.34 1073.54H112.774L112.498 1072.98C97.7151 1043.44 75.6085 995.937 59.9207 947.454C52.0769 923.213 45.8301 898.702 42.9099 876.053C39.9913 853.418 40.3854 832.564 45.8949 815.68C50.4704 801.659 57.0332 791.981 64.9009 785.683C72.7731 779.381 81.8788 776.521 91.4324 776.017ZM147.352 794.287C130.529 785.158 110.017 777.035 91.5377 778.011C82.3258 778.498 73.641 781.245 66.1491 787.242C58.653 793.243 52.2785 802.556 47.7935 816.299C42.415 832.782 41.9896 853.3 44.8904 875.798C47.7896 898.283 53.9998 922.666 61.8213 946.839C77.3674 994.884 99.2473 1042 114.009 1071.54H253.702C239.508 1021.23 206.672 905.003 190.402 848.384H190.394L190.186 847.661C183.626 824.851 168.215 805.611 147.352 794.287Z" fill="black"/>
<path d="M711.028 980.984L732.497 1072.54L294.8 1071.24L302.778 980.984H711.028Z" fill="black"/>
<path d="M711.82 979.986L733.758 1073.54L293.71 1072.23L301.864 979.986H711.82ZM295.891 1070.24L731.236 1071.54L710.236 981.983H303.692L295.891 1070.24Z" fill="black"/>
<path d="M503.221 182.451C503.221 182.451 520.973 232.347 535.8 284.364C550.871 337.266 517.598 391.783 463.685 402.721L482.186 505.771C482.186 505.771 376.581 509.092 347.395 454.106L325.818 239.134L389.721 172.488L497.365 165.115L503.239 182.451H503.221Z" fill="white"/>
<path d="M504.612 183.392C504.711 183.672 504.827 183.997 504.956 184.365C505.471 185.833 506.222 187.987 507.17 190.734C509.067 196.228 511.752 204.094 514.899 213.586C521.192 232.57 529.341 258.063 536.76 284.09C551.901 337.24 518.757 391.999 464.839 403.499L483.372 506.733L482.217 506.769L482.186 505.771L482.215 506.769C482.214 506.769 482.212 506.77 482.211 506.77C482.207 506.77 482.202 506.77 482.195 506.77C482.182 506.77 482.162 506.771 482.136 506.772C482.084 506.773 482.006 506.776 481.905 506.778C481.701 506.783 481.4 506.788 481.007 506.793C480.22 506.804 479.065 506.813 477.586 506.805C474.627 506.788 470.372 506.703 465.176 506.428C454.786 505.878 440.623 504.571 425.538 501.537C395.452 495.487 361.334 482.498 346.513 454.574L346.421 454.401L324.779 238.775L389.267 171.518L497.297 164.118L498.063 164.066L504.612 183.392ZM390.173 173.456L326.858 239.491L348.369 453.809C362.782 480.754 395.983 493.556 425.932 499.579C440.896 502.588 454.958 503.887 465.282 504.434C470.442 504.706 474.665 504.792 477.596 504.808C479.062 504.816 480.204 504.807 480.978 504.796C480.984 504.796 480.989 504.795 480.995 504.795L462.53 401.936L463.487 401.742C516.83 390.92 549.75 336.978 534.84 284.638C527.431 258.648 519.291 233.184 513.003 214.215C509.859 204.732 507.177 196.873 505.282 191.386C504.335 188.642 503.585 186.491 503.071 185.027C502.814 184.294 502.616 183.734 502.483 183.356C502.416 183.167 502.365 183.025 502.332 182.929C502.315 182.881 502.302 182.845 502.294 182.821C502.289 182.809 502.286 182.8 502.284 182.794C502.283 182.791 502.281 182.789 502.281 182.788V182.786L501.806 181.452H501.847L496.666 166.163L390.173 173.456Z" fill="black"/>
<path d="M463.686 402.722C463.686 402.722 414.439 403.48 394.188 387.552C393.177 386.758 391.742 387.715 392.121 388.942C396.038 401.558 412.327 437.9 470.508 440.734L463.686 402.713V402.722Z" fill="black"/>
<path d="M391.166 389.236C390.483 387.024 393.066 385.401 394.805 386.767L395.272 387.127C400.146 390.817 406.692 393.598 413.868 395.683C421.264 397.832 429.262 399.222 436.651 400.119C444.037 401.016 450.797 401.417 455.71 401.594C458.166 401.682 460.16 401.715 461.537 401.725C462.226 401.731 462.761 401.73 463.123 401.728C463.304 401.728 463.442 401.726 463.534 401.725C463.58 401.725 463.614 401.725 463.637 401.724H463.67C463.67 401.73 463.671 401.795 463.684 402.624L464.668 402.537L471.712 441.792L470.459 441.731C441.148 440.303 422.302 430.425 410.285 419.238C398.284 408.066 393.159 395.654 391.167 389.238L391.166 389.236ZM393.374 388.26C393.315 388.26 393.249 388.279 393.189 388.319C393.129 388.359 393.091 388.41 393.073 388.457C393.058 388.496 393.047 388.555 393.075 388.646L393.473 389.876C395.649 396.351 400.707 407.593 411.646 417.776C423.128 428.464 441.153 438.047 469.302 439.669L462.852 403.725C462.507 403.725 462.06 403.727 461.522 403.723C460.127 403.712 458.115 403.679 455.638 403.59C450.685 403.411 443.867 403.007 436.41 402.102C428.957 401.197 420.845 399.79 413.311 397.601C406.025 395.484 399.215 392.618 394.064 388.718L393.57 388.337C393.492 388.276 393.426 388.261 393.374 388.26Z" fill="black"/>
<path d="M521.939 235.273C521.939 235.273 545.168 172.164 510.577 141.129C510.577 141.129 503.709 131.328 491.427 137.212C491.427 137.212 482.059 126.022 469.867 132.348C469.867 132.348 464.02 122.827 445.14 130.354C445.14 130.354 425.846 122.782 416.064 137.411C416.064 137.411 396.119 131.337 393.177 145.659C393.177 145.659 369.019 141.716 367.485 161.308C367.485 161.308 347.414 157.093 348.298 179.925C348.298 179.925 334.058 177.425 330.421 190.493C330.421 190.493 314.926 188.679 310.721 203.687C310.721 203.687 302.129 207.071 305.983 223.387C305.983 223.387 300.09 234.099 310.062 246.102C310.062 246.102 302.102 258.104 315.179 274.61C315.179 274.61 312.642 286.098 325.457 293.453L362.873 286.739C362.873 286.739 394.405 285.674 381.743 266.344C381.743 266.344 394.026 246.309 392.6 229.695C391.734 219.642 397.608 210.112 407.237 207.089C414.701 204.743 424.591 205.167 436.892 212.955C456.601 225.436 474.344 214.399 484.704 204.625C491.436 198.281 502.157 198.768 508.14 205.816C513.997 212.729 517.706 223.315 521.948 235.291L521.939 235.273Z" fill="black"/>
<path d="M445.126 129.287C454.542 125.607 460.878 126.066 464.935 127.594C466.979 128.364 468.408 129.392 469.334 130.243C469.677 130.557 469.95 130.848 470.16 131.092C476.314 128.213 481.77 129.493 485.679 131.522C487.704 132.573 489.323 133.827 490.436 134.816C490.962 135.284 491.376 135.696 491.67 136.002C497.805 133.294 502.691 134.298 506.074 136.081C507.807 136.995 509.127 138.102 510.014 138.98C510.458 139.42 510.797 139.804 511.027 140.083C511.143 140.223 511.231 140.337 511.293 140.418C511.303 140.432 511.313 140.445 511.322 140.457C528.899 156.291 531.714 180.189 530.226 199.915C529.478 209.817 527.642 218.734 525.995 225.174C525.171 228.396 524.393 231.001 523.821 232.803C523.534 233.704 523.299 234.404 523.135 234.881C523.053 235.119 522.989 235.302 522.945 235.425C522.923 235.487 522.906 235.535 522.894 235.567C522.888 235.583 522.884 235.595 522.881 235.604C522.879 235.608 522.879 235.611 522.878 235.614C522.877 235.615 522.877 235.616 522.877 235.617C522.876 235.617 522.866 235.613 522.044 235.31L521.05 235.729L521.041 235.71L520.854 235.327L520.878 235.263C516.667 223.374 513.033 213.136 507.378 206.462V206.461C501.773 199.86 491.713 199.391 485.388 205.351C480.151 210.292 472.992 215.611 464.587 218.094C456.139 220.589 446.475 220.205 436.358 213.799C424.648 206.385 415.283 205.824 408.213 207.839L407.537 208.042C398.39 210.913 392.765 219.984 393.595 229.609L393.653 230.413C394.154 238.738 391.45 247.721 388.631 254.627C387.17 258.207 385.663 261.261 384.523 263.421C383.952 264.5 383.472 265.358 383.134 265.947C383.053 266.088 382.979 266.213 382.915 266.323C385.88 271.067 386.362 274.945 385.058 278.07C383.732 281.248 380.683 283.331 377.447 284.709C374.184 286.099 370.543 286.851 367.746 287.259C366.342 287.463 365.138 287.583 364.283 287.652C363.855 287.686 363.514 287.707 363.279 287.72C363.161 287.726 363.07 287.731 363.007 287.733C362.997 287.734 362.986 287.734 362.977 287.734L325.633 294.437L325.275 294.5L324.96 294.32C318.304 290.499 315.575 285.556 314.544 281.521C314.033 279.517 313.945 277.755 313.985 276.489C314.005 275.855 314.056 275.344 314.105 274.985C314.11 274.947 314.116 274.91 314.121 274.876C307.674 266.583 306.352 259.345 306.721 254.097C306.906 251.449 307.52 249.333 308.093 247.871C308.375 247.152 308.647 246.589 308.854 246.198C304.073 240.186 303.053 234.471 303.285 230.19C303.404 227.996 303.851 226.193 304.27 224.934C304.48 224.303 304.684 223.807 304.838 223.463C304.87 223.39 304.902 223.323 304.93 223.264C303.076 215.13 304.244 210.033 306.042 206.919C306.948 205.35 307.994 204.321 308.83 203.679C309.247 203.358 309.611 203.135 309.879 202.988C309.882 202.987 309.884 202.985 309.887 202.983C312.165 195.399 317.278 191.987 321.841 190.512C324.148 189.766 326.31 189.513 327.892 189.446C328.629 189.415 329.245 189.425 329.696 189.443C331.766 183.049 336.371 180.373 340.48 179.34C342.598 178.809 344.585 178.709 346.038 178.741C346.507 178.751 346.923 178.775 347.272 178.803C347.227 173.549 348.313 169.68 350.076 166.855C351.971 163.819 354.593 162.08 357.216 161.117C359.825 160.16 362.439 159.968 364.382 160.008C365.274 160.026 366.033 160.094 366.597 160.163C367.163 155.593 368.974 152.263 371.454 149.878C374.105 147.328 377.453 145.922 380.677 145.165C383.904 144.407 387.065 144.286 389.406 144.351C390.58 144.384 391.555 144.463 392.24 144.535C392.3 144.541 392.357 144.549 392.412 144.555C393.306 141.213 395.146 138.948 397.46 137.484C399.943 135.914 402.902 135.308 405.673 135.167C408.452 135.026 411.118 135.349 413.078 135.703C414.062 135.88 414.874 136.067 415.443 136.21C415.514 136.227 415.581 136.246 415.644 136.262C420.78 129.068 428.2 127.333 434.281 127.398C437.401 127.431 440.198 127.936 442.211 128.43C443.219 128.677 444.035 128.922 444.602 129.108C444.812 129.176 444.987 129.238 445.126 129.287ZM464.231 129.463C460.695 128.132 454.777 127.587 445.51 131.281L445.143 131.427L444.775 131.283H444.774C444.773 131.283 444.771 131.281 444.768 131.28C444.76 131.277 444.749 131.273 444.732 131.267C444.7 131.254 444.649 131.236 444.582 131.212C444.448 131.163 444.245 131.092 443.982 131.006C443.456 130.834 442.688 130.603 441.735 130.369C439.824 129.901 437.185 129.426 434.259 129.395C428.411 129.333 421.531 131.031 416.893 137.966L416.482 138.582L415.773 138.366V138.367L415.772 138.366C415.77 138.365 415.767 138.365 415.763 138.364C415.755 138.362 415.743 138.357 415.726 138.352C415.692 138.342 415.639 138.328 415.57 138.308C415.431 138.269 415.224 138.213 414.958 138.146C414.425 138.013 413.656 137.837 412.724 137.669C410.852 137.331 408.349 137.031 405.774 137.161C403.192 137.293 400.612 137.854 398.528 139.172C396.478 140.469 394.837 142.541 394.155 145.86L393.962 146.799L393.016 146.645H393.014C393.012 146.645 393.009 146.644 393.005 146.643C392.995 146.642 392.98 146.639 392.96 146.636C392.918 146.63 392.855 146.62 392.771 146.609C392.603 146.586 392.352 146.555 392.031 146.521C391.389 146.454 390.465 146.379 389.351 146.348C387.114 146.285 384.138 146.403 381.134 147.108C378.127 147.814 375.148 149.096 372.838 151.317C370.547 153.52 368.846 156.713 368.48 161.386L368.391 162.519L367.28 162.285C367.279 162.285 367.276 162.284 367.273 162.284C367.266 162.282 367.254 162.28 367.239 162.277C367.207 162.271 367.156 162.262 367.089 162.251C366.955 162.228 366.754 162.195 366.496 162.162C365.978 162.095 365.234 162.023 364.341 162.005C362.549 161.968 360.202 162.149 357.903 162.992C355.619 163.83 353.389 165.318 351.77 167.912C350.145 170.515 349.08 174.321 349.296 179.887L349.344 181.123L348.125 180.909C348.125 180.908 348.124 180.909 348.122 180.909C348.118 180.908 348.11 180.906 348.099 180.905C348.077 180.901 348.042 180.896 347.996 180.889C347.901 180.875 347.757 180.856 347.571 180.836C347.199 180.796 346.658 180.751 345.995 180.737C344.663 180.708 342.863 180.801 340.967 181.277C337.21 182.221 333.082 184.654 331.383 190.761L331.154 191.584L330.305 191.484C330.304 191.484 330.303 191.484 330.301 191.484C330.296 191.484 330.288 191.483 330.276 191.481C330.252 191.479 330.213 191.476 330.162 191.472C330.059 191.463 329.902 191.451 329.7 191.441C329.293 191.422 328.702 191.411 327.976 191.441C326.522 191.503 324.547 191.735 322.455 192.412C318.305 193.753 313.677 196.839 311.682 203.957L311.548 204.434L311.086 204.616C311.079 204.619 311.065 204.625 311.046 204.634C311.002 204.654 310.931 204.689 310.838 204.74C310.651 204.842 310.374 205.011 310.046 205.262C309.391 205.765 308.531 206.602 307.771 207.918C306.263 210.53 305.071 215.181 306.955 223.158L307.042 223.531L306.858 223.867H306.859L306.858 223.868C306.857 223.87 306.854 223.876 306.85 223.883C306.843 223.898 306.83 223.923 306.812 223.957C306.778 224.027 306.725 224.135 306.66 224.279C306.531 224.568 306.352 225.002 306.165 225.563C305.791 226.687 305.387 228.313 305.279 230.298C305.065 234.245 306.017 239.671 310.83 245.464L311.304 246.035L310.894 246.652V246.653C310.893 246.656 310.889 246.662 310.884 246.67C310.873 246.687 310.855 246.715 310.832 246.754C310.785 246.832 310.714 246.955 310.626 247.12C310.451 247.449 310.208 247.948 309.952 248.6C309.441 249.904 308.882 251.821 308.713 254.236C308.376 259.042 309.572 265.925 315.961 273.99L316.256 274.362L316.153 274.825C316.153 274.828 316.152 274.833 316.151 274.84C316.147 274.855 316.142 274.882 316.136 274.918C316.123 274.99 316.104 275.103 316.084 275.251C316.044 275.55 315.998 275.993 315.981 276.551C315.946 277.669 316.024 279.24 316.48 281.027C317.37 284.514 319.716 288.9 325.645 292.405L362.696 285.757L362.768 285.744L362.839 285.741C362.839 285.741 362.841 285.741 362.843 285.741C362.846 285.741 362.851 285.74 362.857 285.74C362.871 285.74 362.892 285.739 362.92 285.738C362.975 285.736 363.059 285.732 363.169 285.726C363.39 285.713 363.714 285.693 364.124 285.66C364.944 285.595 366.104 285.48 367.458 285.283C370.177 284.887 373.627 284.165 376.665 282.872C379.728 281.568 382.189 279.76 383.215 277.301C384.214 274.905 383.973 271.572 380.908 266.891L380.56 266.362L380.892 265.822V265.821L380.893 265.819C380.894 265.817 380.896 265.814 380.899 265.81C380.904 265.801 380.912 265.788 380.923 265.77C380.945 265.733 380.978 265.678 381.022 265.605C381.109 265.458 381.238 265.239 381.402 264.953C381.73 264.382 382.198 263.545 382.757 262.487C383.874 260.371 385.35 257.378 386.781 253.873C389.656 246.831 392.297 237.848 391.605 229.781C390.702 219.3 396.826 209.311 406.938 206.136L407.674 205.916C415.358 203.728 425.303 204.436 437.426 212.111C447.018 218.185 456.08 218.523 464.02 216.177C472.004 213.819 478.896 208.732 484.019 203.899C491.047 197.276 502.185 197.663 508.599 204.825L508.902 205.17V205.171C514.438 211.706 518.071 221.398 521.912 232.209C521.914 232.205 521.916 232.202 521.917 232.198C522.48 230.427 523.247 227.86 524.061 224.68C525.688 218.317 527.497 209.518 528.233 199.763C529.709 180.205 526.853 157.074 509.91 141.872L509.825 141.795L509.759 141.702V141.701C509.757 141.698 509.754 141.695 509.75 141.689C509.74 141.676 509.724 141.654 509.701 141.624C509.656 141.564 509.584 141.472 509.488 141.355C509.294 141.121 509.001 140.786 508.61 140.399C507.826 139.623 506.661 138.648 505.142 137.847C502.144 136.266 497.689 135.32 491.859 138.113L491.158 138.448L490.662 137.854L490.659 137.851C490.656 137.847 490.651 137.841 490.643 137.832C490.629 137.815 490.604 137.789 490.572 137.752C490.508 137.68 490.409 137.571 490.278 137.433C490.014 137.156 489.621 136.764 489.11 136.309C488.085 135.398 486.6 134.25 484.759 133.294C481.095 131.392 476.058 130.261 470.327 133.234L469.503 133.663L469.019 132.876C469.018 132.875 469.017 132.872 469.014 132.868C469.008 132.858 468.996 132.84 468.978 132.815C468.943 132.764 468.884 132.683 468.8 132.578C468.631 132.368 468.363 132.063 467.982 131.713C467.222 131.014 466.008 130.133 464.231 129.463ZM316.154 274.824H316.153V274.823H316.154V274.824Z" fill="black"/>
<path d="M336.845 330.111C352.839 330.111 365.805 317.145 365.805 301.151C365.805 285.157 352.839 272.192 336.845 272.192C320.851 272.192 307.885 285.157 307.885 301.151C307.885 317.145 320.851 330.111 336.845 330.111Z" fill="white"/>
<path d="M325.699 275.683C332.849 272.901 341.057 272.854 348.628 276.187C356.198 279.519 361.708 285.608 364.481 292.758C364.68 293.272 364.425 293.851 363.91 294.05C363.396 294.249 362.818 293.994 362.618 293.48C360.03 286.805 354.89 281.125 347.823 278.014C340.756 274.903 333.099 274.947 326.424 277.544H326.423C319.748 280.132 314.068 285.273 310.957 292.34C307.943 299.186 307.89 306.586 310.251 313.111L310.487 313.739V313.74C313.075 320.415 318.215 326.095 325.282 329.206C332.349 332.317 340.006 332.273 346.681 329.676C347.195 329.476 347.774 329.731 347.974 330.244C348.174 330.758 347.92 331.337 347.406 331.537C340.256 334.319 332.048 334.366 324.477 331.033C316.907 327.701 311.398 321.613 308.625 314.463L308.373 313.789C305.844 306.8 305.901 298.869 309.129 291.535C312.462 283.965 318.55 278.455 325.699 275.683Z" fill="black"/>
<path d="M495.909 272.35C499.353 271.731 501.38 266.975 500.438 261.726C499.495 256.477 495.939 252.723 492.496 253.341C489.052 253.96 487.024 258.716 487.967 263.965C488.909 269.214 492.465 272.968 495.909 272.35Z" fill="black"/>
<path d="M426.824 284.765C430.267 284.146 432.295 279.389 431.352 274.14C430.41 268.891 426.854 265.138 423.41 265.756C419.967 266.374 417.939 271.131 418.882 276.38C419.824 281.629 423.38 285.383 426.824 284.765Z" fill="black"/>
<path d="M467.436 235.924C477.136 229.149 486.064 228.846 492.577 230.274C495.82 230.985 498.453 232.122 500.277 233.082C501.19 233.563 501.902 234.001 502.391 234.322C502.636 234.482 502.824 234.614 502.954 234.707C503.019 234.753 503.069 234.79 503.104 234.816C503.122 234.829 503.136 234.84 503.146 234.847L503.162 234.859L503.163 234.86C503.163 234.861 503.163 234.861 502.685 235.48L503.164 234.861C503.6 235.198 503.68 235.825 503.343 236.261C503.006 236.698 502.38 236.778 501.944 236.442L501.938 236.438C501.932 236.434 501.924 236.427 501.911 236.417C501.886 236.399 501.846 236.37 501.791 236.331C501.683 236.253 501.516 236.137 501.296 235.992C500.855 235.703 500.197 235.298 499.347 234.85C497.645 233.954 495.182 232.89 492.15 232.225C486.112 230.901 477.767 231.143 468.579 237.561C468.127 237.877 467.505 237.767 467.19 237.315C466.874 236.863 466.984 236.24 467.436 235.924Z" fill="black"/>
<path d="M428.469 240.541C429.627 240.558 430.568 240.612 431.223 240.663C431.55 240.688 431.806 240.713 431.982 240.732C432.07 240.741 432.138 240.748 432.185 240.753L432.255 240.762C432.257 240.762 432.258 240.763 432.259 240.763H432.261C432.261 240.766 432.256 240.813 432.17 241.485L432.262 240.763C432.809 240.833 433.195 241.334 433.125 241.881C433.055 242.427 432.555 242.814 432.008 242.744H432.007C432.005 242.743 432.001 242.743 431.997 242.743C431.988 242.741 431.973 242.74 431.954 242.738C431.915 242.733 431.855 242.726 431.776 242.717C431.616 242.701 431.378 242.678 431.069 242.654C430.45 242.606 429.55 242.553 428.439 242.537C426.213 242.504 423.149 242.616 419.794 243.193C413.059 244.351 405.307 247.35 400.66 254.627C400.363 255.092 399.746 255.228 399.281 254.931C398.816 254.634 398.68 254.017 398.977 253.552C404.058 245.596 412.464 242.427 419.455 241.225C422.963 240.622 426.155 240.506 428.469 240.541Z" fill="black"/>
<path d="M465.436 263.676C465.867 263.333 466.496 263.404 466.839 263.835L466.84 263.836V263.837C466.841 263.838 466.842 263.84 466.843 263.841C466.846 263.844 466.849 263.849 466.854 263.855C466.863 263.867 466.877 263.883 466.895 263.906C466.93 263.951 466.983 264.018 467.051 264.105C467.186 264.279 467.383 264.535 467.634 264.865C468.135 265.526 468.848 266.484 469.699 267.678C471.401 270.063 473.66 273.396 475.885 277.183C478.108 280.966 480.31 285.223 481.887 289.453C483.459 293.669 484.442 297.94 484.145 301.726C483.831 305.774 481.307 308.272 477.941 309.709C474.624 311.126 470.392 311.57 466.309 311.567C462.205 311.564 458.149 311.107 455.129 310.653C453.617 310.426 452.359 310.2 451.477 310.029C451.037 309.944 450.69 309.873 450.452 309.822C450.334 309.797 450.242 309.778 450.179 309.764C450.148 309.757 450.124 309.751 450.107 309.747C450.099 309.746 450.093 309.744 450.089 309.743C450.087 309.743 450.085 309.743 450.084 309.742H450.082C450.081 309.742 450.081 309.742 450.301 308.768L450.081 309.742C449.543 309.62 449.206 309.086 449.327 308.548C449.449 308.01 449.984 307.673 450.522 307.794L450.526 307.795C450.529 307.796 450.534 307.796 450.541 307.798C450.555 307.801 450.577 307.806 450.605 307.813C450.663 307.825 450.75 307.844 450.864 307.868C451.092 307.916 451.428 307.985 451.857 308.068C452.715 308.234 453.945 308.456 455.426 308.679C458.391 309.124 462.341 309.567 466.311 309.57C470.301 309.573 474.212 309.13 477.157 307.872C480.055 306.635 481.915 304.668 482.155 301.57C482.418 298.203 481.544 294.25 480.016 290.151C478.493 286.068 476.352 281.921 474.163 278.195C471.975 274.472 469.751 271.19 468.073 268.837C467.234 267.661 466.533 266.719 466.042 266.072C465.797 265.749 465.605 265.499 465.474 265.331C465.409 265.247 465.359 265.183 465.326 265.141C465.309 265.12 465.297 265.105 465.289 265.094C465.285 265.089 465.281 265.085 465.279 265.083L465.277 265.08C464.934 264.648 465.005 264.02 465.436 263.676Z" fill="black"/>
<path d="M470.03 329.649C470.03 329.649 429.753 323.648 408.519 329.063C387.275 334.478 416.181 372.714 437.352 372.534C458.524 372.353 478.892 358.04 470.039 329.649H470.03Z" fill="black"/>
<path d="M409.297 327.846C420.024 325.356 434.973 325.531 447.302 326.329C453.685 326.742 459.401 327.324 463.521 327.804C465.581 328.044 467.243 328.258 468.391 328.412C468.965 328.489 469.411 328.552 469.713 328.595C469.864 328.616 469.979 328.633 470.057 328.644C470.072 328.647 470.086 328.648 470.098 328.65H470.774L470.993 329.352C475.507 343.831 472.601 354.895 465.687 362.349C458.82 369.752 448.143 373.44 437.361 373.532C431.785 373.58 425.808 371.108 420.366 367.404C414.908 363.691 409.889 358.673 406.214 353.472C402.558 348.298 400.143 342.815 400.086 338.177C400.057 335.834 400.631 333.663 401.998 331.884C403.366 330.105 405.452 328.814 408.272 328.095L409.297 327.846ZM447.173 328.322C434.452 327.498 419.215 327.366 408.765 330.03C406.274 330.665 404.617 331.754 403.582 333.101C402.546 334.449 402.059 336.152 402.083 338.152C402.133 342.2 404.285 347.281 407.845 352.321C411.388 357.333 416.237 362.179 421.49 365.754C426.758 369.338 432.334 371.578 437.343 371.535C447.733 371.447 457.826 367.888 464.223 360.992C470.481 354.245 473.34 344.156 469.269 330.549C468.982 330.508 468.598 330.455 468.125 330.392C466.987 330.239 465.337 330.027 463.29 329.788C459.194 329.312 453.514 328.732 447.173 328.322Z" fill="black"/>
<path d="M472.15 342.329C472.15 342.329 439.879 348.186 422.588 343.204C418.021 341.887 414.881 337.7 414.772 332.953L414.655 327.872C436.666 324.677 470.047 329.65 470.047 329.65C471.482 334.243 472.141 338.467 472.168 342.329H472.15Z" fill="white"/>
<path d="M414.512 326.884C425.63 325.27 439.568 325.722 450.681 326.567C456.246 326.99 461.122 327.514 464.606 327.931C466.348 328.14 467.743 328.323 468.704 328.453C469.184 328.518 469.556 328.57 469.808 328.606C469.934 328.624 470.031 328.638 470.095 328.647C470.128 328.652 470.152 328.655 470.169 328.658C470.177 328.659 470.184 328.66 470.188 328.661C470.19 328.661 470.192 328.662 470.193 328.662C470.193 328.662 470.194 328.663 470.091 329.352L470.195 328.662L470.814 328.754L471 329.352C472.461 334.029 473.139 338.35 473.167 342.322L473.174 343.327H472.242C472.238 343.328 472.234 343.329 472.231 343.329C472.168 343.34 472.075 343.356 471.954 343.377C471.711 343.419 471.352 343.481 470.891 343.557C469.969 343.708 468.634 343.919 466.979 344.155C463.669 344.629 459.074 345.207 453.935 345.63C444.02 346.445 431.93 346.694 423.151 344.394L422.311 344.164C417.314 342.722 413.892 338.147 413.773 332.976L413.636 327.011L414.512 326.884ZM450.53 328.558C439.743 327.738 426.421 327.302 415.674 328.738L415.771 332.93C415.869 337.252 418.729 341.052 422.864 342.245L423.668 342.465C432.081 344.667 443.867 344.454 453.771 343.639C458.861 343.221 463.415 342.647 466.696 342.178C468.336 341.943 469.658 341.735 470.568 341.586C470.787 341.55 470.982 341.516 471.151 341.487C471.047 338.133 470.457 334.489 469.276 330.548C469.053 330.516 468.771 330.477 468.436 330.432C467.485 330.303 466.1 330.121 464.369 329.914C460.907 329.499 456.06 328.979 450.53 328.558Z" fill="black"/>
<path d="M816.696 518.389C804.901 534.136 797.14 552.61 794.686 572.13C791.184 599.88 812.933 654.74 862.053 657.492C947.371 662.275 1024.09 406.566 1024.09 406.566L1039.63 389.104C1039.63 389.104 1095.53 364.647 1129.38 310.365C1149.71 277.769 1121.83 253.014 1097.11 238.702C1080.56 229.127 1059.68 231.572 1045.67 244.585L1010.96 276.857C1010.96 276.857 1037.38 246.733 1034.74 228.766C1032.09 210.798 1000.39 239.866 975.022 266.813C949.654 293.76 943.842 377.263 943.842 377.263L816.696 518.38V518.389Z" fill="white"/>
<path d="M816.696 518.389C804.901 534.136 797.14 552.61 794.686 572.13C791.184 599.88 812.933 654.74 862.053 657.492C947.371 662.275 1024.09 406.566 1024.09 406.566L1039.63 389.104C1039.63 389.104 1095.53 364.647 1129.38 310.365C1149.71 277.769 1121.83 253.014 1097.11 238.702C1080.56 229.127 1059.68 231.572 1045.67 244.585L1010.96 276.857C1010.96 276.857 1037.38 246.733 1034.74 228.766C1032.09 210.798 1000.39 239.866 975.022 266.813C949.654 293.76 943.842 377.263 943.842 377.263L816.696 518.38V518.389Z" fill="white"/>
<path d="M1027.7 222.355C1029.72 222.02 1031.59 222.245 1033.05 223.336C1034.51 224.425 1035.37 226.228 1035.73 228.62C1036.42 233.365 1035.2 238.811 1033.07 244.225C1030.93 249.659 1027.84 255.17 1024.68 260.089C1022.99 262.717 1021.28 265.181 1019.68 267.384L1045 243.854L1045.67 243.238C1059.99 230.469 1080.95 228.194 1097.61 237.837C1110.02 245.02 1123.34 254.887 1130.99 267.149C1134.82 273.295 1137.24 280.065 1137.39 287.409C1137.53 294.757 1135.39 302.604 1130.22 310.894C1113.21 338.182 1090.66 357.957 1072.39 370.905C1063.25 377.381 1055.17 382.154 1049.37 385.311C1046.47 386.889 1044.14 388.064 1042.53 388.845C1041.73 389.235 1041.11 389.527 1040.68 389.723C1040.49 389.811 1040.34 389.879 1040.23 389.927L1024.98 407.064C1024.94 407.187 1024.89 407.364 1024.82 407.592C1024.67 408.077 1024.45 408.797 1024.16 409.734C1023.58 411.609 1022.71 414.357 1021.58 417.852C1019.31 424.843 1015.98 434.822 1011.71 446.782C1003.18 470.698 990.909 502.545 975.968 534.249C961.033 565.942 943.403 597.543 924.136 620.937C904.912 644.279 883.839 659.713 861.998 658.489C837.032 657.09 819.054 642.439 807.793 624.721C796.552 607.033 791.911 586.149 793.695 572.004C796.159 552.414 803.918 533.879 815.698 518.059V517.996L942.871 376.848C942.882 376.695 942.899 376.492 942.919 376.241C942.968 375.62 943.042 374.705 943.147 373.534C943.356 371.191 943.684 367.815 944.155 363.682C945.098 355.415 946.621 344.11 948.938 331.957C951.256 319.807 954.372 306.789 958.507 295.106C962.635 283.443 967.812 273.017 974.296 266.129C986.984 252.65 1001.3 238.588 1012.81 230.141C1018.53 225.942 1023.7 223.017 1027.7 222.355ZM1031.86 224.937C1030.98 224.284 1029.74 224.042 1028.02 224.326C1024.54 224.903 1019.7 227.561 1013.99 231.751C1002.64 240.083 988.429 254.029 975.75 267.497C969.55 274.083 964.486 284.199 960.39 295.772C956.301 307.325 953.207 320.236 950.9 332.33C948.594 344.421 947.079 355.675 946.14 363.908C945.67 368.023 945.344 371.383 945.136 373.711C945.032 374.876 944.958 375.783 944.909 376.398C944.885 376.705 944.867 376.94 944.855 377.097C944.85 377.176 944.846 377.235 944.843 377.275C944.841 377.294 944.84 377.309 944.84 377.318C944.839 377.323 944.839 377.327 944.839 377.329C944.839 377.33 944.839 377.332 944.839 377.332L944.814 377.676L817.511 518.967L817.496 518.987C805.799 534.604 798.109 552.916 795.677 572.254C793.96 585.859 798.442 606.282 809.479 623.649C820.498 640.986 837.956 655.141 862.109 656.495C882.927 657.662 903.439 642.926 922.594 619.668C941.707 596.462 959.254 565.033 974.162 533.397C989.066 501.772 1001.31 469.99 1009.83 446.111C1014.09 434.172 1017.41 424.211 1019.68 417.236C1020.81 413.749 1021.67 411.008 1022.25 409.14C1022.54 408.206 1022.76 407.49 1022.91 407.008C1022.98 406.767 1023.04 406.584 1023.08 406.462C1023.1 406.401 1023.11 406.355 1023.12 406.325C1023.12 406.31 1023.13 406.298 1023.13 406.291C1023.13 406.287 1023.13 406.284 1023.13 406.282C1023.13 406.28 1023.13 406.279 1024.09 406.566L1023.13 406.279L1023.2 406.067L1023.34 405.903L1038.88 388.44L1039.03 388.276L1039.23 388.189H1039.23C1039.23 388.188 1039.23 388.187 1039.24 388.186C1039.24 388.183 1039.25 388.179 1039.26 388.173C1039.29 388.162 1039.33 388.144 1039.38 388.12C1039.49 388.074 1039.64 388.003 1039.85 387.909C1040.26 387.719 1040.87 387.433 1041.66 387.049C1043.24 386.28 1045.54 385.12 1048.41 383.558C1054.16 380.432 1062.17 375.699 1071.23 369.275C1089.37 356.424 1111.7 336.83 1128.53 309.837C1133.53 301.828 1135.53 294.357 1135.39 287.449C1135.26 280.536 1132.98 274.112 1129.29 268.206C1121.91 256.363 1108.93 246.696 1096.61 239.566C1080.45 230.213 1060.04 232.599 1046.35 245.317L1011.64 277.588L1010.21 276.198L1010.21 276.194C1010.21 276.191 1010.22 276.186 1010.22 276.179C1010.24 276.165 1010.26 276.143 1010.28 276.115C1010.33 276.059 1010.4 275.976 1010.5 275.865C1010.69 275.643 1010.97 275.314 1011.32 274.888C1012.03 274.036 1013.05 272.796 1014.26 271.253C1016.68 268.165 1019.88 263.864 1023 259.01C1026.12 254.151 1029.14 248.762 1031.21 243.494C1033.29 238.207 1034.37 233.15 1033.75 228.911C1033.44 226.811 1032.74 225.592 1031.86 224.937Z" fill="black"/>
<path d="M1010.12 276.317C1010.43 275.856 1011.05 275.729 1011.51 276.032L1011.05 276.72C1011.49 276.055 1011.51 276.032 1011.51 276.032L1011.51 276.034C1011.51 276.035 1011.51 276.035 1011.51 276.037C1011.52 276.039 1011.52 276.043 1011.53 276.047C1011.54 276.056 1011.56 276.067 1011.58 276.082C1011.63 276.113 1011.69 276.156 1011.77 276.213C1011.92 276.327 1012.15 276.496 1012.43 276.72C1012.99 277.168 1013.76 277.839 1014.66 278.749C1016.45 280.567 1018.73 283.34 1020.7 287.177C1024.65 294.875 1027.31 306.763 1022.49 323.643C1022.33 324.173 1021.78 324.48 1021.25 324.329C1020.72 324.177 1020.41 323.625 1020.57 323.094C1025.25 306.684 1022.63 295.32 1018.92 288.089C1017.06 284.461 1014.91 281.85 1013.24 280.151C1012.4 279.302 1011.68 278.681 1011.18 278.277C1010.93 278.075 1010.73 277.927 1010.6 277.831C1010.53 277.783 1010.48 277.748 1010.45 277.727C1010.43 277.716 1010.42 277.708 1010.41 277.703C1010.41 277.701 1010.41 277.7 1010.41 277.699C1010.41 277.699 1010.41 277.699 1010.41 277.698C1009.95 277.395 1009.82 276.777 1010.12 276.317Z" fill="black"/>
<path d="M1168.81 260.055C1168.81 256.093 1165.59 252.889 1161.63 252.889H1146.32C1143.78 252.907 1141.6 251.265 1140.7 248.891C1140.16 247.465 1139.58 246.048 1138.94 244.659C1137.89 242.348 1138.27 239.65 1140.06 237.845L1150.89 227.007C1153.69 224.2 1153.69 219.661 1150.89 216.863L1133.23 199.22C1130.43 196.423 1125.89 196.423 1123.09 199.22L1112.18 210.14C1110.45 211.864 1107.88 212.351 1105.64 211.394C1104.08 210.727 1102.4 210.05 1100.95 209.49C1098.68 208.606 1097.2 206.422 1097.2 203.976V188.499C1097.2 184.537 1093.98 181.325 1090.02 181.325H1065.06C1061.1 181.325 1057.89 184.537 1057.89 188.499V203.823C1057.89 206.359 1056.25 208.534 1053.88 209.427C1052.38 209.996 1050.9 210.609 1049.44 211.277C1047.14 212.342 1044.43 211.972 1042.63 210.176L1031.76 199.374C1028.95 196.576 1024.41 196.594 1021.62 199.401L1004.01 217.107C1001.22 219.913 1001.23 224.462 1004.04 227.25L1014.98 238.143C1016.71 239.858 1017.2 242.439 1016.25 244.677C1015.59 246.238 1014.91 247.916 1014.35 249.369C1013.47 251.644 1011.28 253.133 1008.85 253.133L993.37 253.169C989.408 253.169 986.204 256.4 986.213 260.361L986.276 285.323C986.285 289.285 989.507 292.488 993.469 292.479L1008.79 292.443C1011.33 292.443 1013.51 294.077 1014.41 296.441C1014.95 297.867 1015.53 299.284 1016.17 300.665C1017.22 302.975 1016.85 305.673 1015.06 307.478L1004.24 318.335C1001.44 321.141 1001.45 325.69 1004.25 328.487L1021.94 346.103C1024.75 348.901 1029.29 348.892 1032.08 346.085L1042.99 335.147C1044.7 333.424 1047.28 332.936 1049.52 333.884C1051.07 334.543 1052.76 335.219 1054.21 335.779C1056.49 336.663 1057.97 338.847 1057.98 341.284L1058 356.761C1058 360.723 1061.22 363.927 1065.19 363.927L1090.15 363.89C1094.11 363.89 1097.31 360.669 1097.31 356.707L1097.29 341.383C1097.29 338.847 1098.92 336.663 1101.29 335.77C1102.72 335.228 1104.14 334.642 1105.53 334.01C1107.84 332.954 1110.54 333.333 1112.33 335.12L1123.18 345.95C1125.98 348.747 1130.52 348.738 1133.32 345.941L1150.96 328.271C1153.75 325.464 1153.74 320.925 1150.95 318.127L1140.02 307.226C1138.29 305.511 1137.81 302.93 1138.76 300.692C1140.35 296.956 1141.99 292.516 1142.08 292.245L1161.65 292.227C1165.61 292.227 1168.81 289.014 1168.81 285.043L1168.8 260.082L1168.81 260.055ZM1064.78 305.592C1062.83 304.843 1060.97 303.923 1059.22 302.849C1055.73 300.71 1052.66 297.975 1050.13 294.835C1048.87 293.265 1047.73 291.586 1046.75 289.826C1045.77 288.067 1044.93 286.225 1044.24 284.33C1043.56 282.435 1043.04 280.477 1042.69 278.482C1041.98 274.494 1041.98 270.351 1042.75 266.245C1046.9 244.18 1069.76 231.717 1090.31 239.632C1094.22 241.139 1097.74 243.323 1100.78 246.003C1101.54 246.671 1102.27 247.375 1102.96 248.106C1107.15 252.492 1110.19 257.916 1111.74 263.772C1113.04 268.655 1113.31 273.835 1112.34 278.97C1108.19 301.035 1085.33 313.507 1064.77 305.583L1064.78 305.592Z" fill="white"/>
<path d="M1096.2 188.499C1096.2 185.089 1093.43 182.323 1090.02 182.323H1065.06C1061.65 182.323 1058.88 185.089 1058.88 188.499V203.823C1058.88 206.809 1056.96 209.332 1054.23 210.36L1054.23 210.36C1052.76 210.921 1051.3 211.525 1049.86 212.182L1049.86 212.183C1047.21 213.408 1044.05 213 1041.93 210.884L1031.06 200.082L1031.06 200.081C1028.64 197.675 1024.73 197.688 1022.32 200.106L1004.72 217.811C1002.32 220.227 1002.33 224.144 1004.74 226.542L1015.69 237.435L1015.87 237.626C1017.74 239.628 1018.25 242.539 1017.16 245.07C1016.51 246.62 1015.84 248.287 1015.28 249.728L1015.28 249.731C1014.25 252.39 1011.69 254.13 1008.85 254.13L1008.85 254.131L993.372 254.167H993.37C989.964 254.167 987.204 256.946 987.212 260.359L987.275 285.321L987.284 285.639C987.457 288.9 990.162 291.488 993.466 291.481L1008.79 291.445H1008.79C1011.78 291.445 1014.31 293.366 1015.34 296.087L1015.75 297.14C1016.03 297.84 1016.32 298.536 1016.61 299.224L1017.07 300.25C1018.29 302.904 1017.88 306.057 1015.76 308.183L1015.76 308.184L1004.94 319.039C1002.53 321.455 1002.54 325.371 1004.96 327.78L1022.65 345.396C1025.06 347.804 1028.97 347.796 1031.38 345.38L1042.28 334.442C1044.29 332.426 1047.3 331.861 1049.91 332.965C1051.45 333.618 1053.13 334.291 1054.57 334.847L1054.57 334.849C1057.24 335.884 1058.96 338.438 1058.97 341.28V341.282L1059 356.759V356.761C1059 360.167 1061.77 362.926 1065.19 362.927L1090.15 362.892H1090.15C1093.55 362.891 1096.31 360.121 1096.31 356.709L1096.29 341.385V341.383C1096.29 338.399 1098.21 335.864 1100.94 334.836C1102.35 334.302 1103.74 333.723 1105.11 333.101C1107.77 331.889 1110.93 332.307 1113.04 334.414L1123.88 345.242C1126.3 347.65 1130.21 347.643 1132.62 345.234L1150.25 327.565C1152.66 325.15 1152.65 321.243 1150.24 318.834L1139.31 307.933C1137.3 305.926 1136.73 302.908 1137.85 300.299C1138.63 298.447 1139.43 296.415 1140.05 294.81C1140.36 294.008 1140.62 293.315 1140.81 292.806C1140.9 292.552 1140.98 292.345 1141.03 292.194C1141.06 292.118 1141.08 292.058 1141.1 292.014C1141.12 291.963 1141.12 291.95 1141.12 291.958L1141.33 291.247L1161.65 291.228C1165.06 291.228 1167.82 288.465 1167.82 285.044L1167.8 260.082L1167.8 259.779L1167.81 259.762C1167.65 256.491 1164.95 253.888 1161.63 253.888H1146.32C1143.33 253.906 1140.8 251.969 1139.77 249.245L1139.36 248.192C1138.94 247.142 1138.5 246.099 1138.04 245.073C1136.82 242.415 1137.24 239.264 1139.35 237.141L1139.36 237.14L1150.19 226.301C1152.59 223.883 1152.59 219.976 1150.19 217.569L1132.53 199.927C1130.19 197.595 1126.44 197.521 1124.02 199.708L1123.79 199.926L1112.88 210.846C1110.87 212.86 1107.86 213.428 1105.25 212.313C1103.7 211.65 1102.03 210.977 1100.59 210.422L1100.59 210.421C1097.93 209.386 1096.2 206.829 1096.2 203.976V188.499ZM1041.87 265.531C1046.4 243.18 1069.71 230.627 1090.67 238.7C1094.69 240.251 1098.31 242.499 1101.44 245.254C1102.22 245.941 1102.97 246.666 1103.69 247.418C1107.99 251.925 1111.11 257.497 1112.71 263.516L1112.95 264.46C1114.07 269.201 1114.25 274.197 1113.32 279.155C1109.33 300.383 1088.48 312.976 1068.5 307.824L1068.95 308.265L1064.42 306.524C1062.67 305.849 1060.98 305.04 1059.38 304.107L1058.7 303.7C1055.11 301.499 1051.95 298.688 1049.36 295.461C1048.06 293.848 1046.89 292.123 1045.88 290.314C1044.87 288.506 1044.01 286.616 1043.3 284.67L1043.3 284.666C1042.61 282.72 1042.07 280.707 1041.71 278.656C1040.98 274.553 1040.97 270.288 1041.77 266.06L1041.87 265.531ZM1089.95 240.563C1069.98 232.872 1047.77 244.982 1043.73 266.43C1042.98 270.414 1042.99 274.436 1043.67 278.309C1044.01 280.246 1044.52 282.148 1045.18 283.991L1045.44 284.68C1046.05 286.282 1046.78 287.841 1047.62 289.339C1048.58 291.049 1049.68 292.682 1050.91 294.209C1053.37 297.263 1056.35 299.92 1059.74 301.997C1061.3 302.954 1062.95 303.785 1064.68 304.477L1065.13 304.652C1085.11 312.352 1107.32 300.233 1111.36 278.785L1111.52 277.851C1112.26 273.176 1111.96 268.477 1110.78 264.029L1110.78 264.028C1109.27 258.334 1106.31 253.06 1102.24 248.796L1102.24 248.794C1101.57 248.084 1100.85 247.401 1100.12 246.753C1097.35 244.31 1094.17 242.293 1090.66 240.845L1089.95 240.563ZM1098.19 203.976C1098.19 206.014 1099.43 207.826 1101.31 208.559C1102.77 209.123 1104.46 209.804 1106.04 210.477C1107.9 211.274 1110.04 210.867 1111.47 209.434L1122.38 198.514C1125.57 195.327 1130.75 195.327 1133.94 198.514L1151.6 216.157C1154.79 219.345 1154.78 224.516 1151.6 227.712L1140.77 238.549C1139.38 239.942 1139 242.003 1139.7 243.872L1139.85 244.244L1139.85 244.246C1140.49 245.656 1141.09 247.092 1141.64 248.536L1141.64 248.539C1142.4 250.559 1144.23 251.906 1146.31 251.891H1161.63C1166.14 251.891 1169.81 255.538 1169.81 260.054V260.357L1169.8 260.383L1169.81 285.043L1169.8 285.464C1169.58 289.788 1166.02 293.225 1161.65 293.225L1161.65 293.226L1142.78 293.242C1142.24 294.709 1140.94 298.128 1139.68 301.082L1139.68 301.084C1138.93 302.835 1139.25 304.828 1140.47 306.243L1140.72 306.518L1140.72 306.519L1151.65 317.42L1151.65 317.421C1154.74 320.508 1154.85 325.457 1151.95 328.67L1151.66 328.976L1134.03 346.646C1130.84 349.833 1125.67 349.844 1122.47 346.657L1111.62 335.827C1110.16 334.361 1107.91 334.021 1105.94 334.919H1105.94C1104.53 335.56 1103.09 336.155 1101.65 336.703L1101.64 336.704C1099.63 337.464 1098.29 339.297 1098.29 341.383L1098.31 356.705V356.707C1098.31 361.217 1094.66 364.888 1090.15 364.888L1090.15 364.889L1065.19 364.925C1060.68 364.925 1057.01 361.278 1057 356.763L1056.98 341.288C1056.97 339.257 1055.74 337.445 1053.85 336.71C1052.39 336.148 1050.69 335.467 1049.13 334.803C1047.26 334.012 1045.12 334.421 1043.69 335.851L1043.69 335.852L1032.79 346.79C1029.61 349.986 1024.43 349.997 1021.24 346.81L1003.55 329.195C1000.35 326.008 1000.34 320.828 1003.53 317.63L1014.35 306.774L1014.48 306.632C1015.84 305.149 1016.13 302.985 1015.26 301.08L1014.78 300.022C1014.32 298.959 1013.88 297.879 1013.47 296.796C1012.71 294.788 1010.88 293.442 1008.79 293.442L993.471 293.478C988.959 293.488 985.288 289.839 985.278 285.326L985.214 260.364C985.204 255.855 988.851 252.171 993.367 252.17L1008.84 252.134H1008.85C1010.87 252.134 1012.68 250.898 1013.42 249.01C1013.98 247.547 1014.66 245.859 1015.33 244.289L1015.33 244.285C1016.13 242.421 1015.71 240.276 1014.28 238.851L1003.33 227.958C1000.13 224.78 1000.12 219.599 1003.3 216.403L1020.91 198.696L1020.91 198.696C1024.09 195.5 1029.27 195.477 1032.47 198.666L1043.34 209.467L1043.34 209.47C1044.81 210.944 1047.06 211.276 1049.02 210.371L1049.02 210.368C1050.51 209.691 1052.01 209.069 1053.52 208.493L1053.53 208.492C1055.54 207.732 1056.89 205.908 1056.89 203.823V188.499C1056.89 183.986 1060.55 180.326 1065.06 180.326H1090.02C1094.54 180.326 1098.19 183.986 1098.19 188.499V203.976Z" fill="black"/>
<path d="M1010.96 276.866C1010.96 276.866 1037.38 246.742 1034.74 228.774C1032.09 210.806 1000.39 239.874 975.022 266.821C949.654 293.769 943.842 377.272 943.842 377.272L1019.29 343.412C1019.29 343.412 1039.87 302.649 1010.96 276.866Z" fill="white"/>
<path d="M944.839 377.342C944.801 377.892 944.323 378.306 943.773 378.268C943.223 378.23 942.808 377.753 942.846 377.203L944.839 377.342ZM1027.7 222.364C1029.72 222.028 1031.59 222.253 1033.05 223.345C1034.51 224.433 1035.37 226.237 1035.72 228.628C1036.42 233.374 1035.2 238.819 1033.07 244.234C1030.93 249.668 1027.84 255.179 1024.68 260.097C1021.52 265.019 1018.28 269.373 1015.83 272.494C1014.61 274.056 1013.58 275.311 1012.85 276.177C1012.66 276.404 1012.49 276.603 1012.35 276.775C1026.45 289.735 1029.7 304.386 1029.37 315.853C1029.2 321.671 1028.11 326.665 1027.06 330.206C1026.54 331.977 1026.02 333.388 1025.64 334.36C1025.45 334.846 1025.29 335.223 1025.17 335.481C1025.12 335.609 1025.07 335.708 1025.04 335.776C1025.02 335.81 1025.01 335.837 1025 335.855C1025 335.864 1025 335.871 1024.99 335.877L1024.99 335.884C1024.99 335.885 1024.99 335.885 1024.09 335.452L1024.99 335.886L1024.97 335.928L1024.94 335.968L1016.38 350.173C1016.09 350.645 1015.48 350.798 1015.01 350.513C1014.54 350.228 1014.38 349.614 1014.67 349.142L1023.2 334.986C1023.21 334.974 1023.22 334.958 1023.23 334.939C1023.25 334.882 1023.29 334.793 1023.35 334.675C1023.45 334.439 1023.6 334.086 1023.78 333.625C1024.15 332.702 1024.64 331.347 1025.15 329.639C1026.16 326.222 1027.21 321.402 1027.37 315.795C1027.7 304.606 1024.49 290.266 1010.29 277.611L1009.55 276.952L1010.21 276.207H1010.21V276.206C1010.21 276.205 1010.21 276.204 1010.21 276.203C1010.21 276.2 1010.22 276.194 1010.22 276.187C1010.24 276.174 1010.25 276.152 1010.28 276.124C1010.33 276.068 1010.4 275.984 1010.5 275.873C1010.69 275.651 1010.97 275.322 1011.32 274.896C1012.03 274.044 1013.05 272.805 1014.26 271.262C1016.68 268.174 1019.88 263.873 1023 259.019C1026.12 254.16 1029.14 248.77 1031.21 243.503C1033.29 238.216 1034.37 233.158 1033.75 228.92C1033.44 226.82 1032.73 225.601 1031.86 224.945C1030.98 224.293 1029.74 224.051 1028.02 224.335C1024.54 224.912 1019.7 227.569 1013.99 231.76C1002.64 240.091 988.429 254.037 975.75 267.505C969.55 274.093 964.486 284.211 960.39 295.784C956.301 307.338 953.207 320.249 950.901 332.342C948.595 344.433 947.078 355.687 946.139 363.918C945.669 368.034 945.344 371.392 945.136 373.721C945.033 374.885 944.958 375.792 944.909 376.407C944.885 376.714 944.867 376.948 944.856 377.106C944.85 377.184 944.846 377.244 944.843 377.283C944.842 377.303 944.841 377.317 944.84 377.327C944.84 377.332 944.839 377.335 944.839 377.338C944.839 377.339 944.839 377.34 944.839 377.341L943.842 377.272C942.916 377.208 942.851 377.202 942.847 377.201C942.847 377.201 942.847 377.2 942.847 377.198C942.847 377.196 942.847 377.192 942.848 377.187C942.848 377.176 942.849 377.16 942.851 377.14C942.854 377.099 942.858 377.038 942.864 376.957C942.876 376.797 942.893 376.56 942.918 376.25C942.967 375.628 943.043 374.715 943.147 373.543C943.356 371.201 943.683 367.825 944.154 363.691C945.098 355.426 946.621 344.121 948.939 331.968C951.256 319.819 954.372 306.801 958.507 295.118C962.635 283.455 967.811 273.027 974.295 266.137L976.692 263.605C988.763 250.923 1002.02 238.069 1012.81 230.15C1018.53 225.951 1023.7 223.026 1027.7 222.364Z" fill="black"/>
<path d="M1186.97 825.511L1186.95 574.187C1186.95 573.636 1187.39 573.189 1187.95 573.188C1188.5 573.188 1188.94 573.636 1188.94 574.187L1188.96 825.511C1188.96 826.062 1188.52 826.509 1187.96 826.509C1187.41 826.509 1186.97 826.062 1186.97 825.511Z" fill="black"/>
</svg>
