<svg width="1555" height="1047" viewBox="0 0 1555 1047" fill="none" xmlns="http://www.w3.org/2000/svg">
<path d="M701.275 988.42L597.595 1002.65L610.405 865.65L666.565 818.74L764.075 830.89L701.275 988.42Z" fill="white"/>
<path d="M767.596 828.809L703.058 990.699L594.812 1005.56L608.012 864.391L665.796 816.125L767.596 828.809ZM612.797 866.909L600.377 999.745L699.491 986.14L760.554 832.97L667.334 821.354L612.797 866.909Z" fill="black"/>
<path d="M737.024 712.11C728.394 712.11 721.404 704.21 721.404 694.45V17.6599C721.404 7.90991 728.394 0 737.024 0C745.654 0 752.644 7.89991 752.644 17.6599V694.45C752.644 704.2 745.654 712.11 737.024 712.11Z" fill="black"/>
<path d="M701.275 1042.65V937.94C701.275 928.47 708.265 920.79 716.895 920.79C725.525 920.79 732.515 928.47 732.515 937.94V1042.65H701.265H701.275Z" fill="black"/>
<path d="M680.065 821.72C680.065 821.72 659.195 838.76 680.065 857.16C680.065 857.16 664.065 875.02 680.065 890.18C680.065 890.18 660.815 907.5 680.065 922.66C680.065 922.66 666.765 936.73 680.065 954.59H699.855C699.855 954.59 719.885 928.07 737.205 954.59C737.205 954.59 731.795 977.63 730.165 980.45C728.535 983.27 786.455 963.25 792.415 927.52C798.365 891.8 789.975 834.98 766.025 821.71C742.075 808.44 680.065 821.71 680.065 821.71V821.72Z" fill="white"/>
<path d="M713.84 814.244C723.159 813.408 733.298 812.984 742.658 813.618C751.96 814.248 760.766 815.938 767.236 819.523C773.813 823.167 779.119 829.674 783.303 837.658C787.5 845.667 790.671 855.361 792.877 865.673C797.284 886.282 797.912 909.735 794.881 927.93V927.931C791.708 946.95 774.866 961.396 759.74 970.579C752.092 975.221 744.684 978.64 739.264 980.727C736.564 981.767 734.299 982.498 732.713 982.88C731.969 983.06 731.184 983.212 730.533 983.212C730.354 983.213 730.117 983.203 729.856 983.154C729.625 983.111 729.185 983.003 728.741 982.69C728.222 982.323 727.727 981.683 727.643 980.806C727.57 980.05 727.84 979.476 728 979.199L728.057 979.084C728.093 979.005 728.137 978.901 728.19 978.768C728.297 978.5 728.423 978.154 728.566 977.729C728.853 976.88 729.186 975.789 729.55 974.528C730.276 972.008 731.097 968.892 731.873 965.845C732.648 962.802 733.372 959.845 733.903 957.647C734.159 956.588 734.37 955.706 734.52 955.077C730.613 949.398 726.771 946.785 723.369 945.804C719.797 944.775 716.301 945.427 713.083 946.915C709.845 948.411 707.03 950.693 704.99 952.66C703.98 953.634 703.182 954.51 702.641 955.136C702.371 955.449 702.166 955.698 702.032 955.865C701.965 955.948 701.916 956.011 701.886 956.05C701.871 956.07 701.86 956.084 701.854 956.091C701.851 956.094 701.849 956.096 701.848 956.097L701.1 957.09H678.81L678.06 956.084C670.903 946.474 670.815 937.669 672.676 931.233C673.591 928.067 674.96 925.526 676.099 923.775C676.276 923.502 676.449 923.249 676.613 923.013C672.654 919.409 670.432 915.598 669.513 911.773C668.461 907.396 669.181 903.28 670.514 899.834C671.841 896.399 673.81 893.534 675.413 891.551C675.828 891.038 676.222 890.579 676.579 890.18C673.364 886.591 671.594 882.826 670.861 879.108C670.011 874.79 670.59 870.702 671.68 867.235C672.768 863.773 674.39 860.856 675.723 858.819C676.063 858.298 676.387 857.831 676.682 857.423C672.264 853.078 669.823 848.693 668.826 844.429C667.707 839.642 668.466 835.259 669.915 831.616C671.356 827.993 673.495 825.051 675.239 823.035C676.117 822.02 676.909 821.222 677.489 820.672C677.515 820.648 677.54 820.625 677.564 820.602V819.688L679.541 819.265L680.064 821.71C679.567 819.384 679.543 819.271 679.543 819.265C679.544 819.265 679.545 819.265 679.546 819.264C679.548 819.264 679.552 819.263 679.556 819.262C679.564 819.261 679.576 819.258 679.592 819.254C679.624 819.248 679.671 819.238 679.731 819.225C679.853 819.2 680.033 819.163 680.267 819.115C680.735 819.019 681.421 818.882 682.301 818.712C684.061 818.371 686.598 817.901 689.715 817.379C695.945 816.335 704.511 815.08 713.84 814.244ZM742.32 818.606C733.318 817.996 723.464 818.4 714.287 819.223C705.12 820.045 696.686 821.28 690.541 822.309C687.471 822.824 684.975 823.286 683.251 823.62C682.389 823.786 681.72 823.921 681.268 824.013C681.258 824.015 681.248 824.017 681.238 824.019C681.148 824.101 681.042 824.195 680.928 824.303C680.448 824.758 679.773 825.435 679.021 826.305C677.504 828.059 675.73 830.526 674.562 833.463C673.402 836.38 672.857 839.708 673.694 843.291C674.531 846.87 676.805 850.954 681.718 855.285L683.608 856.951L681.928 858.827L681.93 858.825C681.929 858.825 681.929 858.826 681.928 858.828C681.924 858.832 681.917 858.84 681.906 858.852C681.885 858.877 681.849 858.917 681.801 858.974C681.705 859.088 681.56 859.265 681.376 859.5C681.007 859.969 680.488 860.668 679.907 861.555C678.74 863.34 677.36 865.837 676.449 868.735C675.539 871.628 675.119 874.847 675.768 878.141C676.411 881.404 678.135 884.907 681.784 888.365L683.75 890.227L681.739 892.036H681.74C681.74 892.036 681.738 892.037 681.736 892.039C681.732 892.043 681.723 892.051 681.71 892.063C681.684 892.087 681.64 892.128 681.582 892.183C681.466 892.295 681.29 892.467 681.068 892.696C680.624 893.154 679.999 893.833 679.302 894.695C677.897 896.433 676.256 898.846 675.178 901.636C674.104 904.414 673.621 907.471 674.374 910.605C675.121 913.716 677.153 917.185 681.611 920.696L683.761 922.388L681.882 924.378L681.881 924.377C681.879 924.379 681.878 924.382 681.875 924.384C681.861 924.4 681.835 924.429 681.799 924.47C681.726 924.553 681.612 924.686 681.467 924.867C681.175 925.229 680.758 925.78 680.29 926.5C679.35 927.945 678.226 930.038 677.479 932.622C676.074 937.479 675.937 944.264 681.35 952.09H698.669C698.729 952.02 698.791 951.945 698.857 951.869C699.48 951.148 700.381 950.159 701.52 949.061C703.777 946.884 707.051 944.194 710.985 942.376C714.94 940.548 719.7 939.543 724.754 941C729.807 942.456 734.747 946.256 739.298 953.223L739.883 954.12L739.639 955.162L739.638 955.163C739.638 955.163 739.638 955.164 739.638 955.166C739.637 955.169 739.635 955.174 739.634 955.179C739.631 955.191 739.627 955.207 739.622 955.229C739.612 955.273 739.596 955.339 739.576 955.424C739.536 955.595 739.477 955.845 739.401 956.164C739.25 956.802 739.031 957.716 738.764 958.821C738.23 961.031 737.5 964.01 736.719 967.08C735.938 970.145 735.102 973.318 734.354 975.912C734.213 976.402 734.073 976.873 733.938 977.323C734.95 976.993 736.136 976.574 737.467 976.061C742.634 974.071 749.773 970.78 757.146 966.304C772.063 957.249 787.16 943.82 789.948 927.109L790.212 925.451C792.827 908.161 792.141 886.141 787.987 866.719C785.845 856.703 782.8 847.471 778.874 839.978C774.934 832.459 770.21 826.888 764.812 823.897C759.308 820.847 751.381 819.22 742.32 818.606Z" fill="black"/>
<path d="M324.683 33.1927C325.714 32.2747 327.294 32.3665 328.212 33.3978L357.292 66.0677C358.21 67.099 358.118 68.679 357.087 69.597C356.056 70.515 354.476 70.4232 353.558 69.3919L324.478 36.722C323.56 35.6907 323.651 34.1107 324.683 33.1927Z" fill="black"/>
<path d="M301.88 81.8639L345.55 84.4039C346.928 84.4842 347.981 85.6664 347.901 87.0446C347.821 88.423 346.638 89.4753 345.259 89.3952L301.589 86.8561C300.211 86.7758 299.159 85.5928 299.239 84.2145C299.319 82.8363 300.502 81.7838 301.88 81.8639Z" fill="black"/>
<path d="M376.29 12.0639C377.669 12.1442 378.721 13.3272 378.641 14.7055L376.101 58.3754C376.021 59.7536 374.838 60.8061 373.459 60.726C372.081 60.6456 371.029 59.4626 371.109 58.0844L373.649 14.4144C373.729 13.0362 374.912 11.9837 376.29 12.0639Z" fill="black"/>
<path d="M619.075 1040.79H166.035C166.035 1040.79 116.105 1017.65 147.765 953.11L150.205 768C150.205 768 96.6248 634.04 122.195 565.84C147.765 497.64 348.715 447.71 348.715 447.71L488.765 455.02C488.765 455.02 572.555 484.3 637.685 520.69C686.095 547.74 710.375 603.88 697.475 657.81L656.825 827.68L617.855 969.76C617.855 969.76 661.695 998.99 619.075 1040.8V1040.79Z" fill="white"/>
<path d="M348.845 445.213L489.252 452.542L489.59 452.66L488.765 455.021C489.585 452.672 489.589 452.66 489.59 452.66C489.59 452.66 489.593 452.661 489.594 452.661C489.597 452.662 489.601 452.664 489.606 452.666C489.617 452.67 489.633 452.675 489.653 452.683C489.695 452.697 489.756 452.719 489.837 452.747C489.999 452.804 490.241 452.89 490.558 453.002C491.191 453.227 492.127 453.56 493.34 453.997C495.766 454.872 499.303 456.161 503.749 457.821C512.641 461.142 525.174 465.948 539.745 471.894C568.874 483.779 606.211 500.241 638.904 518.508L640.058 519.16C688.687 547.005 712.961 603.815 699.906 658.392L659.256 828.262L659.247 828.302L659.235 828.341L620.72 968.762C620.871 968.878 621.035 969.001 621.205 969.136C622.38 970.064 623.997 971.43 625.794 973.2C629.375 976.729 633.744 981.938 636.728 988.576C639.725 995.247 641.323 1003.37 639.307 1012.59C637.295 1021.8 631.735 1031.88 620.825 1042.58L616.575 1046.75V1043.29H165.483L164.983 1043.06L166.035 1040.79L164.98 1043.06C164.98 1043.06 164.977 1043.06 164.976 1043.05C164.972 1043.05 164.968 1043.05 164.963 1043.05C164.953 1043.04 164.94 1043.04 164.924 1043.03C164.892 1043.02 164.849 1042.99 164.794 1042.97C164.684 1042.91 164.529 1042.84 164.333 1042.73C163.941 1042.53 163.383 1042.23 162.693 1041.83C161.315 1041.03 159.402 1039.82 157.217 1038.16C152.853 1034.84 147.363 1029.72 142.898 1022.46C133.917 1007.87 129.408 985.191 145.271 952.522L147.698 768.46C147.597 768.203 147.456 767.841 147.277 767.381C146.888 766.374 146.322 764.892 145.61 762.984C144.188 759.168 142.186 753.645 139.865 746.807C135.225 733.133 129.303 714.184 124.182 693.085C119.062 671.995 114.729 648.704 113.289 626.36C111.852 604.053 113.283 582.488 119.854 564.963C126.547 547.109 144.509 530.83 167.034 516.501C189.661 502.107 217.342 489.404 244.129 478.873C270.931 468.336 296.92 459.941 316.201 454.182C325.844 451.301 333.815 449.079 339.378 447.575C342.159 446.824 344.339 446.252 345.825 445.867C346.568 445.675 347.139 445.529 347.523 445.432C347.716 445.383 347.862 445.346 347.961 445.321C348.01 445.309 348.047 445.3 348.072 445.294C348.085 445.291 348.095 445.288 348.102 445.286C348.105 445.285 348.108 445.285 348.109 445.284C348.112 445.286 348.13 445.356 348.682 447.575L348.112 445.284L348.474 445.194L348.845 445.213ZM348.752 450.278C348.375 450.374 347.813 450.518 347.078 450.708C345.608 451.088 343.446 451.656 340.683 452.402C335.156 453.896 327.227 456.106 317.632 458.973C298.436 464.706 272.589 473.056 245.958 483.526C219.311 494.003 191.961 506.57 169.718 520.72C147.373 534.934 130.626 550.471 124.535 566.718C118.321 583.293 116.861 604.048 118.278 626.039C119.693 647.994 123.961 670.981 129.04 691.905C134.117 712.822 139.993 731.625 144.6 745.2C146.902 751.986 148.887 757.462 150.295 761.237C150.999 763.125 151.558 764.588 151.94 765.576C152.132 766.07 152.279 766.447 152.378 766.698C152.427 766.824 152.464 766.918 152.489 766.98C152.502 767.012 152.512 767.035 152.518 767.05C152.521 767.057 152.523 767.064 152.524 767.067C152.525 767.069 152.525 767.07 152.525 767.071C152.519 767.075 152.395 767.124 150.205 768L152.525 767.071L152.711 767.534L150.257 953.706L150.009 954.211C134.509 985.807 139.134 1006.81 147.156 1019.84C151.217 1026.44 156.231 1031.13 160.239 1034.17C162.24 1035.69 163.981 1036.79 165.209 1037.51C165.818 1037.86 166.299 1038.12 166.623 1038.29H618.054C627.956 1028.37 632.709 1019.37 634.422 1011.53C636.172 1003.52 634.802 996.489 632.167 990.626C629.518 984.731 625.591 980.02 622.284 976.762C620.637 975.139 619.161 973.893 618.105 973.06C617.578 972.643 617.157 972.331 616.873 972.126C616.732 972.024 616.625 971.948 616.556 971.9C616.522 971.877 616.496 971.86 616.481 971.85C616.474 971.845 616.469 971.841 616.467 971.84L616.466 971.838L614.967 970.839L654.401 827.063L695.043 657.229C707.685 604.376 683.888 549.37 636.466 522.872C604.029 504.749 566.905 488.376 537.856 476.523C523.339 470.6 510.854 465.812 502 462.506C497.573 460.853 494.055 459.57 491.645 458.701C490.439 458.267 489.512 457.936 488.886 457.714C488.632 457.624 488.428 457.551 488.275 457.497L348.957 450.226C348.896 450.241 348.828 450.259 348.752 450.278Z" fill="black"/>
<path d="M327.247 641.801C328.561 641.377 329.97 642.098 330.394 643.412L369.244 763.843L369.531 764.765C375.343 784.145 368.114 805.111 351.514 816.804C331.218 831.106 302.196 850.298 275.063 863.662C261.507 870.34 248.302 875.624 236.823 878.081C225.461 880.514 215.162 880.313 208.012 875.159C198.927 868.608 190.66 858.601 183.391 847.449C176.105 836.269 169.729 823.79 164.47 812.151C159.209 800.505 155.048 789.658 152.203 781.723C150.78 777.754 149.684 774.51 148.944 772.255C148.574 771.128 148.293 770.247 148.103 769.647C148.008 769.347 147.937 769.116 147.888 768.96C147.864 768.882 147.845 768.823 147.833 768.783C147.826 768.762 147.822 768.746 147.819 768.736C147.817 768.731 147.816 768.727 147.815 768.724C147.815 768.723 147.814 768.721 147.814 768.72C147.82 768.717 147.942 768.68 150.205 767.991L147.813 768.718C147.411 767.398 148.156 766.001 149.476 765.599C150.797 765.197 152.194 765.941 152.596 767.262L152.597 767.264C152.598 767.266 152.599 767.269 152.6 767.273C152.603 767.282 152.606 767.296 152.612 767.314C152.623 767.35 152.641 767.406 152.664 767.48C152.71 767.628 152.779 767.85 152.871 768.141C153.055 768.724 153.331 769.587 153.695 770.696C154.423 772.913 155.504 776.113 156.91 780.035C159.723 787.881 163.835 798.599 169.027 810.092C174.222 821.591 180.481 833.824 187.581 844.718C194.698 855.639 202.568 865.068 210.937 871.102C216.298 874.967 224.763 875.55 235.776 873.192C246.672 870.859 259.454 865.777 272.854 859.177C299.633 845.987 328.401 826.974 348.634 812.716H348.635C363.477 802.261 369.936 783.52 364.742 766.201L364.485 765.377L325.635 644.948C325.212 643.634 325.933 642.225 327.247 641.801Z" fill="black"/>
<path d="M305.685 460C305.685 460 361.365 558.94 401.625 590.33L444.385 530.25L487.145 593.04C487.145 593.04 541.035 519.66 540.065 475.16L492.555 425.79L345.335 420.38L305.695 460.01L305.685 460Z" fill="black"/>
<path d="M493.655 423.328L542.543 474.13L542.565 475.106C542.817 486.692 539.509 499.968 534.547 513.228C529.572 526.523 522.863 539.988 516.152 552.006C509.436 564.031 502.694 574.651 497.632 582.263C495.1 586.07 492.987 589.129 491.504 591.238C490.763 592.292 490.179 593.11 489.779 593.665C489.58 593.943 489.426 594.155 489.321 594.298C489.269 594.37 489.229 594.425 489.202 594.462C489.189 594.481 489.178 594.494 489.171 594.504C489.168 594.509 489.165 594.512 489.163 594.515C489.162 594.516 489.161 594.518 489.16 594.519L487.145 593.04L489.159 594.52L487.068 597.368L444.339 534.625L402.148 593.907L400.087 592.302C379.59 576.321 355.403 543.399 336.472 514.773C326.97 500.404 318.732 487.023 312.869 477.235C309.938 472.34 307.599 468.341 305.992 465.565C305.189 464.177 304.569 463.094 304.149 462.358C303.939 461.989 303.778 461.707 303.67 461.517C303.616 461.422 303.576 461.35 303.548 461.301C303.534 461.277 303.524 461.258 303.517 461.245C303.513 461.239 303.511 461.235 303.509 461.232C303.508 461.23 303.507 461.229 303.507 461.228C303.506 461.227 303.506 461.226 305.685 460L303.506 461.226L294.573 445.353L305.695 456.475L344.338 417.842L493.655 423.328ZM308.808 460.431C309.198 461.113 309.704 461.997 310.32 463.061C311.915 465.818 314.241 469.794 317.158 474.665C322.994 484.409 331.192 497.725 340.643 512.015C358.969 539.727 381.781 570.751 401.124 586.721L444.43 525.875L487.195 588.671C487.265 588.57 487.339 588.468 487.413 588.363C488.874 586.285 490.963 583.262 493.468 579.494C498.48 571.957 505.15 561.451 511.785 549.569C518.425 537.679 525.007 524.454 529.863 511.476C534.587 498.852 537.611 486.633 537.576 476.179L491.452 428.25L346.331 422.917L308.808 460.431Z" fill="black"/>
<path d="M589.104 714.8V606.02C589.104 604.639 590.224 603.52 591.604 603.52C592.985 603.52 594.104 604.639 594.104 606.02V714.8C594.104 716.181 592.985 717.3 591.604 717.3C590.224 717.3 589.105 716.181 589.104 714.8Z" fill="black"/>
<path d="M206.225 844.72C206.225 844.72 235.455 946.21 348.305 977.06C461.155 1007.91 666.565 818.74 666.565 818.74C666.565 818.74 745.855 839.31 775.085 816.57C775.085 816.57 787.395 802.5 775.085 791.33C775.085 791.33 792.605 772.05 774.945 756.62C774.945 756.62 793.215 736.73 775.555 722.52C775.555 722.52 791.385 704.25 776.165 690.25H725.215L724.805 663.05C724.805 663.05 674.265 660.41 665.335 688.42L354.875 810.84L342.615 774.35C342.615 774.35 251.145 760.82 206.215 844.71L206.225 844.72Z" fill="white"/>
<path d="M722.647 660.491C723.366 660.5 723.931 660.516 724.319 660.529C724.513 660.535 724.664 660.542 724.768 660.546C724.819 660.548 724.86 660.55 724.888 660.551C724.902 660.552 724.913 660.553 724.921 660.553H724.934C724.934 660.553 724.933 660.578 724.856 662.055L724.935 660.553L727.269 660.675L727.678 687.75H777.14L777.857 688.41C782.049 692.266 784.196 696.519 784.952 700.76C785.7 704.958 785.058 708.984 783.944 712.408C782.83 715.834 781.214 718.753 779.892 720.802C779.561 721.315 779.245 721.776 778.959 722.181C782.605 725.657 784.588 729.476 785.361 733.354C786.245 737.786 785.509 742.074 784.232 745.724C782.955 749.375 781.098 752.508 779.583 754.708C779.141 755.35 778.723 755.915 778.353 756.399C782.01 760.115 784.027 764.08 784.863 768.036C785.818 772.551 785.197 776.863 784.018 780.528C782.839 784.189 781.075 787.292 779.626 789.464C779.197 790.107 778.79 790.672 778.432 791.153C780.819 793.816 782.162 796.655 782.729 799.496C783.41 802.905 782.944 806.149 782.087 808.886C781.231 811.62 779.959 813.935 778.918 815.551C778.394 816.364 777.92 817.014 777.571 817.467C777.397 817.694 777.253 817.873 777.149 817.999C777.097 818.062 777.055 818.112 777.024 818.149C777.009 818.167 776.996 818.181 776.986 818.193C776.981 818.198 776.978 818.203 776.975 818.207L776.968 818.214L775.085 816.571L776.967 818.216L776.809 818.397L776.62 818.543C768.778 824.644 757.799 827.698 746.07 828.988C734.29 830.283 721.451 829.829 709.62 828.67C697.776 827.51 686.866 825.634 678.922 824.05C674.947 823.258 671.71 822.537 669.462 822.014C668.564 821.805 667.825 821.627 667.259 821.489C666.9 821.814 666.447 822.226 665.902 822.716C664.363 824.101 662.092 826.125 659.165 828.689C653.311 833.816 644.825 841.103 634.292 849.748C613.229 867.036 583.956 889.773 551.136 911.552C518.329 933.322 481.9 954.185 446.532 967.673C411.227 981.138 376.621 987.393 347.645 979.472C290.556 963.865 254.596 930.372 232.93 900.799C222.101 886.019 214.837 872.211 210.276 862.087C207.995 857.024 206.388 852.878 205.349 849.988C204.829 848.542 204.451 847.41 204.201 846.633C204.129 846.408 204.069 846.212 204.018 846.047L203.135 845.165L204.011 843.53C226.884 800.821 261.662 782.877 290.658 775.646C305.137 772.035 318.182 771.09 327.609 771.047C332.326 771.026 336.144 771.23 338.795 771.441C340.12 771.546 341.155 771.654 341.863 771.736C342.218 771.777 342.491 771.81 342.679 771.835C342.772 771.848 342.845 771.857 342.895 771.865C342.92 771.868 342.94 771.871 342.954 771.873C342.961 771.874 342.967 771.875 342.972 771.875C342.974 771.876 342.976 771.876 342.977 771.876C342.979 771.877 342.974 771.916 342.684 773.884L342.98 771.877L344.496 772.101L356.406 807.548L663.346 686.516C668.683 671.907 684.411 665.573 697.913 662.783C704.964 661.327 711.705 660.771 716.671 660.577C719.158 660.48 721.211 660.474 722.647 660.491ZM722.341 665.49C720.992 665.476 719.117 665.486 716.866 665.573C712.077 665.76 705.625 666.296 698.925 667.68C685.272 670.501 671.729 676.594 667.717 689.179L667.356 690.31L353.344 814.131L340.748 776.644C340.138 776.579 339.35 776.501 338.398 776.425C335.871 776.224 332.193 776.026 327.632 776.047C318.505 776.089 305.873 777.005 291.868 780.497C264.107 787.421 230.977 804.45 208.918 844.965C208.932 845.009 208.946 845.055 208.961 845.102C209.194 845.827 209.554 846.906 210.054 848.295C211.053 851.075 212.612 855.1 214.835 860.033C219.281 869.903 226.378 883.396 236.963 897.844C258.124 926.729 293.204 959.406 348.964 974.649C376.413 982.153 409.803 976.33 444.751 963.001C479.636 949.697 515.72 929.052 548.371 907.386C581.009 885.728 610.142 863.101 631.12 845.883C641.607 837.276 650.051 830.025 655.871 824.928C658.781 822.38 661.034 820.369 662.559 818.998C663.321 818.313 663.901 817.787 664.289 817.433C664.483 817.256 664.63 817.123 664.727 817.033C664.776 816.989 664.812 816.955 664.836 816.933C664.848 816.922 664.857 816.914 664.863 816.908C664.866 816.906 664.868 816.904 664.869 816.903C664.87 816.901 664.871 816.901 666.383 818.543L664.871 816.901L665.874 815.978L667.192 816.321H667.194C667.196 816.321 667.2 816.321 667.204 816.323C667.212 816.325 667.225 816.329 667.243 816.333C667.279 816.342 667.334 816.357 667.407 816.375C667.553 816.412 667.773 816.467 668.061 816.538C668.639 816.681 669.494 816.888 670.596 817.145C672.798 817.658 675.984 818.366 679.899 819.147C687.735 820.709 698.475 822.555 710.107 823.695C721.753 824.835 734.216 825.261 745.523 824.018C756.769 822.781 766.577 819.921 773.344 814.752C773.411 814.669 773.501 814.558 773.607 814.42C773.884 814.061 774.276 813.524 774.714 812.844C775.597 811.473 776.633 809.571 777.315 807.392C777.997 805.215 778.299 802.846 777.826 800.476C777.36 798.142 776.11 795.637 773.405 793.182L771.552 791.5L773.234 789.649L773.235 789.648C773.24 789.643 773.248 789.634 773.26 789.62C773.284 789.593 773.325 789.547 773.378 789.485C773.485 789.36 773.645 789.167 773.849 788.912C774.256 788.402 774.828 787.646 775.467 786.689C776.751 784.764 778.264 782.083 779.258 778.995C780.251 775.912 780.698 772.51 779.971 769.071C779.251 765.667 777.342 762.035 773.3 758.503L771.37 756.817L773.103 754.929C773.104 754.928 773.105 754.928 773.105 754.927C773.11 754.922 773.12 754.911 773.133 754.897C773.159 754.867 773.201 754.819 773.258 754.754C773.371 754.624 773.541 754.424 773.756 754.16C774.185 753.632 774.79 752.853 775.465 751.872C776.823 749.899 778.43 747.171 779.513 744.073C780.596 740.975 781.115 737.626 780.458 734.332C779.811 731.091 777.984 727.684 773.987 724.468L771.968 722.842L773.666 720.882C773.67 720.878 773.678 720.869 773.688 720.857C773.71 720.831 773.746 720.788 773.794 720.729C773.89 720.611 774.036 720.429 774.22 720.189C774.588 719.707 775.107 718.993 775.689 718.091C776.86 716.277 778.25 713.754 779.19 710.862C780.131 707.969 780.593 704.802 780.029 701.637C779.511 698.733 778.105 695.692 775.16 692.75H722.752L722.341 665.49Z" fill="black"/>
<path d="M356.3 807.618C357.521 806.975 359.033 807.443 359.677 808.664C360.32 809.886 359.852 811.398 358.631 812.042L342.711 820.432C341.489 821.075 339.977 820.607 339.333 819.386C338.689 818.165 339.158 816.653 340.379 816.009L356.3 807.618Z" fill="black"/>
<path d="M489.685 397.78V437.44L442.335 522.77L345.045 431.72L370.035 201.84C375.635 145.32 423.175 102.26 479.975 102.26C536.095 102.26 583.255 144.34 589.725 200.09C592.035 219.98 594.245 241.19 595.975 261.95C601.465 327.97 555.065 387.05 489.695 397.78H489.685Z" fill="white"/>
<path d="M479.974 99.76C537.366 99.76 585.592 142.794 592.208 199.802C594.52 219.711 596.733 240.949 598.466 261.742L598.588 263.32C603.274 329.306 557.214 388.137 492.184 399.885V438.087L442.966 526.784L342.425 432.692L367.55 201.57C373.288 143.782 421.898 99.7602 479.974 99.76ZM479.974 104.76C424.46 104.76 377.996 146.846 372.522 202.086L372.521 202.099L372.52 202.111L347.665 430.748L441.703 518.754L487.184 436.793V395.281H489.479C552.971 384.76 598.149 327.708 593.6 263.672L593.483 262.157C591.756 241.431 589.549 220.249 587.241 200.378C580.917 145.887 534.823 104.76 479.974 104.76Z" fill="black"/>
<path d="M370.415 298.33C387.801 298.33 401.895 284.236 401.895 266.85C401.895 249.464 387.801 235.37 370.415 235.37C353.029 235.37 338.935 249.464 338.935 266.85C338.935 284.236 353.029 298.33 370.415 298.33Z" fill="white"/>
<path d="M399.395 266.851C399.395 250.846 386.42 237.87 370.415 237.87C354.41 237.87 341.435 250.845 341.435 266.851C341.435 282.856 354.41 295.83 370.415 295.83C386.42 295.83 399.394 282.855 399.395 266.851ZM404.395 266.851C404.394 285.617 389.181 300.83 370.415 300.83C351.649 300.83 336.435 285.617 336.435 266.851C336.435 248.084 351.649 232.87 370.415 232.87C389.182 232.87 404.395 248.084 404.395 266.851Z" fill="black"/>
<path d="M511.079 226.417C512.186 225.591 513.752 225.818 514.578 226.924L512.737 228.3C514.474 227.002 514.573 226.929 514.579 226.926C514.58 226.926 514.581 226.927 514.581 226.928C514.583 226.93 514.585 226.933 514.587 226.936C514.592 226.942 514.598 226.95 514.606 226.96C514.621 226.981 514.643 227.012 514.672 227.051C514.73 227.129 514.813 227.243 514.919 227.392C515.133 227.688 515.441 228.12 515.826 228.677C516.595 229.79 517.673 231.4 518.924 233.404C521.423 237.408 524.625 243.014 527.419 249.399C532.913 261.954 537.235 278.443 530.122 291.524C526.548 298.099 521.484 301.732 515.899 303.354C510.403 304.951 504.565 304.559 499.365 303.437C494.145 302.312 489.391 300.413 485.964 298.812C484.244 298.009 482.843 297.274 481.867 296.736C481.378 296.467 480.995 296.247 480.73 296.092C480.597 296.014 480.494 295.953 480.422 295.91C480.386 295.889 480.358 295.872 480.338 295.859L480.307 295.84C480.306 295.839 480.304 295.839 480.304 295.839C480.303 295.838 480.32 295.81 481.616 293.71L480.303 295.838C479.128 295.113 478.763 293.572 479.488 292.397C480.213 291.223 481.753 290.857 482.928 291.582L482.929 291.583C482.931 291.584 482.935 291.586 482.941 291.59C482.953 291.597 482.973 291.609 483 291.626C483.055 291.659 483.142 291.71 483.256 291.777C483.486 291.912 483.83 292.11 484.278 292.356C485.173 292.849 486.475 293.533 488.079 294.282C491.303 295.787 495.687 297.529 500.419 298.55C505.17 299.574 510.096 299.833 514.503 298.553C518.821 297.298 522.798 294.526 525.729 289.136C531.627 278.288 528.273 263.821 522.839 251.403C520.17 245.303 517.095 239.917 514.683 236.052C513.478 234.122 512.443 232.577 511.712 231.52C511.347 230.991 511.058 230.585 510.863 230.313C510.765 230.178 510.69 230.076 510.641 230.009C510.616 229.975 510.599 229.95 510.587 229.935C510.582 229.927 510.577 229.922 510.575 229.919C510.574 229.918 510.573 229.917 510.573 229.916L510.43 229.703C509.778 228.617 510.043 227.192 511.079 226.417Z" fill="black"/>
<path d="M555.245 260.95C557.686 260.95 559.665 256.697 559.665 251.45C559.665 246.203 557.686 241.95 555.245 241.95C552.804 241.95 550.825 246.203 550.825 251.45C550.825 256.697 552.804 260.95 555.245 260.95Z" fill="black"/>
<path d="M469.205 262.63C471.646 262.63 473.625 258.377 473.625 253.13C473.625 247.883 471.646 243.63 469.205 243.63C466.764 243.63 464.785 247.883 464.785 253.13C464.785 258.377 466.764 262.63 469.205 262.63Z" fill="black"/>
<path d="M540.435 220.36H569.255C570.707 220.36 571.885 219.182 571.885 217.73V210.76C571.885 209.308 570.707 208.13 569.255 208.13H540.435C538.982 208.13 537.805 209.308 537.805 210.76V217.73C537.805 219.182 538.982 220.36 540.435 220.36Z" fill="black"/>
<path d="M454.784 221.41H483.604C485.057 221.41 486.234 220.233 486.234 218.78V211.81C486.234 210.358 485.057 209.18 483.604 209.18H454.784C453.332 209.18 452.154 210.358 452.154 211.81V218.78C452.154 220.233 453.332 221.41 454.784 221.41Z" fill="black"/>
<path d="M540.305 217.73C540.305 217.802 540.363 217.86 540.435 217.86H569.255C569.327 217.86 569.385 217.802 569.385 217.73V210.76C569.385 210.688 569.326 210.629 569.255 210.629H540.435C540.363 210.629 540.305 210.688 540.305 210.76V217.73ZM535.305 210.76C535.305 207.927 537.601 205.629 540.435 205.629H569.255C572.088 205.629 574.385 207.927 574.385 210.76V217.73C574.385 220.563 572.088 222.86 569.255 222.86H540.435C537.602 222.86 535.305 220.563 535.305 217.73V210.76Z" fill="black"/>
<path d="M454.654 218.78C454.654 218.852 454.713 218.91 454.784 218.91H483.604C483.676 218.91 483.734 218.852 483.734 218.78V211.81C483.734 211.738 483.676 211.68 483.604 211.68H454.784C454.713 211.68 454.655 211.738 454.654 211.81V218.78ZM449.654 211.81C449.655 208.977 451.951 206.68 454.784 206.68H483.604C486.437 206.68 488.734 208.976 488.734 211.81V218.78C488.734 221.613 486.438 223.91 483.604 223.91H454.784C451.951 223.91 449.654 221.613 449.654 218.78V211.81Z" fill="black"/>
<path d="M390.305 178.84C391.685 178.84 392.805 179.959 392.805 181.34C392.805 182.721 391.685 183.84 390.305 183.84H385.625C384.244 183.84 383.125 182.721 383.125 181.34C383.125 179.959 384.244 178.84 385.625 178.84H390.305Z" fill="black"/>
<path d="M403.574 192.89C404.955 192.89 406.074 194.009 406.074 195.39C406.074 196.771 404.955 197.89 403.574 197.89H394.475C393.094 197.89 391.975 196.771 391.975 195.39C391.975 194.009 393.094 192.89 394.475 192.89H403.574Z" fill="black"/>
<path d="M383.025 192.89C384.405 192.89 385.525 194.009 385.525 195.39C385.525 196.771 384.405 197.89 383.025 197.89H375.225C373.844 197.89 372.725 196.771 372.725 195.39C372.725 194.009 373.844 192.89 375.225 192.89H383.025Z" fill="black"/>
<path d="M397.595 207.97C398.975 207.97 400.095 209.089 400.095 210.47C400.095 211.851 398.975 212.97 397.595 212.97H390.305C388.924 212.97 387.805 211.851 387.805 210.47C387.805 209.089 388.924 207.97 390.305 207.97H397.595Z" fill="black"/>
<path d="M380.165 207.97C381.546 207.97 382.665 209.089 382.665 210.47C382.665 211.851 381.546 212.97 380.165 212.97H372.095C370.714 212.97 369.595 211.851 369.595 210.47C369.595 209.089 370.714 207.97 372.095 207.97H380.165Z" fill="black"/>
<path d="M391.995 220.98C393.376 220.98 394.495 222.099 394.495 223.48C394.495 224.861 393.376 225.98 391.995 225.98H379.255C377.874 225.98 376.755 224.861 376.755 223.48C376.755 222.099 377.874 220.98 379.255 220.98H391.995Z" fill="black"/>
<path d="M379.114 346.9C373.724 337.21 368.324 327.48 364.184 317.2C361.524 310.6 359.474 302.77 363.114 296.65C368.014 288.38 379.744 288.3 389.314 289.23C389.964 278.04 391.324 266.88 393.384 255.86C394.134 251.85 395.924 246.96 399.994 246.64C404.734 246.26 407.004 252.28 407.604 256.99C408.954 267.6 409.664 278.4 413.064 288.54C416.464 298.68 423.044 308.34 432.864 312.57C440.964 316.06 450.154 315.49 458.954 314.86C474.114 313.77 489.274 312.67 504.444 311.58C512.154 311.02 520.174 310.51 527.364 313.36C533.424 315.77 538.374 320.38 544.314 323.1C553.354 327.24 564.424 326.48 572.894 321.29C579.634 317.16 584.584 310.62 591.164 306.24C591.424 306.07 591.684 305.91 591.954 305.75C579.364 351.84 541.184 388.42 491.844 397.38C480.814 397.92 469.734 397.84 458.744 397.4C441.704 396.71 423.874 394.96 409.624 385.59C395.774 376.47 387.194 361.41 379.144 346.91L379.114 346.9Z" fill="black"/>
<path d="M381.274 345.64C378.274 340.24 375.264 334.83 372.474 329.32C369.684 323.81 367.084 318.51 365.224 312.81C363.704 308.15 362.584 302.59 365.164 298.08C367.184 294.55 370.784 292.83 374.634 291.99C379.424 290.95 384.464 291.25 389.304 291.72C390.704 291.85 391.734 290.46 391.804 289.22C392.444 278.41 393.714 267.64 395.694 257C396.024 255.25 396.394 253.43 397.204 251.82C397.554 251.14 397.894 250.55 398.394 250.04C398.844 249.58 399.294 249.26 399.894 249.16C401.014 248.97 401.804 249.35 402.694 250.43C403.584 251.51 404.244 253.28 404.634 254.79C405.184 256.89 405.354 259.06 405.604 261.2C405.904 263.78 406.194 266.37 406.524 268.95C407.194 274.23 407.974 279.52 409.314 284.68C411.554 293.3 415.504 301.71 421.904 308.03C425.044 311.13 428.714 313.57 432.804 315.22C437.414 317.08 442.464 317.71 447.414 317.81C452.424 317.91 457.424 317.46 462.414 317.1C468.014 316.7 473.624 316.29 479.224 315.89C484.664 315.5 490.104 315.11 495.544 314.71C500.984 314.31 506.104 313.83 511.394 313.67C516.284 313.52 521.224 313.78 525.864 315.45C530.284 317.04 534.084 320 538.024 322.47C541.964 324.94 546.264 326.94 550.924 327.73C555.554 328.51 560.274 328.38 564.844 327.28C569.414 326.18 573.544 324.12 577.224 321.32C580.994 318.46 584.304 315.07 587.854 311.95C589.544 310.47 591.284 309.06 593.214 307.89C591.994 306.95 590.764 306.01 589.544 305.07C585.304 320.5 578.114 334.99 568.444 347.74C558.824 360.41 546.674 371.2 533.014 379.33C526.064 383.47 518.714 386.95 511.094 389.65C507.154 391.05 503.154 392.25 499.104 393.25C497.024 393.77 494.924 394.23 492.824 394.64C490.334 395.13 487.714 395.04 485.184 395.11C474.124 395.41 463.014 395.23 451.964 394.53C442.314 393.92 432.634 392.7 423.454 389.53C414.574 386.46 406.854 381.3 400.474 374.42C394.164 367.62 389.274 359.67 384.694 351.64C383.554 349.64 382.434 347.63 381.314 345.61C379.754 342.8 375.434 345.32 376.994 348.13C386.324 364.92 396.634 382.5 414.584 391.22C423.764 395.68 433.794 397.74 443.884 398.83C454.614 399.99 465.494 400.23 476.284 400.21C479.174 400.21 482.054 400.17 484.944 400.09C487.824 400.01 490.784 400.08 493.624 399.54C497.884 398.73 502.104 397.7 506.254 396.47C514.404 394.04 522.344 390.8 529.864 386.82C544.574 379.05 557.794 368.38 568.494 355.63C579.204 342.86 587.444 328.13 592.614 312.28C593.254 310.33 593.844 308.36 594.384 306.37C594.924 304.38 592.594 302.41 590.714 303.55C582.634 308.45 577.184 316.83 568.454 320.79C560.394 324.44 550.824 323.93 543.134 319.65C538.914 317.3 535.114 314.26 530.784 312.12C526.194 309.85 521.224 308.87 516.134 308.66C510.924 308.45 505.714 308.96 500.524 309.33C494.924 309.73 489.314 310.14 483.714 310.54C478.114 310.94 472.504 311.35 466.904 311.75C461.614 312.13 456.314 312.63 451.014 312.77C446.184 312.9 441.314 312.67 436.664 311.25C432.604 310.01 428.954 307.79 425.894 304.86C419.494 298.75 415.884 290.43 413.854 281.95C412.624 276.81 411.894 271.58 411.274 266.34C410.954 263.68 410.664 261.02 410.334 258.36C410.074 256.26 409.814 254.17 409.144 252.15C407.904 248.42 405.474 244.62 401.234 244.14C396.994 243.66 393.954 246.83 392.424 250.45C390.584 254.83 390.154 259.87 389.454 264.53C388.634 269.97 387.974 275.44 387.484 280.92C387.234 283.67 387.034 286.43 386.874 289.18L389.374 286.68C380.334 285.81 368.554 285.6 362.324 293.49C354.224 303.73 361.514 317.96 366.334 327.97C369.634 334.82 373.334 341.48 377.024 348.12C378.584 350.93 382.904 348.41 381.344 345.6L381.274 345.64Z" fill="black"/>
<path d="M458.184 332.92C458.184 332.92 478.354 342.86 506.474 329.16C506.474 329.16 527.934 343.52 544.344 342.84C544.344 342.84 541.264 377.37 494.424 375.32C447.584 373.27 458.184 332.92 458.184 332.92Z" fill="white"/>
<path d="M507.864 327.082L507.865 327.083C507.867 327.084 507.87 327.086 507.874 327.089C507.882 327.094 507.896 327.103 507.914 327.115C507.951 327.139 508.008 327.177 508.084 327.226C508.236 327.325 508.465 327.474 508.765 327.663C509.364 328.042 510.244 328.586 511.353 329.239C513.573 330.546 516.7 332.282 520.324 333.995C527.67 337.467 536.674 340.656 544.241 340.343L547.088 340.224L546.835 343.062L544.345 342.841L546.834 343.066C546.834 343.067 546.834 343.069 546.834 343.07C546.834 343.073 546.833 343.077 546.833 343.082C546.832 343.09 546.83 343.101 546.829 343.114C546.827 343.14 546.823 343.174 546.818 343.216C546.809 343.299 546.796 343.416 546.776 343.561C546.737 343.853 546.674 344.265 546.578 344.779C546.386 345.807 546.059 347.249 545.514 348.962C544.424 352.383 542.451 356.923 538.91 361.4C531.733 370.474 518.446 378.874 494.315 377.818C482.247 377.29 473.616 374.281 467.53 369.851C461.429 365.41 458.085 359.685 456.352 354.092C454.629 348.531 454.491 343.091 454.766 339.086C454.904 337.074 455.148 335.398 455.359 334.217C455.465 333.625 455.563 333.156 455.637 332.828C455.673 332.664 455.704 332.535 455.727 332.444C455.738 332.398 455.747 332.361 455.754 332.335C455.757 332.322 455.76 332.311 455.762 332.302C455.763 332.298 455.764 332.295 455.765 332.292C455.765 332.29 455.765 332.289 455.766 332.288C455.766 332.286 455.766 332.285 458.084 332.893L455.767 332.285L456.544 329.325L459.283 330.675L459.285 330.676C459.289 330.677 459.297 330.681 459.309 330.686C459.334 330.698 459.379 330.719 459.442 330.748C459.569 330.805 459.77 330.893 460.043 331.003C460.588 331.223 461.419 331.533 462.512 331.87C464.697 332.543 467.925 333.319 472.009 333.687C480.159 334.423 491.769 333.544 505.38 326.913L506.671 326.283L507.864 327.082ZM506.295 332.013C492.326 338.532 480.261 339.453 471.56 338.668C467.086 338.264 463.514 337.411 461.039 336.648C460.7 336.544 460.382 336.44 460.084 336.341C459.958 337.211 459.835 338.253 459.754 339.427C459.505 343.052 459.645 347.828 461.127 352.611C462.599 357.361 465.388 362.108 470.473 365.809C475.573 369.522 483.182 372.325 494.533 372.822C517.242 373.816 528.915 365.976 534.988 358.298C538.072 354.399 539.797 350.434 540.749 347.445C541 346.655 541.195 345.936 541.348 345.307C533.345 344.86 524.81 341.645 518.188 338.515C514.395 336.723 511.132 334.911 508.815 333.548C507.773 332.934 506.921 332.407 506.295 332.013Z" fill="black"/>
<path d="M478.189 348.826C478.2 348.834 478.219 348.849 478.247 348.872C478.311 348.924 478.423 349.011 478.583 349.126C478.903 349.356 479.414 349.697 480.122 350.09C481.537 350.875 483.745 351.871 486.791 352.602C492.86 354.059 502.407 354.499 515.848 349.914C517.154 349.468 518.576 350.166 519.021 351.472C519.467 352.779 518.769 354.2 517.462 354.646C503.203 359.511 492.69 359.161 485.624 357.465C482.103 356.62 479.474 355.449 477.695 354.462C476.807 353.968 476.131 353.522 475.663 353.185C475.429 353.017 475.247 352.876 475.116 352.771C475.051 352.719 474.998 352.674 474.958 352.64C474.938 352.624 474.921 352.609 474.907 352.597C474.9 352.591 474.894 352.585 474.889 352.581C474.886 352.579 474.883 352.577 474.881 352.575C474.88 352.574 474.879 352.573 474.878 352.572C474.876 352.571 474.875 352.569 476.535 350.7L474.875 352.569C473.843 351.652 473.749 350.072 474.666 349.04C475.582 348.009 477.159 347.915 478.191 348.829C478.192 348.828 478.192 348.828 478.192 348.828L478.19 348.826H478.189Z" fill="black"/>
<path d="M696.167 913.301C706.279 910.74 719.656 910.157 731.56 918.764C732.679 919.573 732.929 921.136 732.121 922.255C731.312 923.373 729.749 923.625 728.63 922.816C718.405 915.423 706.766 915.774 697.395 918.148C692.727 919.33 688.708 920.997 685.854 922.371C684.43 923.056 683.304 923.665 682.54 924.098C682.159 924.315 681.869 924.487 681.678 924.602C681.583 924.66 681.513 924.703 681.468 924.731C681.446 924.745 681.429 924.755 681.42 924.76C681.417 924.762 681.414 924.763 681.413 924.764C680.25 925.509 678.704 925.171 677.959 924.008C677.215 922.846 677.554 921.3 678.716 920.555L679.947 922.475C678.722 920.563 678.717 920.554 678.718 920.553C678.719 920.553 678.72 920.553 678.721 920.552C678.723 920.551 678.725 920.549 678.728 920.547C678.733 920.544 678.741 920.539 678.749 920.534C678.767 920.523 678.792 920.507 678.824 920.488C678.886 920.449 678.975 920.394 679.089 920.325C679.318 920.186 679.649 919.99 680.074 919.749C680.923 919.267 682.149 918.605 683.686 917.865C686.755 916.388 691.094 914.586 696.167 913.301Z" fill="black"/>
<path d="M699.429 881.127C711.112 878.954 726.248 879.123 738.62 889.277C739.687 890.153 739.842 891.729 738.967 892.796C738.091 893.863 736.515 894.019 735.448 893.143C724.72 884.338 711.371 883.992 700.344 886.043C694.861 887.063 690.061 888.659 686.629 890.003C684.916 890.674 683.551 891.278 682.622 891.712C682.157 891.929 681.802 892.102 681.567 892.22C681.45 892.278 681.362 892.323 681.306 892.352C681.279 892.366 681.258 892.377 681.246 892.383C681.24 892.386 681.236 892.389 681.234 892.39C680.014 893.036 678.5 892.57 677.854 891.35C677.209 890.13 677.674 888.617 678.894 887.971L679.97 890.003C678.936 888.049 678.897 887.973 678.896 887.97C678.897 887.97 678.898 887.968 678.899 887.968C678.901 887.967 678.904 887.966 678.907 887.964C678.913 887.961 678.921 887.957 678.931 887.951C678.952 887.94 678.982 887.925 679.018 887.906C679.092 887.868 679.198 887.815 679.334 887.747C679.606 887.611 680.001 887.418 680.508 887.182C681.521 886.709 682.982 886.061 684.805 885.347C688.446 883.921 693.557 882.22 699.429 881.127Z" fill="black"/>
<path d="M700.895 847.283C713.458 844.74 729.749 844.635 743.227 855.202C744.313 856.054 744.504 857.626 743.652 858.712C742.8 859.799 741.228 859.989 740.142 859.137C728.33 849.875 713.811 849.77 701.887 852.184C695.957 853.384 690.779 855.189 687.08 856.697C685.234 857.449 683.764 858.124 682.762 858.608C682.261 858.849 681.878 859.043 681.624 859.174C681.498 859.239 681.403 859.289 681.342 859.322C681.312 859.338 681.29 859.349 681.277 859.357C681.27 859.36 681.265 859.363 681.263 859.364L681.032 859.476C679.864 859.967 678.491 859.503 677.87 858.367C677.209 857.156 677.655 855.637 678.867 854.976L680.032 857.109C678.913 855.06 678.869 854.979 678.868 854.975C678.869 854.975 678.87 854.973 678.871 854.973C678.874 854.972 678.877 854.971 678.88 854.969C678.887 854.965 678.895 854.96 678.906 854.954C678.927 854.943 678.958 854.926 678.997 854.906C679.076 854.864 679.188 854.805 679.333 854.73C679.624 854.58 680.046 854.367 680.588 854.106C681.672 853.582 683.238 852.863 685.193 852.067C689.096 850.476 694.581 848.562 700.895 847.283Z" fill="black"/>
<path d="M741.685 20.59C741.685 20.59 921.185 -24.73 1074.9 133.1C1197.05 258.51 1366.05 280.92 1430.32 284.84C1438.89 285.36 1441.99 296.41 1434.93 301.31C1365.96 349.24 1144.68 486.5 958.285 419.33C734.335 338.63 737.025 431.31 737.025 431.31L741.685 20.59Z" fill="black"/>
<path d="M1551.62 1040.15C1553 1040.15 1554.12 1041.27 1554.12 1042.65C1554.12 1044.03 1553 1045.15 1551.62 1045.15H2.5C1.11929 1045.15 0 1044.03 0 1042.65C0 1041.27 1.11929 1040.15 2.5 1040.15H1551.62Z" fill="black"/>
<path d="M956.46 1021.24V758.26C956.46 756.879 957.579 755.76 958.96 755.76C960.341 755.76 961.46 756.879 961.46 758.26V1021.24C961.46 1022.62 960.341 1023.74 958.96 1023.74C957.579 1023.74 956.46 1022.62 956.46 1021.24Z" fill="black"/>
<path d="M971.098 752.503C972.074 753.479 972.074 755.062 971.098 756.038C970.121 757.014 968.539 757.014 967.562 756.038L958.84 747.315L950.358 755.807C949.383 756.784 947.8 756.784 946.823 755.808C945.846 754.833 945.845 753.25 946.821 752.273L958.839 740.244L971.098 752.503Z" fill="black"/>
<path d="M1090.8 1021.24V594.92C1090.8 593.539 1091.92 592.42 1093.3 592.42C1094.68 592.42 1095.8 593.539 1095.8 594.92V1021.24C1095.8 1022.62 1094.68 1023.74 1093.3 1023.74C1091.92 1023.74 1090.8 1022.62 1090.8 1021.24Z" fill="black"/>
<path d="M1111.88 586.682C1112.85 587.659 1112.85 589.241 1111.88 590.218C1110.9 591.194 1109.32 591.194 1108.34 590.218L1093.11 574.985L1078.26 589.838C1077.28 590.814 1075.7 590.814 1074.72 589.838C1073.75 588.861 1073.75 587.279 1074.72 586.302L1093.11 567.915L1111.88 586.682Z" fill="black"/>
<path d="M1241.95 1021.89V497.67C1241.95 496.289 1243.07 495.17 1244.45 495.17C1245.83 495.17 1246.95 496.289 1246.95 497.67V1021.89C1246.95 1023.27 1245.83 1024.39 1244.45 1024.39C1243.07 1024.39 1241.95 1023.27 1241.95 1021.89Z" fill="black"/>
<path d="M1266.89 487.963C1267.86 488.939 1267.86 490.522 1266.89 491.498C1265.91 492.474 1264.33 492.474 1263.35 491.498L1244.22 472.355L1225.55 491.028C1224.57 492.004 1222.99 492.004 1222.01 491.028C1221.04 490.052 1221.04 488.468 1222.01 487.492L1244.22 465.284L1266.89 487.963Z" fill="black"/>
</svg>
